<svg width="89" height="52" viewBox="0 0 89 52" fill="none" xmlns="http://www.w3.org/2000/svg">
<path d="M26.1743 19.565C24.8931 19.565 23.6406 19.9424 22.5752 20.6495C21.5099 21.3566 20.6796 22.3616 20.1893 23.5374C19.699 24.7133 19.5707 26.0071 19.8206 27.2554C20.0706 28.5037 20.6876 29.6503 21.5936 30.5502C22.4996 31.4502 23.6539 32.0631 24.9105 32.3113C26.1671 32.5596 27.4697 32.4322 28.6534 31.9452C29.8371 31.4581 30.8489 30.6333 31.5607 29.5751C32.2725 28.5169 32.6525 27.2727 32.6525 26C32.6525 25.1549 32.485 24.3181 32.1595 23.5374C31.8339 22.7566 31.3568 22.0472 30.7552 21.4496C30.1536 20.8521 29.4395 20.3781 28.6535 20.0547C27.8675 19.7313 27.0251 19.5649 26.1743 19.565ZM26.1743 30.316C25.315 30.316 24.4749 30.0629 23.7604 29.5886C23.0459 29.1144 22.489 28.4403 22.1601 27.6517C21.8313 26.863 21.7452 25.9952 21.9129 25.158C22.0805 24.3208 22.4943 23.5517 23.102 22.9481C23.7096 22.3445 24.4838 21.9335 25.3267 21.7669C26.1695 21.6004 27.0431 21.6859 27.837 22.0125C28.631 22.3392 29.3096 22.8924 29.787 23.6022C30.2644 24.3119 30.5193 25.1464 30.5193 26C30.5193 27.1447 30.0615 28.2425 29.2466 29.0519C28.4318 29.8613 27.3267 30.316 26.1743 30.316ZM62.8257 2.38347e-05C55.9708 -0.00920505 49.3878 2.66199 44.5 7.43602C39.6122 2.66199 33.0291 -0.00920505 26.1743 2.38347e-05C11.7188 2.38347e-05 0 11.6407 0 26C0 40.3593 11.7188 52 26.1743 52C33.0291 52.0092 39.6122 49.338 44.5 44.564C49.3878 49.338 55.9708 52.0092 62.8257 52C77.2817 52 89 40.3593 89 26C89 11.6407 77.2817 2.38347e-05 62.8257 2.38347e-05ZM62.8257 49.972C56.2423 49.972 50.2693 47.3371 45.9108 43.0768C47.8041 40.9165 49.3253 38.4604 50.4128 35.8077H48.1811C47.2358 37.8928 45.9963 39.8335 44.5 41.5714C43.0027 39.8338 41.7625 37.893 40.8167 35.8077H38.5846C39.6721 38.4604 41.1932 40.9165 43.0866 43.0768C38.7286 47.3371 32.7551 49.972 26.1717 49.972C12.8647 49.972 2.03898 39.2184 2.03898 26C2.03898 12.7816 12.8647 2.02802 26.1717 2.02802C32.7551 2.02802 38.7286 4.66286 43.0866 8.92321C41.1932 11.0835 39.6721 13.5396 38.5846 16.1923H40.8162C41.7622 14.1069 43.0026 12.1662 44.5 10.4286C45.9971 12.1663 47.2373 14.1071 48.1832 16.1923H50.4154C49.3279 13.5396 47.8068 11.0835 45.9134 8.92321C50.272 4.66286 56.2449 2.02802 62.8283 2.02802C76.1353 2.02802 86.961 12.7816 86.961 26C86.961 39.2184 76.1327 49.972 62.8257 49.972ZM78.4559 27.2022C79.7992 26.6115 80.7389 25.3302 80.7755 23.8545C80.8137 22.2945 79.9222 20.9498 78.5146 20.2868C77.6325 19.8708 76.6939 19.7922 75.7338 19.7922H71.5182V32.2067H73.7105V27.7467H76.3719L79.0511 32.2078H81.6246L78.4559 27.2022ZM78.5653 23.7146C78.5653 24.3339 78.3067 24.9231 77.8094 25.3042C77.3247 25.676 76.7159 25.8242 76.1133 25.8393C75.5485 25.8554 73.9471 25.8393 73.7121 25.8393V21.7105H75.4396C76.2248 21.7105 77.0781 21.6798 77.7602 22.1333C78.2968 22.4921 78.5653 23.0828 78.5653 23.7146ZM25.4901 16.9811C25.4901 17.2177 25.4195 17.4489 25.2872 17.6456C25.1549 17.8423 24.9669 17.9956 24.7469 18.0861C24.5269 18.1766 24.2848 18.2003 24.0512 18.1541C23.8176 18.108 23.6031 17.9941 23.4347 17.8268C23.2663 17.6596 23.1517 17.4465 23.1052 17.2145C23.0588 16.9825 23.0826 16.742 23.1737 16.5234C23.2649 16.3049 23.4192 16.1181 23.6172 15.9867C23.8152 15.8553 24.048 15.7851 24.2861 15.7851C24.6054 15.7851 24.9117 15.9111 25.1375 16.1354C25.3633 16.3597 25.4901 16.6639 25.4901 16.9811ZM29.266 16.9811C29.266 17.2177 29.1954 17.4489 29.0631 17.6456C28.9308 17.8423 28.7428 17.9956 28.5228 18.0861C28.3028 18.1766 28.0607 18.2003 27.8271 18.1541C27.5936 18.108 27.379 17.9941 27.2106 17.8268C27.0423 17.6596 26.9276 17.4465 26.8811 17.2145C26.8347 16.9825 26.8585 16.742 26.9496 16.5234C27.0408 16.3049 27.1951 16.1181 27.3931 15.9867C27.5911 15.8553 27.8239 15.7851 28.062 15.7851C28.2202 15.7851 28.3768 15.8159 28.5229 15.876C28.6691 15.9361 28.8019 16.0242 28.9137 16.1352C29.0256 16.2463 29.1143 16.3782 29.1748 16.5233C29.2354 16.6685 29.2665 16.824 29.2665 16.9811H29.266ZM42.1438 27.2022C43.487 26.6115 44.4267 25.3302 44.4634 23.8545C44.5016 22.2945 43.6101 20.9498 42.2024 20.2868C41.3203 19.8708 40.3817 19.7922 39.4217 19.7922H35.2081V32.2067H37.402V27.7467H40.0635L42.7427 32.2078H45.3161L42.1438 27.2022ZM42.2532 23.7146C42.2532 24.3339 41.9946 24.9231 41.4973 25.3042C41.0125 25.676 40.4037 25.8242 39.8012 25.8393C39.2363 25.8554 37.635 25.8393 37.4 25.8393V21.7105H39.1275C39.9127 21.7105 40.766 21.6798 41.4481 22.1333C41.9873 22.4921 42.2553 23.0828 42.2553 23.7146H42.2532ZM56.892 26.7909C56.6334 26.3795 56.2795 26.0355 55.8597 25.7878C56.2429 25.5549 56.5643 25.2339 56.7967 24.8518C57.0726 24.3916 57.2118 23.8586 57.2118 23.269C57.2118 22.1848 56.8297 21.3231 56.0758 20.708C55.3325 20.1011 54.3143 19.7933 53.0485 19.7933H47.9027V32.2088H53.115C54.3907 32.2088 55.4262 31.8968 56.1915 31.2785C56.9679 30.6545 57.3615 29.7404 57.3615 28.5683C57.3615 27.8772 57.204 27.2792 56.8941 26.7909H56.892ZM54.6677 29.7466C54.3096 30.0524 53.7866 30.2078 53.1129 30.2078H50.0301V26.8798H52.9805C53.7746 26.8798 54.3504 27.0291 54.6928 27.3239C55.0352 27.6188 55.1969 28.0129 55.1969 28.5366C55.1985 29.0467 55.0257 29.4429 54.6698 29.7466H54.6677ZM54.5855 24.3958C54.2777 24.6917 53.7767 24.842 53.0967 24.842H50.0301V21.774H53.0464C53.7217 21.774 54.2327 21.9081 54.5645 22.1728C54.8964 22.4375 55.0467 22.789 55.0467 23.2648C55.0488 23.7286 54.898 24.0978 54.5876 24.3958H54.5855ZM62.4655 21.8613V24.9491H67.5915V27.0176H62.4655V30.122H68.6385V32.2072H60.3355V19.7928H68.6406V21.8613H62.4655ZM13.1097 26L19.359 32.2057H16.5369L10.966 26.715V32.2062H8.77206V19.7917H10.966V25.3131L16.538 19.7917H19.3601L13.1097 26Z" fill="black"/>
</svg>
