<svg width="140" height="47" viewBox="0 0 140 47" fill="none" xmlns="http://www.w3.org/2000/svg">
<rect width="140" height="46.1856" fill="#E41B15"/>
<path d="M38.2511 22.9601L33.1887 30.7048L26.32 20.0352C26.0126 19.5569 25.9071 18.9763 26.0265 18.4204C26.1459 17.8645 26.4805 17.3784 26.9573 17.0685C27.1928 16.9157 27.4563 16.8109 27.7325 16.7603C28.0087 16.7097 28.2922 16.7141 28.5666 16.7735C28.8411 16.8329 29.1011 16.9459 29.3317 17.1061C29.5623 17.2664 29.7589 17.4706 29.9102 17.7072L33.1923 22.8215L36.4542 17.7166L36.4686 17.6963C36.4996 17.6502 36.5314 17.6083 36.5595 17.5708L36.6014 17.5152C36.6259 17.4853 36.6517 17.4564 36.6786 17.4286L36.7118 17.3911L36.745 17.355C36.758 17.342 36.7724 17.329 36.7912 17.3124L36.8381 17.2691C36.8633 17.246 36.885 17.2258 36.9066 17.2085L36.9651 17.1652C37.0077 17.1327 37.0445 17.1046 37.0899 17.075L37.1087 17.0627L37.1448 17.0411C37.1845 17.018 37.2227 16.9942 37.2639 16.9725L37.3108 16.9494L37.3512 16.9307C37.3837 16.9155 37.4161 16.9004 37.4479 16.8874C37.4811 16.8729 37.5135 16.8621 37.5576 16.8462C37.5922 16.8347 37.6153 16.826 37.6391 16.8195C38.1396 16.6689 38.678 16.7069 39.1524 16.9263L39.1892 16.9444C39.2506 16.9718 39.309 17.0043 39.3653 17.0411L39.4014 17.0613L39.4194 17.0728C39.4663 17.1039 39.5024 17.1306 39.5479 17.1652L39.6034 17.2071C39.6301 17.2287 39.654 17.2504 39.6828 17.2771L39.7312 17.3211L39.7658 17.3536L39.8055 17.3969L39.843 17.4387C39.8705 17.4676 39.8921 17.4914 39.9109 17.5152L39.9556 17.5744C39.9881 17.6177 40.0155 17.6545 40.0465 17.7007L40.0552 17.7129L43.3243 22.8222L46.602 17.7072C46.7534 17.4707 46.9501 17.2665 47.1807 17.1063C47.4113 16.9462 47.6713 16.8332 47.9457 16.7738C48.2201 16.7144 48.5036 16.7099 48.7798 16.7605C49.0559 16.8111 49.3194 16.9158 49.555 17.0685C50.0314 17.3785 50.3657 17.8644 50.4851 18.4201C50.6045 18.9758 50.4992 19.5562 50.1922 20.0345L43.3243 30.7055L38.2504 22.9601H38.2511ZM57.8366 16.5742C53.7391 16.5742 50.4058 19.7877 50.4058 23.7373C50.4058 27.6883 53.7398 30.9033 57.8366 30.9033C61.9342 30.9033 65.2675 27.6883 65.2675 23.7373C65.2675 19.7877 61.9342 16.5742 57.8366 16.5742ZM57.8366 27.2596C56.0181 27.2596 54.5373 25.6792 54.5373 23.738C54.5373 21.7968 56.0174 20.2163 57.8366 20.2163C59.6574 20.2163 61.1382 21.7968 61.1382 23.738C61.1382 25.6792 59.6574 27.2596 57.8366 27.2596ZM66.4871 21.8321V30.6117H70.7931V21.555C70.7931 21.187 71.0645 20.6032 71.7933 20.6032L73.1695 20.601L74.589 20.5988V16.8628H71.548C69.1038 16.8628 66.4871 18.8604 66.4871 21.8321ZM81.9332 20.6226C82.4327 20.6219 82.9116 20.4233 83.265 20.0703C83.6184 19.7173 83.8176 19.2386 83.8189 18.7391C83.817 18.2405 83.6174 17.7629 83.2639 17.4112C82.9104 17.0595 82.4319 16.8623 81.9332 16.8628H79.9285L79.9278 14.9995C79.9259 14.4652 79.712 13.9535 79.3332 13.5767C78.9543 13.1999 78.4415 12.9888 77.9072 12.9897C77.3731 12.9892 76.8606 13.2004 76.4821 13.5772C76.1035 13.954 75.8899 14.4655 75.888 14.9995V26.0083L75.8945 26.302H75.8995C76.0727 29.1316 78.4087 30.6103 80.6667 30.6103H83.707V26.8793L83.4141 26.875C83.2762 26.8736 81.0478 26.87 80.9128 26.87C80.1638 26.87 79.9119 26.1267 79.9119 25.7882V20.6248C80.4748 20.6226 81.195 20.6226 81.9332 20.6226ZM112.228 19.1389C111.299 17.9699 109.588 16.5771 106.718 16.5771C103.85 16.5771 102.141 17.9699 101.211 19.1389C99.999 20.6623 99.5675 22.4585 99.5675 23.6305V30.611H103.879V23.7719C103.879 22.2103 104.854 20.627 106.718 20.6234C108.585 20.627 109.562 22.2103 109.562 23.7719V30.611H113.872V23.6305C113.872 22.4578 113.44 20.6623 112.228 19.1389ZM91.2952 16.5742C87.3052 16.5742 84.0592 19.7877 84.0592 23.7373C84.0592 27.6883 87.3052 30.9033 91.2952 30.9033C94.0865 30.9033 96.6585 29.2817 97.8478 26.7733L98.0484 26.3518H93.9458L93.8578 26.4492C93.297 27.0706 92.2911 27.4725 91.2945 27.4725C89.7675 27.4725 88.615 26.5618 88.1791 25.0261H98.4164L98.454 24.7736C98.5045 24.4315 98.5305 24.0829 98.5305 23.7373C98.5305 19.7877 95.2852 16.5742 91.2952 16.5742ZM88.2895 21.9988C88.6504 20.798 89.8324 20.0042 91.2952 20.0042C92.745 20.0042 93.9509 20.8153 94.3001 21.9988H88.2895Z" fill="white"/>
</svg>
