<svg width="641" height="311" fill="none" xmlns="http://www.w3.org/2000/svg"><path d="M36.639 49h-9.145V33.129H12.921V49H3.835V9.234h9.086V25.4h14.573V9.234h9.145V49Zm16.257 0h-8.614V19.087h8.614V49ZM52.13 6.874c.984.983 1.475 2.163 1.475 3.54 0 1.377-.491 2.557-1.475 3.54-.983.983-2.163 1.475-3.54 1.475-1.376 0-2.556-.492-3.54-1.475-.983-.983-1.475-2.163-1.475-3.54 0-1.377.492-2.557 1.475-3.54.984-.983 2.164-1.475 3.54-1.475 1.377 0 2.557.492 3.54 1.475Zm11.645 49.619H56.34l5.959-15.399h9.499l-8.024 15.399ZM102.357 49h-9.086V9.234h9.086V49Zm13.494-25.547h-7.434l5.959-15.399h9.499l-8.024 15.399ZM169.93 49h-8.614V31.241c0-1.691-.334-3.029-1.003-4.012-.669-.983-1.632-1.475-2.891-1.475-1.337 0-2.537.55-3.599 1.652-1.023 1.062-1.534 2.99-1.534 5.782V49h-8.614V31.241c0-1.691-.334-3.029-1.003-4.012-.669-.983-1.632-1.475-2.891-1.475-1.337 0-2.537.55-3.599 1.652-1.023 1.062-1.534 2.99-1.534 5.782V49h-8.614V19.087h8.614v4.661c1.652-3.304 4.464-4.956 8.437-4.956 4.209 0 7.001 1.888 8.378 5.664.669-1.77 1.79-3.147 3.363-4.13 1.573-1.023 3.422-1.534 5.546-1.534 2.95 0 5.271.944 6.962 2.832 1.731 1.849 2.596 4.582 2.596 8.201V49Zm30.053 0h-9.086l3.422-39.766h9.971l5.546 14.396c.944 2.4 1.751 4.602 2.419 6.608.669 2.006 1.102 3.422 1.298 4.248l.295 1.18c.63-2.596 2.006-6.608 4.13-12.036l5.605-14.396h9.971L237.684 49h-9.086l-1.475-15.399-.767-11.623c-1.022 2.95-2.438 6.824-4.248 11.623l-5.605 14.986h-5.369l-5.546-14.986a179.817 179.817 0 0 1-2.301-6.549c-.629-1.927-1.042-3.265-1.239-4.012l-.295-1.062c0 2.793-.177 6.667-.531 11.623L199.983 49Zm55.14-5.9c1.22 0 2.164-.374 2.832-1.121.669-.747 1.003-1.77 1.003-3.068v-2.183h-2.773c-1.455 0-2.576.315-3.363.944-.786.63-1.18 1.436-1.18 2.419 0 2.006 1.161 3.009 3.481 3.009Zm4.248 2.242c-1.258 2.557-3.736 3.835-7.434 3.835-2.91 0-5.192-.826-6.844-2.478-1.612-1.652-2.419-3.717-2.419-6.195 0-2.871 1.043-5.094 3.127-6.667 2.124-1.613 5.251-2.419 9.381-2.419h3.776v-2.065c0-2.517-1.671-3.776-5.015-3.776-3.225 0-6.214.905-8.968 2.714v-7.729c2.36-1.337 5.763-2.006 10.207-2.006 4.248 0 7.415.924 9.499 2.773 2.085 1.81 3.127 4.641 3.127 8.496V49h-8.437v-3.658ZM283.126 49h-8.614l.059-29.913h8.555v5.546c.551-1.73 1.456-3.107 2.714-4.13 1.298-1.062 2.793-1.593 4.484-1.593.944 0 1.692.079 2.242.236v8.142c-.944-.433-2.025-.649-3.245-.649-1.848 0-3.343.688-4.484 2.065-1.14 1.337-1.711 3.127-1.711 5.369V49Zm22.191 0h-8.614V19.087h8.614V49Zm-.767-42.126c.983.983 1.475 2.163 1.475 3.54 0 1.377-.492 2.557-1.475 3.54-.983.983-2.163 1.475-3.54 1.475-1.377 0-2.557-.492-3.54-1.475-.983-.983-1.475-2.163-1.475-3.54 0-1.377.492-2.557 1.475-3.54.983-.983 2.163-1.475 3.54-1.475 1.377 0 2.557.492 3.54 1.475ZM323.688 43.1c1.219 0 2.163-.374 2.832-1.121.668-.747 1.003-1.77 1.003-3.068v-2.183h-2.773c-1.456 0-2.577.315-3.363.944-.787.63-1.18 1.436-1.18 2.419 0 2.006 1.16 3.009 3.481 3.009Zm4.248 2.242c-1.259 2.557-3.737 3.835-7.434 3.835-2.911 0-5.192-.826-6.844-2.478-1.613-1.652-2.419-3.717-2.419-6.195 0-2.871 1.042-5.094 3.127-6.667 2.124-1.613 5.251-2.419 9.381-2.419h3.776v-2.065c0-2.517-1.672-3.776-5.015-3.776-3.226 0-6.215.905-8.968 2.714v-7.729c2.36-1.337 5.762-2.006 10.207-2.006 4.248 0 7.414.924 9.499 2.773 2.084 1.81 3.127 4.641 3.127 8.496V49h-8.437v-3.658Zm23.755-24.721c1.022.983 1.534 2.203 1.534 3.658s-.512 2.694-1.534 3.717c-.984.983-2.203 1.475-3.658 1.475-1.456 0-2.695-.492-3.717-1.475-.984-1.023-1.475-2.262-1.475-3.717s.491-2.675 1.475-3.658c1.022-1.023 2.261-1.534 3.717-1.534 1.455 0 2.674.511 3.658 1.534Zm0 19.529c1.022.983 1.534 2.203 1.534 3.658s-.512 2.694-1.534 3.717c-.984.983-2.203 1.475-3.658 1.475-1.456 0-2.695-.492-3.717-1.475-.984-1.023-1.475-2.262-1.475-3.717s.491-2.675 1.475-3.658c1.022-1.023 2.261-1.534 3.717-1.534 1.455 0 2.674.511 3.658 1.534Z" fill="#33EFAB"/><path d="M15.511 145H6.425v-39.766h9.086V145Zm29.955-14.868c0 2.399.63 4.346 1.888 5.841 1.259 1.455 2.793 2.183 4.602 2.183 1.967 0 3.56-.767 4.779-2.301 1.22-1.534 1.829-3.579 1.829-6.136 0-2.478-.669-4.405-2.006-5.782-1.298-1.377-2.852-2.065-4.661-2.065-1.81 0-3.343.728-4.602 2.183-1.22 1.455-1.83 3.481-1.83 6.077ZM67.178 145h-8.614v-4.661c-2.006 3.343-4.995 5.015-8.968 5.015-3.894 0-7.021-1.514-9.381-4.543-2.32-3.029-3.481-6.647-3.481-10.856 0-4.72 1.22-8.437 3.658-11.151 2.439-2.714 5.526-4.071 9.263-4.071 3.894 0 6.864 1.652 8.909 4.956v-16.402h8.614V145Zm30.581-1.711c-2.045 1.337-5.172 2.006-9.38 2.006-4.917 0-8.752-1.416-11.506-4.248-2.714-2.871-4.07-6.549-4.07-11.033 0-4.759 1.317-8.476 3.952-11.151 2.675-2.714 5.96-4.071 9.853-4.071 4.012 0 7.179 1.18 9.5 3.54 2.32 2.321 3.48 5.802 3.48 10.443 0 .905-.157 2.458-.472 4.661H81.534c.59 1.652 1.613 2.93 3.068 3.835 1.456.905 3.206 1.357 5.251 1.357 3.029 0 5.664-.846 7.906-2.537v7.198Zm-10.797-21.948c-1.376 0-2.596.511-3.658 1.534-1.062.983-1.77 2.458-2.124 4.425h10.384v-.708c-.275-3.501-1.809-5.251-4.602-5.251Zm39.188 14.632c0 2.95-1.062 5.231-3.186 6.844-2.124 1.613-4.936 2.419-8.437 2.419-3.618 0-6.647-.61-9.086-1.829v-7.67c2.714 1.888 5.586 2.832 8.614 2.832 2.164 0 3.245-.688 3.245-2.065 0-.354-.098-.688-.295-1.003-.196-.315-.531-.61-1.003-.885a9.908 9.908 0 0 0-1.298-.649 30.535 30.535 0 0 0-1.711-.767 31.222 31.222 0 0 1-1.711-.767c-3.972-1.888-5.959-4.72-5.959-8.496 0-2.911 1.102-5.172 3.304-6.785 2.242-1.613 5.015-2.419 8.319-2.419 3.068 0 5.625.413 7.67 1.239v7.375c-2.084-1.219-4.523-1.829-7.316-1.829-1.022 0-1.809.216-2.36.649-.55.393-.826.905-.826 1.534 0 .354.099.688.295 1.003.197.315.512.61.944.885.472.275.905.531 1.298.767.433.197 1.003.452 1.711.767a20.2 20.2 0 0 1 1.77.826c1.81.944 3.265 2.045 4.366 3.304 1.102 1.219 1.652 2.793 1.652 4.72ZM140.343 145h-8.614v-29.913h8.614V145Zm-.767-42.126c.983.983 1.475 2.163 1.475 3.54 0 1.377-.492 2.557-1.475 3.54-.984.983-2.164 1.475-3.54 1.475-1.377 0-2.557-.492-3.54-1.475-.984-.983-1.475-2.163-1.475-3.54 0-1.377.491-2.557 1.475-3.54.983-.983 2.163-1.475 3.54-1.475 1.376 0 2.556.492 3.54 1.475Zm35.893 39.235c0 4.799-1.435 8.398-4.307 10.797-2.871 2.439-6.47 3.658-10.797 3.658-4.208 0-7.886-.747-11.033-2.242v-8.791c2.754 2.203 6.136 3.304 10.148 3.304 2.596 0 4.484-.551 5.664-1.652 1.18-1.101 1.77-2.832 1.77-5.192v-2.006c-1.73 2.675-4.484 4.012-8.26 4.012-3.304 0-6.155-1.219-8.555-3.658-2.36-2.439-3.54-6.057-3.54-10.856 0-4.248 1.141-7.749 3.422-10.502 2.321-2.793 5.35-4.189 9.086-4.189 3.54 0 6.156 1.416 7.847 4.248v-3.953h8.555v27.022Zm-19.942-12.567c0 2.478.472 4.366 1.416 5.664s2.301 1.947 4.071 1.947c1.849 0 3.285-.688 4.307-2.065 1.062-1.416 1.593-3.107 1.593-5.074 0-5.349-1.947-8.024-5.841-8.024-1.73 0-3.087.669-4.071 2.006-.983 1.337-1.475 3.186-1.475 5.546ZM209.687 145h-8.614v-17.818c0-1.77-.413-3.107-1.239-4.012-.826-.944-1.986-1.416-3.481-1.416-1.573 0-2.891.629-3.953 1.888-1.023 1.219-1.534 3.068-1.534 5.546V145h-8.614v-29.913h8.614v5.074a8.66 8.66 0 0 1 3.422-3.894c1.573-.983 3.442-1.475 5.605-1.475 3.068 0 5.467.924 7.198 2.773 1.731 1.809 2.596 4.484 2.596 8.024V145Zm32.514-5.9c1.219 0 2.163-.374 2.832-1.121.668-.747 1.003-1.77 1.003-3.068v-2.183h-2.773c-1.456 0-2.577.315-3.363.944-.787.629-1.18 1.436-1.18 2.419 0 2.006 1.16 3.009 3.481 3.009Zm4.248 2.242c-1.259 2.557-3.737 3.835-7.434 3.835-2.911 0-5.192-.826-6.844-2.478-1.613-1.652-2.419-3.717-2.419-6.195 0-2.871 1.042-5.094 3.127-6.667 2.124-1.613 5.251-2.419 9.381-2.419h3.776v-2.065c0-2.517-1.672-3.776-5.015-3.776-3.226 0-6.215.905-8.968 2.714v-7.729c2.36-1.337 5.762-2.006 10.207-2.006 4.248 0 7.414.924 9.499 2.773 2.084 1.809 3.127 4.641 3.127 8.496V145h-8.437v-3.658ZM289.083 145h-8.614v-17.818c0-1.77-.413-3.107-1.239-4.012-.826-.944-1.986-1.416-3.481-1.416-1.573 0-2.891.629-3.953 1.888-1.022 1.219-1.534 3.068-1.534 5.546V145h-8.614v-29.913h8.614v5.074a8.667 8.667 0 0 1 3.422-3.894c1.574-.983 3.442-1.475 5.605-1.475 3.068 0 5.468.924 7.198 2.773 1.731 1.809 2.596 4.484 2.596 8.024V145Zm14.047-14.868c0 2.399.629 4.346 1.888 5.841 1.259 1.455 2.793 2.183 4.602 2.183 1.967 0 3.56-.767 4.779-2.301 1.219-1.534 1.829-3.579 1.829-6.136 0-2.478-.669-4.405-2.006-5.782-1.298-1.377-2.852-2.065-4.661-2.065-1.809 0-3.343.728-4.602 2.183-1.219 1.455-1.829 3.481-1.829 6.077ZM324.842 145h-8.614v-4.661c-2.006 3.343-4.995 5.015-8.968 5.015-3.894 0-7.021-1.514-9.381-4.543-2.321-3.029-3.481-6.647-3.481-10.856 0-4.72 1.219-8.437 3.658-11.151 2.439-2.714 5.526-4.071 9.263-4.071 3.894 0 6.864 1.652 8.909 4.956v-16.402h8.614V145Zm30.463 0h-8.614v-41.713h8.614v16.402c2.046-3.304 5.015-4.956 8.909-4.956 3.737 0 6.825 1.357 9.263 4.071 2.439 2.714 3.658 6.431 3.658 11.151 0 4.209-1.18 7.827-3.54 10.856-2.32 3.029-5.428 4.543-9.322 4.543-3.972 0-6.962-1.672-8.968-5.015V145Zm0-15.281c0 2.557.61 4.602 1.829 6.136 1.22 1.534 2.813 2.301 4.779 2.301 1.81 0 3.344-.728 4.602-2.183 1.259-1.495 1.888-3.442 1.888-5.841 0-2.596-.629-4.622-1.888-6.077-1.219-1.455-2.733-2.183-4.543-2.183-1.809 0-3.382.688-4.72 2.065-1.298 1.377-1.947 3.304-1.947 5.782ZM409.9 145h-8.614v-4.779c-1.574 3.343-4.602 5.015-9.086 5.015-3.068 0-5.468-.846-7.198-2.537-1.692-1.731-2.537-4.268-2.537-7.611v-20.001h8.614v18.054c0 3.501 1.534 5.251 4.602 5.251 3.736 0 5.605-2.498 5.605-7.493v-15.812h8.614V145Zm15.993 0h-8.614v-29.913h8.614V145Zm-.767-42.126c.984.983 1.475 2.163 1.475 3.54 0 1.377-.491 2.557-1.475 3.54-.983.983-2.163 1.475-3.54 1.475-1.376 0-2.556-.492-3.54-1.475-.983-.983-1.475-2.163-1.475-3.54 0-1.377.492-2.557 1.475-3.54.984-.983 2.164-1.475 3.54-1.475 1.377 0 2.557.492 3.54 1.475ZM442.199 145h-8.614v-41.713h8.614V145Zm14.654-14.868c0 2.399.629 4.346 1.888 5.841 1.258 1.455 2.792 2.183 4.602 2.183 1.966 0 3.559-.767 4.779-2.301 1.219-1.534 1.829-3.579 1.829-6.136 0-2.478-.669-4.405-2.006-5.782-1.298-1.377-2.852-2.065-4.661-2.065-1.81 0-3.344.728-4.602 2.183-1.22 1.455-1.829 3.481-1.829 6.077ZM478.565 145h-8.614v-4.661c-2.006 3.343-4.996 5.015-8.968 5.015-3.894 0-7.021-1.514-9.381-4.543-2.321-3.029-3.481-6.647-3.481-10.856 0-4.72 1.219-8.437 3.658-11.151 2.438-2.714 5.526-4.071 9.263-4.071 3.894 0 6.863 1.652 8.909 4.956v-16.402h8.614V145ZM12.797 201.132c0 2.399.63 4.346 1.888 5.841 1.259 1.455 2.793 2.183 4.602 2.183 1.967 0 3.56-.767 4.779-2.301 1.22-1.534 1.829-3.579 1.829-6.136 0-2.478-.669-4.405-2.006-5.782-1.298-1.377-2.852-2.065-4.661-2.065-1.81 0-3.343.728-4.602 2.183-1.22 1.455-1.829 3.481-1.829 6.077ZM34.509 216h-8.614v-4.661c-2.006 3.343-4.995 5.015-8.968 5.015-3.894 0-7.021-1.514-9.381-4.543-2.32-3.029-3.481-6.647-3.481-10.856 0-4.72 1.22-8.437 3.658-11.151 2.439-2.714 5.526-4.071 9.263-4.071 3.894 0 6.864 1.652 8.909 4.956v-16.402h8.614V216Zm16.008 0h-8.614v-29.913h8.614V216Zm-.767-42.126c.984.983 1.475 2.163 1.475 3.54 0 1.377-.491 2.557-1.475 3.54-.983.983-2.163 1.475-3.54 1.475-1.376 0-2.556-.492-3.54-1.475-.983-.983-1.475-2.163-1.475-3.54 0-1.377.492-2.557 1.475-3.54.984-.983 2.164-1.475 3.54-1.475 1.377 0 2.557.492 3.54 1.475Zm35.894 39.235c0 4.799-1.436 8.398-4.307 10.797-2.871 2.439-6.47 3.658-10.797 3.658-4.209 0-7.886-.747-11.033-2.242v-8.791c2.753 2.203 6.136 3.304 10.148 3.304 2.596 0 4.484-.551 5.664-1.652 1.18-1.101 1.77-2.832 1.77-5.192v-2.006c-1.73 2.675-4.484 4.012-8.26 4.012-3.304 0-6.156-1.219-8.555-3.658-2.36-2.439-3.54-6.057-3.54-10.856 0-4.248 1.14-7.749 3.422-10.502 2.32-2.793 5.35-4.189 9.086-4.189 3.54 0 6.156 1.416 7.847 4.248v-3.953h8.555v27.022Zm-19.942-12.567c0 2.478.472 4.366 1.416 5.664s2.301 1.947 4.071 1.947c1.849 0 3.284-.688 4.307-2.065 1.062-1.416 1.593-3.107 1.593-5.074 0-5.349-1.947-8.024-5.841-8.024-1.73 0-3.088.669-4.071 2.006-.983 1.337-1.475 3.186-1.475 5.546ZM101.336 216h-8.614v-29.913h8.614V216Zm-.767-42.126c.983.983 1.475 2.163 1.475 3.54 0 1.377-.492 2.557-1.475 3.54-.984.983-2.164 1.475-3.54 1.475-1.377 0-2.557-.492-3.54-1.475-.984-.983-1.475-2.163-1.475-3.54 0-1.377.491-2.557 1.475-3.54.983-.983 2.163-1.475 3.54-1.475 1.376 0 2.556.492 3.54 1.475Zm25.627 41.477c-1.455.629-3.422.944-5.9.944-6.804 0-10.207-3.402-10.207-10.207V192.4h-4.307v-6.313h4.307v-7.08h8.614v7.08h6.962v6.313h-6.962v13.747c0 1.062.295 1.868.885 2.419.63.551 1.436.826 2.419.826 1.574 0 2.97-.393 4.189-1.18v7.139Zm16.269-5.251c1.22 0 2.164-.374 2.832-1.121.669-.747 1.003-1.77 1.003-3.068v-2.183h-2.773c-1.455 0-2.576.315-3.363.944-.786.629-1.18 1.436-1.18 2.419 0 2.006 1.161 3.009 3.481 3.009Zm4.248 2.242c-1.258 2.557-3.736 3.835-7.434 3.835-2.91 0-5.192-.826-6.844-2.478-1.612-1.652-2.419-3.717-2.419-6.195 0-2.871 1.043-5.094 3.127-6.667 2.124-1.613 5.251-2.419 9.381-2.419h3.776v-2.065c0-2.517-1.671-3.776-5.015-3.776-3.225 0-6.214.905-8.968 2.714v-7.729c2.36-1.337 5.763-2.006 10.207-2.006 4.248 0 7.415.924 9.499 2.773 2.085 1.809 3.127 4.641 3.127 8.496V216h-8.437v-3.658ZM170.822 216h-8.614v-41.713h8.614V216Zm30.761 11.033h-8.614v-40.946h8.614v4.602c2.084-3.304 5.093-4.956 9.027-4.956 3.854 0 6.942 1.377 9.263 4.13 2.36 2.714 3.54 6.411 3.54 11.092 0 4.445-1.141 8.122-3.422 11.033-2.242 2.911-5.369 4.366-9.381 4.366-4.052 0-7.061-1.593-9.027-4.779v15.458Zm0-26.314c0 2.557.629 4.602 1.888 6.136 1.258 1.534 2.871 2.301 4.838 2.301 1.888 0 3.422-.708 4.602-2.124 1.18-1.455 1.77-3.422 1.77-5.9 0-2.714-.61-4.759-1.829-6.136-1.18-1.416-2.695-2.124-4.543-2.124-1.81 0-3.383.688-4.72 2.065-1.338 1.377-2.006 3.304-2.006 5.782ZM237.592 216h-8.614l.059-29.913h8.555v5.546c.551-1.731 1.455-3.107 2.714-4.13 1.298-1.062 2.793-1.593 4.484-1.593.944 0 1.691.079 2.242.236v8.142c-.944-.433-2.026-.649-3.245-.649-1.849 0-3.343.688-4.484 2.065-1.141 1.337-1.711 3.127-1.711 5.369V216Zm41.13-15.104c0 4.523-1.298 8.26-3.894 11.21-2.557 2.911-6.136 4.366-10.738 4.366-4.681 0-8.299-1.396-10.856-4.189-2.557-2.832-3.835-6.451-3.835-10.856 0-4.602 1.337-8.378 4.012-11.328 2.675-2.989 6.234-4.484 10.679-4.484 4.641 0 8.24 1.436 10.797 4.307 2.557 2.871 3.835 6.529 3.835 10.974Zm-18.939-6.077c-.944 1.613-1.416 3.697-1.416 6.254 0 2.557.472 4.661 1.416 6.313.983 1.613 2.439 2.419 4.366 2.419 1.888 0 3.284-.787 4.189-2.36.944-1.613 1.416-3.697 1.416-6.254 0-5.861-1.908-8.791-5.723-8.791-1.888 0-3.304.806-4.248 2.419Zm31.824 6.313c0 2.399.629 4.346 1.888 5.841 1.258 1.455 2.792 2.183 4.602 2.183 1.966 0 3.559-.767 4.779-2.301 1.219-1.534 1.829-3.579 1.829-6.136 0-2.478-.669-4.405-2.006-5.782-1.298-1.377-2.852-2.065-4.661-2.065-1.81 0-3.344.728-4.602 2.183-1.22 1.455-1.829 3.481-1.829 6.077ZM313.319 216h-8.614v-4.661c-2.006 3.343-4.996 5.015-8.968 5.015-3.894 0-7.021-1.514-9.381-4.543-2.321-3.029-3.481-6.647-3.481-10.856 0-4.72 1.219-8.437 3.658-11.151 2.438-2.714 5.526-4.071 9.263-4.071 3.894 0 6.863 1.652 8.909 4.956v-16.402h8.614V216Zm34.239 0h-8.614v-4.779c-1.573 3.343-4.602 5.015-9.086 5.015-3.068 0-5.467-.846-7.198-2.537-1.691-1.731-2.537-4.268-2.537-7.611v-20.001h8.614v18.054c0 3.501 1.534 5.251 4.602 5.251 3.737 0 5.605-2.498 5.605-7.493v-15.812h8.614V216Zm29.446-1.416c-2.321 1.259-5.114 1.888-8.378 1.888-4.484 0-8.182-1.416-11.092-4.248-2.911-2.871-4.366-6.569-4.366-11.092.078-4.484 1.534-8.181 4.366-11.092 2.832-2.95 6.706-4.425 11.623-4.425 3.028 0 5.644.57 7.847 1.711v7.375c-2.085-1.298-4.406-1.947-6.962-1.947-2.4 0-4.347.728-5.841 2.183-1.495 1.416-2.262 3.481-2.301 6.195.157 2.635.944 4.681 2.36 6.136s3.284 2.183 5.605 2.183c2.478 0 4.857-.688 7.139-2.065v7.198Zm22.759.767c-1.456.629-3.422.944-5.9.944-6.805 0-10.207-3.402-10.207-10.207V192.4h-4.307v-6.313h4.307v-7.08h8.614v7.08h6.962v6.313h-6.962v13.747c0 1.062.295 1.868.885 2.419.629.551 1.435.826 2.419.826 1.573 0 2.969-.393 4.189-1.18v7.139Zm25.709-8.378c0 2.95-1.062 5.231-3.186 6.844-2.124 1.613-4.937 2.419-8.437 2.419-3.619 0-6.648-.61-9.086-1.829v-7.67c2.714 1.888 5.585 2.832 8.614 2.832 2.163 0 3.245-.688 3.245-2.065 0-.354-.099-.688-.295-1.003-.197-.315-.531-.61-1.003-.885a9.97 9.97 0 0 0-1.298-.649 31.222 31.222 0 0 0-1.711-.767 30.535 30.535 0 0 1-1.711-.767c-3.973-1.888-5.959-4.72-5.959-8.496 0-2.911 1.101-5.172 3.304-6.785 2.242-1.613 5.015-2.419 8.319-2.419 3.068 0 5.624.413 7.67 1.239v7.375c-2.085-1.219-4.524-1.829-7.316-1.829-1.023 0-1.81.216-2.36.649-.551.393-.826.905-.826 1.534 0 .354.098.688.295 1.003.196.315.511.61.944.885.472.275.904.531 1.298.767.432.197 1.003.452 1.711.767.747.315 1.337.59 1.77.826 1.809.944 3.264 2.045 4.366 3.304 1.101 1.219 1.652 2.793 1.652 4.72Zm36.317-14.573h-5.605V216h-8.555v-23.6h-3.894v-6.313h3.894v-1.121c0-3.619 1.003-6.431 3.009-8.437 2.045-2.006 4.858-3.009 8.437-3.009 1.849 0 3.343.197 4.484.59v6.962c-1.101-.433-2.124-.649-3.068-.649-1.455 0-2.537.334-3.245 1.003-.708.669-1.062 1.849-1.062 3.54v1.121h5.605v6.313Zm31.96 8.496c0 4.523-1.298 8.26-3.894 11.21-2.556 2.911-6.136 4.366-10.738 4.366-4.68 0-8.299-1.396-10.856-4.189-2.556-2.832-3.835-6.451-3.835-10.856 0-4.602 1.338-8.378 4.012-11.328 2.675-2.989 6.235-4.484 10.679-4.484 4.642 0 8.241 1.436 10.797 4.307 2.557 2.871 3.835 6.529 3.835 10.974Zm-18.939-6.077c-.944 1.613-1.416 3.697-1.416 6.254 0 2.557.472 4.661 1.416 6.313.984 1.613 2.439 2.419 4.366 2.419 1.888 0 3.285-.787 4.189-2.36.944-1.613 1.416-3.697 1.416-6.254 0-5.861-1.907-8.791-5.723-8.791-1.888 0-3.304.806-4.248 2.419ZM507.932 216h-8.614l.059-29.913h8.555v5.546c.551-1.731 1.455-3.107 2.714-4.13 1.298-1.062 2.793-1.593 4.484-1.593.944 0 1.691.079 2.242.236v8.142c-.944-.433-2.026-.649-3.245-.649-1.849 0-3.343.688-4.484 2.065-1.141 1.337-1.711 3.127-1.711 5.369V216Zm45.496-.649c-1.456.629-3.422.944-5.9.944-6.805 0-10.207-3.402-10.207-10.207V192.4h-4.307v-6.313h4.307v-7.08h8.614v7.08h6.962v6.313h-6.962v13.747c0 1.062.295 1.868.885 2.419.629.551 1.435.826 2.419.826 1.573 0 2.969-.393 4.189-1.18v7.139Zm32.73.649h-8.614v-17.7c0-1.731-.433-3.088-1.298-4.071-.866-.983-1.987-1.475-3.363-1.475-.59 0-1.161.098-1.711.295-.512.157-1.082.472-1.711.944-.63.433-1.141 1.2-1.534 2.301-.394 1.062-.59 2.36-.59 3.894V216h-8.614v-41.713h8.614v16.874c1.534-3.579 4.523-5.369 8.968-5.369 2.91 0 5.27.924 7.08 2.773 1.848 1.849 2.773 4.641 2.773 8.378V216Zm30.271-1.711c-2.045 1.337-5.172 2.006-9.381 2.006-4.916 0-8.751-1.416-11.505-4.248-2.714-2.871-4.071-6.549-4.071-11.033 0-4.759 1.318-8.476 3.953-11.151 2.675-2.714 5.959-4.071 9.853-4.071 4.012 0 7.179 1.18 9.499 3.54 2.321 2.321 3.481 5.802 3.481 10.443 0 .905-.157 2.458-.472 4.661h-17.582c.59 1.652 1.613 2.93 3.068 3.835 1.456.905 3.206 1.357 5.251 1.357 3.029 0 5.664-.846 7.906-2.537v7.198Zm-10.797-21.948c-1.376 0-2.596.511-3.658 1.534-1.062.983-1.77 2.458-2.124 4.425h10.384v-.708c-.275-3.501-1.809-5.251-4.602-5.251ZM14.449 287H5.835v-29.913h8.614V287Zm-.767-42.126c.983.983 1.475 2.163 1.475 3.54 0 1.377-.492 2.557-1.475 3.54-.983.983-2.163 1.475-3.54 1.475-1.377 0-2.557-.492-3.54-1.475-.983-.983-1.475-2.163-1.475-3.54 0-1.377.492-2.557 1.475-3.54.983-.983 2.163-1.475 3.54-1.475 1.377 0 2.557.492 3.54 1.475Zm15.42 27.258c0 2.399.63 4.346 1.889 5.841 1.258 1.455 2.792 2.183 4.602 2.183 1.966 0 3.56-.767 4.779-2.301 1.219-1.534 1.829-3.579 1.829-6.136 0-2.478-.669-4.405-2.006-5.782-1.298-1.377-2.852-2.065-4.661-2.065-1.81 0-3.344.728-4.602 2.183-1.22 1.455-1.83 3.481-1.83 6.077ZM50.816 287H42.2v-4.661c-2.006 3.343-4.996 5.015-8.968 5.015-3.894 0-7.021-1.514-9.381-4.543-2.321-3.029-3.481-6.647-3.481-10.856 0-4.72 1.219-8.437 3.658-11.151 2.438-2.714 5.526-4.071 9.263-4.071 3.894 0 6.863 1.652 8.909 4.956v-16.402h8.614V287Zm30.581-1.711c-2.045 1.337-5.172 2.006-9.381 2.006-4.917 0-8.752-1.416-11.505-4.248-2.714-2.871-4.071-6.549-4.071-11.033 0-4.759 1.318-8.476 3.953-11.151 2.675-2.714 5.959-4.071 9.853-4.071 4.012 0 7.178 1.18 9.499 3.54 2.32 2.321 3.481 5.802 3.481 10.443 0 .905-.157 2.458-.472 4.661H65.171c.59 1.652 1.613 2.93 3.068 3.835 1.455.905 3.206 1.357 5.251 1.357 3.029 0 5.664-.846 7.906-2.537v7.198Zm-10.797-21.948c-1.377 0-2.596.511-3.658 1.534-1.062.983-1.77 2.458-2.124 4.425h10.384v-.708c-.275-3.501-1.81-5.251-4.602-5.251Zm29.748 17.759c1.219 0 2.163-.374 2.832-1.121s1.003-1.77 1.003-3.068v-2.183h-2.773c-1.455 0-2.576.315-3.363.944-.787.629-1.18 1.436-1.18 2.419 0 2.006 1.16 3.009 3.481 3.009Zm4.248 2.242c-1.259 2.557-3.737 3.835-7.434 3.835-2.91 0-5.192-.826-6.844-2.478-1.613-1.652-2.419-3.717-2.419-6.195 0-2.871 1.042-5.094 3.127-6.667 2.124-1.613 5.251-2.419 9.381-2.419h3.776v-2.065c0-2.517-1.672-3.776-5.015-3.776-3.225 0-6.215.905-8.968 2.714v-7.729c2.36-1.337 5.762-2.006 10.207-2.006 4.248 0 7.414.924 9.499 2.773 2.085 1.809 3.127 4.641 3.127 8.496V287h-8.437v-3.658ZM128.704 287h-8.614v-41.713h8.614V287Zm49.287 0h-8.614v-4.779c-1.574 3.343-4.602 5.015-9.086 5.015-3.068 0-5.468-.846-7.198-2.537-1.692-1.731-2.537-4.268-2.537-7.611v-20.001h8.614v18.054c0 3.501 1.534 5.251 4.602 5.251 3.736 0 5.605-2.498 5.605-7.493v-15.812h8.614V287Zm27.498-9.027c0 2.95-1.062 5.231-3.186 6.844-2.124 1.613-4.936 2.419-8.437 2.419-3.619 0-6.647-.61-9.086-1.829v-7.67c2.714 1.888 5.585 2.832 8.614 2.832 2.163 0 3.245-.688 3.245-2.065 0-.354-.098-.688-.295-1.003-.197-.315-.531-.61-1.003-.885a9.97 9.97 0 0 0-1.298-.649 30.874 30.874 0 0 0-1.711-.767 30.874 30.874 0 0 1-1.711-.767c-3.973-1.888-5.959-4.72-5.959-8.496 0-2.911 1.101-5.172 3.304-6.785 2.242-1.613 5.015-2.419 8.319-2.419 3.068 0 5.625.413 7.67 1.239v7.375c-2.085-1.219-4.523-1.829-7.316-1.829-1.023 0-1.809.216-2.36.649-.551.393-.826.905-.826 1.534 0 .354.098.688.295 1.003.197.315.511.61.944.885.472.275.905.531 1.298.767.433.197 1.003.452 1.711.767.747.315 1.337.59 1.77.826 1.809.944 3.265 2.045 4.366 3.304 1.101 1.219 1.652 2.793 1.652 4.72Zm28.765 7.316c-2.045 1.337-5.172 2.006-9.381 2.006-4.916 0-8.751-1.416-11.505-4.248-2.714-2.871-4.071-6.549-4.071-11.033 0-4.759 1.318-8.476 3.953-11.151 2.675-2.714 5.959-4.071 9.853-4.071 4.012 0 7.179 1.18 9.499 3.54 2.321 2.321 3.481 5.802 3.481 10.443 0 .905-.157 2.458-.472 4.661h-17.582c.59 1.652 1.613 2.93 3.068 3.835 1.456.905 3.206 1.357 5.251 1.357 3.029 0 5.664-.846 7.906-2.537v7.198Zm-10.797-21.948c-1.376 0-2.596.511-3.658 1.534-1.062.983-1.77 2.458-2.124 4.425h10.384v-.708c-.275-3.501-1.809-5.251-4.602-5.251ZM250.786 287h-8.614l.059-29.913h8.555v5.546c.551-1.731 1.456-3.107 2.714-4.13 1.298-1.062 2.793-1.593 4.484-1.593.944 0 1.692.079 2.242.236v8.142c-.944-.433-2.025-.649-3.245-.649-1.848 0-3.343.688-4.484 2.065-1.14 1.337-1.711 3.127-1.711 5.369V287Zm51.514-1.711c-2.045 1.337-5.172 2.006-9.381 2.006-4.916 0-8.751-1.416-11.505-4.248-2.714-2.871-4.071-6.549-4.071-11.033 0-4.759 1.318-8.476 3.953-11.151 2.675-2.714 5.959-4.071 9.853-4.071 4.012 0 7.179 1.18 9.499 3.54 2.321 2.321 3.481 5.802 3.481 10.443 0 .905-.157 2.458-.472 4.661h-17.582c.59 1.652 1.613 2.93 3.068 3.835 1.456.905 3.206 1.357 5.251 1.357 3.029 0 5.664-.846 7.906-2.537v7.198Zm-10.797-21.948c-1.376 0-2.596.511-3.658 1.534-1.062.983-1.77 2.458-2.124 4.425h10.384v-.708c-.275-3.501-1.809-5.251-4.602-5.251Zm25.5 23.659h-9.322l10.679-14.986-10.03-14.927h9.558l4.838 8.909 5.369-8.909h9.44l-10.738 14.986L336.768 287h-9.381l-5.015-8.968-5.369 8.968Zm32.944 11.033h-8.614v-40.946h8.614v4.602c2.085-3.304 5.094-4.956 9.027-4.956 3.855 0 6.942 1.377 9.263 4.13 2.36 2.714 3.54 6.411 3.54 11.092 0 4.445-1.141 8.122-3.422 11.033-2.242 2.911-5.369 4.366-9.381 4.366-4.051 0-7.06-1.593-9.027-4.779v15.458Zm0-26.314c0 2.557.629 4.602 1.888 6.136 1.259 1.534 2.871 2.301 4.838 2.301 1.888 0 3.422-.708 4.602-2.124 1.18-1.455 1.77-3.422 1.77-5.9 0-2.714-.61-4.759-1.829-6.136-1.18-1.416-2.694-2.124-4.543-2.124-1.809 0-3.383.688-4.72 2.065-1.337 1.377-2.006 3.304-2.006 5.782Zm50.936 13.57c-2.045 1.337-5.172 2.006-9.381 2.006-4.916 0-8.751-1.416-11.505-4.248-2.714-2.871-4.071-6.549-4.071-11.033 0-4.759 1.318-8.476 3.953-11.151 2.675-2.714 5.959-4.071 9.853-4.071 4.012 0 7.179 1.18 9.499 3.54 2.321 2.321 3.481 5.802 3.481 10.443 0 .905-.157 2.458-.472 4.661h-17.582c.59 1.652 1.613 2.93 3.068 3.835 1.456.905 3.206 1.357 5.251 1.357 3.029 0 5.664-.846 7.906-2.537v7.198Zm-10.797-21.948c-1.376 0-2.596.511-3.658 1.534-1.062.983-1.77 2.458-2.124 4.425h10.384v-.708c-.275-3.501-1.809-5.251-4.602-5.251ZM417.415 287h-8.614l.059-29.913h8.555v5.546c.551-1.731 1.456-3.107 2.714-4.13 1.298-1.062 2.793-1.593 4.484-1.593.944 0 1.692.079 2.242.236v8.142c-.944-.433-2.025-.649-3.245-.649-1.848 0-3.343.688-4.484 2.065-1.14 1.337-1.711 3.127-1.711 5.369V287Zm22.191 0h-8.614v-29.913h8.614V287Zm-.767-42.126c.984.983 1.475 2.163 1.475 3.54 0 1.377-.491 2.557-1.475 3.54-.983.983-2.163 1.475-3.54 1.475-1.376 0-2.556-.492-3.54-1.475-.983-.983-1.475-2.163-1.475-3.54 0-1.377.492-2.557 1.475-3.54.984-.983 2.164-1.475 3.54-1.475 1.377 0 2.557.492 3.54 1.475Zm31.646 40.415c-2.045 1.337-5.172 2.006-9.381 2.006-4.917 0-8.752-1.416-11.505-4.248-2.714-2.871-4.071-6.549-4.071-11.033 0-4.759 1.318-8.476 3.953-11.151 2.675-2.714 5.959-4.071 9.853-4.071 4.012 0 7.178 1.18 9.499 3.54 2.321 2.321 3.481 5.802 3.481 10.443 0 .905-.157 2.458-.472 4.661H454.26c.59 1.652 1.613 2.93 3.068 3.835 1.455.905 3.206 1.357 5.251 1.357 3.029 0 5.664-.846 7.906-2.537v7.198Zm-10.797-21.948c-1.377 0-2.596.511-3.658 1.534-1.062.983-1.77 2.458-2.124 4.425h10.384v-.708c-.275-3.501-1.809-5.251-4.602-5.251ZM505.897 287h-8.614v-17.818c0-1.77-.413-3.107-1.239-4.012-.826-.944-1.986-1.416-3.481-1.416-1.573 0-2.891.629-3.953 1.888-1.023 1.219-1.534 3.068-1.534 5.546V287h-8.614v-29.913h8.614v5.074a8.66 8.66 0 0 1 3.422-3.894c1.573-.983 3.442-1.475 5.605-1.475 3.068 0 5.467.924 7.198 2.773 1.731 1.809 2.596 4.484 2.596 8.024V287Zm29.15-1.416c-2.32 1.259-5.113 1.888-8.378 1.888-4.484 0-8.181-1.416-11.092-4.248-2.91-2.871-4.366-6.569-4.366-11.092.079-4.484 1.534-8.181 4.366-11.092 2.832-2.95 6.707-4.425 11.623-4.425 3.029 0 5.645.57 7.847 1.711v7.375c-2.084-1.298-4.405-1.947-6.962-1.947-2.399 0-4.346.728-5.841 2.183-1.494 1.416-2.261 3.481-2.301 6.195.158 2.635.944 4.681 2.36 6.136s3.285 2.183 5.605 2.183c2.478 0 4.858-.688 7.139-2.065v7.198Zm28.778-.295c-2.046 1.337-5.173 2.006-9.381 2.006-4.917 0-8.752-1.416-11.505-4.248-2.714-2.871-4.071-6.549-4.071-11.033 0-4.759 1.317-8.476 3.953-11.151 2.674-2.714 5.959-4.071 9.853-4.071 4.012 0 7.178 1.18 9.499 3.54 2.32 2.321 3.481 5.802 3.481 10.443 0 .905-.158 2.458-.472 4.661H547.6c.59 1.652 1.612 2.93 3.068 3.835 1.455.905 3.205 1.357 5.251 1.357 3.028 0 5.664-.846 7.906-2.537v7.198Zm-10.797-21.948c-1.377 0-2.596.511-3.658 1.534-1.062.983-1.77 2.458-2.124 4.425h10.384v-.708c-.276-3.501-1.81-5.251-4.602-5.251Z" fill="#292830"/><path d="M140.217 236.843h441.81v68.565h-441.81v-68.565Z" fill="#33EFAB" fill-opacity=".1" stroke="#33EFAB" stroke-width="2.603"/><path fill="#fff" stroke="#33EFAB" stroke-width="1.301" d="M577.768 233.651h6.699v6.699h-6.699zM134.651 302.277h6.699v6.699h-6.699zM577.768 303.548h6.699v6.699h-6.699zM135.846 233.69h6.699v6.699h-6.699z"/></svg>