<svg width="641" height="311" viewBox="0 0 641 311" fill="none" xmlns="http://www.w3.org/2000/svg">
<path d="M36.639 49H27.494V33.129H12.921V49H3.835V9.234H12.921V25.4H27.494V9.234H36.639V49ZM52.8963 49H44.2823V19.087H52.8963V49ZM52.1293 6.874C53.1126 7.85733 53.6043 9.03733 53.6043 10.414C53.6043 11.7907 53.1126 12.9707 52.1293 13.954C51.1459 14.9373 49.9659 15.429 48.5893 15.429C47.2126 15.429 46.0326 14.9373 45.0493 13.954C44.0659 12.9707 43.5743 11.7907 43.5743 10.414C43.5743 9.03733 44.0659 7.85733 45.0493 6.874C46.0326 5.89066 47.2126 5.399 48.5893 5.399C49.9659 5.399 51.1459 5.89066 52.1293 6.874ZM63.7739 56.493H56.3399L62.2989 41.094H71.7979L63.7739 56.493ZM102.357 49H93.2707V9.234H102.357V49ZM115.851 23.453H108.417L114.376 8.054H123.875L115.851 23.453ZM169.93 49H161.316V31.241C161.316 29.5497 160.982 28.2123 160.313 27.229C159.644 26.2457 158.681 25.754 157.422 25.754C156.085 25.754 154.885 26.3047 153.823 27.406C152.8 28.468 152.289 30.3953 152.289 33.188V49H143.675V31.241C143.675 29.5497 143.341 28.2123 142.672 27.229C142.003 26.2457 141.04 25.754 139.781 25.754C138.444 25.754 137.244 26.3047 136.182 27.406C135.159 28.468 134.648 30.3953 134.648 33.188V49H126.034V19.087H134.648V23.748C136.3 20.444 139.112 18.792 143.085 18.792C147.294 18.792 150.086 20.68 151.463 24.456C152.132 22.686 153.253 21.3093 154.826 20.326C156.399 19.3033 158.248 18.792 160.372 18.792C163.322 18.792 165.643 19.736 167.334 21.624C169.065 23.4727 169.93 26.2063 169.93 29.825V49ZM199.983 49H190.897L194.319 9.234H204.29L209.836 23.63C210.78 26.0293 211.587 28.232 212.255 30.238C212.924 32.244 213.357 33.66 213.553 34.486L213.848 35.666C214.478 33.07 215.854 29.058 217.978 23.63L223.583 9.234H233.554L237.684 49H228.598L227.123 33.601L226.356 21.978C225.334 24.928 223.918 28.8023 222.108 33.601L216.503 48.587H211.134L205.588 33.601C204.684 31.1623 203.917 28.9793 203.287 27.052C202.658 25.1247 202.245 23.7873 202.048 23.04L201.753 21.978C201.753 24.7707 201.576 28.645 201.222 33.601L199.983 49ZM255.123 43.1C256.343 43.1 257.287 42.7263 257.955 41.979C258.624 41.2317 258.958 40.209 258.958 38.911V36.728H256.185C254.73 36.728 253.609 37.0427 252.822 37.672C252.036 38.3013 251.642 39.1077 251.642 40.091C251.642 42.097 252.803 43.1 255.123 43.1ZM259.371 45.342C258.113 47.8987 255.635 49.177 251.937 49.177C249.027 49.177 246.745 48.351 245.093 46.699C243.481 45.047 242.674 42.982 242.674 40.504C242.674 37.6327 243.717 35.4103 245.801 33.837C247.925 32.2243 251.052 31.418 255.182 31.418H258.958V29.353C258.958 26.8357 257.287 25.577 253.943 25.577C250.718 25.577 247.729 26.4817 244.975 28.291V20.562C247.335 19.2247 250.738 18.556 255.182 18.556C259.43 18.556 262.597 19.4803 264.681 21.329C266.766 23.1383 267.808 25.9703 267.808 29.825V49H259.371V45.342ZM283.126 49H274.512L274.571 19.087H283.126V24.633C283.677 22.9023 284.582 21.5257 285.84 20.503C287.138 19.441 288.633 18.91 290.324 18.91C291.268 18.91 292.016 18.9887 292.566 19.146V27.288C291.622 26.8553 290.541 26.639 289.321 26.639C287.473 26.639 285.978 27.3273 284.837 28.704C283.697 30.0413 283.126 31.831 283.126 34.073V49ZM305.317 49H296.703V19.087H305.317V49ZM304.55 6.874C305.533 7.85733 306.025 9.03733 306.025 10.414C306.025 11.7907 305.533 12.9707 304.55 13.954C303.567 14.9373 302.387 15.429 301.01 15.429C299.633 15.429 298.453 14.9373 297.47 13.954C296.487 12.9707 295.995 11.7907 295.995 10.414C295.995 9.03733 296.487 7.85733 297.47 6.874C298.453 5.89066 299.633 5.399 301.01 5.399C302.387 5.399 303.567 5.89066 304.55 6.874ZM323.688 43.1C324.907 43.1 325.851 42.7263 326.52 41.979C327.188 41.2317 327.523 40.209 327.523 38.911V36.728H324.75C323.294 36.728 322.173 37.0427 321.387 37.672C320.6 38.3013 320.207 39.1077 320.207 40.091C320.207 42.097 321.367 43.1 323.688 43.1ZM327.936 45.342C326.677 47.8987 324.199 49.177 320.502 49.177C317.591 49.177 315.31 48.351 313.658 46.699C312.045 45.047 311.239 42.982 311.239 40.504C311.239 37.6327 312.281 35.4103 314.366 33.837C316.49 32.2243 319.617 31.418 323.747 31.418H327.523V29.353C327.523 26.8357 325.851 25.577 322.508 25.577C319.282 25.577 316.293 26.4817 313.54 28.291V20.562C315.9 19.2247 319.302 18.556 323.747 18.556C327.995 18.556 331.161 19.4803 333.246 21.329C335.33 23.1383 336.373 25.9703 336.373 29.825V49H327.936V45.342ZM351.691 20.621C352.713 21.6043 353.225 22.8237 353.225 24.279C353.225 25.7343 352.713 26.9733 351.691 27.996C350.707 28.9793 349.488 29.471 348.033 29.471C346.577 29.471 345.338 28.9793 344.316 27.996C343.332 26.9733 342.841 25.7343 342.841 24.279C342.841 22.8237 343.332 21.6043 344.316 20.621C345.338 19.5983 346.577 19.087 348.033 19.087C349.488 19.087 350.707 19.5983 351.691 20.621ZM351.691 40.15C352.713 41.1333 353.225 42.3527 353.225 43.808C353.225 45.2633 352.713 46.5023 351.691 47.525C350.707 48.5083 349.488 49 348.033 49C346.577 49 345.338 48.5083 344.316 47.525C343.332 46.5023 342.841 45.2633 342.841 43.808C342.841 42.3527 343.332 41.1333 344.316 40.15C345.338 39.1273 346.577 38.616 348.033 38.616C349.488 38.616 350.707 39.1273 351.691 40.15Z" fill="#33EFAB"/>
<path d="M15.511 145H6.425V105.234H15.511V145ZM45.4659 130.132C45.4659 132.531 46.0953 134.478 47.3539 135.973C48.6126 137.428 50.1466 138.156 51.9559 138.156C53.9226 138.156 55.5156 137.389 56.7349 135.855C57.9543 134.321 58.5639 132.276 58.5639 129.719C58.5639 127.241 57.8953 125.314 56.5579 123.937C55.2599 122.56 53.7063 121.872 51.8969 121.872C50.0876 121.872 48.5536 122.6 47.2949 124.055C46.0756 125.51 45.4659 127.536 45.4659 130.132ZM67.1779 145H58.5639V140.339C56.5579 143.682 53.5686 145.354 49.5959 145.354C45.7019 145.354 42.5749 143.84 40.2149 140.811C37.8943 137.782 36.7339 134.164 36.7339 129.955C36.7339 125.235 37.9533 121.518 40.3919 118.804C42.8306 116.09 45.9183 114.733 49.6549 114.733C53.5489 114.733 56.5186 116.385 58.5639 119.689V103.287H67.1779V145ZM97.7593 143.289C95.714 144.626 92.587 145.295 88.3783 145.295C83.4616 145.295 79.6266 143.879 76.8733 141.047C74.1593 138.176 72.8023 134.498 72.8023 130.014C72.8023 125.255 74.12 121.538 76.7553 118.863C79.43 116.149 82.7143 114.792 86.6083 114.792C90.6203 114.792 93.7866 115.972 96.1073 118.332C98.428 120.653 99.5883 124.134 99.5883 128.775C99.5883 129.68 99.431 131.233 99.1163 133.436H81.5343C82.1243 135.088 83.147 136.366 84.6023 137.271C86.0576 138.176 87.808 138.628 89.8533 138.628C92.882 138.628 95.5173 137.782 97.7593 136.091V143.289ZM86.9623 121.341C85.5856 121.341 84.3663 121.852 83.3043 122.875C82.2423 123.858 81.5343 125.333 81.1803 127.3H91.5643V126.592C91.289 123.091 89.755 121.341 86.9623 121.341ZM126.15 135.973C126.15 138.923 125.088 141.204 122.964 142.817C120.84 144.43 118.028 145.236 114.527 145.236C110.909 145.236 107.88 144.626 105.441 143.407V135.737C108.155 137.625 111.027 138.569 114.055 138.569C116.219 138.569 117.3 137.881 117.3 136.504C117.3 136.15 117.202 135.816 117.005 135.501C116.809 135.186 116.474 134.891 116.002 134.616C115.53 134.341 115.098 134.124 114.704 133.967C114.311 133.77 113.741 133.515 112.993 133.2C112.246 132.885 111.676 132.63 111.282 132.433C107.31 130.545 105.323 127.713 105.323 123.937C105.323 121.026 106.425 118.765 108.627 117.152C110.869 115.539 113.642 114.733 116.946 114.733C120.014 114.733 122.571 115.146 124.616 115.972V123.347C122.532 122.128 120.093 121.518 117.3 121.518C116.278 121.518 115.491 121.734 114.94 122.167C114.39 122.56 114.114 123.072 114.114 123.701C114.114 124.055 114.213 124.389 114.409 124.704C114.606 125.019 114.921 125.314 115.353 125.589C115.825 125.864 116.258 126.12 116.651 126.356C117.084 126.553 117.654 126.808 118.362 127.123C119.11 127.438 119.7 127.713 120.132 127.949C121.942 128.893 123.397 129.994 124.498 131.253C125.6 132.472 126.15 134.046 126.15 135.973ZM140.343 145H131.729V115.087H140.343V145ZM139.576 102.874C140.559 103.857 141.051 105.037 141.051 106.414C141.051 107.791 140.559 108.971 139.576 109.954C138.592 110.937 137.412 111.429 136.036 111.429C134.659 111.429 133.479 110.937 132.496 109.954C131.512 108.971 131.021 107.791 131.021 106.414C131.021 105.037 131.512 103.857 132.496 102.874C133.479 101.891 134.659 101.399 136.036 101.399C137.412 101.399 138.592 101.891 139.576 102.874ZM175.469 142.109C175.469 146.908 174.034 150.507 171.162 152.906C168.291 155.345 164.692 156.564 160.365 156.564C156.157 156.564 152.479 155.817 149.332 154.322V145.531C152.086 147.734 155.468 148.835 159.48 148.835C162.076 148.835 163.964 148.284 165.144 147.183C166.324 146.082 166.914 144.351 166.914 141.991V139.985C165.184 142.66 162.43 143.997 158.654 143.997C155.35 143.997 152.499 142.778 150.099 140.339C147.739 137.9 146.559 134.282 146.559 129.483C146.559 125.235 147.7 121.734 149.981 118.981C152.302 116.188 155.331 114.792 159.067 114.792C162.607 114.792 165.223 116.208 166.914 119.04V115.087H175.469V142.109ZM155.527 129.542C155.527 132.02 155.999 133.908 156.943 135.206C157.887 136.504 159.244 137.153 161.014 137.153C162.863 137.153 164.299 136.465 165.321 135.088C166.383 133.672 166.914 131.981 166.914 130.014C166.914 124.665 164.967 121.99 161.073 121.99C159.343 121.99 157.986 122.659 157.002 123.996C156.019 125.333 155.527 127.182 155.527 129.542ZM209.687 145H201.073V127.182C201.073 125.412 200.66 124.075 199.834 123.17C199.008 122.226 197.848 121.754 196.353 121.754C194.78 121.754 193.462 122.383 192.4 123.642C191.377 124.861 190.866 126.71 190.866 129.188V145H182.252V115.087H190.866V120.161C191.613 118.509 192.754 117.211 194.288 116.267C195.861 115.284 197.73 114.792 199.893 114.792C202.961 114.792 205.36 115.716 207.091 117.565C208.822 119.374 209.687 122.049 209.687 125.589V145ZM242.201 139.1C243.42 139.1 244.364 138.726 245.033 137.979C245.701 137.232 246.036 136.209 246.036 134.911V132.728H243.263C241.807 132.728 240.686 133.043 239.9 133.672C239.113 134.301 238.72 135.108 238.72 136.091C238.72 138.097 239.88 139.1 242.201 139.1ZM246.449 141.342C245.19 143.899 242.712 145.177 239.015 145.177C236.104 145.177 233.823 144.351 232.171 142.699C230.558 141.047 229.752 138.982 229.752 136.504C229.752 133.633 230.794 131.41 232.879 129.837C235.003 128.224 238.13 127.418 242.26 127.418H246.036V125.353C246.036 122.836 244.364 121.577 241.021 121.577C237.795 121.577 234.806 122.482 232.053 124.291V116.562C234.413 115.225 237.815 114.556 242.26 114.556C246.508 114.556 249.674 115.48 251.759 117.329C253.843 119.138 254.886 121.97 254.886 125.825V145H246.449V141.342ZM289.083 145H280.469V127.182C280.469 125.412 280.056 124.075 279.23 123.17C278.404 122.226 277.244 121.754 275.749 121.754C274.176 121.754 272.858 122.383 271.796 123.642C270.774 124.861 270.262 126.71 270.262 129.188V145H261.648V115.087H270.262V120.161C271.01 118.509 272.15 117.211 273.684 116.267C275.258 115.284 277.126 114.792 279.289 114.792C282.357 114.792 284.757 115.716 286.487 117.565C288.218 119.374 289.083 122.049 289.083 125.589V145ZM303.13 130.132C303.13 132.531 303.759 134.478 305.018 135.973C306.277 137.428 307.811 138.156 309.62 138.156C311.587 138.156 313.18 137.389 314.399 135.855C315.618 134.321 316.228 132.276 316.228 129.719C316.228 127.241 315.559 125.314 314.222 123.937C312.924 122.56 311.37 121.872 309.561 121.872C307.752 121.872 306.218 122.6 304.959 124.055C303.74 125.51 303.13 127.536 303.13 130.132ZM324.842 145H316.228V140.339C314.222 143.682 311.233 145.354 307.26 145.354C303.366 145.354 300.239 143.84 297.879 140.811C295.558 137.782 294.398 134.164 294.398 129.955C294.398 125.235 295.617 121.518 298.056 118.804C300.495 116.09 303.582 114.733 307.319 114.733C311.213 114.733 314.183 116.385 316.228 119.689V103.287H324.842V145ZM355.305 145H346.691V103.287H355.305V119.689C357.351 116.385 360.32 114.733 364.214 114.733C367.951 114.733 371.039 116.09 373.477 118.804C375.916 121.518 377.135 125.235 377.135 129.955C377.135 134.164 375.955 137.782 373.595 140.811C371.275 143.84 368.167 145.354 364.273 145.354C360.301 145.354 357.311 143.682 355.305 140.339V145ZM355.305 129.719C355.305 132.276 355.915 134.321 357.134 135.855C358.354 137.389 359.947 138.156 361.913 138.156C363.723 138.156 365.257 137.428 366.515 135.973C367.774 134.478 368.403 132.531 368.403 130.132C368.403 127.536 367.774 125.51 366.515 124.055C365.296 122.6 363.782 121.872 361.972 121.872C360.163 121.872 358.59 122.56 357.252 123.937C355.954 125.314 355.305 127.241 355.305 129.719ZM409.9 145H401.286V140.221C399.712 143.564 396.684 145.236 392.2 145.236C389.132 145.236 386.732 144.39 385.002 142.699C383.31 140.968 382.465 138.431 382.465 135.088V115.087H391.079V133.141C391.079 136.642 392.613 138.392 395.681 138.392C399.417 138.392 401.286 135.894 401.286 130.899V115.087H409.9V145ZM425.893 145H417.279V115.087H425.893V145ZM425.126 102.874C426.11 103.857 426.601 105.037 426.601 106.414C426.601 107.791 426.11 108.971 425.126 109.954C424.143 110.937 422.963 111.429 421.586 111.429C420.21 111.429 419.03 110.937 418.046 109.954C417.063 108.971 416.571 107.791 416.571 106.414C416.571 105.037 417.063 103.857 418.046 102.874C419.03 101.891 420.21 101.399 421.586 101.399C422.963 101.399 424.143 101.891 425.126 102.874ZM442.199 145H433.585V103.287H442.199V145ZM456.853 130.132C456.853 132.531 457.482 134.478 458.741 135.973C459.999 137.428 461.533 138.156 463.343 138.156C465.309 138.156 466.902 137.389 468.122 135.855C469.341 134.321 469.951 132.276 469.951 129.719C469.951 127.241 469.282 125.314 467.945 123.937C466.647 122.56 465.093 121.872 463.284 121.872C461.474 121.872 459.94 122.6 458.682 124.055C457.462 125.51 456.853 127.536 456.853 130.132ZM478.565 145H469.951V140.339C467.945 143.682 464.955 145.354 460.983 145.354C457.089 145.354 453.962 143.84 451.602 140.811C449.281 137.782 448.121 134.164 448.121 129.955C448.121 125.235 449.34 121.518 451.779 118.804C454.217 116.09 457.305 114.733 461.042 114.733C464.936 114.733 467.905 116.385 469.951 119.689V103.287H478.565V145ZM12.797 201.132C12.797 203.531 13.4263 205.478 14.685 206.973C15.9437 208.428 17.4777 209.156 19.287 209.156C21.2537 209.156 22.8467 208.389 24.066 206.855C25.2853 205.321 25.895 203.276 25.895 200.719C25.895 198.241 25.2263 196.314 23.889 194.937C22.591 193.56 21.0373 192.872 19.228 192.872C17.4187 192.872 15.8847 193.6 14.626 195.055C13.4067 196.51 12.797 198.536 12.797 201.132ZM34.509 216H25.895V211.339C23.889 214.682 20.8997 216.354 16.927 216.354C13.033 216.354 9.906 214.84 7.546 211.811C5.22533 208.782 4.065 205.164 4.065 200.955C4.065 196.235 5.28433 192.518 7.723 189.804C10.1617 187.09 13.2493 185.733 16.986 185.733C20.88 185.733 23.8497 187.385 25.895 190.689V174.287H34.509V216ZM50.5174 216H41.9034V186.087H50.5174V216ZM49.7504 173.874C50.7337 174.857 51.2254 176.037 51.2254 177.414C51.2254 178.791 50.7337 179.971 49.7504 180.954C48.767 181.937 47.587 182.429 46.2104 182.429C44.8337 182.429 43.6537 181.937 42.6704 180.954C41.687 179.971 41.1954 178.791 41.1954 177.414C41.1954 176.037 41.687 174.857 42.6704 173.874C43.6537 172.891 44.8337 172.399 46.2104 172.399C47.587 172.399 48.767 172.891 49.7504 173.874ZM85.644 213.109C85.644 217.908 84.2084 221.507 81.337 223.906C78.4657 226.345 74.8667 227.564 70.54 227.564C66.3314 227.564 62.6537 226.817 59.507 225.322V216.531C62.2604 218.734 65.643 219.835 69.655 219.835C72.251 219.835 74.139 219.284 75.319 218.183C76.499 217.082 77.089 215.351 77.089 212.991V210.985C75.3584 213.66 72.605 214.997 68.829 214.997C65.525 214.997 62.6734 213.778 60.274 211.339C57.914 208.9 56.734 205.282 56.734 200.483C56.734 196.235 57.8747 192.734 60.156 189.981C62.4767 187.188 65.5054 185.792 69.242 185.792C72.782 185.792 75.3977 187.208 77.089 190.04V186.087H85.644V213.109ZM65.702 200.542C65.702 203.02 66.174 204.908 67.118 206.206C68.062 207.504 69.419 208.153 71.189 208.153C73.0377 208.153 74.4734 207.465 75.496 206.088C76.558 204.672 77.089 202.981 77.089 201.014C77.089 195.665 75.142 192.99 71.248 192.99C69.5174 192.99 68.1604 193.659 67.177 194.996C66.1937 196.333 65.702 198.182 65.702 200.542ZM101.336 216H92.7217V186.087H101.336V216ZM100.569 173.874C101.552 174.857 102.044 176.037 102.044 177.414C102.044 178.791 101.552 179.971 100.569 180.954C99.5854 181.937 98.4054 182.429 97.0287 182.429C95.6521 182.429 94.4721 181.937 93.4887 180.954C92.5054 179.971 92.0137 178.791 92.0137 177.414C92.0137 176.037 92.5054 174.857 93.4887 173.874C94.4721 172.891 95.6521 172.399 97.0287 172.399C98.4054 172.399 99.5854 172.891 100.569 173.874ZM126.196 215.351C124.741 215.98 122.774 216.295 120.296 216.295C113.492 216.295 110.089 212.893 110.089 206.088V192.4H105.782V186.087H110.089V179.007H118.703V186.087H125.665V192.4H118.703V206.147C118.703 207.209 118.998 208.015 119.588 208.566C120.218 209.117 121.024 209.392 122.007 209.392C123.581 209.392 124.977 208.999 126.196 208.212V215.351ZM142.465 210.1C143.685 210.1 144.629 209.726 145.297 208.979C145.966 208.232 146.3 207.209 146.3 205.911V203.728H143.527C142.072 203.728 140.951 204.043 140.164 204.672C139.378 205.301 138.984 206.108 138.984 207.091C138.984 209.097 140.145 210.1 142.465 210.1ZM146.713 212.342C145.455 214.899 142.977 216.177 139.279 216.177C136.369 216.177 134.087 215.351 132.435 213.699C130.823 212.047 130.016 209.982 130.016 207.504C130.016 204.633 131.059 202.41 133.143 200.837C135.267 199.224 138.394 198.418 142.524 198.418H146.3V196.353C146.3 193.836 144.629 192.577 141.285 192.577C138.06 192.577 135.071 193.482 132.317 195.291V187.562C134.677 186.225 138.08 185.556 142.524 185.556C146.772 185.556 149.939 186.48 152.023 188.329C154.108 190.138 155.15 192.97 155.15 196.825V216H146.713V212.342ZM170.822 216H162.208V174.287H170.822V216ZM201.583 227.033H192.969V186.087H201.583V190.689C203.667 187.385 206.676 185.733 210.61 185.733C214.464 185.733 217.552 187.11 219.873 189.863C222.233 192.577 223.413 196.274 223.413 200.955C223.413 205.4 222.272 209.077 219.991 211.988C217.749 214.899 214.622 216.354 210.61 216.354C206.558 216.354 203.549 214.761 201.583 211.575V227.033ZM201.583 200.719C201.583 203.276 202.212 205.321 203.471 206.855C204.729 208.389 206.342 209.156 208.309 209.156C210.197 209.156 211.731 208.448 212.911 207.032C214.091 205.577 214.681 203.61 214.681 201.132C214.681 198.418 214.071 196.373 212.852 194.996C211.672 193.58 210.157 192.872 208.309 192.872C206.499 192.872 204.926 193.56 203.589 194.937C202.251 196.314 201.583 198.241 201.583 200.719ZM237.592 216H228.978L229.037 186.087H237.592V191.633C238.143 189.902 239.047 188.526 240.306 187.503C241.604 186.441 243.099 185.91 244.79 185.91C245.734 185.91 246.481 185.989 247.032 186.146V194.288C246.088 193.855 245.006 193.639 243.787 193.639C241.938 193.639 240.444 194.327 239.303 195.704C238.162 197.041 237.592 198.831 237.592 201.073V216ZM278.722 200.896C278.722 205.419 277.424 209.156 274.828 212.106C272.271 215.017 268.692 216.472 264.09 216.472C259.409 216.472 255.791 215.076 253.234 212.283C250.677 209.451 249.399 205.832 249.399 201.427C249.399 196.825 250.736 193.049 253.411 190.099C256.086 187.11 259.645 185.615 264.09 185.615C268.731 185.615 272.33 187.051 274.887 189.922C277.444 192.793 278.722 196.451 278.722 200.896ZM259.783 194.819C258.839 196.432 258.367 198.516 258.367 201.073C258.367 203.63 258.839 205.734 259.783 207.386C260.766 208.999 262.222 209.805 264.149 209.805C266.037 209.805 267.433 209.018 268.338 207.445C269.282 205.832 269.754 203.748 269.754 201.191C269.754 195.33 267.846 192.4 264.031 192.4C262.143 192.4 260.727 193.206 259.783 194.819ZM291.607 201.132C291.607 203.531 292.236 205.478 293.495 206.973C294.753 208.428 296.287 209.156 298.097 209.156C300.063 209.156 301.656 208.389 302.876 206.855C304.095 205.321 304.705 203.276 304.705 200.719C304.705 198.241 304.036 196.314 302.699 194.937C301.401 193.56 299.847 192.872 298.038 192.872C296.228 192.872 294.694 193.6 293.436 195.055C292.216 196.51 291.607 198.536 291.607 201.132ZM313.319 216H304.705V211.339C302.699 214.682 299.709 216.354 295.737 216.354C291.843 216.354 288.716 214.84 286.356 211.811C284.035 208.782 282.875 205.164 282.875 200.955C282.875 196.235 284.094 192.518 286.533 189.804C288.971 187.09 292.059 185.733 295.796 185.733C299.69 185.733 302.659 187.385 304.705 190.689V174.287H313.319V216ZM347.558 216H338.944V211.221C337.371 214.564 334.342 216.236 329.858 216.236C326.79 216.236 324.391 215.39 322.66 213.699C320.969 211.968 320.123 209.431 320.123 206.088V186.087H328.737V204.141C328.737 207.642 330.271 209.392 333.339 209.392C337.076 209.392 338.944 206.894 338.944 201.899V186.087H347.558V216ZM377.004 214.584C374.683 215.843 371.89 216.472 368.626 216.472C364.142 216.472 360.444 215.056 357.534 212.224C354.623 209.353 353.168 205.655 353.168 201.132C353.246 196.648 354.702 192.951 357.534 190.04C360.366 187.09 364.24 185.615 369.157 185.615C372.185 185.615 374.801 186.185 377.004 187.326V194.701C374.919 193.403 372.598 192.754 370.042 192.754C367.642 192.754 365.695 193.482 364.201 194.937C362.706 196.353 361.939 198.418 361.9 201.132C362.057 203.767 362.844 205.813 364.26 207.268C365.676 208.723 367.544 209.451 369.865 209.451C372.343 209.451 374.722 208.763 377.004 207.386V214.584ZM399.763 215.351C398.307 215.98 396.341 216.295 393.863 216.295C387.058 216.295 383.656 212.893 383.656 206.088V192.4H379.349V186.087H383.656V179.007H392.27V186.087H399.232V192.4H392.27V206.147C392.27 207.209 392.565 208.015 393.155 208.566C393.784 209.117 394.59 209.392 395.574 209.392C397.147 209.392 398.543 208.999 399.763 208.212V215.351ZM425.472 206.973C425.472 209.923 424.41 212.204 422.286 213.817C420.162 215.43 417.349 216.236 413.849 216.236C410.23 216.236 407.201 215.626 404.763 214.407V206.737C407.477 208.625 410.348 209.569 413.377 209.569C415.54 209.569 416.622 208.881 416.622 207.504C416.622 207.15 416.523 206.816 416.327 206.501C416.13 206.186 415.796 205.891 415.324 205.616C414.852 205.341 414.419 205.124 414.026 204.967C413.632 204.77 413.062 204.515 412.315 204.2C411.567 203.885 410.997 203.63 410.604 203.433C406.631 201.545 404.645 198.713 404.645 194.937C404.645 192.026 405.746 189.765 407.949 188.152C410.191 186.539 412.964 185.733 416.268 185.733C419.336 185.733 421.892 186.146 423.938 186.972V194.347C421.853 193.128 419.414 192.518 416.622 192.518C415.599 192.518 414.812 192.734 414.262 193.167C413.711 193.56 413.436 194.072 413.436 194.701C413.436 195.055 413.534 195.389 413.731 195.704C413.927 196.019 414.242 196.314 414.675 196.589C415.147 196.864 415.579 197.12 415.973 197.356C416.405 197.553 416.976 197.808 417.684 198.123C418.431 198.438 419.021 198.713 419.454 198.949C421.263 199.893 422.718 200.994 423.82 202.253C424.921 203.472 425.472 205.046 425.472 206.973ZM461.789 192.4H456.184V216H447.629V192.4H443.735V186.087H447.629V184.966C447.629 181.347 448.632 178.535 450.638 176.529C452.683 174.523 455.496 173.52 459.075 173.52C460.924 173.52 462.418 173.717 463.559 174.11V181.072C462.458 180.639 461.435 180.423 460.491 180.423C459.036 180.423 457.954 180.757 457.246 181.426C456.538 182.095 456.184 183.275 456.184 184.966V186.087H461.789V192.4ZM493.749 200.896C493.749 205.419 492.451 209.156 489.855 212.106C487.299 215.017 483.719 216.472 479.117 216.472C474.437 216.472 470.818 215.076 468.261 212.283C465.705 209.451 464.426 205.832 464.426 201.427C464.426 196.825 465.764 193.049 468.438 190.099C471.113 187.11 474.673 185.615 479.117 185.615C483.759 185.615 487.358 187.051 489.914 189.922C492.471 192.793 493.749 196.451 493.749 200.896ZM474.81 194.819C473.866 196.432 473.394 198.516 473.394 201.073C473.394 203.63 473.866 205.734 474.81 207.386C475.794 208.999 477.249 209.805 479.176 209.805C481.064 209.805 482.461 209.018 483.365 207.445C484.309 205.832 484.781 203.748 484.781 201.191C484.781 195.33 482.874 192.4 479.058 192.4C477.17 192.4 475.754 193.206 474.81 194.819ZM507.932 216H499.318L499.377 186.087H507.932V191.633C508.483 189.902 509.387 188.526 510.646 187.503C511.944 186.441 513.439 185.91 515.13 185.91C516.074 185.91 516.821 185.989 517.372 186.146V194.288C516.428 193.855 515.346 193.639 514.127 193.639C512.278 193.639 510.784 194.327 509.643 195.704C508.502 197.041 507.932 198.831 507.932 201.073V216ZM553.428 215.351C551.972 215.98 550.006 216.295 547.528 216.295C540.723 216.295 537.321 212.893 537.321 206.088V192.4H533.014V186.087H537.321V179.007H545.935V186.087H552.897V192.4H545.935V206.147C545.935 207.209 546.23 208.015 546.82 208.566C547.449 209.117 548.255 209.392 549.239 209.392C550.812 209.392 552.208 208.999 553.428 208.212V215.351ZM586.158 216H577.544V198.3C577.544 196.569 577.111 195.212 576.246 194.229C575.38 193.246 574.259 192.754 572.883 192.754C572.293 192.754 571.722 192.852 571.172 193.049C570.66 193.206 570.09 193.521 569.461 193.993C568.831 194.426 568.32 195.193 567.927 196.294C567.533 197.356 567.337 198.654 567.337 200.188V216H558.723V174.287H567.337V191.161C568.871 187.582 571.86 185.792 576.305 185.792C579.215 185.792 581.575 186.716 583.385 188.565C585.233 190.414 586.158 193.206 586.158 196.943V216ZM616.429 214.289C614.384 215.626 611.257 216.295 607.048 216.295C602.132 216.295 598.297 214.879 595.543 212.047C592.829 209.176 591.472 205.498 591.472 201.014C591.472 196.255 592.79 192.538 595.425 189.863C598.1 187.149 601.384 185.792 605.278 185.792C609.29 185.792 612.457 186.972 614.777 189.332C617.098 191.653 618.258 195.134 618.258 199.775C618.258 200.68 618.101 202.233 617.786 204.436H600.204C600.794 206.088 601.817 207.366 603.272 208.271C604.728 209.176 606.478 209.628 608.523 209.628C611.552 209.628 614.187 208.782 616.429 207.091V214.289ZM605.632 192.341C604.256 192.341 603.036 192.852 601.974 193.875C600.912 194.858 600.204 196.333 599.85 198.3H610.234V197.592C609.959 194.091 608.425 192.341 605.632 192.341ZM14.449 287H5.835V257.087H14.449V287ZM13.682 244.874C14.6653 245.857 15.157 247.037 15.157 248.414C15.157 249.791 14.6653 250.971 13.682 251.954C12.6987 252.937 11.5187 253.429 10.142 253.429C8.76533 253.429 7.58533 252.937 6.602 251.954C5.61867 250.971 5.127 249.791 5.127 248.414C5.127 247.037 5.61867 245.857 6.602 244.874C7.58533 243.891 8.76533 243.399 10.142 243.399C11.5187 243.399 12.6987 243.891 13.682 244.874ZM29.1027 272.132C29.1027 274.531 29.732 276.478 30.9907 277.973C32.2493 279.428 33.7833 280.156 35.5927 280.156C37.5593 280.156 39.1523 279.389 40.3717 277.855C41.591 276.321 42.2007 274.276 42.2007 271.719C42.2007 269.241 41.532 267.314 40.1947 265.937C38.8967 264.56 37.343 263.872 35.5337 263.872C33.7243 263.872 32.1903 264.6 30.9317 266.055C29.7123 267.51 29.1027 269.536 29.1027 272.132ZM50.8147 287H42.2007V282.339C40.1947 285.682 37.2053 287.354 33.2327 287.354C29.3387 287.354 26.2117 285.84 23.8517 282.811C21.531 279.782 20.3707 276.164 20.3707 271.955C20.3707 267.235 21.59 263.518 24.0287 260.804C26.4673 258.09 29.555 256.733 33.2917 256.733C37.1857 256.733 40.1553 258.385 42.2007 261.689V245.287H50.8147V287ZM81.396 285.289C79.3507 286.626 76.2237 287.295 72.015 287.295C67.0984 287.295 63.2634 285.879 60.51 283.047C57.796 280.176 56.439 276.498 56.439 272.014C56.439 267.255 57.7567 263.538 60.392 260.863C63.0667 258.149 66.351 256.792 70.245 256.792C74.257 256.792 77.4234 257.972 79.744 260.332C82.0647 262.653 83.225 266.134 83.225 270.775C83.225 271.68 83.0677 273.233 82.753 275.436H65.171C65.761 277.088 66.7837 278.366 68.239 279.271C69.6944 280.176 71.4447 280.628 73.49 280.628C76.5187 280.628 79.154 279.782 81.396 278.091V285.289ZM70.599 263.341C69.2224 263.341 68.003 263.852 66.941 264.875C65.879 265.858 65.171 267.333 64.817 269.3H75.201V268.592C74.9257 265.091 73.3917 263.341 70.599 263.341ZM100.347 281.1C101.566 281.1 102.51 280.726 103.179 279.979C103.848 279.232 104.182 278.209 104.182 276.911V274.728H101.409C99.9537 274.728 98.8327 275.043 98.046 275.672C97.2593 276.301 96.866 277.108 96.866 278.091C96.866 280.097 98.0263 281.1 100.347 281.1ZM104.595 283.342C103.336 285.899 100.858 287.177 97.161 287.177C94.2503 287.177 91.969 286.351 90.317 284.699C88.7043 283.047 87.898 280.982 87.898 278.504C87.898 275.633 88.9403 273.41 91.025 271.837C93.149 270.224 96.276 269.418 100.406 269.418H104.182V267.353C104.182 264.836 102.51 263.577 99.167 263.577C95.9417 263.577 92.9523 264.482 90.199 266.291V258.562C92.559 257.225 95.9613 256.556 100.406 256.556C104.654 256.556 107.82 257.48 109.905 259.329C111.99 261.138 113.032 263.97 113.032 267.825V287H104.595V283.342ZM128.704 287H120.09V245.287H128.704V287ZM177.991 287H169.377V282.221C167.803 285.564 164.775 287.236 160.291 287.236C157.223 287.236 154.823 286.39 153.093 284.699C151.401 282.968 150.556 280.431 150.556 277.088V257.087H159.17V275.141C159.17 278.642 160.704 280.392 163.772 280.392C167.508 280.392 169.377 277.894 169.377 272.899V257.087H177.991V287ZM205.489 277.973C205.489 280.923 204.427 283.204 202.303 284.817C200.179 286.43 197.367 287.236 193.866 287.236C190.247 287.236 187.219 286.626 184.78 285.407V277.737C187.494 279.625 190.365 280.569 193.394 280.569C195.557 280.569 196.639 279.881 196.639 278.504C196.639 278.15 196.541 277.816 196.344 277.501C196.147 277.186 195.813 276.891 195.341 276.616C194.869 276.341 194.436 276.124 194.043 275.967C193.65 275.77 193.079 275.515 192.332 275.2C191.585 274.885 191.014 274.63 190.621 274.433C186.648 272.545 184.662 269.713 184.662 265.937C184.662 263.026 185.763 260.765 187.966 259.152C190.208 257.539 192.981 256.733 196.285 256.733C199.353 256.733 201.91 257.146 203.955 257.972V265.347C201.87 264.128 199.432 263.518 196.639 263.518C195.616 263.518 194.83 263.734 194.279 264.167C193.728 264.56 193.453 265.072 193.453 265.701C193.453 266.055 193.551 266.389 193.748 266.704C193.945 267.019 194.259 267.314 194.692 267.589C195.164 267.864 195.597 268.12 195.99 268.356C196.423 268.553 196.993 268.808 197.701 269.123C198.448 269.438 199.038 269.713 199.471 269.949C201.28 270.893 202.736 271.994 203.837 273.253C204.938 274.472 205.489 276.046 205.489 277.973ZM234.254 285.289C232.209 286.626 229.082 287.295 224.873 287.295C219.957 287.295 216.122 285.879 213.368 283.047C210.654 280.176 209.297 276.498 209.297 272.014C209.297 267.255 210.615 263.538 213.25 260.863C215.925 258.149 219.209 256.792 223.103 256.792C227.115 256.792 230.282 257.972 232.602 260.332C234.923 262.653 236.083 266.134 236.083 270.775C236.083 271.68 235.926 273.233 235.611 275.436H218.029C218.619 277.088 219.642 278.366 221.097 279.271C222.553 280.176 224.303 280.628 226.348 280.628C229.377 280.628 232.012 279.782 234.254 278.091V285.289ZM223.457 263.341C222.081 263.341 220.861 263.852 219.799 264.875C218.737 265.858 218.029 267.333 217.675 269.3H228.059V268.592C227.784 265.091 226.25 263.341 223.457 263.341ZM250.786 287H242.172L242.231 257.087H250.786V262.633C251.337 260.902 252.242 259.526 253.5 258.503C254.798 257.441 256.293 256.91 257.984 256.91C258.928 256.91 259.676 256.989 260.226 257.146V265.288C259.282 264.855 258.201 264.639 256.981 264.639C255.133 264.639 253.638 265.327 252.497 266.704C251.357 268.041 250.786 269.831 250.786 272.073V287ZM302.3 285.289C300.255 286.626 297.128 287.295 292.919 287.295C288.003 287.295 284.168 285.879 281.414 283.047C278.7 280.176 277.343 276.498 277.343 272.014C277.343 267.255 278.661 263.538 281.296 260.863C283.971 258.149 287.255 256.792 291.149 256.792C295.161 256.792 298.328 257.972 300.648 260.332C302.969 262.653 304.129 266.134 304.129 270.775C304.129 271.68 303.972 273.233 303.657 275.436H286.075C286.665 277.088 287.688 278.366 289.143 279.271C290.599 280.176 292.349 280.628 294.394 280.628C297.423 280.628 300.058 279.782 302.3 278.091V285.289ZM291.503 263.341C290.127 263.341 288.907 263.852 287.845 264.875C286.783 265.858 286.075 267.333 285.721 269.3H296.105V268.592C295.83 265.091 294.296 263.341 291.503 263.341ZM317.003 287H307.681L318.36 272.014L308.33 257.087H317.888L322.726 265.996L328.095 257.087H337.535L326.797 272.073L336.768 287H327.387L322.372 278.032L317.003 287ZM349.947 298.033H341.333V257.087H349.947V261.689C352.032 258.385 355.041 256.733 358.974 256.733C362.829 256.733 365.916 258.11 368.237 260.863C370.597 263.577 371.777 267.274 371.777 271.955C371.777 276.4 370.636 280.077 368.355 282.988C366.113 285.899 362.986 287.354 358.974 287.354C354.923 287.354 351.914 285.761 349.947 282.575V298.033ZM349.947 271.719C349.947 274.276 350.576 276.321 351.835 277.855C353.094 279.389 354.706 280.156 356.673 280.156C358.561 280.156 360.095 279.448 361.275 278.032C362.455 276.577 363.045 274.61 363.045 272.132C363.045 269.418 362.435 267.373 361.216 265.996C360.036 264.58 358.522 263.872 356.673 263.872C354.864 263.872 353.29 264.56 351.953 265.937C350.616 267.314 349.947 269.241 349.947 271.719ZM400.883 285.289C398.838 286.626 395.711 287.295 391.502 287.295C386.586 287.295 382.751 285.879 379.997 283.047C377.283 280.176 375.926 276.498 375.926 272.014C375.926 267.255 377.244 263.538 379.879 260.863C382.554 258.149 385.838 256.792 389.732 256.792C393.744 256.792 396.911 257.972 399.231 260.332C401.552 262.653 402.712 266.134 402.712 270.775C402.712 271.68 402.555 273.233 402.24 275.436H384.658C385.248 277.088 386.271 278.366 387.726 279.271C389.182 280.176 390.932 280.628 392.977 280.628C396.006 280.628 398.641 279.782 400.883 278.091V285.289ZM390.086 263.341C388.71 263.341 387.49 263.852 386.428 264.875C385.366 265.858 384.658 267.333 384.304 269.3H394.688V268.592C394.413 265.091 392.879 263.341 390.086 263.341ZM417.415 287H408.801L408.86 257.087H417.415V262.633C417.966 260.902 418.871 259.526 420.129 258.503C421.427 257.441 422.922 256.91 424.613 256.91C425.557 256.91 426.305 256.989 426.855 257.146V265.288C425.911 264.855 424.83 264.639 423.61 264.639C421.762 264.639 420.267 265.327 419.126 266.704C417.986 268.041 417.415 269.831 417.415 272.073V287ZM439.606 287H430.992V257.087H439.606V287ZM438.839 244.874C439.823 245.857 440.314 247.037 440.314 248.414C440.314 249.791 439.823 250.971 438.839 251.954C437.856 252.937 436.676 253.429 435.299 253.429C433.923 253.429 432.743 252.937 431.759 251.954C430.776 250.971 430.284 249.791 430.284 248.414C430.284 247.037 430.776 245.857 431.759 244.874C432.743 243.891 433.923 243.399 435.299 243.399C436.676 243.399 437.856 243.891 438.839 244.874ZM470.485 285.289C468.44 286.626 465.313 287.295 461.104 287.295C456.187 287.295 452.352 285.879 449.599 283.047C446.885 280.176 445.528 276.498 445.528 272.014C445.528 267.255 446.846 263.538 449.481 260.863C452.156 258.149 455.44 256.792 459.334 256.792C463.346 256.792 466.512 257.972 468.833 260.332C471.154 262.653 472.314 266.134 472.314 270.775C472.314 271.68 472.157 273.233 471.842 275.436H454.26C454.85 277.088 455.873 278.366 457.328 279.271C458.783 280.176 460.534 280.628 462.579 280.628C465.608 280.628 468.243 279.782 470.485 278.091V285.289ZM459.688 263.341C458.311 263.341 457.092 263.852 456.03 264.875C454.968 265.858 454.26 267.333 453.906 269.3H464.29V268.592C464.015 265.091 462.481 263.341 459.688 263.341ZM505.897 287H497.283V269.182C497.283 267.412 496.87 266.075 496.044 265.17C495.218 264.226 494.058 263.754 492.563 263.754C490.99 263.754 489.672 264.383 488.61 265.642C487.587 266.861 487.076 268.71 487.076 271.188V287H478.462V257.087H487.076V262.161C487.823 260.509 488.964 259.211 490.498 258.267C492.071 257.284 493.94 256.792 496.103 256.792C499.171 256.792 501.57 257.716 503.301 259.565C505.032 261.374 505.897 264.049 505.897 267.589V287ZM535.047 285.584C532.727 286.843 529.934 287.472 526.669 287.472C522.185 287.472 518.488 286.056 515.577 283.224C512.667 280.353 511.211 276.655 511.211 272.132C511.29 267.648 512.745 263.951 515.577 261.04C518.409 258.09 522.284 256.615 527.2 256.615C530.229 256.615 532.845 257.185 535.047 258.326V265.701C532.963 264.403 530.642 263.754 528.085 263.754C525.686 263.754 523.739 264.482 522.244 265.937C520.75 267.353 519.983 269.418 519.943 272.132C520.101 274.767 520.887 276.813 522.303 278.268C523.719 279.723 525.588 280.451 527.908 280.451C530.386 280.451 532.766 279.763 535.047 278.386V285.584ZM563.825 285.289C561.779 286.626 558.652 287.295 554.444 287.295C549.527 287.295 545.692 285.879 542.939 283.047C540.225 280.176 538.868 276.498 538.868 272.014C538.868 267.255 540.185 263.538 542.821 260.863C545.495 258.149 548.78 256.792 552.674 256.792C556.686 256.792 559.852 257.972 562.173 260.332C564.493 262.653 565.654 266.134 565.654 270.775C565.654 271.68 565.496 273.233 565.182 275.436H547.6C548.19 277.088 549.212 278.366 550.668 279.271C552.123 280.176 553.873 280.628 555.919 280.628C558.947 280.628 561.583 279.782 563.825 278.091V285.289ZM553.028 263.341C551.651 263.341 550.432 263.852 549.37 264.875C548.308 265.858 547.6 267.333 547.246 269.3H557.63V268.592C557.354 265.091 555.82 263.341 553.028 263.341Z" fill="#292830"/>
<path d="M140.217 236.843H582.027V305.408H140.217V236.843Z" fill="#33EFAB" fill-opacity="0.1" stroke="#33EFAB" stroke-width="2.60293"/>
<rect x="577.768" y="233.651" width="6.69853" height="6.69853" fill="white" stroke="#33EFAB" stroke-width="1.30147"/>
<rect x="134.651" y="302.277" width="6.69853" height="6.69853" fill="white" stroke="#33EFAB" stroke-width="1.30147"/>
<rect x="577.768" y="303.548" width="6.69853" height="6.69853" fill="white" stroke="#33EFAB" stroke-width="1.30147"/>
<rect x="135.846" y="233.69" width="6.69853" height="6.69853" fill="white" stroke="#33EFAB" stroke-width="1.30147"/>
</svg>
