<svg width="1440" height="786" viewBox="0 0 1440 786" fill="none" xmlns="http://www.w3.org/2000/svg">
<rect width="1440" height="786" fill="#191919"/>
<path d="M10.358 28V27.048H12.934V20.468H10.932V19.726C11.2867 19.6793 11.5993 19.6233 11.87 19.558C12.1407 19.4927 12.388 19.4227 12.612 19.348C12.836 19.264 13.0413 19.1707 13.228 19.068H14.082V27.048H16.42V28H10.358ZM27.1751 30.24L31.7671 18.06H32.8031L28.2111 30.24H27.1751ZM35.5696 30.24L40.1616 18.06H41.1976L36.6056 30.24H35.5696ZM54.5847 28V19.796H51.5607V18.816H58.7847V19.796H55.7607V28H54.5847ZM63.5672 28.168C62.8765 28.168 62.2652 27.9767 61.7332 27.594C61.2012 27.2113 60.7859 26.6653 60.4872 25.956C60.1885 25.2373 60.0392 24.374 60.0392 23.366C60.0392 22.3767 60.1885 21.532 60.4872 20.832C60.7859 20.1227 61.2012 19.5813 61.7332 19.208C62.2652 18.8347 62.8765 18.648 63.5672 18.648C64.2579 18.648 64.8692 18.8347 65.4012 19.208C65.9332 19.5813 66.3485 20.1227 66.6472 20.832C66.9459 21.532 67.0952 22.3767 67.0952 23.366C67.0952 24.374 66.9459 25.2373 66.6472 25.956C66.3485 26.6653 65.9332 27.2113 65.4012 27.594C64.8692 27.9767 64.2579 28.168 63.5672 28.168ZM63.5672 27.146C64.0339 27.146 64.4399 26.9967 64.7852 26.698C65.1399 26.39 65.4105 25.956 65.5972 25.396C65.7932 24.8267 65.8912 24.15 65.8912 23.366C65.8912 22.5913 65.7932 21.9287 65.5972 21.378C65.4105 20.8273 65.1399 20.4073 64.7852 20.118C64.4399 19.8193 64.0339 19.67 63.5672 19.67C63.1005 19.67 62.6899 19.8193 62.3352 20.118C61.9899 20.4073 61.7192 20.8273 61.5232 21.378C61.3365 21.9287 61.2432 22.5913 61.2432 23.366C61.2432 24.15 61.3365 24.8267 61.5232 25.396C61.7192 25.956 61.9899 26.39 62.3352 26.698C62.6899 26.9967 63.1005 27.146 63.5672 27.146ZM68.9797 28V18.816H71.2477C72.1717 18.816 72.9464 18.9933 73.5717 19.348C74.2064 19.6933 74.6871 20.2067 75.0137 20.888C75.3404 21.5693 75.5037 22.3953 75.5037 23.366C75.5037 24.346 75.3404 25.1813 75.0137 25.872C74.6964 26.5627 74.2251 27.09 73.5997 27.454C72.9744 27.818 72.2091 28 71.3037 28H68.9797ZM70.1417 27.048H71.1637C71.8637 27.048 72.4424 26.9033 72.8997 26.614C73.3664 26.3153 73.7164 25.8953 73.9497 25.354C74.1831 24.8033 74.2997 24.1407 74.2997 23.366C74.2997 22.6007 74.1831 21.9473 73.9497 21.406C73.7164 20.8647 73.3664 20.4587 72.8997 20.188C72.4424 19.908 71.8637 19.768 71.1637 19.768H70.1417V27.048ZM80.3563 28.168C79.6656 28.168 79.0543 27.9767 78.5223 27.594C77.9903 27.2113 77.5749 26.6653 77.2763 25.956C76.9776 25.2373 76.8283 24.374 76.8283 23.366C76.8283 22.3767 76.9776 21.532 77.2763 20.832C77.5749 20.1227 77.9903 19.5813 78.5223 19.208C79.0543 18.8347 79.6656 18.648 80.3563 18.648C81.0469 18.648 81.6583 18.8347 82.1903 19.208C82.7223 19.5813 83.1376 20.1227 83.4363 20.832C83.7349 21.532 83.8843 22.3767 83.8843 23.366C83.8843 24.374 83.7349 25.2373 83.4363 25.956C83.1376 26.6653 82.7223 27.2113 82.1903 27.594C81.6583 27.9767 81.0469 28.168 80.3563 28.168ZM80.3563 27.146C80.8229 27.146 81.2289 26.9967 81.5743 26.698C81.9289 26.39 82.1996 25.956 82.3863 25.396C82.5823 24.8267 82.6803 24.15 82.6803 23.366C82.6803 22.5913 82.5823 21.9287 82.3863 21.378C82.1996 20.8273 81.9289 20.4073 81.5743 20.118C81.2289 19.8193 80.8229 19.67 80.3563 19.67C79.8896 19.67 79.4789 19.8193 79.1243 20.118C78.7789 20.4073 78.5083 20.8273 78.3123 21.378C78.1256 21.9287 78.0323 22.5913 78.0323 23.366C78.0323 24.15 78.1256 24.8267 78.3123 25.396C78.5083 25.956 78.7789 26.39 79.1243 26.698C79.4789 26.9967 79.8896 27.146 80.3563 27.146ZM88.7508 23.156C88.4428 23.156 88.1768 23.0487 87.9528 22.834C87.7288 22.61 87.6168 22.3253 87.6168 21.98C87.6168 21.6253 87.7288 21.3407 87.9528 21.126C88.1768 20.902 88.4428 20.79 88.7508 20.79C89.0681 20.79 89.3341 20.902 89.5488 21.126C89.7728 21.3407 89.8848 21.6253 89.8848 21.98C89.8848 22.3253 89.7728 22.61 89.5488 22.834C89.3341 23.0487 89.0681 23.156 88.7508 23.156ZM88.7508 28.168C88.4428 28.168 88.1768 28.0607 87.9528 27.846C87.7288 27.622 87.6168 27.3373 87.6168 26.992C87.6168 26.6373 87.7288 26.3527 87.9528 26.138C88.1768 25.914 88.4428 25.802 88.7508 25.802C89.0681 25.802 89.3341 25.914 89.5488 26.138C89.7728 26.3527 89.8848 26.6373 89.8848 26.992C89.8848 27.3373 89.7728 27.622 89.5488 27.846C89.3341 28.0607 89.0681 28.168 88.7508 28.168ZM102.348 28V18.816H103.776L105.064 22.736L105.512 24.22H105.568L106.002 22.736L107.304 18.816H108.732V28H107.612V23.408C107.612 23.184 107.617 22.9273 107.626 22.638C107.645 22.3487 107.663 22.05 107.682 21.742C107.71 21.434 107.733 21.1447 107.752 20.874C107.78 20.594 107.799 20.356 107.808 20.16H107.766L107.248 21.952L105.932 25.564H105.092L103.804 21.952L103.272 20.16H103.244C103.263 20.356 103.281 20.594 103.3 20.874C103.328 21.1447 103.351 21.434 103.37 21.742C103.389 22.05 103.403 22.3487 103.412 22.638C103.431 22.9273 103.44 23.184 103.44 23.408V28H102.348ZM111.568 30.926C111.419 30.926 111.26 30.912 111.092 30.884C110.934 30.856 110.794 30.8233 110.672 30.786L110.91 29.876C111.004 29.904 111.102 29.9273 111.204 29.946C111.316 29.9647 111.424 29.974 111.526 29.974C112.002 29.974 112.39 29.834 112.688 29.554C112.987 29.2833 113.22 28.938 113.388 28.518L113.598 28.014L110.42 21.196H111.582L113.248 24.962C113.379 25.2607 113.514 25.5827 113.654 25.928C113.804 26.264 113.948 26.6 114.088 26.936H114.144C114.266 26.6093 114.387 26.278 114.508 25.942C114.639 25.5967 114.76 25.27 114.872 24.962L116.356 21.196H117.448L114.452 28.56C114.284 29.008 114.074 29.4093 113.822 29.764C113.57 30.128 113.258 30.4127 112.884 30.618C112.52 30.8233 112.082 30.926 111.568 30.926ZM127.825 30.87V21.196H128.777L128.875 22.064H128.917C129.235 21.7653 129.599 21.518 130.009 21.322C130.429 21.126 130.849 21.028 131.269 21.028C131.885 21.028 132.399 21.1727 132.809 21.462C133.229 21.742 133.547 22.1433 133.761 22.666C133.976 23.1793 134.083 23.7907 134.083 24.5C134.083 25.2653 133.939 25.9233 133.649 26.474C133.36 27.0247 132.982 27.4447 132.515 27.734C132.049 28.0233 131.54 28.168 130.989 28.168C130.681 28.168 130.341 28.0933 129.967 27.944C129.603 27.7853 129.267 27.566 128.959 27.286H128.917L128.973 28.574V30.87H127.825ZM130.793 27.202C131.195 27.202 131.554 27.0947 131.871 26.88C132.189 26.6653 132.436 26.3573 132.613 25.956C132.8 25.5453 132.893 25.06 132.893 24.5C132.893 24.0053 132.828 23.5713 132.697 23.198C132.567 22.8153 132.361 22.5213 132.081 22.316C131.801 22.1013 131.433 21.994 130.975 21.994C130.667 21.994 130.341 22.078 129.995 22.246C129.659 22.4047 129.319 22.6613 128.973 23.016V26.404C129.3 26.6933 129.627 26.8987 129.953 27.02C130.289 27.1413 130.569 27.202 130.793 27.202ZM139.538 28.168C138.857 28.168 138.236 28.028 137.676 27.748C137.125 27.468 136.687 27.062 136.36 26.53C136.033 25.9887 135.87 25.34 135.87 24.584C135.87 23.8467 136.033 23.212 136.36 22.68C136.687 22.148 137.111 21.742 137.634 21.462C138.166 21.1727 138.735 21.028 139.342 21.028C139.995 21.028 140.551 21.1633 141.008 21.434C141.475 21.6953 141.829 22.064 142.072 22.54C142.324 23.016 142.45 23.576 142.45 24.22C142.45 24.3507 142.445 24.4767 142.436 24.598C142.427 24.7193 142.413 24.8267 142.394 24.92H136.64V24.024H141.708L141.414 24.346C141.414 23.5433 141.227 22.9413 140.854 22.54C140.49 22.1387 139.995 21.938 139.37 21.938C138.95 21.938 138.558 22.0407 138.194 22.246C137.839 22.4513 137.555 22.75 137.34 23.142C137.125 23.534 137.018 24.0147 137.018 24.584C137.018 25.172 137.135 25.662 137.368 26.054C137.601 26.446 137.919 26.7447 138.32 26.95C138.721 27.146 139.174 27.244 139.678 27.244C140.089 27.244 140.457 27.188 140.784 27.076C141.12 26.9547 141.442 26.796 141.75 26.6L142.17 27.356C141.834 27.58 141.447 27.7713 141.008 27.93C140.579 28.0887 140.089 28.168 139.538 28.168ZM145.357 28V21.196H146.309L146.407 22.806H146.449C146.803 22.2553 147.242 21.8213 147.765 21.504C148.287 21.1867 148.861 21.028 149.487 21.028C149.739 21.028 149.972 21.0513 150.187 21.098C150.411 21.1353 150.625 21.2053 150.831 21.308L150.565 22.302C150.331 22.218 150.131 22.1573 149.963 22.12C149.795 22.0827 149.575 22.064 149.305 22.064C148.791 22.064 148.297 22.2133 147.821 22.512C147.354 22.8013 146.915 23.3007 146.505 24.01V28H145.357ZM156.047 28.168C155.384 28.168 154.764 28.0607 154.185 27.846C153.606 27.6313 153.112 27.384 152.701 27.104L153.233 26.348C153.625 26.628 154.059 26.852 154.535 27.02C155.011 27.188 155.562 27.272 156.187 27.272C156.766 27.272 157.195 27.1647 157.475 26.95C157.764 26.7353 157.909 26.488 157.909 26.208C157.909 26.0773 157.881 25.956 157.825 25.844C157.778 25.732 157.68 25.6247 157.531 25.522C157.391 25.4193 157.181 25.3213 156.901 25.228C156.621 25.1347 156.248 25.0413 155.781 24.948C154.894 24.7613 154.227 24.5093 153.779 24.192C153.34 23.8747 153.121 23.464 153.121 22.96C153.121 22.4093 153.359 21.952 153.835 21.588C154.311 21.2147 155.016 21.028 155.949 21.028C156.472 21.028 156.976 21.1167 157.461 21.294C157.946 21.462 158.357 21.6627 158.693 21.896L158.133 22.638C157.825 22.414 157.475 22.2413 157.083 22.12C156.691 21.9893 156.28 21.924 155.851 21.924C155.459 21.924 155.146 21.9707 154.913 22.064C154.689 22.148 154.526 22.2647 154.423 22.414C154.33 22.5633 154.283 22.7267 154.283 22.904C154.283 23.1933 154.437 23.422 154.745 23.59C155.062 23.7487 155.566 23.898 156.257 24.038C157.013 24.1967 157.592 24.374 157.993 24.57C158.404 24.766 158.684 24.99 158.833 25.242C158.992 25.494 159.071 25.7927 159.071 26.138C159.071 26.5113 158.954 26.852 158.721 27.16C158.488 27.4587 158.147 27.7013 157.699 27.888C157.251 28.0747 156.7 28.168 156.047 28.168ZM164.302 28.168C163.704 28.168 163.149 28.028 162.636 27.748C162.132 27.468 161.721 27.062 161.404 26.53C161.096 25.998 160.942 25.3587 160.942 24.612C160.942 23.8467 161.096 23.198 161.404 22.666C161.721 22.134 162.132 21.728 162.636 21.448C163.149 21.168 163.704 21.028 164.302 21.028C164.899 21.028 165.45 21.168 165.954 21.448C166.467 21.728 166.878 22.134 167.186 22.666C167.503 23.198 167.662 23.8467 167.662 24.612C167.662 25.3587 167.503 25.998 167.186 26.53C166.878 27.062 166.467 27.468 165.954 27.748C165.45 28.028 164.899 28.168 164.302 28.168ZM164.302 27.216C164.74 27.216 165.123 27.1087 165.45 26.894C165.776 26.67 166.028 26.362 166.206 25.97C166.383 25.578 166.472 25.1253 166.472 24.612C166.472 24.0893 166.383 23.632 166.206 23.24C166.028 22.8387 165.776 22.5307 165.45 22.316C165.123 22.092 164.74 21.98 164.302 21.98C163.863 21.98 163.48 22.092 163.154 22.316C162.836 22.5307 162.584 22.8387 162.398 23.24C162.22 23.632 162.132 24.0893 162.132 24.612C162.132 25.1253 162.22 25.578 162.398 25.97C162.584 26.362 162.836 26.67 163.154 26.894C163.48 27.1087 163.863 27.216 164.302 27.216ZM169.798 28V21.196H170.75L170.848 22.358H170.904C171.259 21.9753 171.641 21.658 172.052 21.406C172.463 21.154 172.934 21.028 173.466 21.028C174.269 21.028 174.861 21.2613 175.244 21.728C175.627 22.1947 175.818 22.876 175.818 23.772V28H174.67V23.926C174.67 23.282 174.549 22.806 174.306 22.498C174.063 22.1807 173.662 22.022 173.102 22.022C172.701 22.022 172.341 22.1247 172.024 22.33C171.707 22.5353 171.347 22.8433 170.946 23.254V28H169.798ZM180.671 28.168C180.092 28.168 179.579 28.0327 179.131 27.762C178.692 27.482 178.347 27.076 178.095 26.544C177.852 26.012 177.731 25.368 177.731 24.612C177.731 23.8747 177.875 23.24 178.165 22.708C178.454 22.1667 178.837 21.7513 179.313 21.462C179.789 21.1727 180.297 21.028 180.839 21.028C181.24 21.028 181.609 21.1073 181.945 21.266C182.281 21.4153 182.607 21.644 182.925 21.952H182.967L183.065 21.196H183.989V28H183.037L182.939 27.104H182.897C182.626 27.3933 182.295 27.6453 181.903 27.86C181.511 28.0653 181.1 28.168 180.671 28.168ZM180.923 27.202C181.259 27.202 181.585 27.118 181.903 26.95C182.22 26.7727 182.533 26.516 182.841 26.18V22.792C182.533 22.5027 182.229 22.2973 181.931 22.176C181.641 22.0547 181.347 21.994 181.049 21.994C180.657 21.994 180.297 22.106 179.971 22.33C179.653 22.5447 179.397 22.848 179.201 23.24C179.014 23.6227 178.921 24.0753 178.921 24.598C178.921 25.41 179.098 26.0493 179.453 26.516C179.807 26.9733 180.297 27.202 180.923 27.202ZM190.969 28.168C190.25 28.168 189.7 27.9627 189.317 27.552C188.934 27.132 188.743 26.5207 188.743 25.718V18.97H186.419V18.032H189.891V25.802C189.891 26.2967 190.012 26.656 190.255 26.88C190.498 27.104 190.82 27.216 191.221 27.216C191.417 27.216 191.618 27.1927 191.823 27.146C192.028 27.09 192.257 27.006 192.509 26.894L192.803 27.762C192.495 27.874 192.206 27.9673 191.935 28.042C191.664 28.126 191.342 28.168 190.969 28.168ZM203.376 30.87V21.196H204.328L204.426 22.064H204.468C204.786 21.7653 205.15 21.518 205.56 21.322C205.98 21.126 206.4 21.028 206.82 21.028C207.436 21.028 207.95 21.1727 208.36 21.462C208.78 21.742 209.098 22.1433 209.312 22.666C209.527 23.1793 209.634 23.7907 209.634 24.5C209.634 25.2653 209.49 25.9233 209.2 26.474C208.911 27.0247 208.533 27.4447 208.066 27.734C207.6 28.0233 207.091 28.168 206.54 28.168C206.232 28.168 205.892 28.0933 205.518 27.944C205.154 27.7853 204.818 27.566 204.51 27.286H204.468L204.524 28.574V30.87H203.376ZM206.344 27.202C206.746 27.202 207.105 27.0947 207.422 26.88C207.74 26.6653 207.987 26.3573 208.164 25.956C208.351 25.5453 208.444 25.06 208.444 24.5C208.444 24.0053 208.379 23.5713 208.248 23.198C208.118 22.8153 207.912 22.5213 207.632 22.316C207.352 22.1013 206.984 21.994 206.526 21.994C206.218 21.994 205.892 22.078 205.546 22.246C205.21 22.4047 204.87 22.6613 204.524 23.016V26.404C204.851 26.6933 205.178 26.8987 205.504 27.02C205.84 27.1413 206.12 27.202 206.344 27.202ZM214.669 28.168C214.071 28.168 213.516 28.028 213.003 27.748C212.499 27.468 212.088 27.062 211.771 26.53C211.463 25.998 211.309 25.3587 211.309 24.612C211.309 23.8467 211.463 23.198 211.771 22.666C212.088 22.134 212.499 21.728 213.003 21.448C213.516 21.168 214.071 21.028 214.669 21.028C215.266 21.028 215.817 21.168 216.321 21.448C216.834 21.728 217.245 22.134 217.553 22.666C217.87 23.198 218.029 23.8467 218.029 24.612C218.029 25.3587 217.87 25.998 217.553 26.53C217.245 27.062 216.834 27.468 216.321 27.748C215.817 28.028 215.266 28.168 214.669 28.168ZM214.669 27.216C215.107 27.216 215.49 27.1087 215.817 26.894C216.143 26.67 216.395 26.362 216.573 25.97C216.75 25.578 216.839 25.1253 216.839 24.612C216.839 24.0893 216.75 23.632 216.573 23.24C216.395 22.8387 216.143 22.5307 215.817 22.316C215.49 22.092 215.107 21.98 214.669 21.98C214.23 21.98 213.847 22.092 213.521 22.316C213.203 22.5307 212.951 22.8387 212.765 23.24C212.587 23.632 212.499 24.0893 212.499 24.612C212.499 25.1253 212.587 25.578 212.765 25.97C212.951 26.362 213.203 26.67 213.521 26.894C213.847 27.1087 214.23 27.216 214.669 27.216ZM220.907 28V21.196H221.859L221.957 22.806H221.999C222.354 22.2553 222.793 21.8213 223.315 21.504C223.838 21.1867 224.412 21.028 225.037 21.028C225.289 21.028 225.523 21.0513 225.737 21.098C225.961 21.1353 226.176 21.2053 226.381 21.308L226.115 22.302C225.882 22.218 225.681 22.1573 225.513 22.12C225.345 22.0827 225.126 22.064 224.855 22.064C224.342 22.064 223.847 22.2133 223.371 22.512C222.905 22.8013 222.466 23.3007 222.055 24.01V28H220.907ZM232.774 28.168C232.111 28.168 231.588 28.0513 231.206 27.818C230.823 27.5753 230.548 27.244 230.38 26.824C230.221 26.404 230.142 25.914 230.142 25.354V22.134H228.224V21.266L230.184 21.196L230.338 19.012H231.29V21.196H234.636V22.134H231.29V25.368C231.29 25.7693 231.341 26.11 231.444 26.39C231.546 26.67 231.724 26.88 231.976 27.02C232.228 27.16 232.573 27.23 233.012 27.23C233.338 27.23 233.632 27.202 233.894 27.146C234.155 27.09 234.407 27.0153 234.65 26.922L234.902 27.762C234.594 27.874 234.267 27.9673 233.922 28.042C233.586 28.126 233.203 28.168 232.774 28.168ZM239.04 28V20.622C239.04 20.0713 239.138 19.5907 239.334 19.18C239.54 18.76 239.843 18.438 240.244 18.214C240.646 17.9807 241.159 17.864 241.784 17.864C242.12 17.864 242.447 17.8967 242.764 17.962C243.091 18.018 243.418 18.116 243.744 18.256L243.478 19.124C243.198 18.9933 242.937 18.9093 242.694 18.872C242.461 18.8253 242.195 18.802 241.896 18.802C241.29 18.802 240.851 18.9607 240.58 19.278C240.31 19.5953 240.174 20.0293 240.174 20.58V28H239.04ZM237.094 22.134V21.266L239.082 21.196H243.03V22.134H237.094ZM248.247 28.168C247.65 28.168 247.094 28.028 246.581 27.748C246.077 27.468 245.666 27.062 245.349 26.53C245.041 25.998 244.887 25.3587 244.887 24.612C244.887 23.8467 245.041 23.198 245.349 22.666C245.666 22.134 246.077 21.728 246.581 21.448C247.094 21.168 247.65 21.028 248.247 21.028C248.844 21.028 249.395 21.168 249.899 21.448C250.412 21.728 250.823 22.134 251.131 22.666C251.448 23.198 251.607 23.8467 251.607 24.612C251.607 25.3587 251.448 25.998 251.131 26.53C250.823 27.062 250.412 27.468 249.899 27.748C249.395 28.028 248.844 28.168 248.247 28.168ZM248.247 27.216C248.686 27.216 249.068 27.1087 249.395 26.894C249.722 26.67 249.974 26.362 250.151 25.97C250.328 25.578 250.417 25.1253 250.417 24.612C250.417 24.0893 250.328 23.632 250.151 23.24C249.974 22.8387 249.722 22.5307 249.395 22.316C249.068 22.092 248.686 21.98 248.247 21.98C247.808 21.98 247.426 22.092 247.099 22.316C246.782 22.5307 246.53 22.8387 246.343 23.24C246.166 23.632 246.077 24.0893 246.077 24.612C246.077 25.1253 246.166 25.578 246.343 25.97C246.53 26.362 246.782 26.67 247.099 26.894C247.426 27.1087 247.808 27.216 248.247 27.216ZM258.125 28.168C257.407 28.168 256.856 27.9627 256.473 27.552C256.091 27.132 255.899 26.5207 255.899 25.718V18.97H253.575V18.032H257.047V25.802C257.047 26.2967 257.169 26.656 257.411 26.88C257.654 27.104 257.976 27.216 258.377 27.216C258.573 27.216 258.774 27.1927 258.979 27.146C259.185 27.09 259.413 27.006 259.665 26.894L259.959 27.762C259.651 27.874 259.362 27.9673 259.091 28.042C258.821 28.126 258.499 28.168 258.125 28.168ZM265.26 28V22.134H262.096V21.196H266.408V28H265.26ZM265.708 19.768C265.447 19.768 265.227 19.6887 265.05 19.53C264.873 19.362 264.784 19.1427 264.784 18.872C264.784 18.6013 264.873 18.3867 265.05 18.228C265.227 18.06 265.447 17.976 265.708 17.976C265.969 17.976 266.189 18.06 266.366 18.228C266.543 18.3867 266.632 18.6013 266.632 18.872C266.632 19.1427 266.543 19.362 266.366 19.53C266.189 19.6887 265.969 19.768 265.708 19.768ZM273.43 28.168C272.833 28.168 272.278 28.028 271.764 27.748C271.26 27.468 270.85 27.062 270.532 26.53C270.224 25.998 270.07 25.3587 270.07 24.612C270.07 23.8467 270.224 23.198 270.532 22.666C270.85 22.134 271.26 21.728 271.764 21.448C272.278 21.168 272.833 21.028 273.43 21.028C274.028 21.028 274.578 21.168 275.082 21.448C275.596 21.728 276.006 22.134 276.314 22.666C276.632 23.198 276.79 23.8467 276.79 24.612C276.79 25.3587 276.632 25.998 276.314 26.53C276.006 27.062 275.596 27.468 275.082 27.748C274.578 28.028 274.028 28.168 273.43 28.168ZM273.43 27.216C273.869 27.216 274.252 27.1087 274.578 26.894C274.905 26.67 275.157 26.362 275.334 25.97C275.512 25.578 275.6 25.1253 275.6 24.612C275.6 24.0893 275.512 23.632 275.334 23.24C275.157 22.8387 274.905 22.5307 274.578 22.316C274.252 22.092 273.869 21.98 273.43 21.98C272.992 21.98 272.609 22.092 272.282 22.316C271.965 22.5307 271.713 22.8387 271.526 23.24C271.349 23.632 271.26 24.0893 271.26 24.612C271.26 25.1253 271.349 25.578 271.526 25.97C271.713 26.362 271.965 26.67 272.282 26.894C272.609 27.1087 272.992 27.216 273.43 27.216ZM287.616 28L286.132 21.196H287.28L288.092 25.144C288.157 25.4613 288.213 25.774 288.26 26.082C288.316 26.3807 288.362 26.6933 288.4 27.02H288.456C288.502 26.6933 288.558 26.3807 288.624 26.082C288.698 25.774 288.773 25.4613 288.848 25.144L289.688 21.616H290.836L291.648 25.144C291.722 25.4613 291.802 25.774 291.886 26.082C291.97 26.3807 292.03 26.6933 292.068 27.02H292.124C292.18 26.6933 292.226 26.3807 292.264 26.082C292.31 25.774 292.366 25.4613 292.432 25.144L293.244 21.196H294.308L292.852 28H291.368L290.584 24.752C290.528 24.5093 290.472 24.22 290.416 23.884C290.36 23.548 290.304 23.1653 290.248 22.736H290.192C290.136 23.1653 290.08 23.548 290.024 23.884C289.968 24.22 289.912 24.5093 289.856 24.752L289.1 28H287.616ZM299.034 28.168C298.353 28.168 297.732 28.028 297.172 27.748C296.621 27.468 296.183 27.062 295.856 26.53C295.529 25.9887 295.366 25.34 295.366 24.584C295.366 23.8467 295.529 23.212 295.856 22.68C296.183 22.148 296.607 21.742 297.13 21.462C297.662 21.1727 298.231 21.028 298.838 21.028C299.491 21.028 300.047 21.1633 300.504 21.434C300.971 21.6953 301.325 22.064 301.568 22.54C301.82 23.016 301.946 23.576 301.946 24.22C301.946 24.3507 301.941 24.4767 301.932 24.598C301.923 24.7193 301.909 24.8267 301.89 24.92H296.136V24.024H301.204L300.91 24.346C300.91 23.5433 300.723 22.9413 300.35 22.54C299.986 22.1387 299.491 21.938 298.866 21.938C298.446 21.938 298.054 22.0407 297.69 22.246C297.335 22.4513 297.051 22.75 296.836 23.142C296.621 23.534 296.514 24.0147 296.514 24.584C296.514 25.172 296.631 25.662 296.864 26.054C297.097 26.446 297.415 26.7447 297.816 26.95C298.217 27.146 298.67 27.244 299.174 27.244C299.585 27.244 299.953 27.188 300.28 27.076C300.616 26.9547 300.938 26.796 301.246 26.6L301.666 27.356C301.33 27.58 300.943 27.7713 300.504 27.93C300.075 28.0887 299.585 28.168 299.034 28.168ZM307.289 28.168C306.953 28.168 306.593 28.0887 306.211 27.93C305.837 27.762 305.492 27.5333 305.175 27.244H305.133L305.035 28H304.111V18.032H305.259V20.748L305.217 22.064H305.259C305.567 21.7467 305.921 21.4947 306.323 21.308C306.733 21.1213 307.139 21.028 307.541 21.028C308.157 21.028 308.675 21.1727 309.095 21.462C309.515 21.742 309.832 22.1433 310.047 22.666C310.261 23.1793 310.369 23.786 310.369 24.486C310.369 25.2607 310.224 25.9233 309.935 26.474C309.655 27.0247 309.281 27.4447 308.815 27.734C308.348 28.0233 307.839 28.168 307.289 28.168ZM307.107 27.202C307.499 27.202 307.849 27.0947 308.157 26.88C308.474 26.6653 308.721 26.3573 308.899 25.956C309.085 25.5453 309.179 25.06 309.179 24.5C309.179 24.0053 309.113 23.5713 308.983 23.198C308.852 22.8153 308.647 22.5213 308.367 22.316C308.087 22.1013 307.718 21.994 307.261 21.994C306.953 21.994 306.626 22.078 306.281 22.246C305.945 22.4047 305.604 22.6613 305.259 23.016V26.404C305.585 26.6933 305.912 26.8987 306.239 27.02C306.575 27.1413 306.864 27.202 307.107 27.202ZM315.543 28.168C314.88 28.168 314.26 28.0607 313.681 27.846C313.102 27.6313 312.608 27.384 312.197 27.104L312.729 26.348C313.121 26.628 313.555 26.852 314.031 27.02C314.507 27.188 315.058 27.272 315.683 27.272C316.262 27.272 316.691 27.1647 316.971 26.95C317.26 26.7353 317.405 26.488 317.405 26.208C317.405 26.0773 317.377 25.956 317.321 25.844C317.274 25.732 317.176 25.6247 317.027 25.522C316.887 25.4193 316.677 25.3213 316.397 25.228C316.117 25.1347 315.744 25.0413 315.277 24.948C314.39 24.7613 313.723 24.5093 313.275 24.192C312.836 23.8747 312.617 23.464 312.617 22.96C312.617 22.4093 312.855 21.952 313.331 21.588C313.807 21.2147 314.512 21.028 315.445 21.028C315.968 21.028 316.472 21.1167 316.957 21.294C317.442 21.462 317.853 21.6627 318.189 21.896L317.629 22.638C317.321 22.414 316.971 22.2413 316.579 22.12C316.187 21.9893 315.776 21.924 315.347 21.924C314.955 21.924 314.642 21.9707 314.409 22.064C314.185 22.148 314.022 22.2647 313.919 22.414C313.826 22.5633 313.779 22.7267 313.779 22.904C313.779 23.1933 313.933 23.422 314.241 23.59C314.558 23.7487 315.062 23.898 315.753 24.038C316.509 24.1967 317.088 24.374 317.489 24.57C317.9 24.766 318.18 24.99 318.329 25.242C318.488 25.494 318.567 25.7927 318.567 26.138C318.567 26.5113 318.45 26.852 318.217 27.16C317.984 27.4587 317.643 27.7013 317.195 27.888C316.747 28.0747 316.196 28.168 315.543 28.168ZM324.022 28V22.134H320.858V21.196H325.17V28H324.022ZM324.47 19.768C324.208 19.768 323.989 19.6887 323.812 19.53C323.634 19.362 323.546 19.1427 323.546 18.872C323.546 18.6013 323.634 18.3867 323.812 18.228C323.989 18.06 324.208 17.976 324.47 17.976C324.731 17.976 324.95 18.06 325.128 18.228C325.305 18.3867 325.394 18.6013 325.394 18.872C325.394 19.1427 325.305 19.362 325.128 19.53C324.95 19.6887 324.731 19.768 324.47 19.768ZM333.508 28.168C332.846 28.168 332.323 28.0513 331.94 27.818C331.558 27.5753 331.282 27.244 331.114 26.824C330.956 26.404 330.876 25.914 330.876 25.354V22.134H328.958V21.266L330.918 21.196L331.072 19.012H332.024V21.196H335.37V22.134H332.024V25.368C332.024 25.7693 332.076 26.11 332.178 26.39C332.281 26.67 332.458 26.88 332.71 27.02C332.962 27.16 333.308 27.23 333.746 27.23C334.073 27.23 334.367 27.202 334.628 27.146C334.89 27.09 335.142 27.0153 335.384 26.922L335.636 27.762C335.328 27.874 335.002 27.9673 334.656 28.042C334.32 28.126 333.938 28.168 333.508 28.168ZM341.007 28.168C340.325 28.168 339.705 28.028 339.145 27.748C338.594 27.468 338.155 27.062 337.829 26.53C337.502 25.9887 337.339 25.34 337.339 24.584C337.339 23.8467 337.502 23.212 337.829 22.68C338.155 22.148 338.58 21.742 339.103 21.462C339.635 21.1727 340.204 21.028 340.811 21.028C341.464 21.028 342.019 21.1633 342.477 21.434C342.943 21.6953 343.298 22.064 343.541 22.54C343.793 23.016 343.919 23.576 343.919 24.22C343.919 24.3507 343.914 24.4767 343.905 24.598C343.895 24.7193 343.881 24.8267 343.863 24.92H338.109V24.024H343.177L342.883 24.346C342.883 23.5433 342.696 22.9413 342.323 22.54C341.959 22.1387 341.464 21.938 340.839 21.938C340.419 21.938 340.027 22.0407 339.663 22.246C339.308 22.4513 339.023 22.75 338.809 23.142C338.594 23.534 338.487 24.0147 338.487 24.584C338.487 25.172 338.603 25.662 338.837 26.054C339.07 26.446 339.387 26.7447 339.789 26.95C340.19 27.146 340.643 27.244 341.147 27.244C341.557 27.244 341.926 27.188 342.253 27.076C342.589 26.9547 342.911 26.796 343.219 26.6L343.639 27.356C343.303 27.58 342.915 27.7713 342.477 27.93C342.047 28.0887 341.557 28.168 341.007 28.168ZM10.022 48V47.314C11.03 46.4273 11.8793 45.648 12.57 44.976C13.27 44.2947 13.802 43.6833 14.166 43.142C14.53 42.6007 14.712 42.0827 14.712 41.588C14.712 41.0747 14.5533 40.6547 14.236 40.328C13.9187 40.0013 13.4287 39.838 12.766 39.838C12.346 39.838 11.954 39.9407 11.59 40.146C11.2353 40.3513 10.9133 40.608 10.624 40.916L9.966 40.258C10.3673 39.8473 10.7967 39.5207 11.254 39.278C11.7207 39.026 12.2713 38.9 12.906 38.9C13.5033 38.9 14.0167 39.012 14.446 39.236C14.8847 39.4507 15.2207 39.754 15.454 40.146C15.6967 40.538 15.818 41 15.818 41.532C15.818 42.092 15.6453 42.6567 15.3 43.226C14.9547 43.7953 14.4693 44.3973 13.844 45.032C13.228 45.6573 12.514 46.3433 11.702 47.09C11.982 47.062 12.262 47.0433 12.542 47.034C12.822 47.0153 13.0973 47.006 13.368 47.006H16.308V48H10.022ZM13.018 68.168C12.5047 68.168 12.0473 68.1073 11.646 67.986C11.2447 67.8647 10.89 67.7107 10.582 67.524C10.2833 67.3373 10.022 67.132 9.798 66.908L10.386 66.152C10.6847 66.432 11.044 66.6793 11.464 66.894C11.884 67.1087 12.3787 67.216 12.948 67.216C13.3587 67.216 13.7227 67.1507 14.04 67.02C14.3667 66.88 14.6233 66.6887 14.81 66.446C14.9967 66.194 15.09 65.9047 15.09 65.578C15.09 65.2233 14.9827 64.9153 14.768 64.654C14.5533 64.3833 14.208 64.1733 13.732 64.024C13.256 63.8747 12.626 63.8 11.842 63.8V62.918C12.5513 62.918 13.1207 62.8433 13.55 62.694C13.9793 62.5447 14.2873 62.3487 14.474 62.106C14.67 61.854 14.768 61.5693 14.768 61.252C14.768 60.8133 14.6 60.468 14.264 60.216C13.9373 59.964 13.4987 59.838 12.948 59.838C12.528 59.838 12.1267 59.922 11.744 60.09C11.3707 60.258 11.0393 60.4773 10.75 60.748L10.134 60.02C10.5073 59.6933 10.932 59.4273 11.408 59.222C11.8933 59.0073 12.4207 58.9 12.99 58.9C13.55 58.9 14.0493 58.9887 14.488 59.166C14.936 59.3433 15.2907 59.6 15.552 59.936C15.8133 60.272 15.944 60.6827 15.944 61.168C15.944 61.7093 15.762 62.1527 15.398 62.498C15.0433 62.8433 14.5907 63.1093 14.04 63.296V63.352C14.432 63.436 14.796 63.5807 15.132 63.786C15.4773 63.982 15.748 64.234 15.944 64.542C16.1493 64.85 16.252 65.2093 16.252 65.62C16.252 66.152 16.1027 66.6093 15.804 66.992C15.5147 67.3653 15.1273 67.6547 14.642 67.86C14.1567 68.0653 13.6153 68.168 13.018 68.168ZM14.152 88V81.84C14.1613 81.5973 14.1707 81.336 14.18 81.056C14.1987 80.7667 14.2127 80.5007 14.222 80.258H14.152C14.012 80.4727 13.8627 80.692 13.704 80.916C13.5453 81.1307 13.3913 81.3453 13.242 81.56L10.82 84.612H16.63V85.536H9.546V84.766L14.012 79.068H15.244V88H14.152ZM13.004 108.168C12.472 108.168 12.0053 108.112 11.604 108C11.2027 107.879 10.8527 107.725 10.554 107.538C10.2647 107.351 10.008 107.155 9.784 106.95L10.358 106.194C10.554 106.371 10.7687 106.539 11.002 106.698C11.2447 106.847 11.52 106.973 11.828 107.076C12.136 107.169 12.486 107.216 12.878 107.216C13.298 107.216 13.6807 107.132 14.026 106.964C14.3713 106.796 14.642 106.563 14.838 106.264C15.0433 105.956 15.146 105.592 15.146 105.172C15.146 104.556 14.9453 104.075 14.544 103.73C14.1427 103.385 13.6107 103.212 12.948 103.212C12.5747 103.212 12.2573 103.259 11.996 103.352C11.7347 103.445 11.4453 103.581 11.128 103.758L10.512 103.366L10.806 99.068H15.86V100.062H11.828L11.59 102.708C11.842 102.596 12.094 102.507 12.346 102.442C12.6073 102.377 12.906 102.344 13.242 102.344C13.8113 102.344 14.3293 102.442 14.796 102.638C15.2627 102.834 15.6313 103.142 15.902 103.562C16.1727 103.973 16.308 104.5 16.308 105.144C16.308 105.788 16.1493 106.339 15.832 106.796C15.524 107.244 15.118 107.585 14.614 107.818C14.11 108.051 13.5733 108.168 13.004 108.168ZM13.494 128.168C13.0087 128.168 12.556 128.079 12.136 127.902C11.7253 127.725 11.366 127.459 11.058 127.104C10.75 126.74 10.5073 126.292 10.33 125.76C10.162 125.219 10.078 124.589 10.078 123.87C10.078 122.974 10.1807 122.213 10.386 121.588C10.5913 120.953 10.8667 120.44 11.212 120.048C11.5667 119.656 11.968 119.367 12.416 119.18C12.864 118.993 13.3307 118.9 13.816 118.9C14.3573 118.9 14.8333 118.993 15.244 119.18C15.6547 119.357 16.0093 119.581 16.308 119.852L15.664 120.566C15.44 120.351 15.1693 120.183 14.852 120.062C14.544 119.931 14.222 119.866 13.886 119.866C13.4007 119.866 12.9527 119.992 12.542 120.244C12.1313 120.496 11.7953 120.916 11.534 121.504C11.282 122.083 11.156 122.871 11.156 123.87C11.156 124.607 11.2447 125.228 11.422 125.732C11.6087 126.236 11.8747 126.619 12.22 126.88C12.5747 127.132 12.9993 127.258 13.494 127.258C13.8487 127.258 14.166 127.179 14.446 127.02C14.7353 126.852 14.964 126.623 15.132 126.334C15.3 126.035 15.384 125.69 15.384 125.298C15.384 124.682 15.2207 124.215 14.894 123.898C14.5673 123.571 14.096 123.408 13.48 123.408C13.1253 123.408 12.7427 123.506 12.332 123.702C11.9213 123.889 11.5247 124.211 11.142 124.668L11.1 123.758C11.4733 123.385 11.8793 123.091 12.318 122.876C12.766 122.652 13.2233 122.54 13.69 122.54C14.2407 122.54 14.726 122.643 15.146 122.848C15.566 123.053 15.8927 123.361 16.126 123.772C16.3593 124.183 16.476 124.691 16.476 125.298C16.476 125.867 16.336 126.367 16.056 126.796C15.7853 127.225 15.4213 127.561 14.964 127.804C14.516 128.047 14.026 128.168 13.494 128.168ZM12.164 148C12.2013 147.151 12.2807 146.376 12.402 145.676C12.5233 144.976 12.7007 144.318 12.934 143.702C13.1673 143.077 13.466 142.47 13.83 141.882C14.194 141.294 14.628 140.687 15.132 140.062H9.98V139.068H16.448V139.782C15.8507 140.454 15.3607 141.098 14.978 141.714C14.5953 142.33 14.292 142.955 14.068 143.59C13.844 144.225 13.676 144.901 13.564 145.62C13.4613 146.329 13.396 147.123 13.368 148H12.164ZM13.228 168.168C12.556 168.168 11.9727 168.065 11.478 167.86C10.9927 167.645 10.6147 167.351 10.344 166.978C10.0827 166.605 9.952 166.185 9.952 165.718C9.952 165.307 10.0453 164.953 10.232 164.654C10.4187 164.346 10.6567 164.089 10.946 163.884C11.2447 163.669 11.5527 163.487 11.87 163.338V163.282C11.4967 163.039 11.1747 162.75 10.904 162.414C10.6427 162.069 10.512 161.663 10.512 161.196C10.512 160.739 10.6287 160.337 10.862 159.992C11.1047 159.647 11.4313 159.381 11.842 159.194C12.262 158.998 12.738 158.9 13.27 158.9C14.138 158.9 14.8147 159.124 15.3 159.572C15.7947 160.011 16.042 160.58 16.042 161.28C16.042 161.7 15.9067 162.097 15.636 162.47C15.3747 162.834 15.0573 163.147 14.684 163.408V163.464C15.0107 163.632 15.3047 163.814 15.566 164.01C15.8367 164.206 16.0467 164.444 16.196 164.724C16.3547 165.004 16.434 165.359 16.434 165.788C16.434 166.227 16.308 166.628 16.056 166.992C15.8133 167.347 15.454 167.631 14.978 167.846C14.502 168.061 13.9187 168.168 13.228 168.168ZM13.928 163.128C14.6747 162.587 15.048 161.989 15.048 161.336C15.048 161.047 14.978 160.785 14.838 160.552C14.698 160.309 14.4927 160.118 14.222 159.978C13.9607 159.829 13.634 159.754 13.242 159.754C12.7567 159.754 12.3553 159.889 12.038 160.16C11.7207 160.421 11.562 160.767 11.562 161.196C11.562 161.551 11.6647 161.845 11.87 162.078C12.0847 162.311 12.3693 162.512 12.724 162.68C13.088 162.839 13.4893 162.988 13.928 163.128ZM13.256 167.314C13.9187 167.314 14.4273 167.169 14.782 166.88C15.146 166.591 15.328 166.213 15.328 165.746C15.328 165.438 15.2533 165.181 15.104 164.976C14.964 164.761 14.768 164.584 14.516 164.444C14.264 164.295 13.9653 164.159 13.62 164.038C13.284 163.917 12.92 163.791 12.528 163.66C12.2387 163.819 11.9773 163.991 11.744 164.178C11.5107 164.365 11.3287 164.575 11.198 164.808C11.0673 165.041 11.002 165.307 11.002 165.606C11.002 165.933 11.0907 166.227 11.268 166.488C11.4547 166.74 11.716 166.941 12.052 167.09C12.3973 167.239 12.7987 167.314 13.256 167.314ZM12.598 188.168C12.0473 188.168 11.5667 188.079 11.156 187.902C10.7453 187.715 10.3953 187.491 10.106 187.23L10.75 186.502C10.974 186.717 11.24 186.889 11.548 187.02C11.8653 187.151 12.192 187.216 12.528 187.216C13.0133 187.216 13.4613 187.09 13.872 186.838C14.2827 186.577 14.614 186.157 14.866 185.578C15.118 184.99 15.244 184.197 15.244 183.198C15.244 182.461 15.1507 181.845 14.964 181.35C14.7867 180.846 14.5253 180.463 14.18 180.202C13.8347 179.941 13.4147 179.81 12.92 179.81C12.5653 179.81 12.2433 179.894 11.954 180.062C11.674 180.221 11.45 180.449 11.282 180.748C11.114 181.037 11.03 181.378 11.03 181.77C11.03 182.377 11.1933 182.843 11.52 183.17C11.8467 183.497 12.318 183.66 12.934 183.66C13.2887 183.66 13.6713 183.567 14.082 183.38C14.4927 183.184 14.8893 182.857 15.272 182.4L15.314 183.31C14.95 183.683 14.5393 183.982 14.082 184.206C13.634 184.421 13.1767 184.528 12.71 184.528C12.1593 184.528 11.674 184.425 11.254 184.22C10.8433 184.015 10.5213 183.707 10.288 183.296C10.0547 182.885 9.938 182.377 9.938 181.77C9.938 181.201 10.0733 180.701 10.344 180.272C10.624 179.833 10.988 179.497 11.436 179.264C11.8933 179.021 12.3833 178.9 12.906 178.9C13.4007 178.9 13.8533 178.989 14.264 179.166C14.6747 179.343 15.034 179.614 15.342 179.978C15.6593 180.333 15.902 180.781 16.07 181.322C16.2473 181.854 16.336 182.479 16.336 183.198C16.336 184.094 16.2333 184.859 16.028 185.494C15.8227 186.129 15.5427 186.642 15.188 187.034C14.8427 187.426 14.4413 187.715 13.984 187.902C13.536 188.079 13.074 188.168 12.598 188.168ZM10.358 208V207.048H12.934V200.468H10.932V199.726C11.2867 199.679 11.5993 199.623 11.87 199.558C12.1407 199.493 12.388 199.423 12.612 199.348C12.836 199.264 13.0413 199.171 13.228 199.068H14.082V207.048H16.42V208H10.358ZM21.5945 208.168C20.9319 208.168 20.3625 207.986 19.8865 207.622C19.4105 207.249 19.0419 206.717 18.7805 206.026C18.5192 205.335 18.3885 204.495 18.3885 203.506C18.3885 202.003 18.6732 200.86 19.2425 200.076C19.8212 199.292 20.6052 198.9 21.5945 198.9C22.5932 198.9 23.3772 199.292 23.9465 200.076C24.5159 200.86 24.8005 202.003 24.8005 203.506C24.8005 204.495 24.6699 205.335 24.4085 206.026C24.1565 206.717 23.7879 207.249 23.3025 207.622C22.8265 207.986 22.2572 208.168 21.5945 208.168ZM21.5945 207.244C22.0145 207.244 22.3832 207.113 22.7005 206.852C23.0179 206.581 23.2652 206.171 23.4425 205.62C23.6292 205.06 23.7225 204.355 23.7225 203.506C23.7225 202.647 23.6292 201.947 23.4425 201.406C23.2652 200.865 23.0179 200.468 22.7005 200.216C22.3832 199.955 22.0145 199.824 21.5945 199.824C21.1839 199.824 20.8152 199.955 20.4885 200.216C20.1712 200.468 19.9192 200.865 19.7325 201.406C19.5552 201.947 19.4665 202.647 19.4665 203.506C19.4665 204.355 19.5552 205.06 19.7325 205.62C19.9192 206.171 20.1712 206.581 20.4885 206.852C20.8152 207.113 21.1839 207.244 21.5945 207.244ZM21.5945 204.346C21.3612 204.346 21.1559 204.262 20.9785 204.094C20.8105 203.926 20.7265 203.697 20.7265 203.408C20.7265 203.119 20.8105 202.895 20.9785 202.736C21.1559 202.568 21.3612 202.484 21.5945 202.484C21.8372 202.484 22.0425 202.568 22.2105 202.736C22.3785 202.895 22.4625 203.119 22.4625 203.408C22.4625 203.697 22.3785 203.926 22.2105 204.094C22.0425 204.262 21.8372 204.346 21.5945 204.346ZM10.358 228V227.048H12.934V220.468H10.932V219.726C11.2867 219.679 11.5993 219.623 11.87 219.558C12.1407 219.493 12.388 219.423 12.612 219.348C12.836 219.264 13.0413 219.171 13.228 219.068H14.082V227.048H16.42V228H10.358ZM18.7525 228V227.048H21.3285V220.468H19.3265V219.726C19.6812 219.679 19.9939 219.623 20.2645 219.558C20.5352 219.493 20.7825 219.423 21.0065 219.348C21.2305 219.264 21.4359 219.171 21.6225 219.068H22.4765V227.048H24.8145V228H18.7525ZM10.358 248V247.048H12.934V240.468H10.932V239.726C11.2867 239.679 11.5993 239.623 11.87 239.558C12.1407 239.493 12.388 239.423 12.612 239.348C12.836 239.264 13.0413 239.171 13.228 239.068H14.082V247.048H16.42V248H10.358ZM18.4165 248V247.314C19.4245 246.427 20.2739 245.648 20.9645 244.976C21.6645 244.295 22.1965 243.683 22.5605 243.142C22.9245 242.601 23.1065 242.083 23.1065 241.588C23.1065 241.075 22.9479 240.655 22.6305 240.328C22.3132 240.001 21.8232 239.838 21.1605 239.838C20.7405 239.838 20.3485 239.941 19.9845 240.146C19.6299 240.351 19.3079 240.608 19.0185 240.916L18.3605 240.258C18.7619 239.847 19.1912 239.521 19.6485 239.278C20.1152 239.026 20.6659 238.9 21.3005 238.9C21.8979 238.9 22.4112 239.012 22.8405 239.236C23.2792 239.451 23.6152 239.754 23.8485 240.146C24.0912 240.538 24.2125 241 24.2125 241.532C24.2125 242.092 24.0399 242.657 23.6945 243.226C23.3492 243.795 22.8639 244.397 22.2385 245.032C21.6225 245.657 20.9085 246.343 20.0965 247.09C20.3765 247.062 20.6565 247.043 20.9365 247.034C21.2165 247.015 21.4919 247.006 21.7625 247.006H24.7025V248H18.4165ZM10.358 268V267.048H12.934V260.468H10.932V259.726C11.2867 259.679 11.5993 259.623 11.87 259.558C12.1407 259.493 12.388 259.423 12.612 259.348C12.836 259.264 13.0413 259.171 13.228 259.068H14.082V267.048H16.42V268H10.358ZM21.4125 268.168C20.8992 268.168 20.4419 268.107 20.0405 267.986C19.6392 267.865 19.2845 267.711 18.9765 267.524C18.6779 267.337 18.4165 267.132 18.1925 266.908L18.7805 266.152C19.0792 266.432 19.4385 266.679 19.8585 266.894C20.2785 267.109 20.7732 267.216 21.3425 267.216C21.7532 267.216 22.1172 267.151 22.4345 267.02C22.7612 266.88 23.0179 266.689 23.2045 266.446C23.3912 266.194 23.4845 265.905 23.4845 265.578C23.4845 265.223 23.3772 264.915 23.1625 264.654C22.9479 264.383 22.6025 264.173 22.1265 264.024C21.6505 263.875 21.0205 263.8 20.2365 263.8V262.918C20.9459 262.918 21.5152 262.843 21.9445 262.694C22.3739 262.545 22.6819 262.349 22.8685 262.106C23.0645 261.854 23.1625 261.569 23.1625 261.252C23.1625 260.813 22.9945 260.468 22.6585 260.216C22.3319 259.964 21.8932 259.838 21.3425 259.838C20.9225 259.838 20.5212 259.922 20.1385 260.09C19.7652 260.258 19.4339 260.477 19.1445 260.748L18.5285 260.02C18.9019 259.693 19.3265 259.427 19.8025 259.222C20.2879 259.007 20.8152 258.9 21.3845 258.9C21.9445 258.9 22.4439 258.989 22.8825 259.166C23.3305 259.343 23.6852 259.6 23.9465 259.936C24.2079 260.272 24.3385 260.683 24.3385 261.168C24.3385 261.709 24.1565 262.153 23.7925 262.498C23.4379 262.843 22.9852 263.109 22.4345 263.296V263.352C22.8265 263.436 23.1905 263.581 23.5265 263.786C23.8719 263.982 24.1425 264.234 24.3385 264.542C24.5439 264.85 24.6465 265.209 24.6465 265.62C24.6465 266.152 24.4972 266.609 24.1985 266.992C23.9092 267.365 23.5219 267.655 23.0365 267.86C22.5512 268.065 22.0099 268.168 21.4125 268.168ZM10.358 288V287.048H12.934V280.468H10.932V279.726C11.2867 279.679 11.5993 279.623 11.87 279.558C12.1407 279.493 12.388 279.423 12.612 279.348C12.836 279.264 13.0413 279.171 13.228 279.068H14.082V287.048H16.42V288H10.358ZM22.5465 288V281.84C22.5559 281.597 22.5652 281.336 22.5745 281.056C22.5932 280.767 22.6072 280.501 22.6165 280.258H22.5465C22.4065 280.473 22.2572 280.692 22.0985 280.916C21.9399 281.131 21.7859 281.345 21.6365 281.56L19.2145 284.612H25.0245V285.536H17.9405V284.766L22.4065 279.068H23.6385V288H22.5465ZM10.358 308V307.048H12.934V300.468H10.932V299.726C11.2867 299.679 11.5993 299.623 11.87 299.558C12.1407 299.493 12.388 299.423 12.612 299.348C12.836 299.264 13.0413 299.171 13.228 299.068H14.082V307.048H16.42V308H10.358ZM21.3985 308.168C20.8665 308.168 20.3999 308.112 19.9985 308C19.5972 307.879 19.2472 307.725 18.9485 307.538C18.6592 307.351 18.4025 307.155 18.1785 306.95L18.7525 306.194C18.9485 306.371 19.1632 306.539 19.3965 306.698C19.6392 306.847 19.9145 306.973 20.2225 307.076C20.5305 307.169 20.8805 307.216 21.2725 307.216C21.6925 307.216 22.0752 307.132 22.4205 306.964C22.7659 306.796 23.0365 306.563 23.2325 306.264C23.4379 305.956 23.5405 305.592 23.5405 305.172C23.5405 304.556 23.3399 304.075 22.9385 303.73C22.5372 303.385 22.0052 303.212 21.3425 303.212C20.9692 303.212 20.6519 303.259 20.3905 303.352C20.1292 303.445 19.8399 303.581 19.5225 303.758L18.9065 303.366L19.2005 299.068H24.2545V300.062H20.2225L19.9845 302.708C20.2365 302.596 20.4885 302.507 20.7405 302.442C21.0019 302.377 21.3005 302.344 21.6365 302.344C22.2059 302.344 22.7239 302.442 23.1905 302.638C23.6572 302.834 24.0259 303.142 24.2965 303.562C24.5672 303.973 24.7025 304.5 24.7025 305.144C24.7025 305.788 24.5439 306.339 24.2265 306.796C23.9185 307.244 23.5125 307.585 23.0085 307.818C22.5045 308.051 21.9679 308.168 21.3985 308.168ZM10.358 328V327.048H12.934V320.468H10.932V319.726C11.2867 319.679 11.5993 319.623 11.87 319.558C12.1407 319.493 12.388 319.423 12.612 319.348C12.836 319.264 13.0413 319.171 13.228 319.068H14.082V327.048H16.42V328H10.358ZM21.8885 328.168C21.4032 328.168 20.9505 328.079 20.5305 327.902C20.1199 327.725 19.7605 327.459 19.4525 327.104C19.1445 326.74 18.9019 326.292 18.7245 325.76C18.5565 325.219 18.4725 324.589 18.4725 323.87C18.4725 322.974 18.5752 322.213 18.7805 321.588C18.9859 320.953 19.2612 320.44 19.6065 320.048C19.9612 319.656 20.3625 319.367 20.8105 319.18C21.2585 318.993 21.7252 318.9 22.2105 318.9C22.7519 318.9 23.2279 318.993 23.6385 319.18C24.0492 319.357 24.4039 319.581 24.7025 319.852L24.0585 320.566C23.8345 320.351 23.5639 320.183 23.2465 320.062C22.9385 319.931 22.6165 319.866 22.2805 319.866C21.7952 319.866 21.3472 319.992 20.9365 320.244C20.5259 320.496 20.1899 320.916 19.9285 321.504C19.6765 322.083 19.5505 322.871 19.5505 323.87C19.5505 324.607 19.6392 325.228 19.8165 325.732C20.0032 326.236 20.2692 326.619 20.6145 326.88C20.9692 327.132 21.3939 327.258 21.8885 327.258C22.2432 327.258 22.5605 327.179 22.8405 327.02C23.1299 326.852 23.3585 326.623 23.5265 326.334C23.6945 326.035 23.7785 325.69 23.7785 325.298C23.7785 324.682 23.6152 324.215 23.2885 323.898C22.9619 323.571 22.4905 323.408 21.8745 323.408C21.5199 323.408 21.1372 323.506 20.7265 323.702C20.3159 323.889 19.9192 324.211 19.5365 324.668L19.4945 323.758C19.8679 323.385 20.2739 323.091 20.7125 322.876C21.1605 322.652 21.6179 322.54 22.0845 322.54C22.6352 322.54 23.1205 322.643 23.5405 322.848C23.9605 323.053 24.2872 323.361 24.5205 323.772C24.7539 324.183 24.8705 324.691 24.8705 325.298C24.8705 325.867 24.7305 326.367 24.4505 326.796C24.1799 327.225 23.8159 327.561 23.3585 327.804C22.9105 328.047 22.4205 328.168 21.8885 328.168ZM10.358 348V347.048H12.934V340.468H10.932V339.726C11.2867 339.679 11.5993 339.623 11.87 339.558C12.1407 339.493 12.388 339.423 12.612 339.348C12.836 339.264 13.0413 339.171 13.228 339.068H14.082V347.048H16.42V348H10.358ZM20.5585 348C20.5959 347.151 20.6752 346.376 20.7965 345.676C20.9179 344.976 21.0952 344.318 21.3285 343.702C21.5619 343.077 21.8605 342.47 22.2245 341.882C22.5885 341.294 23.0225 340.687 23.5265 340.062H18.3745V339.068H24.8425V339.782C24.2452 340.454 23.7552 341.098 23.3725 341.714C22.9899 342.33 22.6865 342.955 22.4625 343.59C22.2385 344.225 22.0705 344.901 21.9585 345.62C21.8559 346.329 21.7905 347.123 21.7625 348H20.5585ZM10.358 368V367.048H12.934V360.468H10.932V359.726C11.2867 359.679 11.5993 359.623 11.87 359.558C12.1407 359.493 12.388 359.423 12.612 359.348C12.836 359.264 13.0413 359.171 13.228 359.068H14.082V367.048H16.42V368H10.358ZM21.6225 368.168C20.9505 368.168 20.3672 368.065 19.8725 367.86C19.3872 367.645 19.0092 367.351 18.7385 366.978C18.4772 366.605 18.3465 366.185 18.3465 365.718C18.3465 365.307 18.4399 364.953 18.6265 364.654C18.8132 364.346 19.0512 364.089 19.3405 363.884C19.6392 363.669 19.9472 363.487 20.2645 363.338V363.282C19.8912 363.039 19.5692 362.75 19.2985 362.414C19.0372 362.069 18.9065 361.663 18.9065 361.196C18.9065 360.739 19.0232 360.337 19.2565 359.992C19.4992 359.647 19.8259 359.381 20.2365 359.194C20.6565 358.998 21.1325 358.9 21.6645 358.9C22.5325 358.9 23.2092 359.124 23.6945 359.572C24.1892 360.011 24.4365 360.58 24.4365 361.28C24.4365 361.7 24.3012 362.097 24.0305 362.47C23.7692 362.834 23.4519 363.147 23.0785 363.408V363.464C23.4052 363.632 23.6992 363.814 23.9605 364.01C24.2312 364.206 24.4412 364.444 24.5905 364.724C24.7492 365.004 24.8285 365.359 24.8285 365.788C24.8285 366.227 24.7025 366.628 24.4505 366.992C24.2079 367.347 23.8485 367.631 23.3725 367.846C22.8965 368.061 22.3132 368.168 21.6225 368.168ZM22.3225 363.128C23.0692 362.587 23.4425 361.989 23.4425 361.336C23.4425 361.047 23.3725 360.785 23.2325 360.552C23.0925 360.309 22.8872 360.118 22.6165 359.978C22.3552 359.829 22.0285 359.754 21.6365 359.754C21.1512 359.754 20.7499 359.889 20.4325 360.16C20.1152 360.421 19.9565 360.767 19.9565 361.196C19.9565 361.551 20.0592 361.845 20.2645 362.078C20.4792 362.311 20.7639 362.512 21.1185 362.68C21.4825 362.839 21.8839 362.988 22.3225 363.128ZM21.6505 367.314C22.3132 367.314 22.8219 367.169 23.1765 366.88C23.5405 366.591 23.7225 366.213 23.7225 365.746C23.7225 365.438 23.6479 365.181 23.4985 364.976C23.3585 364.761 23.1625 364.584 22.9105 364.444C22.6585 364.295 22.3599 364.159 22.0145 364.038C21.6785 363.917 21.3145 363.791 20.9225 363.66C20.6332 363.819 20.3719 363.991 20.1385 364.178C19.9052 364.365 19.7232 364.575 19.5925 364.808C19.4619 365.041 19.3965 365.307 19.3965 365.606C19.3965 365.933 19.4852 366.227 19.6625 366.488C19.8492 366.74 20.1105 366.941 20.4465 367.09C20.7919 367.239 21.1932 367.314 21.6505 367.314ZM10.358 388V387.048H12.934V380.468H10.932V379.726C11.2867 379.679 11.5993 379.623 11.87 379.558C12.1407 379.493 12.388 379.423 12.612 379.348C12.836 379.264 13.0413 379.171 13.228 379.068H14.082V387.048H16.42V388H10.358ZM20.9925 388.168C20.4419 388.168 19.9612 388.079 19.5505 387.902C19.1399 387.715 18.7899 387.491 18.5005 387.23L19.1445 386.502C19.3685 386.717 19.6345 386.889 19.9425 387.02C20.2599 387.151 20.5865 387.216 20.9225 387.216C21.4079 387.216 21.8559 387.09 22.2665 386.838C22.6772 386.577 23.0085 386.157 23.2605 385.578C23.5125 384.99 23.6385 384.197 23.6385 383.198C23.6385 382.461 23.5452 381.845 23.3585 381.35C23.1812 380.846 22.9199 380.463 22.5745 380.202C22.2292 379.941 21.8092 379.81 21.3145 379.81C20.9599 379.81 20.6379 379.894 20.3485 380.062C20.0685 380.221 19.8445 380.449 19.6765 380.748C19.5085 381.037 19.4245 381.378 19.4245 381.77C19.4245 382.377 19.5879 382.843 19.9145 383.17C20.2412 383.497 20.7125 383.66 21.3285 383.66C21.6832 383.66 22.0659 383.567 22.4765 383.38C22.8872 383.184 23.2839 382.857 23.6665 382.4L23.7085 383.31C23.3445 383.683 22.9339 383.982 22.4765 384.206C22.0285 384.421 21.5712 384.528 21.1045 384.528C20.5539 384.528 20.0685 384.425 19.6485 384.22C19.2379 384.015 18.9159 383.707 18.6825 383.296C18.4492 382.885 18.3325 382.377 18.3325 381.77C18.3325 381.201 18.4679 380.701 18.7385 380.272C19.0185 379.833 19.3825 379.497 19.8305 379.264C20.2879 379.021 20.7779 378.9 21.3005 378.9C21.7952 378.9 22.2479 378.989 22.6585 379.166C23.0692 379.343 23.4285 379.614 23.7365 379.978C24.0539 380.333 24.2965 380.781 24.4645 381.322C24.6419 381.854 24.7305 382.479 24.7305 383.198C24.7305 384.094 24.6279 384.859 24.4225 385.494C24.2172 386.129 23.9372 386.642 23.5825 387.034C23.2372 387.426 22.8359 387.715 22.3785 387.902C21.9305 388.079 21.4685 388.168 20.9925 388.168ZM10.022 408V407.314C11.03 406.427 11.8793 405.648 12.57 404.976C13.27 404.295 13.802 403.683 14.166 403.142C14.53 402.601 14.712 402.083 14.712 401.588C14.712 401.075 14.5533 400.655 14.236 400.328C13.9187 400.001 13.4287 399.838 12.766 399.838C12.346 399.838 11.954 399.941 11.59 400.146C11.2353 400.351 10.9133 400.608 10.624 400.916L9.966 400.258C10.3673 399.847 10.7967 399.521 11.254 399.278C11.7207 399.026 12.2713 398.9 12.906 398.9C13.5033 398.9 14.0167 399.012 14.446 399.236C14.8847 399.451 15.2207 399.754 15.454 400.146C15.6967 400.538 15.818 401 15.818 401.532C15.818 402.092 15.6453 402.657 15.3 403.226C14.9547 403.795 14.4693 404.397 13.844 405.032C13.228 405.657 12.514 406.343 11.702 407.09C11.982 407.062 12.262 407.043 12.542 407.034C12.822 407.015 13.0973 407.006 13.368 407.006H16.308V408H10.022ZM21.5945 408.168C20.9319 408.168 20.3625 407.986 19.8865 407.622C19.4105 407.249 19.0419 406.717 18.7805 406.026C18.5192 405.335 18.3885 404.495 18.3885 403.506C18.3885 402.003 18.6732 400.86 19.2425 400.076C19.8212 399.292 20.6052 398.9 21.5945 398.9C22.5932 398.9 23.3772 399.292 23.9465 400.076C24.5159 400.86 24.8005 402.003 24.8005 403.506C24.8005 404.495 24.6699 405.335 24.4085 406.026C24.1565 406.717 23.7879 407.249 23.3025 407.622C22.8265 407.986 22.2572 408.168 21.5945 408.168ZM21.5945 407.244C22.0145 407.244 22.3832 407.113 22.7005 406.852C23.0179 406.581 23.2652 406.171 23.4425 405.62C23.6292 405.06 23.7225 404.355 23.7225 403.506C23.7225 402.647 23.6292 401.947 23.4425 401.406C23.2652 400.865 23.0179 400.468 22.7005 400.216C22.3832 399.955 22.0145 399.824 21.5945 399.824C21.1839 399.824 20.8152 399.955 20.4885 400.216C20.1712 400.468 19.9192 400.865 19.7325 401.406C19.5552 401.947 19.4665 402.647 19.4665 403.506C19.4665 404.355 19.5552 405.06 19.7325 405.62C19.9192 406.171 20.1712 406.581 20.4885 406.852C20.8152 407.113 21.1839 407.244 21.5945 407.244ZM21.5945 404.346C21.3612 404.346 21.1559 404.262 20.9785 404.094C20.8105 403.926 20.7265 403.697 20.7265 403.408C20.7265 403.119 20.8105 402.895 20.9785 402.736C21.1559 402.568 21.3612 402.484 21.5945 402.484C21.8372 402.484 22.0425 402.568 22.2105 402.736C22.3785 402.895 22.4625 403.119 22.4625 403.408C22.4625 403.697 22.3785 403.926 22.2105 404.094C22.0425 404.262 21.8372 404.346 21.5945 404.346ZM10.022 428V427.314C11.03 426.427 11.8793 425.648 12.57 424.976C13.27 424.295 13.802 423.683 14.166 423.142C14.53 422.601 14.712 422.083 14.712 421.588C14.712 421.075 14.5533 420.655 14.236 420.328C13.9187 420.001 13.4287 419.838 12.766 419.838C12.346 419.838 11.954 419.941 11.59 420.146C11.2353 420.351 10.9133 420.608 10.624 420.916L9.966 420.258C10.3673 419.847 10.7967 419.521 11.254 419.278C11.7207 419.026 12.2713 418.9 12.906 418.9C13.5033 418.9 14.0167 419.012 14.446 419.236C14.8847 419.451 15.2207 419.754 15.454 420.146C15.6967 420.538 15.818 421 15.818 421.532C15.818 422.092 15.6453 422.657 15.3 423.226C14.9547 423.795 14.4693 424.397 13.844 425.032C13.228 425.657 12.514 426.343 11.702 427.09C11.982 427.062 12.262 427.043 12.542 427.034C12.822 427.015 13.0973 427.006 13.368 427.006H16.308V428H10.022ZM18.7525 428V427.048H21.3285V420.468H19.3265V419.726C19.6812 419.679 19.9939 419.623 20.2645 419.558C20.5352 419.493 20.7825 419.423 21.0065 419.348C21.2305 419.264 21.4359 419.171 21.6225 419.068H22.4765V427.048H24.8145V428H18.7525ZM10.022 448V447.314C11.03 446.427 11.8793 445.648 12.57 444.976C13.27 444.295 13.802 443.683 14.166 443.142C14.53 442.601 14.712 442.083 14.712 441.588C14.712 441.075 14.5533 440.655 14.236 440.328C13.9187 440.001 13.4287 439.838 12.766 439.838C12.346 439.838 11.954 439.941 11.59 440.146C11.2353 440.351 10.9133 440.608 10.624 440.916L9.966 440.258C10.3673 439.847 10.7967 439.521 11.254 439.278C11.7207 439.026 12.2713 438.9 12.906 438.9C13.5033 438.9 14.0167 439.012 14.446 439.236C14.8847 439.451 15.2207 439.754 15.454 440.146C15.6967 440.538 15.818 441 15.818 441.532C15.818 442.092 15.6453 442.657 15.3 443.226C14.9547 443.795 14.4693 444.397 13.844 445.032C13.228 445.657 12.514 446.343 11.702 447.09C11.982 447.062 12.262 447.043 12.542 447.034C12.822 447.015 13.0973 447.006 13.368 447.006H16.308V448H10.022ZM18.4165 448V447.314C19.4245 446.427 20.2739 445.648 20.9645 444.976C21.6645 444.295 22.1965 443.683 22.5605 443.142C22.9245 442.601 23.1065 442.083 23.1065 441.588C23.1065 441.075 22.9479 440.655 22.6305 440.328C22.3132 440.001 21.8232 439.838 21.1605 439.838C20.7405 439.838 20.3485 439.941 19.9845 440.146C19.6299 440.351 19.3079 440.608 19.0185 440.916L18.3605 440.258C18.7619 439.847 19.1912 439.521 19.6485 439.278C20.1152 439.026 20.6659 438.9 21.3005 438.9C21.8979 438.9 22.4112 439.012 22.8405 439.236C23.2792 439.451 23.6152 439.754 23.8485 440.146C24.0912 440.538 24.2125 441 24.2125 441.532C24.2125 442.092 24.0399 442.657 23.6945 443.226C23.3492 443.795 22.8639 444.397 22.2385 445.032C21.6225 445.657 20.9085 446.343 20.0965 447.09C20.3765 447.062 20.6565 447.043 20.9365 447.034C21.2165 447.015 21.4919 447.006 21.7625 447.006H24.7025V448H18.4165ZM10.022 468V467.314C11.03 466.427 11.8793 465.648 12.57 464.976C13.27 464.295 13.802 463.683 14.166 463.142C14.53 462.601 14.712 462.083 14.712 461.588C14.712 461.075 14.5533 460.655 14.236 460.328C13.9187 460.001 13.4287 459.838 12.766 459.838C12.346 459.838 11.954 459.941 11.59 460.146C11.2353 460.351 10.9133 460.608 10.624 460.916L9.966 460.258C10.3673 459.847 10.7967 459.521 11.254 459.278C11.7207 459.026 12.2713 458.9 12.906 458.9C13.5033 458.9 14.0167 459.012 14.446 459.236C14.8847 459.451 15.2207 459.754 15.454 460.146C15.6967 460.538 15.818 461 15.818 461.532C15.818 462.092 15.6453 462.657 15.3 463.226C14.9547 463.795 14.4693 464.397 13.844 465.032C13.228 465.657 12.514 466.343 11.702 467.09C11.982 467.062 12.262 467.043 12.542 467.034C12.822 467.015 13.0973 467.006 13.368 467.006H16.308V468H10.022ZM21.4125 468.168C20.8992 468.168 20.4419 468.107 20.0405 467.986C19.6392 467.865 19.2845 467.711 18.9765 467.524C18.6779 467.337 18.4165 467.132 18.1925 466.908L18.7805 466.152C19.0792 466.432 19.4385 466.679 19.8585 466.894C20.2785 467.109 20.7732 467.216 21.3425 467.216C21.7532 467.216 22.1172 467.151 22.4345 467.02C22.7612 466.88 23.0179 466.689 23.2045 466.446C23.3912 466.194 23.4845 465.905 23.4845 465.578C23.4845 465.223 23.3772 464.915 23.1625 464.654C22.9479 464.383 22.6025 464.173 22.1265 464.024C21.6505 463.875 21.0205 463.8 20.2365 463.8V462.918C20.9459 462.918 21.5152 462.843 21.9445 462.694C22.3739 462.545 22.6819 462.349 22.8685 462.106C23.0645 461.854 23.1625 461.569 23.1625 461.252C23.1625 460.813 22.9945 460.468 22.6585 460.216C22.3319 459.964 21.8932 459.838 21.3425 459.838C20.9225 459.838 20.5212 459.922 20.1385 460.09C19.7652 460.258 19.4339 460.477 19.1445 460.748L18.5285 460.02C18.9019 459.693 19.3265 459.427 19.8025 459.222C20.2879 459.007 20.8152 458.9 21.3845 458.9C21.9445 458.9 22.4439 458.989 22.8825 459.166C23.3305 459.343 23.6852 459.6 23.9465 459.936C24.2079 460.272 24.3385 460.683 24.3385 461.168C24.3385 461.709 24.1565 462.153 23.7925 462.498C23.4379 462.843 22.9852 463.109 22.4345 463.296V463.352C22.8265 463.436 23.1905 463.581 23.5265 463.786C23.8719 463.982 24.1425 464.234 24.3385 464.542C24.5439 464.85 24.6465 465.209 24.6465 465.62C24.6465 466.152 24.4972 466.609 24.1985 466.992C23.9092 467.365 23.5219 467.655 23.0365 467.86C22.5512 468.065 22.0099 468.168 21.4125 468.168ZM10.022 488V487.314C11.03 486.427 11.8793 485.648 12.57 484.976C13.27 484.295 13.802 483.683 14.166 483.142C14.53 482.601 14.712 482.083 14.712 481.588C14.712 481.075 14.5533 480.655 14.236 480.328C13.9187 480.001 13.4287 479.838 12.766 479.838C12.346 479.838 11.954 479.941 11.59 480.146C11.2353 480.351 10.9133 480.608 10.624 480.916L9.966 480.258C10.3673 479.847 10.7967 479.521 11.254 479.278C11.7207 479.026 12.2713 478.9 12.906 478.9C13.5033 478.9 14.0167 479.012 14.446 479.236C14.8847 479.451 15.2207 479.754 15.454 480.146C15.6967 480.538 15.818 481 15.818 481.532C15.818 482.092 15.6453 482.657 15.3 483.226C14.9547 483.795 14.4693 484.397 13.844 485.032C13.228 485.657 12.514 486.343 11.702 487.09C11.982 487.062 12.262 487.043 12.542 487.034C12.822 487.015 13.0973 487.006 13.368 487.006H16.308V488H10.022ZM22.5465 488V481.84C22.5559 481.597 22.5652 481.336 22.5745 481.056C22.5932 480.767 22.6072 480.501 22.6165 480.258H22.5465C22.4065 480.473 22.2572 480.692 22.0985 480.916C21.9399 481.131 21.7859 481.345 21.6365 481.56L19.2145 484.612H25.0245V485.536H17.9405V484.766L22.4065 479.068H23.6385V488H22.5465ZM10.022 508V507.314C11.03 506.427 11.8793 505.648 12.57 504.976C13.27 504.295 13.802 503.683 14.166 503.142C14.53 502.601 14.712 502.083 14.712 501.588C14.712 501.075 14.5533 500.655 14.236 500.328C13.9187 500.001 13.4287 499.838 12.766 499.838C12.346 499.838 11.954 499.941 11.59 500.146C11.2353 500.351 10.9133 500.608 10.624 500.916L9.966 500.258C10.3673 499.847 10.7967 499.521 11.254 499.278C11.7207 499.026 12.2713 498.9 12.906 498.9C13.5033 498.9 14.0167 499.012 14.446 499.236C14.8847 499.451 15.2207 499.754 15.454 500.146C15.6967 500.538 15.818 501 15.818 501.532C15.818 502.092 15.6453 502.657 15.3 503.226C14.9547 503.795 14.4693 504.397 13.844 505.032C13.228 505.657 12.514 506.343 11.702 507.09C11.982 507.062 12.262 507.043 12.542 507.034C12.822 507.015 13.0973 507.006 13.368 507.006H16.308V508H10.022ZM21.3985 508.168C20.8665 508.168 20.3999 508.112 19.9985 508C19.5972 507.879 19.2472 507.725 18.9485 507.538C18.6592 507.351 18.4025 507.155 18.1785 506.95L18.7525 506.194C18.9485 506.371 19.1632 506.539 19.3965 506.698C19.6392 506.847 19.9145 506.973 20.2225 507.076C20.5305 507.169 20.8805 507.216 21.2725 507.216C21.6925 507.216 22.0752 507.132 22.4205 506.964C22.7659 506.796 23.0365 506.563 23.2325 506.264C23.4379 505.956 23.5405 505.592 23.5405 505.172C23.5405 504.556 23.3399 504.075 22.9385 503.73C22.5372 503.385 22.0052 503.212 21.3425 503.212C20.9692 503.212 20.6519 503.259 20.3905 503.352C20.1292 503.445 19.8399 503.581 19.5225 503.758L18.9065 503.366L19.2005 499.068H24.2545V500.062H20.2225L19.9845 502.708C20.2365 502.596 20.4885 502.507 20.7405 502.442C21.0019 502.377 21.3005 502.344 21.6365 502.344C22.2059 502.344 22.7239 502.442 23.1905 502.638C23.6572 502.834 24.0259 503.142 24.2965 503.562C24.5672 503.973 24.7025 504.5 24.7025 505.144C24.7025 505.788 24.5439 506.339 24.2265 506.796C23.9185 507.244 23.5125 507.585 23.0085 507.818C22.5045 508.051 21.9679 508.168 21.3985 508.168ZM10.022 528V527.314C11.03 526.427 11.8793 525.648 12.57 524.976C13.27 524.295 13.802 523.683 14.166 523.142C14.53 522.601 14.712 522.083 14.712 521.588C14.712 521.075 14.5533 520.655 14.236 520.328C13.9187 520.001 13.4287 519.838 12.766 519.838C12.346 519.838 11.954 519.941 11.59 520.146C11.2353 520.351 10.9133 520.608 10.624 520.916L9.966 520.258C10.3673 519.847 10.7967 519.521 11.254 519.278C11.7207 519.026 12.2713 518.9 12.906 518.9C13.5033 518.9 14.0167 519.012 14.446 519.236C14.8847 519.451 15.2207 519.754 15.454 520.146C15.6967 520.538 15.818 521 15.818 521.532C15.818 522.092 15.6453 522.657 15.3 523.226C14.9547 523.795 14.4693 524.397 13.844 525.032C13.228 525.657 12.514 526.343 11.702 527.09C11.982 527.062 12.262 527.043 12.542 527.034C12.822 527.015 13.0973 527.006 13.368 527.006H16.308V528H10.022ZM21.8885 528.168C21.4032 528.168 20.9505 528.079 20.5305 527.902C20.1199 527.725 19.7605 527.459 19.4525 527.104C19.1445 526.74 18.9019 526.292 18.7245 525.76C18.5565 525.219 18.4725 524.589 18.4725 523.87C18.4725 522.974 18.5752 522.213 18.7805 521.588C18.9859 520.953 19.2612 520.44 19.6065 520.048C19.9612 519.656 20.3625 519.367 20.8105 519.18C21.2585 518.993 21.7252 518.9 22.2105 518.9C22.7519 518.9 23.2279 518.993 23.6385 519.18C24.0492 519.357 24.4039 519.581 24.7025 519.852L24.0585 520.566C23.8345 520.351 23.5639 520.183 23.2465 520.062C22.9385 519.931 22.6165 519.866 22.2805 519.866C21.7952 519.866 21.3472 519.992 20.9365 520.244C20.5259 520.496 20.1899 520.916 19.9285 521.504C19.6765 522.083 19.5505 522.871 19.5505 523.87C19.5505 524.607 19.6392 525.228 19.8165 525.732C20.0032 526.236 20.2692 526.619 20.6145 526.88C20.9692 527.132 21.3939 527.258 21.8885 527.258C22.2432 527.258 22.5605 527.179 22.8405 527.02C23.1299 526.852 23.3585 526.623 23.5265 526.334C23.6945 526.035 23.7785 525.69 23.7785 525.298C23.7785 524.682 23.6152 524.215 23.2885 523.898C22.9619 523.571 22.4905 523.408 21.8745 523.408C21.5199 523.408 21.1372 523.506 20.7265 523.702C20.3159 523.889 19.9192 524.211 19.5365 524.668L19.4945 523.758C19.8679 523.385 20.2739 523.091 20.7125 522.876C21.1605 522.652 21.6179 522.54 22.0845 522.54C22.6352 522.54 23.1205 522.643 23.5405 522.848C23.9605 523.053 24.2872 523.361 24.5205 523.772C24.7539 524.183 24.8705 524.691 24.8705 525.298C24.8705 525.867 24.7305 526.367 24.4505 526.796C24.1799 527.225 23.8159 527.561 23.3585 527.804C22.9105 528.047 22.4205 528.168 21.8885 528.168ZM10.022 548V547.314C11.03 546.427 11.8793 545.648 12.57 544.976C13.27 544.295 13.802 543.683 14.166 543.142C14.53 542.601 14.712 542.083 14.712 541.588C14.712 541.075 14.5533 540.655 14.236 540.328C13.9187 540.001 13.4287 539.838 12.766 539.838C12.346 539.838 11.954 539.941 11.59 540.146C11.2353 540.351 10.9133 540.608 10.624 540.916L9.966 540.258C10.3673 539.847 10.7967 539.521 11.254 539.278C11.7207 539.026 12.2713 538.9 12.906 538.9C13.5033 538.9 14.0167 539.012 14.446 539.236C14.8847 539.451 15.2207 539.754 15.454 540.146C15.6967 540.538 15.818 541 15.818 541.532C15.818 542.092 15.6453 542.657 15.3 543.226C14.9547 543.795 14.4693 544.397 13.844 545.032C13.228 545.657 12.514 546.343 11.702 547.09C11.982 547.062 12.262 547.043 12.542 547.034C12.822 547.015 13.0973 547.006 13.368 547.006H16.308V548H10.022ZM20.5585 548C20.5959 547.151 20.6752 546.376 20.7965 545.676C20.9179 544.976 21.0952 544.318 21.3285 543.702C21.5619 543.077 21.8605 542.47 22.2245 541.882C22.5885 541.294 23.0225 540.687 23.5265 540.062H18.3745V539.068H24.8425V539.782C24.2452 540.454 23.7552 541.098 23.3725 541.714C22.9899 542.33 22.6865 542.955 22.4625 543.59C22.2385 544.225 22.0705 544.901 21.9585 545.62C21.8559 546.329 21.7905 547.123 21.7625 548H20.5585ZM10.022 568V567.314C11.03 566.427 11.8793 565.648 12.57 564.976C13.27 564.295 13.802 563.683 14.166 563.142C14.53 562.601 14.712 562.083 14.712 561.588C14.712 561.075 14.5533 560.655 14.236 560.328C13.9187 560.001 13.4287 559.838 12.766 559.838C12.346 559.838 11.954 559.941 11.59 560.146C11.2353 560.351 10.9133 560.608 10.624 560.916L9.966 560.258C10.3673 559.847 10.7967 559.521 11.254 559.278C11.7207 559.026 12.2713 558.9 12.906 558.9C13.5033 558.9 14.0167 559.012 14.446 559.236C14.8847 559.451 15.2207 559.754 15.454 560.146C15.6967 560.538 15.818 561 15.818 561.532C15.818 562.092 15.6453 562.657 15.3 563.226C14.9547 563.795 14.4693 564.397 13.844 565.032C13.228 565.657 12.514 566.343 11.702 567.09C11.982 567.062 12.262 567.043 12.542 567.034C12.822 567.015 13.0973 567.006 13.368 567.006H16.308V568H10.022ZM21.6225 568.168C20.9505 568.168 20.3672 568.065 19.8725 567.86C19.3872 567.645 19.0092 567.351 18.7385 566.978C18.4772 566.605 18.3465 566.185 18.3465 565.718C18.3465 565.307 18.4399 564.953 18.6265 564.654C18.8132 564.346 19.0512 564.089 19.3405 563.884C19.6392 563.669 19.9472 563.487 20.2645 563.338V563.282C19.8912 563.039 19.5692 562.75 19.2985 562.414C19.0372 562.069 18.9065 561.663 18.9065 561.196C18.9065 560.739 19.0232 560.337 19.2565 559.992C19.4992 559.647 19.8259 559.381 20.2365 559.194C20.6565 558.998 21.1325 558.9 21.6645 558.9C22.5325 558.9 23.2092 559.124 23.6945 559.572C24.1892 560.011 24.4365 560.58 24.4365 561.28C24.4365 561.7 24.3012 562.097 24.0305 562.47C23.7692 562.834 23.4519 563.147 23.0785 563.408V563.464C23.4052 563.632 23.6992 563.814 23.9605 564.01C24.2312 564.206 24.4412 564.444 24.5905 564.724C24.7492 565.004 24.8285 565.359 24.8285 565.788C24.8285 566.227 24.7025 566.628 24.4505 566.992C24.2079 567.347 23.8485 567.631 23.3725 567.846C22.8965 568.061 22.3132 568.168 21.6225 568.168ZM22.3225 563.128C23.0692 562.587 23.4425 561.989 23.4425 561.336C23.4425 561.047 23.3725 560.785 23.2325 560.552C23.0925 560.309 22.8872 560.118 22.6165 559.978C22.3552 559.829 22.0285 559.754 21.6365 559.754C21.1512 559.754 20.7499 559.889 20.4325 560.16C20.1152 560.421 19.9565 560.767 19.9565 561.196C19.9565 561.551 20.0592 561.845 20.2645 562.078C20.4792 562.311 20.7639 562.512 21.1185 562.68C21.4825 562.839 21.8839 562.988 22.3225 563.128ZM21.6505 567.314C22.3132 567.314 22.8219 567.169 23.1765 566.88C23.5405 566.591 23.7225 566.213 23.7225 565.746C23.7225 565.438 23.6479 565.181 23.4985 564.976C23.3585 564.761 23.1625 564.584 22.9105 564.444C22.6585 564.295 22.3599 564.159 22.0145 564.038C21.6785 563.917 21.3145 563.791 20.9225 563.66C20.6332 563.819 20.3719 563.991 20.1385 564.178C19.9052 564.365 19.7232 564.575 19.5925 564.808C19.4619 565.041 19.3965 565.307 19.3965 565.606C19.3965 565.933 19.4852 566.227 19.6625 566.488C19.8492 566.74 20.1105 566.941 20.4465 567.09C20.7919 567.239 21.1932 567.314 21.6505 567.314ZM10.022 588V587.314C11.03 586.427 11.8793 585.648 12.57 584.976C13.27 584.295 13.802 583.683 14.166 583.142C14.53 582.601 14.712 582.083 14.712 581.588C14.712 581.075 14.5533 580.655 14.236 580.328C13.9187 580.001 13.4287 579.838 12.766 579.838C12.346 579.838 11.954 579.941 11.59 580.146C11.2353 580.351 10.9133 580.608 10.624 580.916L9.966 580.258C10.3673 579.847 10.7967 579.521 11.254 579.278C11.7207 579.026 12.2713 578.9 12.906 578.9C13.5033 578.9 14.0167 579.012 14.446 579.236C14.8847 579.451 15.2207 579.754 15.454 580.146C15.6967 580.538 15.818 581 15.818 581.532C15.818 582.092 15.6453 582.657 15.3 583.226C14.9547 583.795 14.4693 584.397 13.844 585.032C13.228 585.657 12.514 586.343 11.702 587.09C11.982 587.062 12.262 587.043 12.542 587.034C12.822 587.015 13.0973 587.006 13.368 587.006H16.308V588H10.022ZM20.9925 588.168C20.4419 588.168 19.9612 588.079 19.5505 587.902C19.1399 587.715 18.7899 587.491 18.5005 587.23L19.1445 586.502C19.3685 586.717 19.6345 586.889 19.9425 587.02C20.2599 587.151 20.5865 587.216 20.9225 587.216C21.4079 587.216 21.8559 587.09 22.2665 586.838C22.6772 586.577 23.0085 586.157 23.2605 585.578C23.5125 584.99 23.6385 584.197 23.6385 583.198C23.6385 582.461 23.5452 581.845 23.3585 581.35C23.1812 580.846 22.9199 580.463 22.5745 580.202C22.2292 579.941 21.8092 579.81 21.3145 579.81C20.9599 579.81 20.6379 579.894 20.3485 580.062C20.0685 580.221 19.8445 580.449 19.6765 580.748C19.5085 581.037 19.4245 581.378 19.4245 581.77C19.4245 582.377 19.5879 582.843 19.9145 583.17C20.2412 583.497 20.7125 583.66 21.3285 583.66C21.6832 583.66 22.0659 583.567 22.4765 583.38C22.8872 583.184 23.2839 582.857 23.6665 582.4L23.7085 583.31C23.3445 583.683 22.9339 583.982 22.4765 584.206C22.0285 584.421 21.5712 584.528 21.1045 584.528C20.5539 584.528 20.0685 584.425 19.6485 584.22C19.2379 584.015 18.9159 583.707 18.6825 583.296C18.4492 582.885 18.3325 582.377 18.3325 581.77C18.3325 581.201 18.4679 580.701 18.7385 580.272C19.0185 579.833 19.3825 579.497 19.8305 579.264C20.2879 579.021 20.7779 578.9 21.3005 578.9C21.7952 578.9 22.2479 578.989 22.6585 579.166C23.0692 579.343 23.4285 579.614 23.7365 579.978C24.0539 580.333 24.2965 580.781 24.4645 581.322C24.6419 581.854 24.7305 582.479 24.7305 583.198C24.7305 584.094 24.6279 584.859 24.4225 585.494C24.2172 586.129 23.9372 586.642 23.5825 587.034C23.2372 587.426 22.8359 587.715 22.3785 587.902C21.9305 588.079 21.4685 588.168 20.9925 588.168ZM13.018 608.168C12.5047 608.168 12.0473 608.107 11.646 607.986C11.2447 607.865 10.89 607.711 10.582 607.524C10.2833 607.337 10.022 607.132 9.798 606.908L10.386 606.152C10.6847 606.432 11.044 606.679 11.464 606.894C11.884 607.109 12.3787 607.216 12.948 607.216C13.3587 607.216 13.7227 607.151 14.04 607.02C14.3667 606.88 14.6233 606.689 14.81 606.446C14.9967 606.194 15.09 605.905 15.09 605.578C15.09 605.223 14.9827 604.915 14.768 604.654C14.5533 604.383 14.208 604.173 13.732 604.024C13.256 603.875 12.626 603.8 11.842 603.8V602.918C12.5513 602.918 13.1207 602.843 13.55 602.694C13.9793 602.545 14.2873 602.349 14.474 602.106C14.67 601.854 14.768 601.569 14.768 601.252C14.768 600.813 14.6 600.468 14.264 600.216C13.9373 599.964 13.4987 599.838 12.948 599.838C12.528 599.838 12.1267 599.922 11.744 600.09C11.3707 600.258 11.0393 600.477 10.75 600.748L10.134 600.02C10.5073 599.693 10.932 599.427 11.408 599.222C11.8933 599.007 12.4207 598.9 12.99 598.9C13.55 598.9 14.0493 598.989 14.488 599.166C14.936 599.343 15.2907 599.6 15.552 599.936C15.8133 600.272 15.944 600.683 15.944 601.168C15.944 601.709 15.762 602.153 15.398 602.498C15.0433 602.843 14.5907 603.109 14.04 603.296V603.352C14.432 603.436 14.796 603.581 15.132 603.786C15.4773 603.982 15.748 604.234 15.944 604.542C16.1493 604.85 16.252 605.209 16.252 605.62C16.252 606.152 16.1027 606.609 15.804 606.992C15.5147 607.365 15.1273 607.655 14.642 607.86C14.1567 608.065 13.6153 608.168 13.018 608.168ZM21.5945 608.168C20.9319 608.168 20.3625 607.986 19.8865 607.622C19.4105 607.249 19.0419 606.717 18.7805 606.026C18.5192 605.335 18.3885 604.495 18.3885 603.506C18.3885 602.003 18.6732 600.86 19.2425 600.076C19.8212 599.292 20.6052 598.9 21.5945 598.9C22.5932 598.9 23.3772 599.292 23.9465 600.076C24.5159 600.86 24.8005 602.003 24.8005 603.506C24.8005 604.495 24.6699 605.335 24.4085 606.026C24.1565 606.717 23.7879 607.249 23.3025 607.622C22.8265 607.986 22.2572 608.168 21.5945 608.168ZM21.5945 607.244C22.0145 607.244 22.3832 607.113 22.7005 606.852C23.0179 606.581 23.2652 606.171 23.4425 605.62C23.6292 605.06 23.7225 604.355 23.7225 603.506C23.7225 602.647 23.6292 601.947 23.4425 601.406C23.2652 600.865 23.0179 600.468 22.7005 600.216C22.3832 599.955 22.0145 599.824 21.5945 599.824C21.1839 599.824 20.8152 599.955 20.4885 600.216C20.1712 600.468 19.9192 600.865 19.7325 601.406C19.5552 601.947 19.4665 602.647 19.4665 603.506C19.4665 604.355 19.5552 605.06 19.7325 605.62C19.9192 606.171 20.1712 606.581 20.4885 606.852C20.8152 607.113 21.1839 607.244 21.5945 607.244ZM21.5945 604.346C21.3612 604.346 21.1559 604.262 20.9785 604.094C20.8105 603.926 20.7265 603.697 20.7265 603.408C20.7265 603.119 20.8105 602.895 20.9785 602.736C21.1559 602.568 21.3612 602.484 21.5945 602.484C21.8372 602.484 22.0425 602.568 22.2105 602.736C22.3785 602.895 22.4625 603.119 22.4625 603.408C22.4625 603.697 22.3785 603.926 22.2105 604.094C22.0425 604.262 21.8372 604.346 21.5945 604.346ZM13.018 628.168C12.5047 628.168 12.0473 628.107 11.646 627.986C11.2447 627.865 10.89 627.711 10.582 627.524C10.2833 627.337 10.022 627.132 9.798 626.908L10.386 626.152C10.6847 626.432 11.044 626.679 11.464 626.894C11.884 627.109 12.3787 627.216 12.948 627.216C13.3587 627.216 13.7227 627.151 14.04 627.02C14.3667 626.88 14.6233 626.689 14.81 626.446C14.9967 626.194 15.09 625.905 15.09 625.578C15.09 625.223 14.9827 624.915 14.768 624.654C14.5533 624.383 14.208 624.173 13.732 624.024C13.256 623.875 12.626 623.8 11.842 623.8V622.918C12.5513 622.918 13.1207 622.843 13.55 622.694C13.9793 622.545 14.2873 622.349 14.474 622.106C14.67 621.854 14.768 621.569 14.768 621.252C14.768 620.813 14.6 620.468 14.264 620.216C13.9373 619.964 13.4987 619.838 12.948 619.838C12.528 619.838 12.1267 619.922 11.744 620.09C11.3707 620.258 11.0393 620.477 10.75 620.748L10.134 620.02C10.5073 619.693 10.932 619.427 11.408 619.222C11.8933 619.007 12.4207 618.9 12.99 618.9C13.55 618.9 14.0493 618.989 14.488 619.166C14.936 619.343 15.2907 619.6 15.552 619.936C15.8133 620.272 15.944 620.683 15.944 621.168C15.944 621.709 15.762 622.153 15.398 622.498C15.0433 622.843 14.5907 623.109 14.04 623.296V623.352C14.432 623.436 14.796 623.581 15.132 623.786C15.4773 623.982 15.748 624.234 15.944 624.542C16.1493 624.85 16.252 625.209 16.252 625.62C16.252 626.152 16.1027 626.609 15.804 626.992C15.5147 627.365 15.1273 627.655 14.642 627.86C14.1567 628.065 13.6153 628.168 13.018 628.168ZM18.7525 628V627.048H21.3285V620.468H19.3265V619.726C19.6812 619.679 19.9939 619.623 20.2645 619.558C20.5352 619.493 20.7825 619.423 21.0065 619.348C21.2305 619.264 21.4359 619.171 21.6225 619.068H22.4765V627.048H24.8145V628H18.7525ZM13.018 648.168C12.5047 648.168 12.0473 648.107 11.646 647.986C11.2447 647.865 10.89 647.711 10.582 647.524C10.2833 647.337 10.022 647.132 9.798 646.908L10.386 646.152C10.6847 646.432 11.044 646.679 11.464 646.894C11.884 647.109 12.3787 647.216 12.948 647.216C13.3587 647.216 13.7227 647.151 14.04 647.02C14.3667 646.88 14.6233 646.689 14.81 646.446C14.9967 646.194 15.09 645.905 15.09 645.578C15.09 645.223 14.9827 644.915 14.768 644.654C14.5533 644.383 14.208 644.173 13.732 644.024C13.256 643.875 12.626 643.8 11.842 643.8V642.918C12.5513 642.918 13.1207 642.843 13.55 642.694C13.9793 642.545 14.2873 642.349 14.474 642.106C14.67 641.854 14.768 641.569 14.768 641.252C14.768 640.813 14.6 640.468 14.264 640.216C13.9373 639.964 13.4987 639.838 12.948 639.838C12.528 639.838 12.1267 639.922 11.744 640.09C11.3707 640.258 11.0393 640.477 10.75 640.748L10.134 640.02C10.5073 639.693 10.932 639.427 11.408 639.222C11.8933 639.007 12.4207 638.9 12.99 638.9C13.55 638.9 14.0493 638.989 14.488 639.166C14.936 639.343 15.2907 639.6 15.552 639.936C15.8133 640.272 15.944 640.683 15.944 641.168C15.944 641.709 15.762 642.153 15.398 642.498C15.0433 642.843 14.5907 643.109 14.04 643.296V643.352C14.432 643.436 14.796 643.581 15.132 643.786C15.4773 643.982 15.748 644.234 15.944 644.542C16.1493 644.85 16.252 645.209 16.252 645.62C16.252 646.152 16.1027 646.609 15.804 646.992C15.5147 647.365 15.1273 647.655 14.642 647.86C14.1567 648.065 13.6153 648.168 13.018 648.168ZM18.4165 648V647.314C19.4245 646.427 20.2739 645.648 20.9645 644.976C21.6645 644.295 22.1965 643.683 22.5605 643.142C22.9245 642.601 23.1065 642.083 23.1065 641.588C23.1065 641.075 22.9479 640.655 22.6305 640.328C22.3132 640.001 21.8232 639.838 21.1605 639.838C20.7405 639.838 20.3485 639.941 19.9845 640.146C19.6299 640.351 19.3079 640.608 19.0185 640.916L18.3605 640.258C18.7619 639.847 19.1912 639.521 19.6485 639.278C20.1152 639.026 20.6659 638.9 21.3005 638.9C21.8979 638.9 22.4112 639.012 22.8405 639.236C23.2792 639.451 23.6152 639.754 23.8485 640.146C24.0912 640.538 24.2125 641 24.2125 641.532C24.2125 642.092 24.0399 642.657 23.6945 643.226C23.3492 643.795 22.8639 644.397 22.2385 645.032C21.6225 645.657 20.9085 646.343 20.0965 647.09C20.3765 647.062 20.6565 647.043 20.9365 647.034C21.2165 647.015 21.4919 647.006 21.7625 647.006H24.7025V648H18.4165ZM13.018 668.168C12.5047 668.168 12.0473 668.107 11.646 667.986C11.2447 667.865 10.89 667.711 10.582 667.524C10.2833 667.337 10.022 667.132 9.798 666.908L10.386 666.152C10.6847 666.432 11.044 666.679 11.464 666.894C11.884 667.109 12.3787 667.216 12.948 667.216C13.3587 667.216 13.7227 667.151 14.04 667.02C14.3667 666.88 14.6233 666.689 14.81 666.446C14.9967 666.194 15.09 665.905 15.09 665.578C15.09 665.223 14.9827 664.915 14.768 664.654C14.5533 664.383 14.208 664.173 13.732 664.024C13.256 663.875 12.626 663.8 11.842 663.8V662.918C12.5513 662.918 13.1207 662.843 13.55 662.694C13.9793 662.545 14.2873 662.349 14.474 662.106C14.67 661.854 14.768 661.569 14.768 661.252C14.768 660.813 14.6 660.468 14.264 660.216C13.9373 659.964 13.4987 659.838 12.948 659.838C12.528 659.838 12.1267 659.922 11.744 660.09C11.3707 660.258 11.0393 660.477 10.75 660.748L10.134 660.02C10.5073 659.693 10.932 659.427 11.408 659.222C11.8933 659.007 12.4207 658.9 12.99 658.9C13.55 658.9 14.0493 658.989 14.488 659.166C14.936 659.343 15.2907 659.6 15.552 659.936C15.8133 660.272 15.944 660.683 15.944 661.168C15.944 661.709 15.762 662.153 15.398 662.498C15.0433 662.843 14.5907 663.109 14.04 663.296V663.352C14.432 663.436 14.796 663.581 15.132 663.786C15.4773 663.982 15.748 664.234 15.944 664.542C16.1493 664.85 16.252 665.209 16.252 665.62C16.252 666.152 16.1027 666.609 15.804 666.992C15.5147 667.365 15.1273 667.655 14.642 667.86C14.1567 668.065 13.6153 668.168 13.018 668.168ZM21.4125 668.168C20.8992 668.168 20.4419 668.107 20.0405 667.986C19.6392 667.865 19.2845 667.711 18.9765 667.524C18.6779 667.337 18.4165 667.132 18.1925 666.908L18.7805 666.152C19.0792 666.432 19.4385 666.679 19.8585 666.894C20.2785 667.109 20.7732 667.216 21.3425 667.216C21.7532 667.216 22.1172 667.151 22.4345 667.02C22.7612 666.88 23.0179 666.689 23.2045 666.446C23.3912 666.194 23.4845 665.905 23.4845 665.578C23.4845 665.223 23.3772 664.915 23.1625 664.654C22.9479 664.383 22.6025 664.173 22.1265 664.024C21.6505 663.875 21.0205 663.8 20.2365 663.8V662.918C20.9459 662.918 21.5152 662.843 21.9445 662.694C22.3739 662.545 22.6819 662.349 22.8685 662.106C23.0645 661.854 23.1625 661.569 23.1625 661.252C23.1625 660.813 22.9945 660.468 22.6585 660.216C22.3319 659.964 21.8932 659.838 21.3425 659.838C20.9225 659.838 20.5212 659.922 20.1385 660.09C19.7652 660.258 19.4339 660.477 19.1445 660.748L18.5285 660.02C18.9019 659.693 19.3265 659.427 19.8025 659.222C20.2879 659.007 20.8152 658.9 21.3845 658.9C21.9445 658.9 22.4439 658.989 22.8825 659.166C23.3305 659.343 23.6852 659.6 23.9465 659.936C24.2079 660.272 24.3385 660.683 24.3385 661.168C24.3385 661.709 24.1565 662.153 23.7925 662.498C23.4379 662.843 22.9852 663.109 22.4345 663.296V663.352C22.8265 663.436 23.1905 663.581 23.5265 663.786C23.8719 663.982 24.1425 664.234 24.3385 664.542C24.5439 664.85 24.6465 665.209 24.6465 665.62C24.6465 666.152 24.4972 666.609 24.1985 666.992C23.9092 667.365 23.5219 667.655 23.0365 667.86C22.5512 668.065 22.0099 668.168 21.4125 668.168ZM13.018 688.168C12.5047 688.168 12.0473 688.107 11.646 687.986C11.2447 687.865 10.89 687.711 10.582 687.524C10.2833 687.337 10.022 687.132 9.798 686.908L10.386 686.152C10.6847 686.432 11.044 686.679 11.464 686.894C11.884 687.109 12.3787 687.216 12.948 687.216C13.3587 687.216 13.7227 687.151 14.04 687.02C14.3667 686.88 14.6233 686.689 14.81 686.446C14.9967 686.194 15.09 685.905 15.09 685.578C15.09 685.223 14.9827 684.915 14.768 684.654C14.5533 684.383 14.208 684.173 13.732 684.024C13.256 683.875 12.626 683.8 11.842 683.8V682.918C12.5513 682.918 13.1207 682.843 13.55 682.694C13.9793 682.545 14.2873 682.349 14.474 682.106C14.67 681.854 14.768 681.569 14.768 681.252C14.768 680.813 14.6 680.468 14.264 680.216C13.9373 679.964 13.4987 679.838 12.948 679.838C12.528 679.838 12.1267 679.922 11.744 680.09C11.3707 680.258 11.0393 680.477 10.75 680.748L10.134 680.02C10.5073 679.693 10.932 679.427 11.408 679.222C11.8933 679.007 12.4207 678.9 12.99 678.9C13.55 678.9 14.0493 678.989 14.488 679.166C14.936 679.343 15.2907 679.6 15.552 679.936C15.8133 680.272 15.944 680.683 15.944 681.168C15.944 681.709 15.762 682.153 15.398 682.498C15.0433 682.843 14.5907 683.109 14.04 683.296V683.352C14.432 683.436 14.796 683.581 15.132 683.786C15.4773 683.982 15.748 684.234 15.944 684.542C16.1493 684.85 16.252 685.209 16.252 685.62C16.252 686.152 16.1027 686.609 15.804 686.992C15.5147 687.365 15.1273 687.655 14.642 687.86C14.1567 688.065 13.6153 688.168 13.018 688.168ZM22.5465 688V681.84C22.5559 681.597 22.5652 681.336 22.5745 681.056C22.5932 680.767 22.6072 680.501 22.6165 680.258H22.5465C22.4065 680.473 22.2572 680.692 22.0985 680.916C21.9399 681.131 21.7859 681.345 21.6365 681.56L19.2145 684.612H25.0245V685.536H17.9405V684.766L22.4065 679.068H23.6385V688H22.5465ZM13.018 708.168C12.5047 708.168 12.0473 708.107 11.646 707.986C11.2447 707.865 10.89 707.711 10.582 707.524C10.2833 707.337 10.022 707.132 9.798 706.908L10.386 706.152C10.6847 706.432 11.044 706.679 11.464 706.894C11.884 707.109 12.3787 707.216 12.948 707.216C13.3587 707.216 13.7227 707.151 14.04 707.02C14.3667 706.88 14.6233 706.689 14.81 706.446C14.9967 706.194 15.09 705.905 15.09 705.578C15.09 705.223 14.9827 704.915 14.768 704.654C14.5533 704.383 14.208 704.173 13.732 704.024C13.256 703.875 12.626 703.8 11.842 703.8V702.918C12.5513 702.918 13.1207 702.843 13.55 702.694C13.9793 702.545 14.2873 702.349 14.474 702.106C14.67 701.854 14.768 701.569 14.768 701.252C14.768 700.813 14.6 700.468 14.264 700.216C13.9373 699.964 13.4987 699.838 12.948 699.838C12.528 699.838 12.1267 699.922 11.744 700.09C11.3707 700.258 11.0393 700.477 10.75 700.748L10.134 700.02C10.5073 699.693 10.932 699.427 11.408 699.222C11.8933 699.007 12.4207 698.9 12.99 698.9C13.55 698.9 14.0493 698.989 14.488 699.166C14.936 699.343 15.2907 699.6 15.552 699.936C15.8133 700.272 15.944 700.683 15.944 701.168C15.944 701.709 15.762 702.153 15.398 702.498C15.0433 702.843 14.5907 703.109 14.04 703.296V703.352C14.432 703.436 14.796 703.581 15.132 703.786C15.4773 703.982 15.748 704.234 15.944 704.542C16.1493 704.85 16.252 705.209 16.252 705.62C16.252 706.152 16.1027 706.609 15.804 706.992C15.5147 707.365 15.1273 707.655 14.642 707.86C14.1567 708.065 13.6153 708.168 13.018 708.168ZM21.3985 708.168C20.8665 708.168 20.3999 708.112 19.9985 708C19.5972 707.879 19.2472 707.725 18.9485 707.538C18.6592 707.351 18.4025 707.155 18.1785 706.95L18.7525 706.194C18.9485 706.371 19.1632 706.539 19.3965 706.698C19.6392 706.847 19.9145 706.973 20.2225 707.076C20.5305 707.169 20.8805 707.216 21.2725 707.216C21.6925 707.216 22.0752 707.132 22.4205 706.964C22.7659 706.796 23.0365 706.563 23.2325 706.264C23.4379 705.956 23.5405 705.592 23.5405 705.172C23.5405 704.556 23.3399 704.075 22.9385 703.73C22.5372 703.385 22.0052 703.212 21.3425 703.212C20.9692 703.212 20.6519 703.259 20.3905 703.352C20.1292 703.445 19.8399 703.581 19.5225 703.758L18.9065 703.366L19.2005 699.068H24.2545V700.062H20.2225L19.9845 702.708C20.2365 702.596 20.4885 702.507 20.7405 702.442C21.0019 702.377 21.3005 702.344 21.6365 702.344C22.2059 702.344 22.7239 702.442 23.1905 702.638C23.6572 702.834 24.0259 703.142 24.2965 703.562C24.5672 703.973 24.7025 704.5 24.7025 705.144C24.7025 705.788 24.5439 706.339 24.2265 706.796C23.9185 707.244 23.5125 707.585 23.0085 707.818C22.5045 708.051 21.9679 708.168 21.3985 708.168ZM13.018 728.168C12.5047 728.168 12.0473 728.107 11.646 727.986C11.2447 727.865 10.89 727.711 10.582 727.524C10.2833 727.337 10.022 727.132 9.798 726.908L10.386 726.152C10.6847 726.432 11.044 726.679 11.464 726.894C11.884 727.109 12.3787 727.216 12.948 727.216C13.3587 727.216 13.7227 727.151 14.04 727.02C14.3667 726.88 14.6233 726.689 14.81 726.446C14.9967 726.194 15.09 725.905 15.09 725.578C15.09 725.223 14.9827 724.915 14.768 724.654C14.5533 724.383 14.208 724.173 13.732 724.024C13.256 723.875 12.626 723.8 11.842 723.8V722.918C12.5513 722.918 13.1207 722.843 13.55 722.694C13.9793 722.545 14.2873 722.349 14.474 722.106C14.67 721.854 14.768 721.569 14.768 721.252C14.768 720.813 14.6 720.468 14.264 720.216C13.9373 719.964 13.4987 719.838 12.948 719.838C12.528 719.838 12.1267 719.922 11.744 720.09C11.3707 720.258 11.0393 720.477 10.75 720.748L10.134 720.02C10.5073 719.693 10.932 719.427 11.408 719.222C11.8933 719.007 12.4207 718.9 12.99 718.9C13.55 718.9 14.0493 718.989 14.488 719.166C14.936 719.343 15.2907 719.6 15.552 719.936C15.8133 720.272 15.944 720.683 15.944 721.168C15.944 721.709 15.762 722.153 15.398 722.498C15.0433 722.843 14.5907 723.109 14.04 723.296V723.352C14.432 723.436 14.796 723.581 15.132 723.786C15.4773 723.982 15.748 724.234 15.944 724.542C16.1493 724.85 16.252 725.209 16.252 725.62C16.252 726.152 16.1027 726.609 15.804 726.992C15.5147 727.365 15.1273 727.655 14.642 727.86C14.1567 728.065 13.6153 728.168 13.018 728.168ZM21.8885 728.168C21.4032 728.168 20.9505 728.079 20.5305 727.902C20.1199 727.725 19.7605 727.459 19.4525 727.104C19.1445 726.74 18.9019 726.292 18.7245 725.76C18.5565 725.219 18.4725 724.589 18.4725 723.87C18.4725 722.974 18.5752 722.213 18.7805 721.588C18.9859 720.953 19.2612 720.44 19.6065 720.048C19.9612 719.656 20.3625 719.367 20.8105 719.18C21.2585 718.993 21.7252 718.9 22.2105 718.9C22.7519 718.9 23.2279 718.993 23.6385 719.18C24.0492 719.357 24.4039 719.581 24.7025 719.852L24.0585 720.566C23.8345 720.351 23.5639 720.183 23.2465 720.062C22.9385 719.931 22.6165 719.866 22.2805 719.866C21.7952 719.866 21.3472 719.992 20.9365 720.244C20.5259 720.496 20.1899 720.916 19.9285 721.504C19.6765 722.083 19.5505 722.871 19.5505 723.87C19.5505 724.607 19.6392 725.228 19.8165 725.732C20.0032 726.236 20.2692 726.619 20.6145 726.88C20.9692 727.132 21.3939 727.258 21.8885 727.258C22.2432 727.258 22.5605 727.179 22.8405 727.02C23.1299 726.852 23.3585 726.623 23.5265 726.334C23.6945 726.035 23.7785 725.69 23.7785 725.298C23.7785 724.682 23.6152 724.215 23.2885 723.898C22.9619 723.571 22.4905 723.408 21.8745 723.408C21.5199 723.408 21.1372 723.506 20.7265 723.702C20.3159 723.889 19.9192 724.211 19.5365 724.668L19.4945 723.758C19.8679 723.385 20.2739 723.091 20.7125 722.876C21.1605 722.652 21.6179 722.54 22.0845 722.54C22.6352 722.54 23.1205 722.643 23.5405 722.848C23.9605 723.053 24.2872 723.361 24.5205 723.772C24.7539 724.183 24.8705 724.691 24.8705 725.298C24.8705 725.867 24.7305 726.367 24.4505 726.796C24.1799 727.225 23.8159 727.561 23.3585 727.804C22.9105 728.047 22.4205 728.168 21.8885 728.168ZM13.018 748.168C12.5047 748.168 12.0473 748.107 11.646 747.986C11.2447 747.865 10.89 747.711 10.582 747.524C10.2833 747.337 10.022 747.132 9.798 746.908L10.386 746.152C10.6847 746.432 11.044 746.679 11.464 746.894C11.884 747.109 12.3787 747.216 12.948 747.216C13.3587 747.216 13.7227 747.151 14.04 747.02C14.3667 746.88 14.6233 746.689 14.81 746.446C14.9967 746.194 15.09 745.905 15.09 745.578C15.09 745.223 14.9827 744.915 14.768 744.654C14.5533 744.383 14.208 744.173 13.732 744.024C13.256 743.875 12.626 743.8 11.842 743.8V742.918C12.5513 742.918 13.1207 742.843 13.55 742.694C13.9793 742.545 14.2873 742.349 14.474 742.106C14.67 741.854 14.768 741.569 14.768 741.252C14.768 740.813 14.6 740.468 14.264 740.216C13.9373 739.964 13.4987 739.838 12.948 739.838C12.528 739.838 12.1267 739.922 11.744 740.09C11.3707 740.258 11.0393 740.477 10.75 740.748L10.134 740.02C10.5073 739.693 10.932 739.427 11.408 739.222C11.8933 739.007 12.4207 738.9 12.99 738.9C13.55 738.9 14.0493 738.989 14.488 739.166C14.936 739.343 15.2907 739.6 15.552 739.936C15.8133 740.272 15.944 740.683 15.944 741.168C15.944 741.709 15.762 742.153 15.398 742.498C15.0433 742.843 14.5907 743.109 14.04 743.296V743.352C14.432 743.436 14.796 743.581 15.132 743.786C15.4773 743.982 15.748 744.234 15.944 744.542C16.1493 744.85 16.252 745.209 16.252 745.62C16.252 746.152 16.1027 746.609 15.804 746.992C15.5147 747.365 15.1273 747.655 14.642 747.86C14.1567 748.065 13.6153 748.168 13.018 748.168ZM20.5585 748C20.5959 747.151 20.6752 746.376 20.7965 745.676C20.9179 744.976 21.0952 744.318 21.3285 743.702C21.5619 743.077 21.8605 742.47 22.2245 741.882C22.5885 741.294 23.0225 740.687 23.5265 740.062H18.3745V739.068H24.8425V739.782C24.2452 740.454 23.7552 741.098 23.3725 741.714C22.9899 742.33 22.6865 742.955 22.4625 743.59C22.2385 744.225 22.0705 744.901 21.9585 745.62C21.8559 746.329 21.7905 747.123 21.7625 748H20.5585ZM13.018 768.168C12.5047 768.168 12.0473 768.107 11.646 767.986C11.2447 767.865 10.89 767.711 10.582 767.524C10.2833 767.337 10.022 767.132 9.798 766.908L10.386 766.152C10.6847 766.432 11.044 766.679 11.464 766.894C11.884 767.109 12.3787 767.216 12.948 767.216C13.3587 767.216 13.7227 767.151 14.04 767.02C14.3667 766.88 14.6233 766.689 14.81 766.446C14.9967 766.194 15.09 765.905 15.09 765.578C15.09 765.223 14.9827 764.915 14.768 764.654C14.5533 764.383 14.208 764.173 13.732 764.024C13.256 763.875 12.626 763.8 11.842 763.8V762.918C12.5513 762.918 13.1207 762.843 13.55 762.694C13.9793 762.545 14.2873 762.349 14.474 762.106C14.67 761.854 14.768 761.569 14.768 761.252C14.768 760.813 14.6 760.468 14.264 760.216C13.9373 759.964 13.4987 759.838 12.948 759.838C12.528 759.838 12.1267 759.922 11.744 760.09C11.3707 760.258 11.0393 760.477 10.75 760.748L10.134 760.02C10.5073 759.693 10.932 759.427 11.408 759.222C11.8933 759.007 12.4207 758.9 12.99 758.9C13.55 758.9 14.0493 758.989 14.488 759.166C14.936 759.343 15.2907 759.6 15.552 759.936C15.8133 760.272 15.944 760.683 15.944 761.168C15.944 761.709 15.762 762.153 15.398 762.498C15.0433 762.843 14.5907 763.109 14.04 763.296V763.352C14.432 763.436 14.796 763.581 15.132 763.786C15.4773 763.982 15.748 764.234 15.944 764.542C16.1493 764.85 16.252 765.209 16.252 765.62C16.252 766.152 16.1027 766.609 15.804 766.992C15.5147 767.365 15.1273 767.655 14.642 767.86C14.1567 768.065 13.6153 768.168 13.018 768.168ZM21.6225 768.168C20.9505 768.168 20.3672 768.065 19.8725 767.86C19.3872 767.645 19.0092 767.351 18.7385 766.978C18.4772 766.605 18.3465 766.185 18.3465 765.718C18.3465 765.307 18.4399 764.953 18.6265 764.654C18.8132 764.346 19.0512 764.089 19.3405 763.884C19.6392 763.669 19.9472 763.487 20.2645 763.338V763.282C19.8912 763.039 19.5692 762.75 19.2985 762.414C19.0372 762.069 18.9065 761.663 18.9065 761.196C18.9065 760.739 19.0232 760.337 19.2565 759.992C19.4992 759.647 19.8259 759.381 20.2365 759.194C20.6565 758.998 21.1325 758.9 21.6645 758.9C22.5325 758.9 23.2092 759.124 23.6945 759.572C24.1892 760.011 24.4365 760.58 24.4365 761.28C24.4365 761.7 24.3012 762.097 24.0305 762.47C23.7692 762.834 23.4519 763.147 23.0785 763.408V763.464C23.4052 763.632 23.6992 763.814 23.9605 764.01C24.2312 764.206 24.4412 764.444 24.5905 764.724C24.7492 765.004 24.8285 765.359 24.8285 765.788C24.8285 766.227 24.7025 766.628 24.4505 766.992C24.2079 767.347 23.8485 767.631 23.3725 767.846C22.8965 768.061 22.3132 768.168 21.6225 768.168ZM22.3225 763.128C23.0692 762.587 23.4425 761.989 23.4425 761.336C23.4425 761.047 23.3725 760.785 23.2325 760.552C23.0925 760.309 22.8872 760.118 22.6165 759.978C22.3552 759.829 22.0285 759.754 21.6365 759.754C21.1512 759.754 20.7499 759.889 20.4325 760.16C20.1152 760.421 19.9565 760.767 19.9565 761.196C19.9565 761.551 20.0592 761.845 20.2645 762.078C20.4792 762.311 20.7639 762.512 21.1185 762.68C21.4825 762.839 21.8839 762.988 22.3225 763.128ZM21.6505 767.314C22.3132 767.314 22.8219 767.169 23.1765 766.88C23.5405 766.591 23.7225 766.213 23.7225 765.746C23.7225 765.438 23.6479 765.181 23.4985 764.976C23.3585 764.761 23.1625 764.584 22.9105 764.444C22.6585 764.295 22.3599 764.159 22.0145 764.038C21.6785 763.917 21.3145 763.791 20.9225 763.66C20.6332 763.819 20.3719 763.991 20.1385 764.178C19.9052 764.365 19.7232 764.575 19.5925 764.808C19.4619 765.041 19.3965 765.307 19.3965 765.606C19.3965 765.933 19.4852 766.227 19.6625 766.488C19.8492 766.74 20.1105 766.941 20.4465 767.09C20.7919 767.239 21.1932 767.314 21.6505 767.314Z" fill="#808080"/>
</svg>
