<svg width="567" height="373" viewBox="0 0 567 373" fill="none" xmlns="http://www.w3.org/2000/svg">
<path opacity="0.5" d="M461.106 21.177C506.191 56.4931 448.476 104.915 479.568 124.55C510.663 144.183 638.247 180.686 512.947 263.218C387.65 345.75 385.547 398.272 293.258 350.603C200.967 302.934 207.262 293.758 133.316 329.626C59.3712 365.498 -20.2648 314.894 4.6645 251.643C29.5938 188.392 46.551 188.719 15.1128 149.594C-16.3254 110.469 28.224 -1.32461 135.054 81.2922C241.884 163.909 305.623 98.391 316.252 66.1418C326.879 33.8926 389.857 -34.6346 461.109 21.177H461.106Z" fill="#33EFAB"/>
<path d="M107.681 80.803H99.3851C97.9219 80.803 96.7277 80.0995 96.692 79.2173L94.1609 22.7049C94.1252 21.7925 95.3414 21.0396 96.854 21.0396H107.681C109.169 21.0396 110.374 21.7678 110.374 22.6637V79.1761C110.374 80.072 109.169 80.8002 107.681 80.8002V80.803Z" fill="#91B3FA"/>
<path d="M93.6769 16.5738L93.773 17.3186C93.8636 18.0221 94.8052 18.5745 95.9746 18.613L107.93 18.9839C109.261 19.0252 110.376 18.3849 110.376 17.5824V16.4557C110.376 15.7027 109.393 15.0871 108.147 15.0541C105.168 14.9772 99.8015 14.8838 95.8291 15.0679C94.5444 15.1283 93.578 15.7989 93.6769 16.5766V16.5738Z" fill="#BDD0FB"/>
<path d="M85.0483 80.803H76.7523C75.2891 80.803 74.0949 80.0995 74.0592 79.2173L71.5281 16.2716C71.4924 15.3592 72.7086 14.6062 74.2212 14.6062H85.0483C86.5362 14.6062 87.7414 15.3345 87.7414 16.2303V79.1761C87.7414 80.072 86.5362 80.8002 85.0483 80.8002V80.803Z" fill="#91B3FA"/>
<path d="M71.0421 10.1405L71.1382 10.8852C71.2288 11.5888 72.1704 12.1411 73.3399 12.1796L85.2953 12.5506C86.6267 12.5918 87.7413 11.9515 87.7413 11.1491V10.0223C87.7413 9.26934 86.7585 8.65101 85.5122 8.62078C82.5336 8.54384 77.1667 8.4504 73.1944 8.63452C71.9096 8.69498 70.9433 9.36553 71.0421 10.1432V10.1405Z" fill="#BDD0FB"/>
<path d="M130.453 80.803H122.157C120.693 80.803 119.499 80.0995 119.464 79.2174L118.489 39.0755C118.453 38.1631 119.669 37.4102 121.182 37.4102H132.009C133.497 37.4102 134.702 38.1384 134.702 39.0343L133.146 79.1761C133.146 80.072 131.941 80.8003 130.453 80.8003V80.803Z" fill="#91B3FA"/>
<path d="M118.005 32.9445L118.101 33.6892C118.192 34.3927 119.133 34.9451 120.303 34.9836L132.258 35.3546C133.59 35.3958 134.704 34.7555 134.704 33.953V32.8263C134.704 32.0733 133.721 31.4577 132.475 31.4247C129.496 31.3478 124.13 31.2544 120.157 31.4385C118.872 31.4989 117.906 32.1695 118.005 32.9472V32.9445Z" fill="#BDD0FB"/>
<path d="M41.2026 80.803H32.9066C31.4434 80.803 30.2492 80.0995 30.2135 79.2173L27.6824 22.7049C27.6467 21.7925 28.8629 21.0396 30.3755 21.0396H41.2026C42.6905 21.0396 43.8957 21.7678 43.8957 22.6637V79.1761C43.8957 80.072 42.6905 80.8002 41.2026 80.8002V80.803Z" fill="#91B3FA"/>
<path d="M27.1964 16.5738L27.2925 17.3186C27.3831 18.0221 28.3247 18.5745 29.4942 18.613L41.4496 18.9839C42.781 19.0252 43.8956 18.3849 43.8956 17.5824V16.4557C43.8956 15.7027 42.9128 15.0871 41.6664 15.0541C38.6879 14.9772 33.321 14.8838 29.3487 15.0679C28.0639 15.1283 27.0976 15.7989 27.1964 16.5766V16.5738Z" fill="#BDD0FB"/>
<path d="M63.9722 80.803H55.6762C54.213 80.803 53.0188 80.0995 52.9831 79.2174L52.0086 39.0755C51.9729 38.1631 53.189 37.4102 54.7016 37.4102H65.5288C67.0167 37.4102 68.2218 38.1384 68.2218 39.0343L66.6653 79.1761C66.6653 80.072 65.4601 80.8003 63.9722 80.8003V80.803Z" fill="#91B3FA"/>
<path d="M51.5245 32.9445L51.6206 33.6892C51.7112 34.3927 52.6528 34.9451 53.8223 34.9836L65.7777 35.3546C67.1091 35.3958 68.2237 34.7555 68.2237 33.953V32.8263C68.2237 32.0733 67.2409 31.4577 65.9946 31.4247C63.016 31.3478 57.6491 31.2544 53.6768 31.4385C52.392 31.4989 51.4257 32.1695 51.5245 32.9472V32.9445Z" fill="#BDD0FB"/>
<path d="M236.67 290.372L227.221 355.645H336.84L322.562 290.372H236.67Z" fill="url(#paint0_linear_921_5124)"/>
<path d="M52.5262 81.3719V275.653C52.5262 291.636 65.2475 304.704 81.2082 305.116C152.092 306.946 400.019 311.382 467.496 310.387C479.095 310.216 488.489 300.925 488.824 289.32C490.125 244.184 492.239 135.653 484.418 85.266C482.77 74.6555 473.824 66.7216 463.101 66.3781C403.708 64.4764 140.892 58.4361 73.4447 59.953C61.8133 60.2141 52.5234 69.7253 52.5234 81.3746L52.5262 81.3719Z" fill="url(#paint1_linear_921_5124)"/>
<path d="M64.7031 80.4266V265.007C64.7031 274.34 72.1866 281.941 81.5066 282.081L457.788 286.734C467.029 286.871 474.603 279.429 474.638 270.179L475.267 87.2475C475.292 80.6328 470.026 75.2135 463.421 75.0513L78.1794 67.2604C70.792 67.079 64.7031 73.026 64.7031 80.4266Z" fill="#91B3FA"/>
<path d="M477.473 294.296H477.464L64.699 287.256C64.4107 287.25 64.1802 287.014 64.1856 286.725C64.1911 286.437 64.43 286.217 64.7155 286.211L477.481 293.252C477.769 293.258 478 293.494 477.994 293.783C477.989 294.068 477.755 294.296 477.473 294.296Z" fill="#91B3FA"/>
<path d="M275.161 302.895C272.506 302.895 270.346 300.733 270.346 298.072C270.346 295.412 272.506 293.25 275.161 293.25C277.815 293.25 279.979 295.412 279.979 298.072C279.979 300.733 277.818 302.895 275.161 302.895ZM275.161 294.297C273.08 294.297 271.389 295.992 271.389 298.072C271.389 300.153 273.08 301.848 275.161 301.848C277.242 301.848 278.933 300.153 278.933 298.072C278.933 295.992 277.239 294.297 275.161 294.297Z" fill="#91B3FA"/>
<path d="M360.454 373H200.018C195.658 373 192.386 369.895 193.229 366.558L195.288 358.408C195.908 355.956 198.601 354.156 201.799 354.057L356.465 349.226C359.808 349.122 362.768 350.897 363.495 353.444L367.207 366.427C368.17 369.798 364.882 373 360.454 373Z" fill="url(#paint2_linear_921_5124)"/>
<path d="M286.383 356.264C286.097 356.264 285.867 356.036 285.861 355.75C285.859 355.462 286.086 355.225 286.375 355.22L293.002 355.124C293.279 355.124 293.526 355.349 293.531 355.637C293.534 355.926 293.306 356.162 293.018 356.168L286.391 356.264H286.383Z" fill="#91B3FA"/>
<path d="M199.167 368.507C199.139 368.507 199.112 368.507 199.085 368.501C198.799 368.455 198.607 368.188 198.651 367.902L199.595 361.974C200.103 358.789 202.81 356.442 206.033 356.396L276.329 355.365H276.338C276.623 355.365 276.854 355.593 276.859 355.879C276.862 356.168 276.634 356.404 276.346 356.41L206.049 357.44C203.337 357.479 201.056 359.454 200.627 362.137L199.683 368.064C199.642 368.323 199.419 368.504 199.17 368.504L199.167 368.507Z" fill="#91B3FA"/>
<path d="M283.5 93.3289H273.604V268.077H283.5V93.3289Z" fill="#7D97F4"/>
<path d="M300.035 93.3289H290.139V268.077H300.035V93.3289Z" fill="#7D97F4"/>
<path d="M316.572 93.3289H306.676V268.077H316.572V93.3289Z" fill="#7D97F4"/>
<path d="M333.109 93.3289H323.213V268.077H333.109V93.3289Z" fill="#7D97F4"/>
<path d="M349.647 93.3289H339.75V268.077H349.647V93.3289Z" fill="#7D97F4"/>
<path d="M366.184 93.3289H356.287V268.077H366.184V93.3289Z" fill="#7D97F4"/>
<path d="M382.721 93.3289H372.824V268.077H382.721V93.3289Z" fill="#7D97F4"/>
<path d="M283.5 178.545H273.604V269.997H283.5V178.545Z" fill="#33EFAB"/>
<path d="M300.035 209.979H290.139V270H300.035V209.979Z" fill="#33EFAB"/>
<path d="M316.572 132.297H306.676V269.998H316.572V132.297Z" fill="#33EFAB"/>
<path d="M333.109 234.995H323.213V268.077H333.109V234.995Z" fill="#33EFAB"/>
<path d="M349.647 148.783H339.75V268.074H349.647V148.783Z" fill="#33EFAB"/>
<path d="M366.184 169.438H356.287V268.074H366.184V169.438Z" fill="#33EFAB"/>
<path d="M382.721 191.89H372.824V268.077H382.721V191.89Z" fill="#33EFAB"/>
<path d="M110.377 85.343C97.098 85.343 86.334 96.1184 86.334 109.411C86.334 122.704 97.098 133.479 110.377 133.479C123.655 133.479 134.419 122.704 134.419 109.411C134.419 96.1184 123.655 85.343 110.377 85.343ZM110.377 123.124C102.811 123.124 96.678 116.985 96.678 109.411C96.678 101.837 102.811 95.698 110.377 95.698C117.942 95.698 124.075 101.837 124.075 109.411C124.075 116.985 117.942 123.124 110.377 123.124Z" fill="#7D97F4"/>
<mask id="mask0_921_5124" style="mask-type:luminance" maskUnits="userSpaceOnUse" x="86" y="85" width="49" height="49">
<path d="M110.377 85.343C97.098 85.343 86.334 96.1184 86.334 109.411C86.334 122.704 97.098 133.479 110.377 133.479C123.655 133.479 134.419 122.704 134.419 109.411C134.419 96.1184 123.655 85.343 110.377 85.343ZM110.377 123.124C102.811 123.124 96.678 116.985 96.678 109.411C96.678 101.837 102.811 95.698 110.377 95.698C117.942 95.698 124.075 101.837 124.075 109.411C124.075 116.985 117.942 123.124 110.377 123.124Z" fill="white"/>
</mask>
<g mask="url(#mask0_921_5124)">
<path d="M148.22 104.118H76.8008V134.375H148.22V104.118Z" fill="url(#paint3_linear_921_5124)"/>
</g>
<path d="M168.988 85.343C155.709 85.343 144.945 96.1184 144.945 109.411C144.945 122.704 155.709 133.479 168.988 133.479C182.267 133.479 193.031 122.704 193.031 109.411C193.031 96.1184 182.267 85.343 168.988 85.343ZM168.988 123.124C161.422 123.124 155.289 116.985 155.289 109.411C155.289 101.837 161.422 95.698 168.988 95.698C176.554 95.698 182.687 101.837 182.687 109.411C182.687 116.985 176.554 123.124 168.988 123.124Z" fill="url(#paint4_linear_921_5124)"/>
<path d="M168.988 85.343C155.709 85.343 144.945 96.1184 144.945 109.411C144.945 122.704 155.709 133.479 168.988 133.479C182.267 133.479 193.031 122.704 193.031 109.411C193.031 96.1184 182.267 85.343 168.988 85.343ZM168.988 123.124C161.422 123.124 155.289 116.985 155.289 109.411C155.289 101.837 161.422 95.698 168.988 95.698C176.554 95.698 182.687 101.837 182.687 109.411C182.687 116.985 176.554 123.124 168.988 123.124Z" fill="#7D97F4"/>
<mask id="mask1_921_5124" style="mask-type:luminance" maskUnits="userSpaceOnUse" x="144" y="85" width="50" height="49">
<path d="M168.988 85.343C155.709 85.343 144.945 96.1184 144.945 109.411C144.945 122.704 155.709 133.479 168.988 133.479C182.267 133.479 193.031 122.704 193.031 109.411C193.031 96.1184 182.267 85.343 168.988 85.343ZM168.988 123.124C161.422 123.124 155.289 116.985 155.289 109.411C155.289 101.837 161.422 95.698 168.988 95.698C176.554 95.698 182.687 101.837 182.687 109.411C182.687 116.985 176.554 123.124 168.988 123.124Z" fill="white"/>
</mask>
<g mask="url(#mask1_921_5124)">
<path d="M206.832 92.4221H135.412V134.372H206.832V92.4221Z" fill="url(#paint5_linear_921_5124)"/>
</g>
<path opacity="0.57" d="M227.595 85.343C214.317 85.343 203.553 96.1184 203.553 109.411C203.553 122.704 214.317 133.479 227.595 133.479C240.874 133.479 251.638 122.704 251.638 109.411C251.638 96.1184 240.874 85.343 227.595 85.343ZM227.595 123.124C220.03 123.124 213.897 116.985 213.897 109.411C213.897 101.837 220.03 95.698 227.595 95.698C235.161 95.698 241.294 101.837 241.294 109.411C241.294 116.985 235.161 123.124 227.595 123.124Z" fill="white"/>
<path d="M227.595 85.343C214.317 85.343 203.553 96.1184 203.553 109.411C203.553 122.704 214.317 133.479 227.595 133.479C240.874 133.479 251.638 122.704 251.638 109.411C251.638 96.1184 240.874 85.343 227.595 85.343ZM227.595 123.124C220.03 123.124 213.897 116.985 213.897 109.411C213.897 101.837 220.03 95.698 227.595 95.698C235.161 95.698 241.294 101.837 241.294 109.411C241.294 116.985 235.161 123.124 227.595 123.124Z" fill="#7D97F4"/>
<mask id="mask2_921_5124" style="mask-type:luminance" maskUnits="userSpaceOnUse" x="203" y="85" width="49" height="49">
<path d="M227.595 85.343C214.317 85.343 203.553 96.1184 203.553 109.411C203.553 122.704 214.317 133.479 227.595 133.479C240.874 133.479 251.638 122.704 251.638 109.411C251.638 96.1184 240.874 85.343 227.595 85.343ZM227.595 123.124C220.03 123.124 213.897 116.985 213.897 109.411C213.897 101.837 220.03 95.698 227.595 95.698C235.161 95.698 241.294 101.837 241.294 109.411C241.294 116.985 235.161 123.124 227.595 123.124Z" fill="white"/>
</mask>
<g mask="url(#mask2_921_5124)">
<path d="M265.441 119.247H194.021V134.375H265.441V119.247Z" fill="url(#paint6_linear_921_5124)"/>
</g>
<path d="M246.059 269.041L91.8299 267.882C88.7882 267.86 86.334 265.383 86.334 262.339V183.014C86.334 179.953 88.8129 177.468 91.8738 177.468H246.103C249.161 177.468 251.643 179.95 251.643 183.014V263.498C251.643 266.576 249.136 269.066 246.062 269.044L246.059 269.041Z" fill="#7D97F4"/>
<path d="M222.138 213.285L202.306 192.294L173.869 223.258L153.804 201.583L134.985 222.878L120.554 205.329L92.1133 234.97V256.405C92.1133 259.239 94.3973 261.542 97.2249 261.561L240.668 262.638C243.529 262.66 245.859 260.343 245.859 257.483V199.17L222.138 213.285Z" fill="#BDD0FB"/>
<path d="M222.779 212.702H222.258V262.641H222.779V212.702Z" fill="white"/>
<path d="M202.565 192.294H202.043V262.35H202.565V192.294Z" fill="white"/>
<path d="M174.129 222.878H173.607V262.135H174.129V222.878Z" fill="white"/>
<path d="M154.596 202.35H154.074V262.135H154.596V202.35Z" fill="white"/>
<path d="M135.246 222.241H134.725V262.135H135.246V222.241Z" fill="white"/>
<path d="M121.119 203.839H120.598V261.753H121.119V203.839Z" fill="white"/>
<path d="M125.493 203.564C125.493 205.974 123.541 207.926 121.136 207.926C118.731 207.926 116.779 205.972 116.779 203.564C116.779 201.157 118.731 199.203 121.136 199.203C123.541 199.203 125.493 201.157 125.493 203.564Z" fill="#FFC701"/>
<path d="M137.854 222.243C137.854 223.832 136.57 225.118 134.983 225.118C133.396 225.118 132.111 223.832 132.111 222.243C132.111 220.655 133.396 219.369 134.983 219.369C137.3 219.369 137.854 219.924 137.854 222.243Z" fill="#FFC701"/>
<path d="M157.208 202.35C157.208 203.938 155.923 205.224 154.336 205.224C152.75 205.224 151.465 203.938 151.465 202.35C151.465 200.761 152.75 199.475 154.336 199.475C155.923 199.475 157.208 200.761 157.208 202.35Z" fill="#FFC701"/>
<path d="M176.739 222.878C176.739 224.467 175.454 225.753 173.868 225.753C172.281 225.753 170.996 224.467 170.996 222.878C170.996 221.29 172.281 220.004 173.868 220.004C175.454 220.004 176.739 221.29 176.739 222.878Z" fill="#FFC701"/>
<path d="M202.958 195.103C204.501 194.738 205.457 193.19 205.093 191.645C204.729 190.099 203.182 189.142 201.638 189.507C200.095 189.872 199.139 191.42 199.503 192.965C199.868 194.51 201.414 195.467 202.958 195.103Z" fill="#FFC701"/>
<path d="M222.518 215.576C224.104 215.576 225.389 214.289 225.389 212.702C225.389 211.114 224.104 209.827 222.518 209.827C220.932 209.827 219.646 211.114 219.646 212.702C219.646 214.289 220.932 215.576 222.518 215.576Z" fill="#FFC701"/>
<path d="M130.897 164.263H88.6177C86.8498 164.263 85.4141 165.264 85.4141 166.495C85.4141 167.726 86.8471 168.726 88.6177 168.726H130.897C132.665 168.726 134.1 167.726 134.1 166.495C134.1 165.264 132.667 164.263 130.897 164.263Z" fill="#7D97F4"/>
<path d="M130.897 154.378H88.6177C86.8498 154.378 85.4141 155.379 85.4141 156.61C85.4141 157.841 86.8471 158.841 88.6177 158.841H130.897C132.665 158.841 134.1 157.841 134.1 156.61C134.1 155.379 132.667 154.378 130.897 154.378Z" fill="#7D97F4"/>
<path d="M130.897 144.493H88.6177C86.8498 144.493 85.4141 145.494 85.4141 146.725C85.4141 147.956 86.8471 148.956 88.6177 148.956H130.897C132.665 148.956 134.1 147.956 134.1 146.725C134.1 145.494 132.667 144.493 130.897 144.493Z" fill="#7D97F4"/>
<path d="M189.666 164.263H147.387C145.619 164.263 144.184 165.264 144.184 166.495C144.184 167.726 145.617 168.726 147.387 168.726H189.666C191.434 168.726 192.867 167.726 192.867 166.495C192.867 165.264 191.434 164.263 189.666 164.263Z" fill="#7D97F4"/>
<path d="M189.666 154.378H147.387C145.619 154.378 144.184 155.379 144.184 156.61C144.184 157.841 145.617 158.841 147.387 158.841H189.666C191.434 158.841 192.867 157.841 192.867 156.61C192.867 155.379 191.434 154.378 189.666 154.378Z" fill="#7D97F4"/>
<path d="M189.666 144.493H147.387C145.619 144.493 144.184 145.494 144.184 146.725C144.184 147.956 145.617 148.956 147.387 148.956H189.666C191.434 148.956 192.867 147.956 192.867 146.725C192.867 145.494 191.434 144.493 189.666 144.493Z" fill="#7D97F4"/>
<path d="M248.436 164.263H206.157C204.389 164.263 202.953 165.264 202.953 166.495C202.953 167.726 204.386 168.726 206.157 168.726H248.436C250.204 168.726 251.64 167.726 251.64 166.495C251.64 165.264 250.207 164.263 248.436 164.263Z" fill="#7D97F4"/>
<path d="M248.436 154.378H206.157C204.389 154.378 202.953 155.379 202.953 156.61C202.953 157.841 204.386 158.841 206.157 158.841H248.436C250.204 158.841 251.64 157.841 251.64 156.61C251.64 155.379 250.207 154.378 248.436 154.378Z" fill="#7D97F4"/>
<path d="M248.436 144.493H206.157C204.389 144.493 202.953 145.494 202.953 146.725C202.953 147.956 204.386 148.956 206.157 148.956H248.436C250.204 148.956 251.64 147.956 251.64 146.725C251.64 145.494 250.207 144.493 248.436 144.493Z" fill="#7D97F4"/>
<path d="M430.885 192.797C441.507 190.823 448.519 180.602 446.547 169.968C444.574 159.334 434.364 152.315 423.741 154.29C413.119 156.264 406.107 166.485 408.079 177.119C410.052 187.753 420.262 194.772 430.885 192.797Z" fill="#91B3FA"/>
<path d="M438.933 169.414C439.54 170.887 439.875 172.5 439.875 174.193C439.875 181.14 434.25 186.771 427.31 186.771C420.37 186.771 414.745 181.14 414.745 174.193C414.745 167.245 420.37 161.615 427.31 161.615C427.521 161.615 427.733 161.62 427.944 161.631V158.443C427.733 158.435 427.521 158.429 427.31 158.429C418.613 158.429 411.561 165.487 411.561 174.195C411.561 182.904 418.61 189.961 427.31 189.961C436.009 189.961 443.059 182.904 443.059 174.195C443.059 172.052 442.631 170.007 441.857 168.144L438.936 169.414H438.933Z" fill="#FFC701"/>
<path d="M443.389 201.432H411.508C409.507 201.432 407.885 203.056 407.885 205.059C407.885 207.063 409.507 208.687 411.508 208.687H443.389C445.39 208.687 447.012 207.063 447.012 205.059C447.012 203.056 445.39 201.432 443.389 201.432Z" fill="#7D97F4"/>
<path d="M446.331 114.868C448.679 104.311 442.033 93.8481 431.487 91.4979C420.941 89.1478 410.489 95.8009 408.141 106.358C405.794 116.915 412.44 127.378 422.986 129.728C433.532 132.078 443.984 125.425 446.331 114.868Z" fill="#91B3FA"/>
<path d="M433.878 121.893C431.94 123.119 429.645 123.83 427.183 123.83C420.243 123.83 414.618 118.199 414.618 111.252C414.618 104.305 420.243 98.6741 427.183 98.6741C427.394 98.6741 427.606 98.6796 427.817 98.6906V95.5028C427.606 95.4945 427.394 95.489 427.183 95.489C418.486 95.489 411.434 102.546 411.434 111.255C411.434 119.964 418.483 127.021 427.183 127.021C430.219 127.021 433.052 126.161 435.457 124.671L433.878 121.898V121.893Z" fill="#7D97F4"/>
<path d="M443.475 138.489H411.594C409.593 138.489 407.971 140.113 407.971 142.117C407.971 144.12 409.593 145.744 411.594 145.744H443.475C445.476 145.744 447.098 144.12 447.098 142.117C447.098 140.113 445.476 138.489 443.475 138.489Z" fill="#7D97F4"/>
<path d="M427.383 256.4C438.187 256.4 446.945 247.632 446.945 236.817C446.945 226.001 438.187 217.234 427.383 217.234C416.579 217.234 407.82 226.001 407.82 236.817C407.82 247.632 416.579 256.4 427.383 256.4Z" fill="#91B3FA"/>
<path d="M438.038 243.888C435.776 247.21 431.966 249.395 427.648 249.395C420.708 249.395 415.083 243.764 415.083 236.817C415.083 229.869 420.708 224.239 427.648 224.239C427.859 224.239 428.07 224.244 428.282 224.255V221.067C428.07 221.059 427.859 221.053 427.648 221.053C418.951 221.053 411.898 228.111 411.898 236.819C411.898 245.528 418.948 252.585 427.648 252.585C433.028 252.585 437.778 249.884 440.619 245.762L438.038 243.893V243.888Z" fill="#FFC701"/>
<path d="M411.442 271.309H443.322C445.324 271.309 446.946 269.684 446.946 267.681C446.946 265.678 445.324 264.053 443.322 264.053H411.442C409.441 264.053 407.818 265.678 407.818 267.681C407.818 269.684 409.441 271.309 411.442 271.309Z" fill="#7D97F4"/>
<path d="M262.591 22.5621L356.585 22.0372C360.434 22.0152 362.822 26.2171 360.843 29.5176L360.37 30.3035C359.478 31.7903 357.872 32.6999 356.14 32.6999H262.619C259.893 32.6999 257.686 30.4877 257.686 27.7615V27.4977C257.686 24.7798 259.879 22.5731 262.591 22.5593V22.5621Z" fill="#BDD0FB"/>
<path d="M249.463 27.6104V27.7643C249.463 30.4932 247.253 32.7026 244.53 32.7026H223.664C221.429 32.7026 219.475 31.1994 218.898 29.0394C218.066 25.9175 220.4 22.8506 223.628 22.8259L244.494 22.672C247.234 22.6528 249.463 24.8678 249.463 27.6104Z" fill="#BDD0FB"/>
<path d="M285.203 40.293L356.586 39.7682C360.435 39.7462 362.824 43.948 360.844 47.2485L360.372 48.0345C359.48 49.5212 357.874 50.4309 356.142 50.4309H285.23C282.504 50.4309 280.297 48.2186 280.297 45.4925V45.2287C280.297 42.5108 282.49 40.304 285.203 40.2903V40.293Z" fill="#BDD0FB"/>
<path d="M272.073 45.3413V45.4952C272.073 48.2241 269.863 50.4336 267.139 50.4336H246.273C244.038 50.4336 242.084 48.9304 241.507 46.7704C240.676 43.6485 243.009 40.5816 246.237 40.5569L267.104 40.403C269.844 40.3837 272.073 42.5987 272.073 45.3413Z" fill="#BDD0FB"/>
<defs>
<linearGradient id="paint0_linear_921_5124" x1="285.095" y1="205.93" x2="280.969" y2="407.115" gradientUnits="userSpaceOnUse">
<stop stop-color="#09005D"/>
<stop offset="1" stop-color="#1A0F91"/>
</linearGradient>
<linearGradient id="paint1_linear_921_5124" x1="298.393" y1="31.6446" x2="270.332" y2="186.645" gradientUnits="userSpaceOnUse">
<stop stop-color="#09005D"/>
<stop offset="1" stop-color="#1A0F91"/>
</linearGradient>
<linearGradient id="paint2_linear_921_5124" x1="308.168" y1="226.393" x2="291.663" y2="309.663" gradientUnits="userSpaceOnUse">
<stop stop-color="#09005D"/>
<stop offset="1" stop-color="#1A0F91"/>
</linearGradient>
<linearGradient id="paint3_linear_921_5124" x1="113.518" y1="89.6108" x2="110.214" y2="186.666" gradientUnits="userSpaceOnUse">
<stop stop-color="#FE7062"/>
<stop offset="1" stop-color="#FF928E"/>
</linearGradient>
<linearGradient id="paint4_linear_921_5124" x1="144.943" y1="109.411" x2="193.031" y2="109.411" gradientUnits="userSpaceOnUse">
<stop stop-color="#FE7062"/>
<stop offset="1" stop-color="#FF928E"/>
</linearGradient>
<linearGradient id="paint5_linear_921_5124" x1="171.863" y1="91.5977" x2="168.556" y2="188.653" gradientUnits="userSpaceOnUse">
<stop stop-color="#FE7062"/>
<stop offset="1" stop-color="#FF928E"/>
</linearGradient>
<linearGradient id="paint6_linear_921_5124" x1="230.86" y1="93.6066" x2="227.553" y2="190.662" gradientUnits="userSpaceOnUse">
<stop stop-color="#FE7062"/>
<stop offset="1" stop-color="#FF928E"/>
</linearGradient>
</defs>
</svg>
