<svg width="395" height="393" viewBox="0 0 395 393" fill="none" xmlns="http://www.w3.org/2000/svg">
<g clip-path="url(#clip0_921_5236)">
<path opacity="0.5" d="M378.104 266.459C338.397 359.214 233.582 399.054 151.459 392.261C129.035 390.406 83.9201 386.674 48.6929 353.382C-18.9574 289.446 -8.5385 155.802 56.2215 77.1198C64.562 66.9881 122.289 -0.900201 212.247 0.00855141C278.108 0.673182 324.336 37.8558 329.957 42.4871C337.058 48.3389 352.72 62.244 366.835 84.3038C400.001 136.137 402.917 208.497 378.103 266.458L378.104 266.459Z" fill="#33EFAB"/>
<path d="M377.218 323.533C377.218 327.364 374.335 330.498 370.81 330.498H24.3597C20.8354 330.498 17.9536 327.364 17.9536 323.533L15.0703 106.855C15.0703 103.023 19.2173 95.5431 26.8193 96.1061L365.411 86.5713C369.832 86.4471 374.107 88.2985 377.238 91.695C380.368 95.0916 382.082 99.7355 381.978 104.542L377.219 323.533H377.218Z" fill="url(#paint0_linear_921_5236)"/>
<path d="M370.894 316.85C370.894 320.477 368.166 323.446 364.832 323.446H32.7141C29.3804 323.446 26.6525 320.477 26.6525 316.85L23.9316 120.147C24.2522 108.311 33.7872 104.056 39.5678 104.307C39.5678 104.307 304.208 96.5802 364.077 94.8318C367.183 94.7415 370.186 96.0439 372.386 98.4315C374.586 100.819 375.796 104.087 375.718 107.468L370.892 316.85H370.894Z" fill="#91B3FA"/>
<path d="M392.8 329.448H2.17953C1.59389 329.448 1.11914 329.922 1.11914 330.508V347.427C1.11914 348.012 1.59389 348.487 2.17953 348.487H392.8C393.385 348.487 393.86 348.012 393.86 347.427V330.508C393.86 329.922 393.385 329.448 392.8 329.448Z" fill="url(#paint1_linear_921_5236)"/>
<path d="M37.2485 115.972L268.382 110.559C272.141 110.471 275.253 112.705 275.253 115.494V118.06C275.253 120.739 272.373 122.927 268.761 122.995L37.7271 127.333C34.1125 127.4 31.0838 125.318 30.9059 122.641L30.8071 121.149C30.6235 118.392 33.5265 116.058 37.2499 115.972H37.2485Z" fill="#BDD0FB"/>
<path d="M268.349 116.682C268.841 112.769 266.121 109.207 262.276 108.726C258.432 108.245 254.917 111.026 254.427 114.939C254.17 116.984 254.791 118.931 255.992 120.396L248.834 125.899C248.383 126.263 248.336 126.935 248.733 127.357L248.798 127.426C249.149 127.8 249.739 127.815 250.111 127.461L256.613 121.062C257.651 122.038 258.986 122.707 260.5 122.896C264.345 123.377 267.859 120.596 268.349 116.683V116.682ZM260.737 120.998C257.922 120.645 255.93 118.036 256.29 115.17C256.65 112.304 259.224 110.267 262.039 110.619C264.855 110.972 266.847 113.581 266.487 116.447C266.127 119.313 263.553 121.351 260.737 120.998Z" fill="url(#paint2_linear_921_5236)"/>
<path d="M32.8961 216.049L36.7508 309.242C36.8807 312.384 41.2705 314.878 46.5922 314.835L159.75 313.915C165.071 313.871 169.34 311.308 169.328 308.169L168.934 214.101C168.92 210.883 164.421 208.3 158.971 208.385L42.3521 210.179C36.9965 210.26 32.7662 212.888 32.8975 216.05L32.8961 216.049Z" fill="#BDD0FB"/>
<path d="M191.084 133.574L262.021 132.712C269.281 132.623 275.302 134.979 275.363 137.934L276.567 196.518C276.628 199.47 270.713 201.866 263.454 201.83L189.605 201.462C185.45 201.441 182.081 200.086 181.983 198.397L178.521 138.966C178.352 136.07 183.966 133.661 191.086 133.575L191.084 133.574Z" fill="#BDD0FB"/>
<path d="M50.6995 132.232L151.645 131.343C161.978 131.253 170.545 133.681 170.631 136.725L172.345 197.102C172.431 200.144 164.013 202.614 153.684 202.577L48.5943 202.197C42.6823 202.176 37.8873 200.781 37.7475 199.039L32.8197 137.789C32.5797 134.804 40.5672 132.322 50.6995 132.233V132.232Z" fill="#BDD0FB"/>
<path d="M190.916 209.013L261.853 207.644C269.113 207.504 275.134 211.244 275.195 215.932L276.399 308.904C276.46 313.589 270.545 317.392 263.286 317.334L189.437 316.749C185.282 316.717 181.913 314.566 181.815 311.885L178.353 217.567C178.184 212.971 183.798 209.148 190.918 209.012L190.916 209.013Z" fill="#BDD0FB"/>
<path d="M295.055 107.945L350.397 107.055C356.062 106.963 360.758 109.397 360.806 112.45L361.746 172.962C361.794 176.012 357.179 178.487 351.515 178.45L293.901 178.069C290.659 178.048 288.032 176.648 287.954 174.904L285.253 113.515C285.122 110.524 289.5 108.036 295.055 107.947V107.945Z" fill="#BDD0FB"/>
<path d="M296.414 186.574L351.756 185.875C357.421 185.803 362.117 187.714 362.165 190.107L363.106 237.586C363.154 239.98 358.538 241.921 352.875 241.892L295.261 241.593C292.019 241.576 289.391 240.478 289.313 239.109L286.612 190.942C286.481 188.596 290.859 186.643 296.414 186.574Z" fill="#BDD0FB"/>
<path opacity="0.37" d="M299.055 252.498L354.397 251.693C360.062 251.612 364.758 253.81 364.806 256.566L365.746 311.222C365.794 313.977 361.179 316.212 355.515 316.178L297.901 315.834C294.659 315.814 292.032 314.551 291.954 312.975L289.253 257.528C289.122 254.826 293.5 252.58 299.055 252.499V252.498Z" fill="white"/>
<path d="M279.477 321.952L276.95 160.817C276.921 159.049 278.628 157.604 280.742 157.604C284.162 157.604 286.934 155.285 286.934 152.426V113.066C286.934 110.56 289.416 108.554 292.409 108.637L306.046 109.015C309.402 109.108 312.085 111.383 312.147 114.192L316.811 321.954H279.477V321.952Z" fill="url(#paint3_linear_921_5236)"/>
<path d="M317.299 240.887L317.355 242.651C322.782 250.2 327.716 248.274 331.116 246.009C329.07 240.925 328.708 240.363 327.075 238.595C320.939 243.054 317.3 240.887 317.3 240.887H317.299Z" fill="#FFC701"/>
<path d="M342.028 232.602L332.478 217.683C331.851 226.098 330.359 233.981 327.076 238.595C328.708 240.362 329.071 240.925 331.117 246.009C339.6 240.356 342.028 232.602 342.028 232.602Z" fill="#FFC701"/>
<path d="M351.4 357.814C346.639 358.033 342.032 357.896 338.955 357.738C341.756 355.745 348.211 351.409 353.61 349.683L357.318 349.462C357.318 349.462 358.574 351.371 359.022 355.74C358.408 356.506 356.612 357.574 351.4 357.814Z" fill="url(#paint4_linear_921_5236)"/>
<path d="M338.917 357.765C338.929 357.756 338.942 357.746 338.955 357.738C342.032 357.896 346.64 358.033 351.4 357.814C356.611 357.574 358.408 356.506 359.022 355.74C359.043 355.942 359.064 356.141 359.081 356.352C359.159 357.312 358.446 358.153 357.486 358.225C353.587 358.52 343.919 359.187 339.258 358.942C338.644 358.909 338.415 358.12 338.917 357.762V357.765Z" fill="url(#paint5_linear_921_5236)"/>
<path d="M385.45 356.541C385.799 354.307 386.358 351.079 386.79 350.253C387.468 348.958 389.788 350.253 389.788 350.253C389.788 350.253 391.416 351.012 392.165 352.277C392.643 353.082 393.964 355.377 394.859 356.935C394.963 357.114 395.005 357.304 394.999 357.489L385.711 357.814C385.484 357.45 385.378 357.005 385.45 356.541Z" fill="url(#paint6_linear_921_5236)"/>
<path d="M394.998 357.49C394.983 358.02 394.562 358.501 393.969 358.517L387.351 358.699C386.652 358.719 386.046 358.355 385.709 357.814L394.997 357.49H394.998Z" fill="url(#paint7_linear_921_5236)"/>
<path d="M384.74 342.829C384.821 343.098 386.021 348.913 386.546 351.464C386.692 352.17 387.327 352.665 388.047 352.628C388.44 352.608 388.897 352.573 389.377 352.511C390.229 352.401 390.875 351.691 390.909 350.835C390.994 348.599 391.036 344.307 390.214 342.643C389.081 340.349 384.74 342.828 384.74 342.828V342.829Z" fill="url(#paint8_linear_921_5236)"/>
<path d="M358.047 344.495C357.531 344.478 358.252 347.15 357.474 349.778C357.298 350.37 356.855 350.835 356.237 350.843C355.836 350.849 355.361 350.84 354.878 350.802C354.153 350.744 353.571 350.181 353.503 349.457L352.869 342.645L358.045 344.495H358.047Z" fill="url(#paint9_linear_921_5236)"/>
<path d="M343.646 272.065C343.877 273.183 351.987 320.458 352.478 344.921C352.487 345.331 352.789 345.674 353.196 345.732C354.225 345.876 356.23 346.06 358.174 345.7C358.441 345.65 358.642 345.432 358.659 345.161C358.942 340.601 361.221 302.058 358.43 283.914C358.43 283.914 381.489 332.417 384.985 345.79C385.069 346.116 385.369 346.335 385.705 346.316C386.692 346.264 388.746 346.086 390.377 345.487C390.962 345.272 391.295 344.658 391.147 344.053C389.194 336.049 375.508 280.906 366.215 268.756L343.648 272.064L343.646 272.065Z" fill="url(#paint10_linear_921_5236)"/>
<path d="M358.428 284.216C358.504 284.216 358.58 284.188 358.64 284.13C358.76 284.013 358.761 283.821 358.644 283.703L355.556 280.548C355.439 280.428 355.248 280.426 355.128 280.543C355.008 280.66 355.007 280.852 355.124 280.971L358.212 284.126C358.271 284.187 358.35 284.216 358.428 284.216Z" fill="url(#paint11_linear_921_5236)"/>
<path d="M330.466 212.878C336.389 211.327 347.316 208.875 356.012 209.418C358.853 209.596 359.391 212.268 359.504 214.265C360.819 237.416 362.834 256.804 366.215 268.758C358.615 271.763 351.081 273.158 343.648 272.065C338.079 260.146 333.211 246.385 329.051 230.755C329.051 230.755 326.611 218.291 328.98 214.135C329.35 213.488 329.836 213.042 330.467 212.877L330.466 212.878Z" fill="#FFC701"/>
<path d="M344.712 196.661C344.712 196.661 346.207 205.58 346.654 209.703C346.726 210.373 346.375 211.007 345.775 211.316C344.14 212.157 340.651 213.511 336.849 212.268C336.222 212.064 335.812 211.458 335.827 210.799L336.088 198.894L344.713 196.661H344.712Z" fill="url(#paint12_linear_921_5236)"/>
<path d="M308.747 149.643C308.959 149.523 309.034 149.255 308.915 149.044L308.308 147.968L308.262 147.994L304.688 142.201C304.561 141.994 304.288 141.93 304.082 142.057L303.406 142.475C303.198 142.602 303.135 142.874 303.262 143.08L306.56 148.427C306.691 148.64 306.619 148.919 306.402 149.042L280.478 163.653C280.266 163.773 280.192 164.041 280.31 164.253L280.917 165.328L280.926 165.324L289.35 180.253C289.47 180.465 289.738 180.54 289.95 180.421L290.642 180.03C290.853 179.91 290.928 179.642 290.81 179.43L282.602 164.885C282.482 164.673 282.557 164.405 282.77 164.285L308.747 149.645V149.643Z" fill="url(#paint13_linear_921_5236)"/>
<path d="M298.162 129.601L244.432 159.883L251.322 172.094L305.052 141.813L298.162 129.601Z" fill="#7D97F4"/>
<path d="M345.036 283.813L341.061 285.824C340.957 285.876 340.83 285.835 340.777 285.73L286.859 179.284C286.806 179.179 286.847 179.052 286.952 179L290.926 176.989C291.031 176.937 291.158 176.978 291.21 177.082L345.129 283.529C345.181 283.634 345.14 283.761 345.036 283.813Z" fill="url(#paint14_linear_921_5236)"/>
<path d="M251.324 172.094C252.586 171.383 252.054 168.053 250.137 164.655C248.22 161.258 245.643 159.08 244.382 159.791C243.12 160.502 243.652 163.832 245.569 167.23C247.486 170.627 250.063 172.805 251.324 172.094Z" fill="#7D97F4"/>
<path d="M304.701 142.07C305.962 141.359 305.431 138.028 303.514 134.631C301.597 131.233 299.02 129.055 297.758 129.766C296.497 130.477 297.029 133.807 298.946 137.205C300.863 140.603 303.44 142.781 304.701 142.07Z" fill="#7D97F4"/>
<path d="M316.431 241.159C316.055 240.591 315.96 239.886 316.162 239.235C316.552 237.972 317.368 236.119 318.732 236.528C320.763 237.139 321.034 242.153 321.034 242.153L320.494 245.371L321.172 246.977C319.831 246.33 318.18 244.011 316.431 241.159Z" fill="url(#paint15_linear_921_5236)"/>
<path d="M363.435 252.488C364.265 251.324 365.097 250.051 365.919 248.645C374.043 234.739 359.143 213.442 359.143 213.442L354.602 226.952C361.316 234.435 358.496 241.655 356.211 247.646C353.221 255.489 340.287 262.138 340.287 262.138L342.751 265.176C342.751 265.176 356.048 262.838 363.436 252.489L363.435 252.488Z" fill="url(#paint16_linear_921_5236)"/>
<path d="M368.542 234.674C368.374 223.878 359.793 212.408 358.226 210.389C358.115 210.245 357.893 210.275 357.818 210.44L354.602 226.951C355.967 230.141 355.69 232.149 357.054 235.024C360.745 234.507 364.17 234.482 367.811 235.269C368.192 235.351 368.549 235.063 368.542 234.674Z" fill="#FFC701"/>
<path d="M340.286 262.137C339.531 261.756 333.611 262.616 334.519 263.431C336.11 264.857 336.179 265.938 334.506 267.273C333.68 267.932 331.782 268.933 331.264 267.393C331.119 266.96 331.099 266.4 330.687 266.202C330.382 266.057 329.52 267.098 329.469 267.433C329.181 269.307 330.678 270.864 332.329 271.485C333.129 271.787 333.982 271.916 334.828 272.043C335.298 272.113 336.471 272.288 336.577 272.242C336.7 272.188 336.772 272.064 336.862 271.965C337.248 271.537 339.312 269.799 339.763 269.218C340.006 268.904 343.099 265.005 342.942 264.633C342.942 264.633 340.928 262.461 340.288 262.138L340.286 262.137Z" fill="url(#paint17_linear_921_5236)"/>
<path d="M334.357 187.16C334.357 187.16 329.574 196.158 330.187 199.793C330.8 203.428 336.727 203.167 341.904 200.215L345.521 190.499L334.357 187.16Z" fill="url(#paint18_linear_921_5236)"/>
<path d="M341.675 195.444C341.464 195.35 341.387 195.094 341.512 194.9C341.895 194.315 342.614 193.122 342.842 192.077C342.842 192.077 343.702 191.526 340.654 190.797C337.605 190.067 333.06 188.936 332.104 186.343C331.172 183.815 333.621 177.458 337.525 182.524C337.673 182.717 337.964 182.721 338.112 182.528C338.752 181.695 340.435 179.967 342.772 181.015C344.959 181.996 345.205 183.597 345.175 184.405C345.166 184.642 345.378 184.826 345.613 184.783C346.718 184.572 349.371 184.39 350.61 187.111C351.629 189.352 350.967 190.619 350.362 191.24C350.166 191.44 350.252 191.772 350.521 191.854C351.248 192.077 352.185 192.692 352.092 194.392C351.962 196.745 349.332 196.537 348.582 196.43C348.459 196.413 348.335 196.454 348.253 196.546C347.611 197.255 344.717 200.272 341.584 200.636C341.313 200.668 341.103 200.401 341.192 200.143L342.547 196.204C342.611 196.021 342.523 195.82 342.345 195.743L341.673 195.445L341.675 195.444Z" fill="url(#paint19_linear_921_5236)"/>
<path d="M341.129 196.003C341.129 196.003 344.535 193.667 344.783 195.634C345.032 197.601 341.716 198.482 340.074 197.749L341.129 196.003Z" fill="url(#paint20_linear_921_5236)"/>
<path d="M330.9 358.127C320.44 361.619 310.278 361.623 300.478 358.432C298.001 357.625 296.322 355.318 296.322 352.714V304.745C308.365 307.394 320.988 307.528 334.285 304.745V353.457C334.285 355.58 332.915 357.454 330.899 358.127H330.9Z" fill="#BDD0FB"/>
<path d="M315.305 308.174C325.788 308.174 334.286 306.467 334.286 304.361C334.286 302.256 325.788 300.549 315.305 300.549C304.822 300.549 296.324 302.256 296.324 304.361C296.324 306.467 304.822 308.174 315.305 308.174Z" fill="#7D97F4"/>
<path d="M334.286 341.679C321.632 346.078 308.978 346.078 296.324 341.679V322.543C309.093 325.689 321.752 325.85 334.286 322.543V341.679Z" fill="url(#paint21_linear_921_5236)"/>
<path d="M298.359 309.104C298.766 310.623 300.5 311.647 302.028 311.272C303.098 311.008 304.014 310.17 305.117 310.151C306.369 310.13 307.369 311.162 308.099 312.179C309.426 314.026 310.434 316.102 311.068 318.285C311.28 319.012 311.467 319.785 311.978 320.344C313.072 321.54 315.14 321.158 316.356 320.084C317.572 319.012 318.233 317.462 319.136 316.116C320.04 314.77 321.428 313.514 323.046 313.611C323.588 313.644 324.114 313.83 324.656 313.853C325.857 313.903 327.038 313.053 327.371 311.898C327.473 311.544 327.505 311.163 327.687 310.843C328.235 309.885 329.687 309.791 330.436 309.014C330.912 308.522 331.07 307.805 331.625 307.319C331.836 307.136 333.274 306.542 333.304 306.45C333.557 305.677 332.753 304.978 332.009 304.647C327.645 302.705 322.656 304.641 317.925 305.303C313.277 305.953 308.829 304.894 304.226 304.933C301.687 304.956 297.412 305.567 298.359 309.103V309.104Z" fill="url(#paint22_linear_921_5236)"/>
<path d="M315.526 308.283C326.009 308.283 334.507 306.576 334.507 304.47C334.507 302.364 326.009 300.657 315.526 300.657C305.043 300.657 296.545 302.364 296.545 304.47C296.545 306.576 305.043 308.283 315.526 308.283Z" fill="#7D97F4"/>
<path d="M315.019 306.776C323.649 306.776 330.645 305.743 330.645 304.47C330.645 303.197 323.649 302.164 315.019 302.164C306.389 302.164 299.393 303.197 299.393 304.47C299.393 305.743 306.389 306.776 315.019 306.776Z" fill="url(#paint23_linear_921_5236)"/>
<path d="M108.535 354.38H5.92463C2.65309 354.38 0 351.728 0 348.459V249.443C0 246.179 2.64321 243.53 5.90909 243.522L109.342 243.244C112.631 243.235 115.3 245.908 115.282 249.196L114.461 348.488C114.444 351.746 111.797 354.378 108.537 354.378L108.535 354.38Z" fill="#7D97F4"/>
<path d="M103.507 250.824L11.7554 251.389C8.43865 251.408 5.76579 254.109 5.78132 257.424L6.42094 340.702C6.43647 343.966 9.05709 346.621 12.323 346.681L101.471 348.306C104.8 348.367 107.545 345.711 107.591 342.384L109.554 256.916C109.601 253.55 106.874 250.803 103.507 250.824Z" fill="#BDD0FB"/>
<path opacity="0.6" d="M97.9783 256.749H27.2852C26.2917 256.749 25.4863 257.554 25.4863 258.547V259.178C25.4863 260.171 26.2917 260.976 27.2852 260.976H97.9783C98.9717 260.976 99.7771 260.171 99.7771 259.178V258.547C99.7771 257.554 98.9717 256.749 97.9783 256.749Z" fill="white"/>
<path opacity="0.6" d="M91.8901 266.499C91.8393 267.44 91.0697 268.181 90.1265 268.199L28.302 269.325C27.2967 269.343 26.4707 268.533 26.4707 267.529V267.382C26.4707 266.4 27.2586 265.6 28.2399 265.584L90.0644 264.605C91.1065 264.588 91.9452 265.459 91.8887 266.499H91.8901Z" fill="white"/>
<path d="M98.2006 343.596C98.1794 343.596 98.1596 343.596 98.1384 343.596L14.5159 342.593C13.1407 342.576 11.8558 342.024 10.8985 341.036C9.94116 340.05 9.42861 338.749 9.45403 337.374L11.6059 278.568C11.6313 277.215 12.189 275.939 13.176 274.991C14.1629 274.043 15.4803 273.537 16.8287 273.561L100.304 275.186C103.124 275.241 105.378 277.579 105.328 280.397C105.328 280.401 105.328 280.407 105.328 280.411L103.322 338.582C103.272 341.354 100.981 343.597 98.1992 343.597L98.2006 343.596ZM16.7285 275.265C15.8404 275.265 15.0017 275.602 14.3592 276.22C13.7012 276.853 13.3285 277.704 13.3115 278.617L11.1597 337.424C11.1427 338.325 11.4844 339.193 12.1226 339.852C12.7623 340.511 13.6193 340.88 14.5371 340.891L98.1582 341.894C98.1723 341.894 98.185 341.894 98.1992 341.894C100.054 341.894 101.584 340.397 101.618 338.539L103.624 280.36C103.654 278.483 102.151 276.927 100.272 276.89L16.7963 275.266C16.7737 275.266 16.7511 275.266 16.7285 275.266V275.265Z" fill="white"/>
<path d="M103.393 286.608H12.3235C11.8533 286.608 11.4707 286.227 11.4707 285.756C11.4707 285.285 11.8519 284.904 12.3235 284.904H103.394C103.864 284.904 104.247 285.285 104.247 285.756C104.247 286.227 103.866 286.608 103.394 286.608H103.393Z" fill="white"/>
<path d="M86.2141 116.841C85.9811 117.051 85.6211 117.037 85.405 116.808C84.8755 116.248 84.3475 115.665 83.8335 115.08C83.6231 114.838 83.674 114.473 83.8886 114.263C84.13 114.052 84.4957 114.076 84.7061 114.318C85.2102 114.894 85.7284 115.465 86.248 116.015C86.4683 116.248 86.457 116.614 86.224 116.834C86.2212 116.837 86.2169 116.839 86.2141 116.842V116.841Z" fill="url(#paint24_linear_921_5236)"/>
<path d="M91.2854 100.733C91.4309 101.008 91.7359 101.161 92.0437 101.114L100.828 99.7537C103.551 102.884 106.795 105.603 110.481 107.759L110.769 116.632C110.779 116.944 110.985 117.213 111.283 117.305L121.471 120.449C121.768 120.541 122.092 120.433 122.275 120.182L127.521 113.018C131.782 113.314 135.994 112.898 140.011 111.848L146.498 117.922C146.725 118.135 147.062 118.18 147.338 118.035L156.766 113.059C157.041 112.914 157.193 112.609 157.147 112.301L155.786 103.523C158.917 100.801 161.638 97.5594 163.796 93.875L172.674 93.5872C172.986 93.5773 173.256 93.3713 173.348 93.0735L176.494 82.8924C176.585 82.5947 176.478 82.2715 176.227 82.0881L169.058 76.8458C169.355 72.5871 168.938 68.3778 167.888 64.3632L173.966 57.8806C174.179 57.6534 174.225 57.3161 174.079 57.041L169.101 47.619C168.955 47.3438 168.65 47.1914 168.342 47.238L159.558 48.5983C156.835 45.4685 153.591 42.7493 149.905 40.5931L149.617 31.7201C149.607 31.4096 149.401 31.1387 149.103 31.047L138.915 27.903C138.617 27.8113 138.294 27.9185 138.111 28.1697L132.865 35.3339C128.604 35.0376 124.392 35.4539 120.375 36.5037L113.89 30.4303C113.662 30.2172 113.325 30.1721 113.05 30.3174L103.622 35.293C103.346 35.4383 103.194 35.7417 103.241 36.0508L104.602 44.8292C101.47 47.5513 98.7491 50.7926 96.5916 54.477L87.7131 54.7648C87.4025 54.7747 87.1314 54.9807 87.0396 55.2785L83.8938 65.4596C83.802 65.7574 83.9093 66.0805 84.1606 66.2639L91.3292 71.5062C91.0327 75.7649 91.4506 79.9742 92.4997 83.9888L86.4226 90.4715C86.2094 90.6986 86.1642 91.0359 86.3097 91.3111L91.2883 100.733H91.2854Z" fill="#FFC701"/>
<path opacity="0.7" d="M137.116 81.8467C137.116 81.8467 137.111 81.8509 137.109 81.8538C135.057 83.6995 132.41 84.6379 129.652 84.4925C126.894 84.3486 124.359 83.1393 122.512 81.0903C120.663 79.04 119.726 76.3928 119.87 73.6383C120.168 67.9501 125.041 63.5644 130.732 63.8636C133.49 64.0075 136.026 65.2168 137.873 67.2657C139.721 69.3161 140.658 71.9633 140.514 74.7178C140.37 77.4694 139.164 80.001 137.117 81.8467H137.116ZM124.432 67.7963C122.729 69.3316 121.725 71.4384 121.605 73.7272C121.485 76.0202 122.265 78.2216 123.802 79.9262C125.338 81.6322 127.449 82.6369 129.742 82.7569C132.035 82.8768 134.24 82.0965 135.945 80.5612C135.947 80.5598 135.949 80.5569 135.951 80.5555C137.654 79.0202 138.658 76.9135 138.778 74.6247C138.898 72.333 138.118 70.1303 136.581 68.4257C135.044 66.7196 132.933 65.7149 130.64 65.595C128.347 65.475 126.143 66.2554 124.438 67.7907C124.436 67.7921 124.433 67.7949 124.432 67.7963Z" fill="white"/>
<path opacity="0.7" d="M148.227 93.755C141.492 99.8284 131.814 102.313 122.535 99.4502C120.722 98.89 118.971 98.1407 117.332 97.2193L118.183 95.7051C119.717 96.5659 121.353 97.2672 123.047 97.7907C133.336 100.966 144.151 97.1064 150.273 88.9572C150.284 88.9417 150.296 88.9262 150.307 88.9121C150.318 88.8966 150.329 88.881 150.342 88.8655C151.981 86.6642 153.278 84.1538 154.133 81.3866C156.093 75.0465 155.465 68.324 152.364 62.4552C151.381 60.5954 150.188 58.8922 148.814 57.371C145.852 54.0916 142.052 51.6561 137.719 50.3183C124.623 46.2755 110.677 53.6358 106.633 66.7224C105.303 71.0263 105.165 75.5997 106.232 79.9487L104.545 80.3622C103.403 75.7084 103.551 70.8146 104.973 66.2102C109.302 52.2092 124.221 44.3338 138.232 48.6589C142.869 50.0897 146.934 52.6946 150.102 56.204C151.572 57.8325 152.85 59.6542 153.9 61.6439C157.217 67.9219 157.891 75.1157 155.794 81.8989C154.332 86.6275 151.662 90.659 148.227 93.755Z" fill="white"/>
<path d="M182.758 102.624C182.651 102.719 182.615 102.872 182.671 103.005L184.236 106.79C183.129 108.35 182.264 110.097 181.699 111.983L177.754 113.078C177.616 113.116 177.517 113.238 177.508 113.381L177.208 118.283C177.199 118.427 177.282 118.56 177.415 118.615L181.198 120.182C181.528 122.123 182.174 123.963 183.081 125.646L181.065 129.211C180.995 129.336 181.011 129.491 181.106 129.599L184.362 133.277C184.457 133.385 184.611 133.42 184.743 133.365L188.53 131.8C190.092 132.906 191.84 133.771 193.726 134.336L194.822 138.278C194.86 138.417 194.983 138.516 195.126 138.524L200.031 138.825C200.175 138.833 200.307 138.75 200.363 138.617L201.931 134.837C203.873 134.507 205.714 133.862 207.398 132.954L210.965 134.969C211.091 135.04 211.246 135.023 211.353 134.928L215.034 131.674C215.142 131.58 215.177 131.426 215.122 131.293L213.556 127.509C214.663 125.948 215.528 124.201 216.093 122.316L220.038 121.221C220.177 121.183 220.276 121.06 220.284 120.918L220.585 116.015C220.593 115.872 220.51 115.739 220.377 115.684L216.595 114.116C216.264 112.176 215.619 110.336 214.711 108.652L216.727 105.088C216.798 104.962 216.781 104.807 216.686 104.7L213.43 101.021C213.336 100.914 213.182 100.879 213.049 100.934L209.262 102.498C207.701 101.392 205.953 100.527 204.066 99.9627L202.97 96.0201C202.932 95.8818 202.809 95.783 202.667 95.7745L197.762 95.474C197.618 95.4655 197.485 95.5488 197.43 95.6814L195.861 99.4618C193.92 99.792 192.078 100.437 190.394 101.344L186.827 99.3291C186.702 99.2586 186.546 99.2755 186.439 99.37L182.758 102.624Z" fill="#FFC701"/>
<path opacity="0.7" d="M196.057 121.311C196.057 121.311 196.055 121.31 196.053 121.308C194.942 120.551 194.192 119.403 193.944 118.081C193.695 116.759 193.976 115.42 194.734 114.309C195.494 113.199 196.641 112.45 197.964 112.201C200.694 111.688 203.333 113.49 203.847 116.219C204.096 117.541 203.815 118.88 203.056 119.991C202.297 121.101 201.15 121.85 199.827 122.099C198.506 122.347 197.167 122.068 196.056 121.311H196.057ZM200.974 114.106C200.194 113.574 199.213 113.34 198.213 113.528C197.245 113.71 196.406 114.259 195.85 115.071C195.293 115.884 195.087 116.866 195.271 117.833C195.453 118.801 196.002 119.639 196.816 120.195C196.816 120.195 196.817 120.195 196.818 120.197C197.632 120.751 198.612 120.956 199.579 120.774C200.547 120.592 201.386 120.044 201.942 119.23C202.499 118.417 202.705 117.435 202.521 116.468C202.334 115.468 201.755 114.638 200.974 114.106Z" fill="white"/>
<path opacity="0.7" d="M191.93 127.582C188.397 125.175 186.18 121.022 186.461 116.457C186.509 115.667 186.632 114.882 186.826 114.12C186.851 114.023 186.877 113.926 186.905 113.828L188.204 114.192C187.991 114.953 187.858 115.743 187.808 116.539C187.755 117.422 187.806 118.289 187.95 119.124C187.95 119.127 187.95 119.128 187.951 119.131C187.951 119.135 187.952 119.14 187.952 119.144C188.602 122.866 191.111 126.005 194.538 127.485C195.425 127.869 196.373 128.143 197.366 128.285C197.399 128.289 197.43 128.295 197.462 128.299C197.487 128.302 197.514 128.306 197.54 128.309C197.606 128.317 197.672 128.326 197.74 128.333C197.921 128.353 198.105 128.368 198.288 128.38C201.27 128.563 204.145 127.574 206.383 125.595C207.092 124.969 207.71 124.266 208.23 123.504C209.349 121.862 210.012 119.943 210.136 117.906C210.318 114.926 209.33 112.053 207.35 109.816C205.372 107.58 202.638 106.248 199.656 106.066C197.633 105.942 195.617 106.366 193.828 107.295L193.206 106.097C195.213 105.055 197.472 104.578 199.74 104.718C203.082 104.923 206.143 106.416 208.361 108.922C210.579 111.428 211.688 114.648 211.483 117.988C211.343 120.27 210.602 122.42 209.347 124.261C208.765 125.114 208.072 125.902 207.277 126.604C204.769 128.821 201.547 129.929 198.206 129.724C195.876 129.582 193.733 128.807 191.931 127.581L191.93 127.582Z" fill="white"/>
<path d="M246.576 34.0005C246.475 33.81 246.264 33.7056 246.052 33.738L239.982 34.6934C238.093 32.5344 235.847 30.659 233.295 29.1745L233.081 23.0404C233.074 22.826 232.93 22.6383 232.723 22.5762L225.675 20.4186C225.469 20.3551 225.246 20.4299 225.119 20.6035L221.504 25.5649C218.557 25.3674 215.646 25.6623 212.871 26.3946L208.377 22.2065C208.219 22.0597 207.986 22.0287 207.795 22.1303L201.284 25.5861C201.094 25.6877 200.989 25.8979 201.022 26.1096L201.978 32.1759C199.817 34.064 197.941 36.3091 196.456 38.8589L190.318 39.0734C190.103 39.0805 189.915 39.2244 189.853 39.4304L187.694 46.4747C187.631 46.6807 187.706 46.9037 187.879 47.0307L192.844 50.6431C192.646 53.5881 192.941 56.4978 193.674 59.2706L189.482 63.7621C189.335 63.9202 189.304 64.153 189.406 64.3435L192.862 70.8501C192.964 71.0406 193.174 71.145 193.386 71.1126L199.456 70.1573C201.344 72.3163 203.592 74.1916 206.143 75.6761L206.356 81.8102C206.363 82.0247 206.507 82.2123 206.714 82.2744L213.762 84.432C213.968 84.4955 214.191 84.4207 214.318 84.2457L217.933 79.2843C220.88 79.4819 223.791 79.1869 226.566 78.4546L231.06 82.6427C231.218 82.7895 231.451 82.8205 231.642 82.7189L238.152 79.2645C238.343 79.1629 238.448 78.9527 238.415 78.741L237.459 72.6747C239.619 70.7866 241.496 68.5416 242.981 65.9917L249.119 65.7786C249.334 65.7716 249.522 65.6276 249.584 65.4216L251.743 58.3774C251.806 58.1713 251.731 57.9484 251.558 57.8214L246.593 54.2089C246.791 51.264 246.496 48.3543 245.763 45.5814L249.954 41.0899C250.101 40.9319 250.132 40.699 250.03 40.5085L246.572 34.0019L246.576 34.0005Z" fill="#FFC701"/>
<path d="M215.967 58.5736C215.384 58.2166 214.849 57.7749 214.378 57.2542C213.087 55.8276 212.428 53.9847 212.525 52.0642C212.621 50.1437 213.46 48.3756 214.887 47.0844C216.315 45.7932 218.159 45.1357 220.081 45.2316C222.002 45.3276 223.773 46.1658 225.063 47.5924C226.354 49.019 227.013 50.8619 226.916 52.7824C226.82 54.7029 225.981 56.4711 224.554 57.7622C223.126 59.0534 221.282 59.711 219.36 59.615C218.14 59.5543 216.981 59.1931 215.967 58.5736ZM222.786 47.4005C221.957 46.8939 221.011 46.6004 220.013 46.5496C218.443 46.4706 216.936 47.0082 215.77 48.0623C214.603 49.1164 213.919 50.5614 213.841 52.1305C213.762 53.6997 214.3 55.2053 215.355 56.3709C216.409 57.5364 217.855 58.2208 219.425 58.2984C220.995 58.3775 222.502 57.8398 223.668 56.7857C224.835 55.7316 225.519 54.2867 225.597 52.7175C225.676 51.1484 225.138 49.6427 224.083 48.4772C223.698 48.0524 223.262 47.6912 222.784 47.3991L222.786 47.4005Z" fill="#FFEFAB"/>
<path d="M209.964 68.238C202.955 63.9539 199.437 55.3151 201.951 47.1096C202.416 45.5954 203.058 44.1843 203.849 42.8918C208.136 35.887 216.781 32.3691 224.992 34.8809C225.139 34.9261 225.287 34.974 225.432 35.022C226.419 35.3508 227.377 35.7614 228.286 36.2469C228.392 36.3033 228.498 36.3612 228.604 36.419L227.96 37.5705C226.904 36.9806 225.776 36.4995 224.605 36.141C224.594 36.1368 224.582 36.134 224.573 36.1312C215.552 33.3894 205.976 38.4821 203.214 47.4948C200.448 56.5188 205.543 66.1087 214.574 68.873C222.198 71.207 230.225 67.9403 234.205 61.4351C234.939 60.2343 235.537 58.9247 235.967 57.5193C236.876 54.5531 236.964 51.4007 236.223 48.405L237.503 48.0875C238.304 51.3147 238.209 54.7084 237.229 57.9045C236.765 59.4186 236.122 60.8297 235.332 62.1223C231.045 69.127 222.4 72.6449 214.189 70.1332C212.674 69.6689 211.261 69.0269 209.967 68.2352L209.964 68.238Z" fill="#FFEFAB"/>
<path d="M114.628 138.159L110.506 142.221C104.655 141.66 100.145 139.839 96.6816 137.532C98.7657 132.352 100.882 129.28 102.546 127.479C107.993 135.136 114.628 138.16 114.628 138.16V138.159Z" fill="url(#paint25_linear_921_5236)"/>
<path d="M85.9355 122.958L95.664 107.758C96.3022 116.332 99.201 122.778 102.546 127.478C100.883 129.279 98.7661 132.351 96.682 137.531C88.0394 131.772 85.937 122.957 85.937 122.957L85.9355 122.958Z" fill="url(#paint26_linear_921_5236)"/>
<path d="M75.5906 243.095C80.4407 243.318 85.1355 243.179 88.2701 243.018C85.4165 240.987 78.8409 236.57 73.3399 234.812L69.5629 234.586C69.5629 234.586 68.2837 236.531 67.8262 240.983C68.4517 241.763 70.2816 242.851 75.5906 243.095Z" fill="url(#paint27_linear_921_5236)"/>
<path d="M88.3084 243.045C88.2957 243.036 88.2816 243.026 88.2689 243.017C85.1343 243.177 80.4395 243.317 75.5894 243.094C70.2804 242.85 68.4505 241.762 67.825 240.982C67.8038 241.186 67.7826 241.391 67.7657 241.607C67.6866 242.583 68.4123 243.441 69.3908 243.515C73.3627 243.815 83.2112 244.494 87.9611 244.246C88.588 244.213 88.8195 243.409 88.3084 243.045Z" fill="url(#paint28_linear_921_5236)"/>
<path d="M40.9003 241.797C40.5445 239.521 39.9754 236.232 39.5349 235.391C38.8445 234.071 36.4808 235.391 36.4808 235.391C36.4808 235.391 34.8218 236.164 34.0579 237.452C33.5708 238.274 32.2251 240.611 31.313 242.198C31.2085 242.38 31.1648 242.575 31.1704 242.762L40.6334 243.094C40.865 242.723 40.9737 242.27 40.8989 241.797H40.9003Z" fill="url(#paint29_linear_921_5236)"/>
<path d="M31.1719 242.764C31.1874 243.304 31.6166 243.794 32.221 243.811L38.9631 243.996C39.6748 244.016 40.2918 243.646 40.6363 243.094L31.1733 242.762L31.1719 242.764Z" fill="url(#paint30_linear_921_5236)"/>
<path d="M41.6236 227.829C41.5417 228.101 40.3189 234.026 39.7838 236.626C39.6356 237.344 38.9875 237.849 38.2546 237.812C37.8536 237.793 37.3877 237.756 36.8992 237.694C36.0322 237.582 35.3728 236.858 35.3389 235.985C35.2528 233.707 35.209 229.334 36.0463 227.64C37.2013 225.303 41.6222 227.829 41.6222 227.829H41.6236Z" fill="url(#paint31_linear_921_5236)"/>
<path d="M68.8203 229.525C69.3442 229.508 68.6113 232.231 69.4049 234.907C69.5842 235.511 70.036 235.985 70.6658 235.992C71.0738 235.998 71.5581 235.989 72.0495 235.95C72.7879 235.89 73.3824 235.317 73.4502 234.581L74.0954 227.64L68.8217 229.525H68.8203Z" fill="url(#paint32_linear_921_5236)"/>
<path d="M83.4888 155.735C83.2544 156.874 74.993 205.037 74.4917 229.96C74.4833 230.377 74.1754 230.727 73.7617 230.785C72.7126 230.932 70.6695 231.12 68.6899 230.753C68.4188 230.702 68.2141 230.479 68.1972 230.204C67.9077 225.56 65.5864 186.292 68.4301 167.807C68.4301 167.807 44.9378 217.22 41.3768 230.846C41.2907 231.177 40.9857 231.4 40.6426 231.382C39.6358 231.328 37.5447 231.148 35.8828 230.537C35.287 230.318 34.9481 229.691 35.0978 229.076C37.0872 220.923 51.0304 164.744 60.4977 152.366L83.4888 155.735Z" fill="url(#paint33_linear_921_5236)"/>
<path d="M68.4279 168.115C68.3502 168.115 68.2725 168.085 68.2118 168.028C68.0904 167.909 68.0876 167.713 68.2076 167.592L71.3535 164.377C71.4721 164.256 71.6683 164.253 71.7898 164.373C71.9112 164.491 71.914 164.687 71.794 164.809L68.6481 168.023C68.5874 168.085 68.5083 168.116 68.4279 168.116V168.115Z" fill="url(#paint34_linear_921_5236)"/>
<path d="M96.9184 95.436C90.8836 93.8556 79.7531 91.3819 70.8916 91.9097C68.8569 92.031 67.2261 93.6397 67.1103 95.6731C65.7718 119.258 63.9433 140.188 60.498 152.364C68.2413 155.426 75.9168 156.847 83.4892 155.734C89.1624 143.59 94.1227 129.571 98.36 113.649C98.36 113.649 100.847 100.951 98.432 96.7173C98.055 96.0569 97.5609 95.6039 96.9184 95.4346V95.436Z" fill="url(#paint35_linear_921_5236)"/>
<path d="M82.4037 78.9148C82.4037 78.9148 80.8802 87.9995 80.4255 92.2018C80.3521 92.8847 80.7093 93.5296 81.3207 93.8443C82.9854 94.7008 86.5408 96.0809 90.4152 94.8151C91.0534 94.6063 91.4714 93.9896 91.4572 93.3194L91.1918 81.1909L82.4051 78.9162L82.4037 78.9148Z" fill="url(#paint36_linear_921_5236)"/>
<path d="M92.3424 68.8479C92.3424 68.8479 95.2821 75.5972 95.4798 79.1405C95.6775 82.6838 96.4413 84.9825 92.3424 85.6951C88.2434 86.4091 84.7912 84.3672 82.9203 80.8395C82.9203 80.8395 79.989 75.4025 80.647 73.1744C81.305 70.9476 92.3424 68.8479 92.3424 68.8479Z" fill="url(#paint37_linear_921_5236)"/>
<path d="M84.3208 78.3023H84.839C84.839 78.3023 82.7041 73.9265 84.5806 73.1574C86.4571 72.3884 93.8869 70.8743 95.4909 68.2397C97.037 65.6997 95.6575 62.4175 93.596 61.5003C93.4661 61.4424 93.3122 61.5031 93.2444 61.6301L93.0736 61.9532C92.9564 62.1748 92.6302 62.1409 92.5596 61.901C92.4933 61.6724 92.1855 61.623 92.0612 61.8248C91.5698 62.6122 90.2412 63.8935 86.6774 64.5511C81.6197 65.4838 78.2761 67.5299 78.1942 71.0224C78.1886 71.244 77.9528 71.3653 77.7636 71.251C77.3908 71.0238 76.7922 70.9166 75.9944 71.5883C74.6064 72.7553 75.174 75.7821 78.2183 78.2727C78.3623 78.3912 78.3623 78.617 78.2055 78.7186C77.6535 79.077 76.8317 79.9321 78.9624 81.0709C81.1424 82.2365 82.433 82.1095 82.9201 81.9839C83.0514 81.95 83.139 81.8315 83.1305 81.696L82.9385 78.6001C82.9286 78.4406 83.0557 78.3051 83.2166 78.3051H84.3208V78.3023Z" fill="url(#paint38_linear_921_5236)"/>
<path d="M84.4471 78.9501C84.4471 78.9501 83.326 74.6392 81.3916 75.8471C79.4572 77.0564 82.3955 80.6773 83.9501 80.8396L84.4471 78.9501Z" fill="url(#paint39_linear_921_5236)"/>
<path d="M21.6853 149.099L17.7149 150.102C10.9007 151.824 6.31887 156.94 7.48092 161.532L8.86182 166.99C10.0225 171.582 16.4879 173.909 23.302 172.187L27.2725 171.184C27.5351 171.118 27.7963 171.046 28.0561 170.968L144.487 136.152L141.48 124.26L22.4789 148.918C22.2134 148.973 21.9494 149.034 21.6867 149.1L21.6853 149.099ZM23.3952 154.546C28.5249 153.25 33.3087 154.668 34.0782 157.715C34.8491 160.762 31.315 164.281 26.1853 165.578C21.0556 166.873 16.2718 165.455 15.5023 162.408C14.7314 159.362 18.2655 155.842 23.3952 154.546Z" fill="url(#paint40_linear_921_5236)"/>
<path d="M180.191 108.101L157.152 113.921C155.511 114.336 154.157 115.488 153.483 117.04L150.037 124.994C149.053 127.265 149.722 129.912 151.668 131.443L158.483 136.805C159.813 137.851 161.553 138.221 163.193 137.807L186.233 131.988C189.707 131.11 192.66 134.735 191.019 137.92C187.094 145.54 179.891 151.565 170.725 153.882C154.155 158.068 139.492 148.035 135.464 132.108C131.435 116.181 139.567 100.389 156.136 96.2035C165.303 93.8879 174.506 95.7703 181.583 100.61C184.541 102.634 183.667 107.226 180.191 108.103V108.101Z" fill="url(#paint41_linear_921_5236)"/>
<path d="M180.739 110.271L157.7 116.09C156.06 116.505 154.704 117.657 154.032 119.209L150.585 127.163C149.601 129.434 150.271 132.081 152.216 133.612L159.032 138.974C160.362 140.02 162.101 140.389 163.742 139.976L186.781 134.155C190.256 133.277 193.209 136.903 191.568 140.087C187.643 147.707 180.44 153.733 171.274 156.048C154.704 160.234 140.041 150.201 136.013 134.274C131.984 118.347 140.117 102.555 156.685 98.3695C165.852 96.0539 175.055 97.9363 182.132 102.776C185.09 104.8 184.216 109.392 180.739 110.269V110.271Z" fill="url(#paint42_linear_921_5236)"/>
<path d="M22.1228 150.829L18.1524 151.832C11.3382 153.554 6.75637 158.67 7.91842 163.262L9.29932 168.72C10.46 173.312 16.9254 175.639 23.7395 173.917L27.71 172.914C27.9726 172.848 28.2338 172.776 28.4936 172.698L144.925 137.882L141.917 125.99L22.9164 150.648C22.6509 150.703 22.3869 150.764 22.1242 150.83L22.1228 150.829ZM23.8327 156.277C28.9624 154.982 33.7462 156.4 34.5157 159.446C35.2866 162.493 31.7525 166.012 26.6228 167.309C21.4931 168.604 16.7093 167.186 15.9398 164.14C15.1689 161.093 18.703 157.574 23.8327 156.277Z" fill="url(#paint43_linear_921_5236)"/>
<path d="M51.4954 126.849C48.5119 135.217 50.1921 144.187 50.1921 144.187L46.2584 145.235C46.2584 145.235 41.1767 139.194 42.3387 125.79C45.9689 125.237 49.3704 126.087 51.4954 126.849Z" fill="url(#paint44_linear_921_5236)"/>
<path d="M42.3393 125.79C42.4692 124.283 42.6754 122.687 42.9803 120.993C45.6377 106.21 64.6018 94.8377 69.0637 92.3471C69.4788 92.1157 69.9828 92.4276 69.9687 92.9031L69.3348 112.999C58.7732 114.417 53.7748 120.456 51.4945 126.849C49.3695 126.087 45.9695 125.237 42.3379 125.79H42.3393Z" fill="url(#paint45_linear_921_5236)"/>
<path d="M122.926 145.532C123.663 145.328 124.261 144.804 124.573 144.106C125.178 142.755 125.857 140.587 124.405 139.928C122.242 138.946 118.308 142.975 118.308 142.975L116.387 146.088L114.629 146.941C116.24 147.384 119.343 146.646 122.926 145.532Z" fill="url(#paint46_linear_921_5236)"/>
<path d="M49.9299 142.221H54.7927C54.7927 142.221 50.8477 144.586 50.7164 147.073C50.5851 149.559 52.2823 154.711 53.0772 156.112C53.9456 157.646 42.0652 153.829 46.2588 142.221H49.9299Z" fill="url(#paint47_linear_921_5236)"/>
</g>
<defs>
<linearGradient id="paint0_linear_921_5236" x1="164.221" y1="310.927" x2="250.739" y2="51.2167" gradientUnits="userSpaceOnUse">
<stop stop-color="#09005D"/>
<stop offset="1" stop-color="#1A0F91"/>
</linearGradient>
<linearGradient id="paint1_linear_921_5236" x1="211.784" y1="182.396" x2="193.837" y2="379.217" gradientUnits="userSpaceOnUse">
<stop stop-color="#09005D"/>
<stop offset="1" stop-color="#1A0F91"/>
</linearGradient>
<linearGradient id="paint2_linear_921_5236" x1="248.463" y1="118.193" x2="268.407" y2="118.193" gradientUnits="userSpaceOnUse">
<stop stop-color="#DAE3FE"/>
<stop offset="1" stop-color="#E9EFFD"/>
</linearGradient>
<linearGradient id="paint3_linear_921_5236" x1="276.948" y1="215.292" x2="316.811" y2="215.292" gradientUnits="userSpaceOnUse">
<stop stop-color="#4F52FF"/>
<stop offset="1" stop-color="#4042E2"/>
</linearGradient>
<linearGradient id="paint4_linear_921_5236" x1="359.087" y1="353.695" x2="338.643" y2="353.695" gradientUnits="userSpaceOnUse">
<stop stop-color="#09005D"/>
<stop offset="1" stop-color="#1A0F91"/>
</linearGradient>
<linearGradient id="paint5_linear_921_5236" x1="348.864" y1="312.282" x2="348.864" y2="354.574" gradientUnits="userSpaceOnUse">
<stop stop-color="#4F52FF"/>
<stop offset="1" stop-color="#4042E2"/>
</linearGradient>
<linearGradient id="paint6_linear_921_5236" x1="395.001" y1="353.746" x2="385.429" y2="353.746" gradientUnits="userSpaceOnUse">
<stop stop-color="#09005D"/>
<stop offset="1" stop-color="#1A0F91"/>
</linearGradient>
<linearGradient id="paint7_linear_921_5236" x1="393.73" y1="322.244" x2="389.432" y2="367.404" gradientUnits="userSpaceOnUse">
<stop stop-color="#4F52FF"/>
<stop offset="1" stop-color="#4042E2"/>
</linearGradient>
<linearGradient id="paint8_linear_921_5236" x1="390.953" y1="347.15" x2="384.742" y2="347.15" gradientUnits="userSpaceOnUse">
<stop stop-color="#FEBBBA"/>
<stop offset="1" stop-color="#FF928E"/>
</linearGradient>
<linearGradient id="paint9_linear_921_5236" x1="358.048" y1="346.744" x2="352.871" y2="346.744" gradientUnits="userSpaceOnUse">
<stop stop-color="#FEBBBA"/>
<stop offset="1" stop-color="#FF928E"/>
</linearGradient>
<linearGradient id="paint10_linear_921_5236" x1="374.9" y1="284.279" x2="417.972" y2="145.938" gradientUnits="userSpaceOnUse">
<stop stop-color="#4F52FF"/>
<stop offset="1" stop-color="#4042E2"/>
</linearGradient>
<linearGradient id="paint11_linear_921_5236" x1="356.849" y1="282.532" x2="363.734" y2="244.049" gradientUnits="userSpaceOnUse">
<stop stop-color="#4F52FF"/>
<stop offset="1" stop-color="#4042E2"/>
</linearGradient>
<linearGradient id="paint12_linear_921_5236" x1="342.59" y1="218.095" x2="340.043" y2="202.376" gradientUnits="userSpaceOnUse">
<stop stop-color="#FEBBBA"/>
<stop offset="1" stop-color="#FF928E"/>
</linearGradient>
<linearGradient id="paint13_linear_921_5236" x1="331.286" y1="131.213" x2="246.069" y2="205.97" gradientUnits="userSpaceOnUse">
<stop stop-color="#09005D"/>
<stop offset="1" stop-color="#1A0F91"/>
</linearGradient>
<linearGradient id="paint14_linear_921_5236" x1="325.479" y1="218.326" x2="384.82" y2="136.385" gradientUnits="userSpaceOnUse">
<stop stop-color="#09005D"/>
<stop offset="1" stop-color="#1A0F91"/>
</linearGradient>
<linearGradient id="paint15_linear_921_5236" x1="322.482" y1="232.881" x2="303.933" y2="282.506" gradientUnits="userSpaceOnUse">
<stop stop-color="#FEBBBA"/>
<stop offset="1" stop-color="#FF928E"/>
</linearGradient>
<linearGradient id="paint16_linear_921_5236" x1="367.088" y1="226.635" x2="329.493" y2="268.513" gradientUnits="userSpaceOnUse">
<stop stop-color="#FEBBBA"/>
<stop offset="1" stop-color="#FF928E"/>
</linearGradient>
<linearGradient id="paint17_linear_921_5236" x1="369.802" y1="229.072" x2="332.207" y2="270.949" gradientUnits="userSpaceOnUse">
<stop stop-color="#FEBBBA"/>
<stop offset="1" stop-color="#FF928E"/>
</linearGradient>
<linearGradient id="paint18_linear_921_5236" x1="331.874" y1="197.487" x2="346.433" y2="188.599" gradientUnits="userSpaceOnUse">
<stop stop-color="#FEBBBA"/>
<stop offset="1" stop-color="#FF928E"/>
</linearGradient>
<linearGradient id="paint19_linear_921_5236" x1="354.147" y1="179.248" x2="335.34" y2="194.113" gradientUnits="userSpaceOnUse">
<stop stop-color="#09005D"/>
<stop offset="1" stop-color="#1A0F91"/>
</linearGradient>
<linearGradient id="paint20_linear_921_5236" x1="335.698" y1="200.796" x2="348.797" y2="192.801" gradientUnits="userSpaceOnUse">
<stop stop-color="#FEBBBA"/>
<stop offset="1" stop-color="#FF928E"/>
</linearGradient>
<linearGradient id="paint21_linear_921_5236" x1="315.935" y1="327.447" x2="322.345" y2="279.938" gradientUnits="userSpaceOnUse">
<stop stop-color="#4F52FF"/>
<stop offset="1" stop-color="#4042E2"/>
</linearGradient>
<linearGradient id="paint22_linear_921_5236" x1="323.345" y1="257.991" x2="320.497" y2="276.52" gradientUnits="userSpaceOnUse">
<stop stop-color="#4F52FF"/>
<stop offset="1" stop-color="#4042E2"/>
</linearGradient>
<linearGradient id="paint23_linear_921_5236" x1="316.386" y1="298.031" x2="313.399" y2="312.126" gradientUnits="userSpaceOnUse">
<stop stop-color="#09005D"/>
<stop offset="1" stop-color="#1A0F91"/>
</linearGradient>
<linearGradient id="paint24_linear_921_5236" x1="83.6994" y1="115.554" x2="86.4061" y2="115.554" gradientUnits="userSpaceOnUse">
<stop stop-color="#FEBBBA"/>
<stop offset="1" stop-color="#FF928E"/>
</linearGradient>
<linearGradient id="paint25_linear_921_5236" x1="109.169" y1="128.536" x2="88.2125" y2="184.106" gradientUnits="userSpaceOnUse">
<stop stop-color="#FEBBBA"/>
<stop offset="1" stop-color="#FF928E"/>
</linearGradient>
<linearGradient id="paint26_linear_921_5236" x1="84.5165" y1="59.1339" x2="91.6384" y2="107.594" gradientUnits="userSpaceOnUse">
<stop stop-color="#4F52FF"/>
<stop offset="1" stop-color="#4042E2"/>
</linearGradient>
<linearGradient id="paint27_linear_921_5236" x1="67.7612" y1="238.899" x2="88.5892" y2="238.899" gradientUnits="userSpaceOnUse">
<stop stop-color="#09005D"/>
<stop offset="1" stop-color="#1A0F91"/>
</linearGradient>
<linearGradient id="paint28_linear_921_5236" x1="78.1733" y1="196.708" x2="78.1733" y2="239.794" gradientUnits="userSpaceOnUse">
<stop stop-color="#4F52FF"/>
<stop offset="1" stop-color="#4042E2"/>
</linearGradient>
<linearGradient id="paint29_linear_921_5236" x1="31.1718" y1="238.95" x2="40.9243" y2="238.95" gradientUnits="userSpaceOnUse">
<stop stop-color="#09005D"/>
<stop offset="1" stop-color="#1A0F91"/>
</linearGradient>
<linearGradient id="paint30_linear_921_5236" x1="32.4638" y1="206.857" x2="36.8441" y2="252.865" gradientUnits="userSpaceOnUse">
<stop stop-color="#4F52FF"/>
<stop offset="1" stop-color="#4042E2"/>
</linearGradient>
<linearGradient id="paint31_linear_921_5236" x1="35.2966" y1="232.231" x2="41.625" y2="232.231" gradientUnits="userSpaceOnUse">
<stop stop-color="#FEBBBA"/>
<stop offset="1" stop-color="#FF928E"/>
</linearGradient>
<linearGradient id="paint32_linear_921_5236" x1="68.8203" y1="231.817" x2="74.094" y2="231.817" gradientUnits="userSpaceOnUse">
<stop stop-color="#FEBBBA"/>
<stop offset="1" stop-color="#FF928E"/>
</linearGradient>
<linearGradient id="paint33_linear_921_5236" x1="93.3881" y1="102.956" x2="53.8435" y2="230.219" gradientUnits="userSpaceOnUse">
<stop stop-color="#4F52FF"/>
<stop offset="1" stop-color="#4042E2"/>
</linearGradient>
<linearGradient id="paint34_linear_921_5236" x1="81.9348" y1="150.782" x2="60.3651" y2="178.686" gradientUnits="userSpaceOnUse">
<stop stop-color="#09005D"/>
<stop offset="1" stop-color="#1A0F91"/>
</linearGradient>
<linearGradient id="paint35_linear_921_5236" x1="123.091" y1="92.6759" x2="59.4167" y2="135.468" gradientUnits="userSpaceOnUse">
<stop stop-color="#4F52FF"/>
<stop offset="1" stop-color="#4042E2"/>
</linearGradient>
<linearGradient id="paint36_linear_921_5236" x1="76.6725" y1="98.1439" x2="99.9496" y2="71.5248" gradientUnits="userSpaceOnUse">
<stop stop-color="#FEBBBA"/>
<stop offset="1" stop-color="#FF928E"/>
</linearGradient>
<linearGradient id="paint37_linear_921_5236" x1="79.5866" y1="85.0149" x2="62.7876" y2="97.8772" gradientUnits="userSpaceOnUse">
<stop stop-color="#FEBBBA"/>
<stop offset="1" stop-color="#FF928E"/>
</linearGradient>
<linearGradient id="paint38_linear_921_5236" x1="81.1509" y1="64.6442" x2="96.3589" y2="84.2366" gradientUnits="userSpaceOnUse">
<stop stop-color="#09005D"/>
<stop offset="1" stop-color="#1A0F91"/>
</linearGradient>
<linearGradient id="paint39_linear_921_5236" x1="90.873" y1="72.0667" x2="74.0739" y2="84.929" gradientUnits="userSpaceOnUse">
<stop stop-color="#FEBBBA"/>
<stop offset="1" stop-color="#FF928E"/>
</linearGradient>
<linearGradient id="paint40_linear_921_5236" x1="7.30019" y1="148.506" x2="144.487" y2="148.506" gradientUnits="userSpaceOnUse">
<stop stop-color="#DAE3FE"/>
<stop offset="1" stop-color="#E9EFFD"/>
</linearGradient>
<linearGradient id="paint41_linear_921_5236" x1="134.446" y1="125.023" x2="191.485" y2="125.023" gradientUnits="userSpaceOnUse">
<stop stop-color="#DAE3FE"/>
<stop offset="1" stop-color="#E9EFFD"/>
</linearGradient>
<linearGradient id="paint42_linear_921_5236" x1="-2892.5" y1="1370.87" x2="-2763.83" y2="1318.45" gradientUnits="userSpaceOnUse">
<stop stop-color="#09005D"/>
<stop offset="1" stop-color="#1A0F91"/>
</linearGradient>
<linearGradient id="paint43_linear_921_5236" x1="-2847.14" y1="1246.51" x2="-2690.61" y2="1176.67" gradientUnits="userSpaceOnUse">
<stop stop-color="#09005D"/>
<stop offset="1" stop-color="#1A0F91"/>
</linearGradient>
<linearGradient id="paint44_linear_921_5236" x1="49.112" y1="130.879" x2="25.5304" y2="164.963" gradientUnits="userSpaceOnUse">
<stop stop-color="#FEBBBA"/>
<stop offset="1" stop-color="#FF928E"/>
</linearGradient>
<linearGradient id="paint45_linear_921_5236" x1="111.334" y1="75.1782" x2="47.6584" y2="117.972" gradientUnits="userSpaceOnUse">
<stop stop-color="#4F52FF"/>
<stop offset="1" stop-color="#4042E2"/>
</linearGradient>
<linearGradient id="paint46_linear_921_5236" x1="123.925" y1="134.1" x2="102.969" y2="189.67" gradientUnits="userSpaceOnUse">
<stop stop-color="#FEBBBA"/>
<stop offset="1" stop-color="#FF928E"/>
</linearGradient>
<linearGradient id="paint47_linear_921_5236" x1="58.1504" y1="137.047" x2="34.2966" y2="171.525" gradientUnits="userSpaceOnUse">
<stop stop-color="#FEBBBA"/>
<stop offset="1" stop-color="#FF928E"/>
</linearGradient>
<clipPath id="clip0_921_5236">
<rect width="395" height="393" fill="white"/>
</clipPath>
</defs>
</svg>
