<svg width="394" height="394" viewBox="0 0 394 394" fill="none" xmlns="http://www.w3.org/2000/svg">
<path opacity="0.5" d="M377.525 267.137C337.712 360.128 232.619 400.069 150.278 393.258C127.795 391.399 82.5599 387.658 47.2391 354.281C-20.5908 290.182 -10.1442 156.198 54.7877 77.3164C63.1504 67.1575 121.031 -0.901999 211.226 0.00906286C277.262 0.675383 323.613 37.9525 329.249 42.5956C336.368 48.4623 352.072 62.4027 366.224 84.5186C399.478 136.483 402.402 209.027 377.522 267.136L377.525 267.137Z" fill="#33EFAB"/>
<path d="M376.212 323.99C376.212 327.825 373.328 330.962 369.802 330.962H23.2453C19.7199 330.962 16.8372 327.825 16.8372 323.99L13.9531 107.114C13.9531 103.279 18.1013 95.7923 25.7057 96.3558L364.4 86.8123C368.822 86.688 373.099 88.541 376.23 91.9407C379.361 95.3403 381.076 99.9885 380.972 104.799L376.212 323.99Z" fill="url(#paint0_linear_948_4817)"/>
<path d="M369.885 317.301C369.885 320.933 367.157 323.904 363.822 323.904H31.6035C28.2688 323.904 25.5401 320.933 25.5401 317.301L22.8184 120.419C23.139 108.572 32.6769 104.313 38.4592 104.565C38.4592 104.565 303.179 96.8303 363.066 95.0803C366.174 94.9899 369.178 96.2936 371.378 98.6834C373.579 101.073 374.789 104.344 374.711 107.728L369.884 317.301H369.885Z" fill="#91B3FA"/>
<path d="M391.799 329.91H1.06069C0.47488 329.91 0 330.385 0 330.971V347.906C0 348.491 0.47488 348.966 1.06069 348.966H391.799C392.385 348.966 392.86 348.491 392.86 347.906V330.971C392.86 330.385 392.385 329.91 391.799 329.91Z" fill="url(#paint1_linear_948_4817)"/>
<path d="M36.1391 116.24L267.343 110.822C271.103 110.734 274.216 112.97 274.216 115.761V118.33C274.216 121.011 271.334 123.201 267.721 123.269L36.6179 127.611C33.0022 127.679 29.9726 125.594 29.7946 122.915L29.6957 121.422C29.5121 118.662 32.416 116.326 36.1405 116.24H36.1391Z" fill="#BDD0FB"/>
<path d="M267.312 116.949C267.804 113.032 265.083 109.467 261.238 108.986C257.392 108.504 253.876 111.288 253.386 115.204C253.129 117.251 253.75 119.2 254.951 120.666L247.792 126.174C247.34 126.539 247.293 127.211 247.69 127.633L247.755 127.703C248.106 128.077 248.697 128.092 249.068 127.738L255.572 121.333C256.61 122.31 257.947 122.98 259.461 123.169C263.307 123.65 266.822 120.867 267.312 116.95V116.949ZM259.698 121.271C256.882 120.917 254.889 118.306 255.249 115.437C255.609 112.569 258.184 110.529 261 110.882C263.817 111.236 265.809 113.847 265.449 116.716C265.089 119.584 262.514 121.624 259.698 121.271Z" fill="url(#paint2_linear_948_4817)"/>
<path d="M31.7848 216.408L35.6406 309.687C35.7706 312.831 40.1617 315.328 45.485 315.284L158.677 314.363C163.999 314.32 168.27 311.755 168.258 308.612L167.864 214.459C167.849 211.237 163.35 208.653 157.898 208.737L41.2436 210.533C35.8864 210.614 31.6548 213.244 31.7862 216.41L31.7848 216.408Z" fill="#BDD0FB"/>
<path d="M190.023 133.858L260.982 132.995C268.244 132.906 274.267 135.264 274.328 138.222L275.532 196.859C275.593 199.814 269.677 202.212 262.415 202.177L188.544 201.808C184.387 201.787 181.018 200.431 180.92 198.74L177.457 139.254C177.287 136.356 182.903 133.945 190.026 133.859L190.023 133.858Z" fill="#BDD0FB"/>
<path d="M49.5956 132.515L150.572 131.625C160.908 131.534 169.477 133.965 169.563 137.012L171.278 197.444C171.364 200.489 162.943 202.961 152.612 202.924L47.4896 202.544C41.5759 202.523 36.7795 201.126 36.6396 199.383L31.7104 138.077C31.4702 135.089 39.4602 132.605 49.5956 132.516V132.515Z" fill="#BDD0FB"/>
<path d="M189.855 209.366L260.814 207.996C268.076 207.856 274.099 211.599 274.16 216.291L275.364 309.348C275.425 314.037 269.509 317.844 262.247 317.786L188.376 317.201C184.22 317.169 180.85 315.016 180.752 312.333L177.289 217.928C177.119 213.328 182.735 209.502 189.858 209.365L189.855 209.366Z" fill="#BDD0FB"/>
<path d="M294.025 108.206L349.383 107.315C355.05 107.223 359.748 109.659 359.796 112.714L360.736 173.282C360.784 176.334 356.167 178.811 350.502 178.775L292.871 178.393C289.628 178.372 286.999 176.971 286.922 175.225L284.22 113.78C284.088 110.786 288.468 108.296 294.025 108.207V108.206Z" fill="#BDD0FB"/>
<path d="M295.384 186.906L350.743 186.207C356.409 186.135 361.107 188.047 361.155 190.443L362.096 237.966C362.144 240.361 357.527 242.305 351.861 242.275L294.23 241.976C290.987 241.959 288.359 240.86 288.281 239.49L285.579 191.279C285.448 188.93 289.828 186.975 295.384 186.906Z" fill="#BDD0FB"/>
<path opacity="0.37" d="M298.025 252.89L353.383 252.085C359.05 252.003 363.748 254.204 363.796 256.962L364.736 311.669C364.784 314.426 360.167 316.663 354.502 316.629L296.871 316.284C293.628 316.265 290.999 315 290.922 313.423L288.22 257.925C288.088 255.221 292.468 252.972 298.025 252.892V252.89Z" fill="white"/>
<path d="M277.6 322.999L275 161.349C274.971 159.575 276.727 158.126 278.901 158.126C282.419 158.126 285.269 155.8 285.269 152.932V113.446C285.269 110.932 287.823 108.919 290.901 109.003L304.928 109.382C308.38 109.475 311.139 111.757 311.203 114.576L316 323H277.6V322.999Z" fill="url(#paint3_linear_948_4817)"/>
<path d="M316.275 241.269L316.332 243.035C321.76 250.591 326.696 248.663 330.097 246.396C328.051 241.307 327.688 240.745 326.055 238.975C319.917 243.439 316.277 241.269 316.277 241.269H316.275Z" fill="#FFC701"/>
<path d="M341.011 232.977L331.458 218.044C330.831 226.467 329.339 234.357 326.055 238.975C327.687 240.744 328.05 241.307 330.097 246.396C338.583 240.738 341.011 232.977 341.011 232.977Z" fill="#FFC701"/>
<path d="M350.388 358.303C345.626 358.522 341.017 358.385 337.939 358.227C340.742 356.233 347.198 351.892 352.599 350.165L356.308 349.943C356.308 349.943 357.565 351.854 358.012 356.227C357.398 356.994 355.601 358.063 350.388 358.303Z" fill="url(#paint4_linear_948_4817)"/>
<path d="M337.899 358.254C337.912 358.245 337.925 358.235 337.937 358.227C341.015 358.385 345.625 358.522 350.386 358.303C355.599 358.063 357.396 356.994 358.01 356.227C358.032 356.429 358.053 356.628 358.07 356.84C358.147 357.8 357.434 358.642 356.474 358.714C352.574 359.009 342.903 359.678 338.241 359.432C337.627 359.399 337.398 358.61 337.899 358.251V358.254Z" fill="url(#paint5_linear_948_4817)"/>
<path d="M384.448 357.028C384.797 354.792 385.356 351.56 385.788 350.734C386.466 349.437 388.787 350.734 388.787 350.734C388.787 350.734 390.416 351.494 391.166 352.759C391.643 353.566 392.965 355.862 393.86 357.422C393.963 357.601 394.006 357.792 394 357.977L384.709 358.302C384.482 357.937 384.376 357.492 384.448 357.028Z" fill="url(#paint6_linear_948_4817)"/>
<path d="M393.999 357.978C393.984 358.509 393.563 358.991 392.97 359.007L386.35 359.189C385.65 359.208 385.045 358.844 384.707 358.303L393.998 357.978H393.999Z" fill="url(#paint7_linear_948_4817)"/>
<path d="M383.738 343.304C383.819 343.572 385.019 349.392 385.545 351.946C385.69 352.652 386.326 353.148 387.046 353.111C387.439 353.092 387.896 353.056 388.377 352.994C389.228 352.884 389.875 352.173 389.909 351.316C389.994 349.079 390.036 344.782 389.214 343.117C388.08 340.821 383.738 343.302 383.738 343.302V343.304Z" fill="url(#paint8_linear_948_4817)"/>
<path d="M357.037 344.97C356.521 344.953 357.241 347.628 356.463 350.258C356.288 350.852 355.845 351.316 355.226 351.325C354.825 351.33 354.35 351.322 353.867 351.284C353.141 351.226 352.559 350.662 352.492 349.938L351.857 343.119L357.035 344.97H357.037Z" fill="url(#paint9_linear_948_4817)"/>
<path d="M342.631 272.476C342.861 273.595 350.974 320.913 351.465 345.398C351.474 345.809 351.776 346.152 352.183 346.21C353.213 346.354 355.218 346.538 357.163 346.178C357.43 346.128 357.63 345.909 357.647 345.638C357.931 341.075 360.211 302.497 357.419 284.336C357.419 284.336 380.485 332.883 383.982 346.268C384.066 346.594 384.366 346.813 384.702 346.795C385.689 346.743 387.744 346.565 389.376 345.965C389.96 345.75 390.294 345.135 390.145 344.53C388.192 336.518 374.502 281.325 365.207 269.164L342.632 272.475L342.631 272.476Z" fill="url(#paint10_linear_948_4817)"/>
<path d="M357.417 284.638C357.494 284.638 357.57 284.61 357.629 284.552C357.749 284.435 357.751 284.243 357.633 284.124L354.544 280.966C354.427 280.846 354.237 280.844 354.116 280.962C353.996 281.079 353.995 281.271 354.112 281.39L357.201 284.548C357.261 284.608 357.34 284.638 357.417 284.638Z" fill="url(#paint11_linear_948_4817)"/>
<path d="M329.447 213.234C335.372 211.682 346.302 209.227 355.001 209.771C357.843 209.949 358.381 212.624 358.494 214.623C359.809 237.795 361.825 257.201 365.207 269.165C357.605 272.174 350.068 273.569 342.633 272.476C337.063 260.546 332.193 246.772 328.032 231.128C328.032 231.128 325.591 218.652 327.961 214.493C328.331 213.845 328.817 213.398 329.448 213.233L329.447 213.234Z" fill="#FFC701"/>
<path d="M343.699 197.003C343.699 197.003 345.195 205.929 345.641 210.056C345.713 210.727 345.363 211.361 344.763 211.671C343.127 212.512 339.637 213.868 335.833 212.624C335.206 212.419 334.797 211.813 334.811 211.154L335.072 199.237L343.701 197.003H343.699Z" fill="url(#paint12_linear_948_4817)"/>
<path d="M307.723 149.942C307.935 149.822 308.009 149.554 307.891 149.342L307.283 148.266L307.237 148.291L303.662 142.493C303.535 142.286 303.262 142.222 303.056 142.349L302.38 142.767C302.172 142.894 302.108 143.167 302.236 143.373L305.535 148.725C305.666 148.938 305.594 149.218 305.377 149.34L279.445 163.964C279.233 164.084 279.158 164.353 279.277 164.565L279.884 165.641L279.893 165.637L288.319 180.58C288.439 180.792 288.708 180.867 288.919 180.748L289.612 180.357C289.823 180.237 289.898 179.968 289.78 179.756L281.569 165.197C281.449 164.986 281.524 164.717 281.737 164.597L307.723 149.944V149.942Z" fill="url(#paint13_linear_948_4817)"/>
<path d="M297.131 129.878L243.385 160.187L250.277 172.409L304.024 142.1L297.131 129.878Z" fill="#7D97F4"/>
<path d="M344.022 284.234L340.046 286.247C339.942 286.299 339.815 286.258 339.763 286.153L285.827 179.609C285.775 179.505 285.816 179.378 285.921 179.325L289.896 177.313C290.001 177.26 290.128 177.301 290.18 177.406L344.116 283.95C344.168 284.055 344.127 284.182 344.022 284.234Z" fill="url(#paint14_linear_948_4817)"/>
<path d="M250.28 172.41C251.542 171.699 251.01 168.365 249.092 164.965C247.175 161.564 244.597 159.384 243.335 160.095C242.074 160.807 242.605 164.141 244.523 167.541C246.441 170.942 249.018 173.122 250.28 172.41Z" fill="#7D97F4"/>
<path d="M303.673 142.359C304.934 141.647 304.403 138.313 302.485 134.913C300.567 131.512 297.99 129.332 296.728 130.044C295.466 130.755 295.998 134.089 297.916 137.489C299.833 140.89 302.411 143.07 303.673 142.359Z" fill="#7D97F4"/>
<path d="M315.407 241.54C315.032 240.971 314.937 240.266 315.139 239.614C315.529 238.35 316.345 236.495 317.71 236.905C319.741 237.516 320.012 242.535 320.012 242.535L319.472 245.756L320.15 247.364C318.808 246.715 317.157 244.395 315.407 241.54Z" fill="url(#paint15_linear_948_4817)"/>
<path d="M362.426 252.879C363.257 251.714 364.089 250.44 364.911 249.033C373.038 235.114 358.133 213.798 358.133 213.798L353.59 227.32C360.306 234.81 357.486 242.036 355.201 248.033C352.209 255.883 339.271 262.539 339.271 262.539L341.736 265.579C341.736 265.579 355.037 263.239 362.428 252.881L362.426 252.879Z" fill="url(#paint16_linear_948_4817)"/>
<path d="M367.534 235.05C367.366 224.244 358.783 212.764 357.215 210.743C357.104 210.599 356.882 210.629 356.807 210.794L353.59 227.32C354.956 230.514 354.679 232.524 356.043 235.401C359.735 234.884 363.162 234.858 366.803 235.646C367.184 235.728 367.542 235.44 367.534 235.05Z" fill="#FFC701"/>
<path d="M339.27 262.538C338.515 262.157 332.592 263.019 333.501 263.834C335.092 265.262 335.162 266.343 333.488 267.68C332.662 268.339 330.763 269.34 330.245 267.8C330.1 267.366 330.08 266.805 329.667 266.608C329.362 266.462 328.501 267.504 328.45 267.839C328.162 269.715 329.659 271.274 331.31 271.896C332.111 272.198 332.964 272.326 333.81 272.453C334.28 272.524 335.454 272.699 335.56 272.653C335.683 272.599 335.755 272.475 335.845 272.376C336.231 271.948 338.296 270.208 338.746 269.626C338.989 269.312 342.084 265.41 341.927 265.037C341.927 265.037 339.911 262.863 339.272 262.54L339.27 262.538Z" fill="url(#paint17_linear_948_4817)"/>
<path d="M333.34 187.493C333.34 187.493 328.557 196.499 329.169 200.137C329.782 203.776 335.712 203.514 340.89 200.559L344.508 190.835L333.34 187.493Z" fill="url(#paint18_linear_948_4817)"/>
<path d="M340.662 195.784C340.451 195.691 340.374 195.434 340.5 195.241C340.882 194.654 341.601 193.461 341.83 192.414C341.83 192.414 342.69 191.864 339.641 191.133C336.591 190.403 332.045 189.27 331.089 186.676C330.157 184.145 332.606 177.782 336.511 182.852C336.659 183.046 336.95 183.05 337.098 182.857C337.738 182.023 339.422 180.293 341.759 181.343C343.947 182.324 344.193 183.927 344.163 184.735C344.155 184.972 344.367 185.157 344.601 185.114C345.707 184.903 348.361 184.721 349.6 187.444C350.619 189.687 349.957 190.955 349.352 191.577C349.156 191.777 349.242 192.109 349.511 192.191C350.238 192.414 351.176 193.03 351.083 194.732C350.953 197.087 348.321 196.879 347.571 196.772C347.448 196.755 347.324 196.796 347.242 196.887C346.6 197.598 343.706 200.618 340.572 200.982C340.3 201.013 340.09 200.746 340.179 200.488L341.535 196.546C341.598 196.362 341.511 196.161 341.333 196.084L340.661 195.786L340.662 195.784Z" fill="url(#paint19_linear_948_4817)"/>
<path d="M340.116 196.344C340.116 196.344 343.522 194.006 343.771 195.975C344.019 197.944 340.703 198.825 339.061 198.092L340.116 196.344Z" fill="url(#paint20_linear_948_4817)"/>
<path d="M329.881 358.615C319.418 362.11 309.253 362.114 299.45 358.92C296.972 358.113 295.293 355.803 295.293 353.197V305.184C307.339 307.835 319.966 307.97 333.267 305.184V353.94C333.267 356.066 331.897 357.942 329.88 358.615H329.881Z" fill="#BDD0FB"/>
<path d="M314.28 308.618C324.766 308.618 333.267 306.909 333.267 304.802C333.267 302.694 324.766 300.985 314.28 300.985C303.794 300.985 295.293 302.694 295.293 304.802C295.293 306.909 303.794 308.618 314.28 308.618Z" fill="#7D97F4"/>
<path d="M333.269 342.154C320.611 346.556 307.953 346.556 295.295 342.154V323C308.067 326.148 320.731 326.309 333.269 323V342.154Z" fill="url(#paint21_linear_948_4817)"/>
<path d="M297.33 309.549C297.737 311.069 299.471 312.094 300.999 311.718C302.07 311.454 302.987 310.615 304.09 310.597C305.343 310.576 306.342 311.608 307.073 312.626C308.4 314.475 309.409 316.553 310.043 318.738C310.255 319.465 310.441 320.239 310.953 320.799C312.047 321.996 314.116 321.614 315.332 320.539C316.548 319.465 317.21 317.914 318.113 316.567C319.017 315.22 320.406 313.963 322.024 314.06C322.567 314.092 323.092 314.279 323.634 314.302C324.836 314.352 326.017 313.501 326.351 312.345C326.452 311.991 326.485 311.61 326.667 311.289C327.215 310.33 328.667 310.237 329.417 309.458C329.893 308.965 330.051 308.248 330.606 307.762C330.817 307.579 332.256 306.984 332.285 306.892C332.538 306.118 331.735 305.419 330.99 305.087C326.625 303.144 321.635 305.081 316.902 305.744C312.252 306.395 307.803 305.334 303.199 305.374C300.659 305.396 296.382 306.008 297.33 309.547V309.549Z" fill="url(#paint22_linear_948_4817)"/>
<path d="M314.501 308.727C324.987 308.727 333.487 307.018 333.487 304.911C333.487 302.803 324.987 301.094 314.501 301.094C304.014 301.094 295.514 302.803 295.514 304.911C295.514 307.018 304.014 308.727 314.501 308.727Z" fill="#7D97F4"/>
<path d="M313.994 307.218C322.627 307.218 329.625 306.185 329.625 304.91C329.625 303.636 322.627 302.603 313.994 302.603C305.362 302.603 298.363 303.636 298.363 304.91C298.363 306.185 305.362 307.218 313.994 307.218Z" fill="url(#paint23_linear_948_4817)"/>
<path d="M213.513 140.928L109.284 139.993C107.24 139.975 105.577 141.633 105.588 143.677L106.044 223.658C106.055 225.716 107.756 227.36 109.812 227.298C128.658 226.736 212.326 224.257 216.019 224.411C219.669 224.563 217.686 160.313 217.142 144.461C217.074 142.5 215.475 140.944 213.515 140.927L213.513 140.928Z" fill="url(#paint24_linear_948_4817)"/>
<path d="M109.711 224.297C109.345 224.297 109.051 224.003 109.05 223.641L108.594 143.66C108.594 143.481 108.659 143.318 108.786 143.191C108.912 143.064 109.075 142.996 109.258 142.996L213.488 143.931C213.841 143.934 214.128 144.214 214.141 144.566C215.488 183.761 215.514 213.849 214.207 221.218L214.173 221.411L213.977 221.414C200.109 221.609 124.701 223.849 109.725 224.295H109.711V224.297ZM109.253 143.474C109.201 143.474 109.159 143.491 109.122 143.527C109.085 143.564 109.068 143.605 109.068 143.657L109.525 223.639C109.525 223.739 109.605 223.821 109.702 223.821L109.717 224.058L109.71 223.821C124.616 223.376 199.398 221.156 213.771 220.942C215.038 213.281 214.998 183.414 213.663 144.582C213.661 144.485 213.58 144.409 213.481 144.407L109.252 143.472L109.253 143.474Z" fill="white"/>
<path d="M200.934 214.002H132.61C130.483 214.002 129.161 211.691 130.24 209.858L157.289 163.874C158.417 161.956 161.236 162.103 162.161 164.127L175.222 192.745C175.997 194.444 178.205 194.892 179.582 193.631L184.866 188.787C186.093 187.662 188.031 187.878 188.981 189.245L203.193 209.682C204.461 211.506 203.156 214.003 200.934 214.003V214.002Z" fill="white"/>
<path d="M141.497 168.207C144.669 163.807 143.672 157.668 139.272 154.497C134.871 151.325 128.732 152.322 125.561 156.722C122.389 161.123 123.386 167.261 127.786 170.433C132.187 173.605 138.326 172.608 141.497 168.207Z" fill="white"/>
<path d="M37.2163 237.823C39.883 227.959 48.1229 219.856 57.3049 217.808C58.9913 217.432 59.9687 215.713 59.5732 214.031C59.5704 214.02 59.5675 214.007 59.5647 213.996C58.2342 208.259 61.9121 203.69 67.4572 202.403C73.0023 201.116 78.3157 203.602 79.6462 209.338C80.5445 213.209 79.3934 217.563 76.8482 220.384C75.7988 221.546 75.7141 223.281 76.731 224.472C82.3269 231.026 84.6023 241.032 82.1829 249.981C78.6194 263.163 66.2242 269.051 53.8064 265.694C41.3886 262.336 33.65 251.005 37.2149 237.823H37.2163Z" fill="url(#paint25_linear_948_4817)"/>
<path d="M41.0773 250.403L41.3188 250.234C39.0957 247.078 38.8104 242.525 40.5744 238.348C41.9755 235.032 44.4811 231.998 48.4627 228.803C49.9457 227.613 51.5191 226.483 53.0403 225.389C54.8721 224.073 56.7648 222.714 58.5204 221.236C60.0994 219.905 61.7604 218.254 62.1078 216.094C62.2816 215.018 62.1192 213.871 61.9624 212.763C61.7166 211.027 61.4836 209.387 62.5019 208.133L62.2731 207.948C61.1743 209.302 61.4271 211.083 61.6714 212.805C61.8254 213.893 61.985 215.017 61.8183 216.049C61.485 218.114 59.8692 219.716 58.3311 221.012C56.5854 222.484 54.6956 223.841 52.8694 225.154C51.3454 226.248 49.7691 227.381 48.2791 228.576C44.258 231.803 41.7241 234.872 40.3033 238.235C38.4996 242.505 38.7977 247.167 41.0787 250.404L41.0773 250.403Z" fill="#91B3FA"/>
<path d="M46.9819 252.307L47.2587 252.207C45.746 248.023 46.1896 242.883 48.4734 238.103C50.7389 233.364 54.4408 229.501 57.4138 226.665L57.2105 226.452C54.219 229.305 50.4931 233.194 48.2079 237.975C45.8887 242.827 45.4424 248.05 46.9819 252.307Z" fill="#91B3FA"/>
<path d="M106.529 198.194L106.631 194.787L103.07 187.717C102.419 186.423 102.414 184.899 103.056 183.601L107.09 175.457C107.09 175.457 109.419 193.135 110.032 194.603C110.645 196.072 108.37 198.712 108.37 198.712L106.528 198.192L106.529 198.194Z" fill="url(#paint26_linear_948_4817)"/>
<path d="M106.63 194.787C106.63 194.787 95.8001 224.312 77.3457 233.54C77.3457 233.54 83.4882 243.563 86.6929 244.17C86.6929 244.17 106.407 218.937 108.417 198.267L106.63 194.788V194.787Z" fill="url(#paint27_linear_948_4817)"/>
<path d="M32.4131 372.39L31.868 376.867C31.3016 378.996 28.5615 384.357 25.0461 384.009C22.8823 383.794 22.6224 377.473 22.9233 376.526C23.4727 374.797 24.4783 372.202 25.9274 370.676H30.8948C31.8129 370.676 32.5247 371.479 32.4131 372.39Z" fill="url(#paint28_linear_948_4817)"/>
<path d="M71.3152 319.937L72.1541 324.869C72.1541 324.869 69.3462 353.306 68.8477 364.681C68.77 366.465 69.2304 368.226 70.1669 369.748L75.0481 377.675L62.6416 370.353L62.3944 368.839L64.4255 366.047L61.7645 334.189C61.6077 332.318 61.9948 330.441 62.8775 328.782L65.4438 323.962L71.3166 319.937H71.3152Z" fill="url(#paint29_linear_948_4817)"/>
<path d="M75.8655 378.824H71.9066C71.1651 378.824 70.4659 378.483 70.0139 377.896C68.7795 376.291 66.2217 373.163 64.9999 373.081C63.3545 372.971 63.565 378.822 63.565 378.822H62.6427L61.4746 371.55C61.1808 369.721 62.0904 367.907 63.733 367.05C63.733 367.05 64.1087 369.832 66.1496 371.064C68.1906 372.296 74.4531 376.704 74.4531 376.704C74.4531 376.704 75.2201 376.595 76.0618 376.746C77.3118 376.972 77.1367 378.822 75.8669 378.822L75.8655 378.824Z" fill="url(#paint30_linear_948_4817)"/>
<path d="M54.323 322.28C54.323 322.28 37.8756 353.478 35.2613 360.602C32.6469 367.725 31.7303 373.668 31.6964 374.231C31.6413 375.111 30.5481 375.954 27.5326 375.954C25.9762 375.954 25.2149 375.329 24.842 374.726C24.5242 374.211 24.5073 373.567 24.7756 373.024C25.7276 371.099 28.7459 364.945 29.8645 362.155C31.1992 358.823 34.0706 343.721 35.6468 338.472C37.2217 333.222 39.0027 327.525 45.8613 322.28C45.8613 322.28 50.5702 317.668 54.3244 322.28H54.323Z" fill="url(#paint31_linear_948_4817)"/>
<path d="M64.7129 271.158C67.1225 260.951 64.6988 253.262 62.1537 248.52C60.124 244.739 61.5506 240.061 65.3584 238.081C71.3088 234.987 77.3468 233.539 77.3468 233.539C77.3468 233.539 89.1375 242.159 87.7392 248.906C86.92 252.86 79.4513 272.592 79.4513 272.592C79.4513 272.592 72.5461 275.86 64.7143 271.157L64.7129 271.158Z" fill="#FFC701"/>
<path d="M55.3086 280.059C57.0345 274.857 64.7151 271.158 64.7151 271.158C72.5469 275.861 79.4521 272.593 79.4521 272.593C79.4521 272.593 81.0001 278.513 79.9323 284.014C78.8631 289.515 72.157 324.869 72.157 324.869C61.5909 327.01 45.3398 322.715 45.3398 322.715C52.0699 310.766 53.5826 285.261 55.3086 280.059Z" fill="url(#paint32_linear_948_4817)"/>
<path d="M69.6376 221.66L66.1886 237.154C65.8581 238.519 67.1024 238.296 68.4823 238.036C70.7421 237.609 73.6545 236.732 74.6277 234.974C74.7265 234.794 74.776 234.592 74.8042 234.39L76.2858 223.646C76.403 222.795 75.9426 221.967 75.1559 221.618L72.2958 220.35C71.1941 219.861 69.9201 220.49 69.6376 221.66Z" fill="url(#paint33_linear_948_4817)"/>
<path d="M112.752 211.427C112.752 211.427 103.673 242.964 67.0634 240.001C64.7216 239.811 62.6637 241.547 62.4815 243.889L62.3827 245.155C62.1186 248.549 64.8882 251.409 68.2879 251.238C80.4642 250.622 106.613 245.84 115.576 216.908L112.75 211.427H112.752Z" fill="url(#paint34_linear_948_4817)"/>
<path d="M115.576 216.908C115.576 216.908 117.321 211.774 117.758 208.565C118.196 205.356 116.583 198.154 115.198 196.129C113.811 194.103 113.579 199.068 112.955 201.401C112.331 203.734 113.387 207.064 113.387 207.064L112.75 211.426L115.576 216.908Z" fill="url(#paint35_linear_948_4817)"/>
<path d="M76.7124 208.879C76.7124 208.879 85.434 221.585 80.0103 225.125C74.5867 228.666 68.3779 219.635 68.3779 219.635C68.3779 219.635 66.4287 212.734 68.6462 210.448C70.8637 208.161 76.7124 208.879 76.7124 208.879Z" fill="url(#paint36_linear_948_4817)"/>
<path d="M73.053 205.795C73.053 205.795 76.8482 206.77 77.3496 208.505C77.851 210.24 71.8822 211.727 70.2155 211.774L68.7438 218.707C68.7438 218.707 64.9035 212.086 66.5447 208.335C68.1859 204.583 73.053 205.795 73.053 205.795Z" fill="url(#paint37_linear_948_4817)"/>
<path d="M70.1308 218.745C70.1308 218.745 66.7198 214.641 65.2834 217.248C63.847 219.854 68.3356 221.916 69.926 220.654L70.1308 218.745Z" fill="url(#paint38_linear_948_4817)"/>
<defs>
<linearGradient id="paint0_linear_948_4817" x1="163.15" y1="311.374" x2="249.79" y2="51.4571" gradientUnits="userSpaceOnUse">
<stop stop-color="#09005D"/>
<stop offset="1" stop-color="#1A0F91"/>
</linearGradient>
<linearGradient id="paint1_linear_948_4817" x1="210.728" y1="182.724" x2="192.754" y2="379.724" gradientUnits="userSpaceOnUse">
<stop stop-color="#09005D"/>
<stop offset="1" stop-color="#1A0F91"/>
</linearGradient>
<linearGradient id="paint2_linear_948_4817" x1="247.419" y1="118.461" x2="267.369" y2="118.461" gradientUnits="userSpaceOnUse">
<stop stop-color="#DAE3FE"/>
<stop offset="1" stop-color="#E9EFFD"/>
</linearGradient>
<linearGradient id="paint3_linear_948_4817" x1="275" y1="215.998" x2="316" y2="215.998" gradientUnits="userSpaceOnUse">
<stop stop-color="#4F52FF"/>
<stop offset="1" stop-color="#4042E2"/>
</linearGradient>
<linearGradient id="paint4_linear_948_4817" x1="358.077" y1="354.179" x2="337.626" y2="354.179" gradientUnits="userSpaceOnUse">
<stop stop-color="#09005D"/>
<stop offset="1" stop-color="#1A0F91"/>
</linearGradient>
<linearGradient id="paint5_linear_948_4817" x1="347.85" y1="312.73" x2="347.85" y2="355.06" gradientUnits="userSpaceOnUse">
<stop stop-color="#4F52FF"/>
<stop offset="1" stop-color="#4042E2"/>
</linearGradient>
<linearGradient id="paint6_linear_948_4817" x1="394.002" y1="354.231" x2="384.426" y2="354.231" gradientUnits="userSpaceOnUse">
<stop stop-color="#09005D"/>
<stop offset="1" stop-color="#1A0F91"/>
</linearGradient>
<linearGradient id="paint7_linear_948_4817" x1="392.729" y1="322.701" x2="388.424" y2="367.902" gradientUnits="userSpaceOnUse">
<stop stop-color="#4F52FF"/>
<stop offset="1" stop-color="#4042E2"/>
</linearGradient>
<linearGradient id="paint8_linear_948_4817" x1="389.951" y1="347.63" x2="383.738" y2="347.63" gradientUnits="userSpaceOnUse">
<stop stop-color="#FEBBBA"/>
<stop offset="1" stop-color="#FF928E"/>
</linearGradient>
<linearGradient id="paint9_linear_948_4817" x1="357.037" y1="347.223" x2="351.859" y2="347.223" gradientUnits="userSpaceOnUse">
<stop stop-color="#FEBBBA"/>
<stop offset="1" stop-color="#FF928E"/>
</linearGradient>
<linearGradient id="paint10_linear_948_4817" x1="373.893" y1="284.7" x2="417.027" y2="146.247" gradientUnits="userSpaceOnUse">
<stop stop-color="#4F52FF"/>
<stop offset="1" stop-color="#4042E2"/>
</linearGradient>
<linearGradient id="paint11_linear_948_4817" x1="355.838" y1="282.952" x2="362.732" y2="244.436" gradientUnits="userSpaceOnUse">
<stop stop-color="#4F52FF"/>
<stop offset="1" stop-color="#4042E2"/>
</linearGradient>
<linearGradient id="paint12_linear_948_4817" x1="341.576" y1="218.456" x2="339.024" y2="202.723" gradientUnits="userSpaceOnUse">
<stop stop-color="#FEBBBA"/>
<stop offset="1" stop-color="#FF928E"/>
</linearGradient>
<linearGradient id="paint13_linear_948_4817" x1="330.257" y1="131.488" x2="244.968" y2="206.261" gradientUnits="userSpaceOnUse">
<stop stop-color="#09005D"/>
<stop offset="1" stop-color="#1A0F91"/>
</linearGradient>
<linearGradient id="paint14_linear_948_4817" x1="324.459" y1="218.687" x2="383.866" y2="136.706" gradientUnits="userSpaceOnUse">
<stop stop-color="#09005D"/>
<stop offset="1" stop-color="#1A0F91"/>
</linearGradient>
<linearGradient id="paint15_linear_948_4817" x1="321.477" y1="233.238" x2="302.903" y2="282.902" gradientUnits="userSpaceOnUse">
<stop stop-color="#FEBBBA"/>
<stop offset="1" stop-color="#FF928E"/>
</linearGradient>
<linearGradient id="paint16_linear_948_4817" x1="366.08" y1="227.004" x2="328.448" y2="268.896" gradientUnits="userSpaceOnUse">
<stop stop-color="#FEBBBA"/>
<stop offset="1" stop-color="#FF928E"/>
</linearGradient>
<linearGradient id="paint17_linear_948_4817" x1="368.795" y1="229.442" x2="331.162" y2="271.335" gradientUnits="userSpaceOnUse">
<stop stop-color="#FEBBBA"/>
<stop offset="1" stop-color="#FF928E"/>
</linearGradient>
<linearGradient id="paint18_linear_948_4817" x1="330.841" y1="197.836" x2="345.409" y2="188.95" gradientUnits="userSpaceOnUse">
<stop stop-color="#FEBBBA"/>
<stop offset="1" stop-color="#FF928E"/>
</linearGradient>
<linearGradient id="paint19_linear_948_4817" x1="353.122" y1="179.583" x2="334.301" y2="194.449" gradientUnits="userSpaceOnUse">
<stop stop-color="#09005D"/>
<stop offset="1" stop-color="#1A0F91"/>
</linearGradient>
<linearGradient id="paint20_linear_948_4817" x1="334.668" y1="201.151" x2="347.776" y2="193.155" gradientUnits="userSpaceOnUse">
<stop stop-color="#FEBBBA"/>
<stop offset="1" stop-color="#FF928E"/>
</linearGradient>
<linearGradient id="paint21_linear_948_4817" x1="314.912" y1="327.907" x2="321.331" y2="280.357" gradientUnits="userSpaceOnUse">
<stop stop-color="#4F52FF"/>
<stop offset="1" stop-color="#4042E2"/>
</linearGradient>
<linearGradient id="paint22_linear_948_4817" x1="322.325" y1="258.389" x2="319.472" y2="276.934" gradientUnits="userSpaceOnUse">
<stop stop-color="#4F52FF"/>
<stop offset="1" stop-color="#4042E2"/>
</linearGradient>
<linearGradient id="paint23_linear_948_4817" x1="315.361" y1="298.466" x2="312.369" y2="312.573" gradientUnits="userSpaceOnUse">
<stop stop-color="#09005D"/>
<stop offset="1" stop-color="#1A0F91"/>
</linearGradient>
<linearGradient id="paint24_linear_948_4817" x1="250.782" y1="101.566" x2="95.1984" y2="242.875" gradientUnits="userSpaceOnUse">
<stop stop-color="#4F52FF"/>
<stop offset="1" stop-color="#4042E2"/>
</linearGradient>
<linearGradient id="paint25_linear_948_4817" x1="75.8668" y1="274.455" x2="41.015" y2="185.001" gradientUnits="userSpaceOnUse">
<stop stop-color="#09005D"/>
<stop offset="1" stop-color="#1A0F91"/>
</linearGradient>
<linearGradient id="paint26_linear_948_4817" x1="64.81" y1="245.718" x2="109.06" y2="185.289" gradientUnits="userSpaceOnUse">
<stop stop-color="#FEBBBA"/>
<stop offset="1" stop-color="#FF928E"/>
</linearGradient>
<linearGradient id="paint27_linear_948_4817" x1="72.7512" y1="251.534" x2="117.002" y2="191.105" gradientUnits="userSpaceOnUse">
<stop stop-color="#FEBBBA"/>
<stop offset="1" stop-color="#FF928E"/>
</linearGradient>
<linearGradient id="paint28_linear_948_4817" x1="32.4244" y1="377.349" x2="22.8201" y2="377.349" gradientUnits="userSpaceOnUse">
<stop stop-color="#09005D"/>
<stop offset="1" stop-color="#1A0F91"/>
</linearGradient>
<linearGradient id="paint29_linear_948_4817" x1="99.9346" y1="327.113" x2="38.5546" y2="376.122" gradientUnits="userSpaceOnUse">
<stop stop-color="#FEBBBA"/>
<stop offset="1" stop-color="#FF928E"/>
</linearGradient>
<linearGradient id="paint30_linear_948_4817" x1="66.4293" y1="372.938" x2="50.9353" y2="372.938" gradientUnits="userSpaceOnUse">
<stop stop-color="#09005D"/>
<stop offset="1" stop-color="#1A0F91"/>
</linearGradient>
<linearGradient id="paint31_linear_948_4817" x1="45.1664" y1="414.845" x2="31.3828" y2="253.743" gradientUnits="userSpaceOnUse">
<stop stop-color="#FEBBBA"/>
<stop offset="1" stop-color="#FF928E"/>
</linearGradient>
<linearGradient id="paint32_linear_948_4817" x1="45.3398" y1="298.313" x2="80.308" y2="298.313" gradientUnits="userSpaceOnUse">
<stop stop-color="#4F52FF"/>
<stop offset="1" stop-color="#4042E2"/>
</linearGradient>
<linearGradient id="paint33_linear_948_4817" x1="74.3988" y1="253.692" x2="71.8099" y2="234.755" gradientUnits="userSpaceOnUse">
<stop stop-color="#FEBBBA"/>
<stop offset="1" stop-color="#FF928E"/>
</linearGradient>
<linearGradient id="paint34_linear_948_4817" x1="-3075.1" y1="-1331.04" x2="-3150.28" y2="-1368.16" gradientUnits="userSpaceOnUse">
<stop stop-color="#FEBBBA"/>
<stop offset="1" stop-color="#FF928E"/>
</linearGradient>
<linearGradient id="paint35_linear_948_4817" x1="-3060.17" y1="-1361.27" x2="-3135.35" y2="-1398.39" gradientUnits="userSpaceOnUse">
<stop stop-color="#FEBBBA"/>
<stop offset="1" stop-color="#FF928E"/>
</linearGradient>
<linearGradient id="paint36_linear_948_4817" x1="77.6074" y1="211.444" x2="66.0801" y2="235.21" gradientUnits="userSpaceOnUse">
<stop stop-color="#FEBBBA"/>
<stop offset="1" stop-color="#FF928E"/>
</linearGradient>
<linearGradient id="paint37_linear_948_4817" x1="94.2608" y1="268.31" x2="59.0992" y2="178.058" gradientUnits="userSpaceOnUse">
<stop stop-color="#09005D"/>
<stop offset="1" stop-color="#1A0F91"/>
</linearGradient>
<linearGradient id="paint38_linear_948_4817" x1="72.4436" y1="208.939" x2="60.9163" y2="232.705" gradientUnits="userSpaceOnUse">
<stop stop-color="#FEBBBA"/>
<stop offset="1" stop-color="#FF928E"/>
</linearGradient>
</defs>
</svg>
