<svg width="545" height="317" fill="none" xmlns="http://www.w3.org/2000/svg"><g clip-path="url(#a)"><path d="M125.844 134.179v148.777c0 10.948 9.634 19.822 21.518 19.822h250.275c11.884 0 21.517-8.874 21.517-19.822V134.179h-293.31Z" fill="#1A0F91"/><path d="m345.981 89.88-63.615-38.422c-6.189-3.738-13.539-3.738-19.727 0L199.023 89.87l-73.48 44.369 73.48 44.257 73.48 44.258 73.48-44.306 73.481-44.209-73.481-44.357-.002-.002Z" fill="#09005D"/><g style="mix-blend-mode:soft-light" fill="#fff"><path d="M131.591 296.348a.516.516 0 0 1-.386-.856l91.647-102.924a.515.515 0 0 1 .77.682l-91.647 102.924a.514.514 0 0 1-.384.172v.002ZM413.41 296.348a.51.51 0 0 1-.384-.172l-91.648-102.924a.514.514 0 1 1 .771-.681l91.647 102.923a.511.511 0 0 1-.044.725.51.51 0 0 1-.342.131v-.002Z"/></g><path d="M369.176 226.016s-3.023-3.616 1.086-5.845c4.109-2.229 10.564.216 11.381 4.958.816 4.741 4.898 1.925 6.679.887 1.781-1.038 6.752-2.445 8.013 2.962.501 2.141-.133 4.877.797 6.87 1.283 2.746 5.458 2.035 7.737 3.086 2.962 1.363 4.509 4.001 2.969 7.079-2.374 4.742-7.049 7.754-4.527 11.877 2.522 4.123-7.644 13.38-11.13 4.79-3.487-8.593-8.905-7.138-13.284-7.679-4.378-.543-6.604-4.322-5.416-8.171 1.189-3.849-.371-6.145-2.004-7.775-1.633-1.63-7.124-8.666-2.301-13.036v-.003Z" fill="url(#b)"/><path d="M362.817 272.114s-3.294.51-7.002 2.983a1.844 1.844 0 0 0-.816 1.764c.444 3.509 2.267 14.864 8.283 25.955.318.585.408 1.266.267 1.916l-1.045 4.856-1.939 1.814h4.993l3.324-8.978-1.421-.449a2.683 2.683 0 0 1-1.878-2.513l-.168-9.633c.143-4.291-2.636-7.252-2.636-7.252l7.974-.388-7.94-10.072.004-.003Z" fill="url(#c)"/><path d="M358.621 312.275c-.454.595 4.893 1.378 7.595.078 0 0 3.747-6.505 3.747-9.854 0 0-.296-.684-2.498-.529 0 0-1.258 7.703-2.585 8.566-1.329.864-3.715.088-3.715.088s-1.873.776-2.544 1.651Z" fill="url(#d)"/><path d="M369.751 282.715c-.041-.072-8.584-1.026-8.584-1.026s.279 2.593-.596 6.161c-.874 3.567-13.414 19.031-13.414 19.031l1.314 4.162c-4.065 1.414-8.064 1.64-12 .72l8.149-4.882s7.627-25.943 12.299-30.573l8.563-2.957 4.269 9.364Z" fill="url(#e)"/><path d="M388.906 267.618s4.923 7.307 5.326 10.64c.403 3.332-1.349 4.688-6.512 4.911-5.163.223-18.949.221-18.949.221l-11.765-10.036s8.574-3.054 10.802-3.917c2.231-.864 21.098-1.817 21.098-1.817v-.002Z" fill="url(#f)"/><path d="M347.975 309.641s1.416 1.368.459 2.891c0 0-11.216 1.984-14.26 1.084 0 0 .632-1.44 4.06-3.08l-.253.194c-.32.245-.131.757.27.733 2.26-.129 6.934-.541 9.721-1.824l.003.002Z" fill="url(#g)"/><path d="M375.596 266.65s-5.732-5.447-8.553-9.056a7.636 7.636 0 0 1-1.297-6.89c1.288-4.332 3.576-8.819 3.785-9.515.321-1.069 6.745-1.026 6.745-1.026s12.645 8.193 17.613 22.068l-5.578 1.735s-3.302-5.53-6.563-9.045c0 0 5.644 7.444 5.844 10.49l-11.994 1.237-.002.002Z" fill="#33EFAB"/><path d="M368.754 235.211c.068.223 1.744 5.772 1.876 5.888.131.114 3.678.306 5.348-.834l-2.834-5.918-4.39.864Z" fill="url(#h)"/><path d="M371.509 223.552s-3.027 1.276-5.085 5.644-.522 6.383 1.409 6.66c1.932.276 4.818.235 7.875-2.588 3.054-2.821-.26-11.232-4.196-9.718l-.003.002Z" fill="url(#i)"/><path d="M373.653 230.939s2.284-6.39-3.392-6.465l-1.336.931s-2.082-3.544 1.336-5.234c3.419-1.69 8.519-.184 9.972 4.412 1.455 4.596.602 7.564-1.818 9.764-2.42 2.2-3.416-.293-3.416-.293s1.317-2.057.783-3.158c-.537-1.101-1.774.228-1.774.228l-.355-.182v-.003Z" fill="url(#j)"/><path d="M373.049 231.958s1.154-3.291 2.697-1.981c1.54 1.31-1.251 3.041-2.345 3.602l-.35-1.621h-.002Z" fill="url(#k)"/><path d="m363.922 267.055 4.211-4.05 5.824 2.457s5.797.897 9.116 0l3.319-.898 7.498-2.331 1.179 3.323c.299.844 0 1.78-.732 2.299-.648.461-1.409.966-1.892 1.179-.987.432-24.344-.298-24.344-.298l-4.177-1.679-.002-.002Z" fill="url(#l)"/><path d="m394.509 231.328-.199-.022c.173-1.589-.092-2.649-.809-3.238-1.421-1.169-4.371-.255-6.973.553-1.32.41-2.564.795-3.436.841-.668.037-1.203-.14-1.589-.526-.707-.706-.656-1.846-.654-1.894l.2.01s-.049 1.101.595 1.743c.345.342.828.5 1.436.469.848-.046 2.08-.427 3.387-.832 2.651-.822 5.654-1.754 7.16-.517.773.636 1.062 1.754.882 3.413ZM400.708 255.263c-.469-1.923.797-3.548 2.262-5.43 1.055-1.354 2.25-2.889 2.892-4.732.306-.88.24-1.688-.197-2.401-1.366-2.222-5.895-2.869-5.938-2.877l.026-.198c.19.026 4.668.666 6.082 2.968.469.767.542 1.63.216 2.571-.651 1.875-1.859 3.422-2.923 4.79-1.433 1.841-2.673 3.432-2.225 5.261l-.195.046v.002Z" fill="#BDD0FB" style="mix-blend-mode:soft-light"/><path d="M380.304 288.08h-2.218v23.943h2.218V288.08Z" fill="url(#m)"/><path d="M388.908 312.484h-19.426c0-.796.647-1.441 1.444-1.441h16.539c.797 0 1.443.645 1.443 1.441Z" fill="url(#n)"/><path d="M389.405 282.715h-19.654a2.385 2.385 0 0 0-2.386 2.382v2.151a2.384 2.384 0 0 0 2.386 2.382h19.654a2.384 2.384 0 0 0 2.386-2.382v-2.151a2.384 2.384 0 0 0-2.386-2.382Z" fill="url(#o)"/><path d="M379.856 268.967h-.056l-24.426-.027c-.602 0-1.093-.49-1.091-1.092 0-.603.493-1.101 1.094-1.089l24.426.027a1.091 1.091 0 0 1 .053 2.181Z" fill="#A5A3A3"/><path d="M333.417 246.828h20.342c1.502 0 2.867.864 3.506 2.219l9.403 19.905h-25.279a2.353 2.353 0 0 1-2.191-1.487l-7.292-18.418a1.621 1.621 0 0 1 1.511-2.216v-.003Z" fill="#C7C0C0"/><path d="M413.996 269.856a.894.894 0 0 0-.211-.778 1.032 1.032 0 0 0-.777-.342H311.08c-.396 0-.763.189-.977.499a1.023 1.023 0 0 0-.075 1.041l1.106 2.236c.252.512.801.839 1.404.839h99.772c.562 0 1.043-.371 1.15-.887l.539-2.608h-.003Z" fill="url(#p)"/><path d="M316.792 317a.857.857 0 0 1-.352-.075.923.923 0 0 1-.469-1.201l18.76-44.539a.888.888 0 0 1 1.176-.477.922.922 0 0 1 .469 1.2l-18.76 44.539a.893.893 0 0 1-.821.553h-.003Z" fill="url(#q)"/><path d="M337.925 317a.891.891 0 0 1-.821-.553l-18.76-44.539a.922.922 0 0 1 .469-1.2.89.89 0 0 1 1.176.477l18.76 44.539a.923.923 0 0 1-.469 1.201.868.868 0 0 1-.352.075h-.003Z" fill="url(#r)"/><path d="M390.663 317a.857.857 0 0 1-.352-.075.923.923 0 0 1-.469-1.201l18.76-44.539a.889.889 0 0 1 1.176-.477.921.921 0 0 1 .469 1.2l-18.76 44.539a.893.893 0 0 1-.821.553h-.003Z" fill="url(#s)"/><path d="M411.798 317a.891.891 0 0 1-.821-.553l-18.76-44.539a.922.922 0 0 1 .469-1.2.89.89 0 0 1 1.176.477l18.76 44.539a.922.922 0 0 1-.469 1.201.868.868 0 0 1-.352.075h-.003Z" fill="url(#t)"/><mask id="u" style="mask-type:luminance" maskUnits="userSpaceOnUse" x="138" y="28" width="262" height="195"><path d="m138.02 141.523 134.663 81.139 126.983-76.345V28.119H148.594L138.02 141.523Z" fill="#fff"/></mask><g mask="url(#u)"><path d="M363.737 62.185H158.429c-3.62 0-6.618 3.136-6.618 6.75v166.312H393.19V92.049l-29.453-29.866v.002Z" fill="#BDD0FB"/><path d="m393.076 92.049-26.941.232c-.715.008-1.273-.271-1.781-.773-.508-.505-.559-1.189-.559-1.9V62.39l29.278 29.66h.003Z" fill="#91B3FA"/></g><path d="M459.951 203.138s-5.732 5.426-7.627 15.071c-1.895 9.646-6.395-13.635-6.395-13.635h-4.546s-1.715 23.986 11.121 25.895a6.9 6.9 0 0 0 6.434-2.544c2.344-2.971 6.001-8.258 6.886-13.296-.758-7.943-5.873-11.491-5.873-11.491Z" fill="#33EFAB"/><path d="M489.071 314.208a.805.805 0 0 0-.022-.216c-1.076-4.256-5.471-6.436-5.471-6.436l-2.114.165c-1.215 3.749-2 5.58-1.806 6.606.005.029.015.056.022.085 1.745.155 5.336.257 9.391-.204Z" fill="url(#v)"/><path d="M479.68 314.412c.094.342.347.609.67.677 2.481.521 6.427.102 8.082-.114.364-.049.631-.386.639-.767-4.056.461-7.647.359-9.391.204Z" fill="url(#w)"/><path d="m485.319 304.272-.926 4.45c-.068.325-.318.57-.622.599a6.286 6.286 0 0 1-1.434-.021c-.478-.071-.811-.556-.726-1.075l.644-3.951h3.066l-.002-.002Z" fill="url(#x)"/><path d="M461.709 314.376c2.26-.063 3.426-.33 4.031-.575 0 .223 0 .451-.007.689-.008.252-.195.453-.426.453l-12.401-.08c-.396-.002-.627-.461-.457-.822 1.626.133 5.768.434 9.26.337v-.002Z" fill="url(#y)"/><path d="M452.452 314.039c.014-.032.026-.063.048-.092 1.096-1.528 3.885-4.57 9.396-5.889l2.644-.082s1.178 2.042 1.2 5.828c-.605.247-1.771.511-4.031.574-3.492.097-7.632-.201-9.26-.337l.003-.002Z" fill="url(#z)"/><path d="M465.034 303.974c-.029.196-.391 3.187-.532 4.346a.578.578 0 0 1-.486.519c-.45.053-1.179.102-1.818-.027-.345-.07-.593-.4-.593-.783v-4.693l3.426.64.003-.002Z" fill="url(#A)"/><path d="M483.552 245.843s4.232 37.544 1.88 61.009c0 0-2.821 0-4.23-.47 0 0-4.398-36.71-5.819-47.214-.053-.395-.62-.415-.697-.022-1.755 8.838-8.648 43.494-9.469 46.765 0 0-2.352.939-4.233 0 0 0 3.762-50.216 6.583-59.132l15.985-.938v.002Z" fill="url(#B)"/><path d="M492.015 202.2s-17.865-2.816-31.97.938l.94 14.55s3.761 20.181 6.582 29.097c0 0 10.815 1.877 15.986-.939 0 0 4.232-25.342 6.582-29.097 0 0 2.352-9.856 1.88-14.549Z" fill="#33EFAB"/><path d="m479.478 186.881 1.905 14.506s-4.971 2.28-8.453-.097l.75-8.479 5.8-5.93h-.002Z" fill="url(#C)"/><path d="M492.015 202.2s27.741 30.035-4.937 41.533v-2.345s12.224-10.324 2.821-24.404c0 0 1.176-13.375 2.116-14.782v-.002Z" fill="#33EFAB"/><path d="M486.843 241.621s-4.23-2.816-6.113-1.877c-1.88.938-1.88 2.348-1.88 2.348s.94 1.877 2.352 1.406c1.411-.468 4.701.471 6.113 0 0 0 .471-1.877-.472-1.877Z" fill="url(#D)"/><path d="m441.102 189.403 5.97 2.009c.722.215 1.22.945 1.278 1.87l-.311 9.943c.098 1.555-1.19 2.928-2.405 2.564l-4.787-1.627c-.466-.141-.775-.629-.78-1.233l-.104-12.378c-.005-.716.586-1.313 1.137-1.145l.002-.003Z" fill="url(#E)"/><path d="M439.963 202.199s-1.868-5.973-.918-6.98c.95-1.006 2.843-3.781 2.969-1.513.126 2.27 1.268 12.071-2.051 8.493Z" fill="url(#F)"/><path d="M468.539 184.424c-.026.173 2.095 11.518 2.095 11.518l6.465-1.348-.41-11.052s-7.683-2.004-8.15.88v.002Z" fill="url(#G)"/><path d="M474.755 185.341c.25.153.418.41.452.703l.663 5.717c.01.087.01.172-.004.259-.081.476-.455 1.967-1.988 1.506-1.307-.392-2.515-.737-3.402-.579a.95.95 0 0 0-.758 1.113c.204 1.065.656 3.201 1.327 5.045a.947.947 0 0 0 1.142.582c1.251-.347 3.676-1.096 5.528-2.151a.945.945 0 0 0 .478-.847c-.039-1.538-.129-5.85.034-7.07.151-1.135 1.524-1.804 2.177-2.061a.946.946 0 0 0 .54-.541c.291-.745.612-2.285-1.315-2.995a.949.949 0 0 1-.554-1.198c.299-.864.382-2.118-1.178-2.845-1.58-.738-2.797.021-3.497.708-.308.303-.794.39-1.168.174-.168-.097-.374-.128-.622-.007-.467.228-1.018.063-1.249-.402-.399-.798-1.196-1.621-2.773-1.378-2.893.446-3.275 3.633-2.543 5.515.728 1.885 3.841 1.223 5.411.306 1.154-.674 2.612.029 3.304.448l-.005-.002Z" fill="url(#H)"/><path d="M478.136 191.538s-.819-3.143.413-3.934c1.232-.791 3.03-.339 2.592 2.057-.544 2.98-3.005 1.877-3.005 1.877Z" fill="url(#I)"/><path d="M465.497 182.683a.101.101 0 0 1-.092-.058c-1.052-2.246 1.402-4.041 1.426-4.058a.102.102 0 0 1 .141.024.103.103 0 0 1-.022.141c-.024.017-2.342 1.715-1.361 3.81.025.051 0 .109-.048.134a.097.097 0 0 1-.042.009l-.002-.002Z" fill="#fff"/><path d="M426.692 189.724v20.513c0 1.671-1.02 3.027-2.279 3.027h-74.865c-1.045 0-1.959.946-2.211 2.292l-1.344 7.142c-.177.949-1.169 1.026-1.431.114l-1.73-6.034c-.338-1.174-1.183-1.95-2.131-1.95h-3.217c-1.258 0-2.279-1.356-2.279-3.027v-21.085c0-1.662 1.008-3.013 2.26-3.027l86.931-.992c1.266-.015 2.298 1.344 2.298 3.027h-.002Z" fill="#BDD0FB"/><path d="M346.789 209.517c5.071 0 9.182-4.212 9.182-9.408s-4.111-9.408-9.182-9.408c-5.071 0-9.182 4.212-9.182 9.408s4.111 9.408 9.182 9.408Z" fill="#7D97F4"/><path d="M350.115 196.296c0 1.691-1.373 3.515-3.066 3.515-1.694 0-3.067-1.824-3.067-3.515 0-1.69 1.373-2.888 3.067-2.888 1.693 0 3.066 1.198 3.066 2.888Z" fill="url(#J)"/><path d="M343.246 206.318h7.484a1.81 1.81 0 0 0 1.725-1.257l.403-1.256a1.807 1.807 0 0 0-1.093-2.248c-3.045-1.111-6.194-.968-9.42.102a1.802 1.802 0 0 0-1.157 2.183l.311 1.139a1.809 1.809 0 0 0 1.747 1.334v.003Z" fill="url(#K)"/><path d="M419.541 202.563c0 .983-.831 1.778-1.857 1.778h-54.642c-1.025 0-1.856-.795-1.856-1.778 0-.982.831-1.777 1.856-1.777h54.642c1.026 0 1.857.795 1.857 1.777Z" fill="url(#L)"/><path d="M393.666 208.268c0 .892-.724 1.615-1.618 1.615h-28.647a1.616 1.616 0 1 1 0-3.231h28.647c.894 0 1.618.723 1.618 1.616Z" fill="url(#M)"/><path d="M419.575 208.268c0 .892-.724 1.615-1.618 1.615h-20.675a1.616 1.616 0 1 1 0-3.231h20.675c.894 0 1.618.723 1.618 1.616Z" fill="url(#N)"/><path d="M390.894 191.482h-27.585a2.272 2.272 0 0 0-2.274 2.27v.184a2.272 2.272 0 0 0 2.274 2.27h27.585a2.272 2.272 0 0 0 2.274-2.27v-.184a2.272 2.272 0 0 0-2.274-2.27Z" fill="#7D97F4"/><path d="M175.355 200.788c-.017 18.032-.156 80.232-1.237 102.252-.114 2.333-1.759 4.171-3.759 4.203-9.894.16-46.155.315-62.308-.835-3.365-.24-5.972-3.485-5.955-7.421.082-18.927.522-72.154 2.826-96.492.277-2.915 2.291-5.197 4.793-5.435 10.793-1.019 47.259-3.289 61.206-1.923 2.514.247 4.436 2.699 4.434 5.648v.003Z" fill="url(#O)"/><path d="M170.822 206.218c.209 14.559.814 62.996-.115 80.882-.136 2.615-1.948 4.691-4.188 4.795-9.229.427-40.691 1.121-54.176-.444-2.428-.281-4.286-2.621-4.354-5.471-.355-14.858-1.322-59.966-.418-77.652.143-2.821 2.067-5.086 4.483-5.285 9.991-.824 43.446-2.573 54.914-1.588 2.153.184 3.822 2.243 3.859 4.763h-.005Z" fill="#000"/><path d="M147.19 198.064c-.013.553-.392 1.002-.865 1.019-2.338.092-8.925.349-11.87.485-.58.026-1.023-.592-.896-1.257l.022-.114c.085-.453.415-.788.811-.819 1.993-.17 8.001-.626 11.969-.374.476.032.841.5.829 1.058v.002Z" fill="url(#P)"/><path d="M111.61 303.204c-3.902 0-7.131-3.169-7.131-7.065v-12.073a.25.25 0 1 1 .5 0v12.073c0 3.612 3.006 6.551 6.624 6.551.14 0 .262.114.262.257a.254.254 0 0 1-.253.257h-.002Z" fill="url(#Q)"/><path d="M72.669 305.193s-.479 2.709-.715 5.392a1.85 1.85 0 0 0 1.772 2.003c3.579.148 11.232.439 13.978.315a.601.601 0 0 0 .53-.824 1.345 1.345 0 0 0-.69-.725l-12.645-5.802-2.233-.361.003.002Z" fill="url(#R)"/><path d="m72.277 303.6.387 3.24s2.216 1.028 3.727-.129l-.916-3.611-3.195.5h-.003Z" fill="url(#S)"/><path d="M72.567 242.671c-.165.846-.894 42.235 3.54 60.783a.629.629 0 0 1-.37.733c-.68.276-2.011.679-3.61.732a1.086 1.086 0 0 1-1.079-.778c-1.266-4.303-7.337-25.864-8.13-46.462-.884-23.014 0-.784 0-.784l.52-14.227h9.129v.003Z" fill="url(#T)"/><path d="M58.128 306.607s-.763 1.368-1.501 5.004a1.128 1.128 0 0 0 .993 1.351c1.181.116 3.001.264 4.459.254a1.126 1.126 0 0 0 1.115-1.253c-.16-1.327-.663-3.505-2.218-5.2l-2.848-.156Z" fill="url(#U)"/><path d="m57.458 302.438.898 4.902s.89.659 2.651.182l-.43-5.273-3.122.189h.003Z" fill="url(#V)"/><path d="M55.024 243.939c-3.625 21.838.788 53.974 2.274 60.263.09.385.404.679.795.744.663.109 1.757.199 2.836-.114a.895.895 0 0 0 .646-.827c.2-5.086-.16-36.302 3.217-48.637a2.782 2.782 0 0 1 1.084-1.545l6.555-4.652.503-7.519-17.91 2.29v-.003Z" fill="url(#W)"/><path d="M78.122 202.563c-10.864-.179-22.85 2.848-22.85 2.848-3.238 18.859-.566 40.614-.566 40.614 8.41 2.203 17.898-1.346 17.898-1.346 1.397-7.882 7.918-30.069 7.918-30.069 5.31-.657 9.68-2.185 13.281-4.208-2.745-3.177-4.04-7.223-4.604-9.611-3.842 1.19-7.727 1.828-11.077 1.772Z" fill="#33EFAB"/><path d="M110.211 186.59c-1.067-1.285-2.417-.679-2.417-.679-1.599 6.74-9.982 12.207-18.593 14.877.561 2.391 1.857 6.434 4.605 9.611 14.291-8.02 16.405-23.811 16.405-23.811v.002Z" fill="url(#X)"/><path d="M109.951 186.917c.111.354-1.181.895-1.944-.555-.027-.694-.45-3.67-.034-4.237 2.213-3.015 6.507-6.791 6.507-6.791.726.715.128 1.416.128 1.416l-2.082 2.166c.435.786.967 1.448 1.215 2.399.19.72.073 1.489-.292 2.144-.364.657-.864 1.511-1.336 2.18-.892 1.266-2.165 1.276-2.165 1.276l.003.002Z" fill="url(#Y)"/><path d="m111.618 180.323-1.898 1.605-.595 1.599 1.691 1.874s.569-3.172.991-3.858c.423-.687.205-1.019-.189-1.22Z" fill="url(#Z)"/><path d="m59.44 215.91-4.167-10.499s-10.147 6.883-11.816 15.607c1.917.14 5.132.671 8.545 2.391 1.54-3.461 7.435-7.499 7.435-7.499h.003Z" fill="#33EFAB"/><path d="m67.12 193.759-3.457 9.978a.354.354 0 0 0 .166.432c.942.519 4.337 2.022 8.428-.565.425-.27.717-.711.78-1.211l1.12-8.636h-7.036v.002Z" fill="url(#aa)"/><path d="M74.64 184.519s3.795 7.132 3.31 10.011c-.487 2.882-5.19 2.675-9.3.335l-2.869-7.7 8.86-2.646Z" fill="url(#ab)"/><path d="M68.833 191.084a.293.293 0 0 0 .129-.429c-.304-.464-.875-1.409-1.057-2.239 0 0-.683-.437 1.737-1.014s6.026-1.474 6.784-3.531c.738-2.003-1.203-7.043-4.303-3.027a.295.295 0 0 1-.467.003c-.508-.66-1.844-2.03-3.698-1.199-1.735.777-1.932 2.047-1.907 2.688a.29.29 0 0 1-.348.298c-.877-.167-2.984-.31-3.965 1.846-.81 1.775-.284 2.782.197 3.272a.293.293 0 0 1-.127.487c-.575.177-1.321.665-1.246 2.013.102 1.865 2.192 1.7 2.784 1.615a.3.3 0 0 1 .263.092c.51.563 2.806 2.954 5.292 3.243a.297.297 0 0 0 .31-.393l-1.076-3.121a.294.294 0 0 1 .16-.366l.535-.236.003-.002Z" fill="url(#ac)"/><path d="M69.265 191.528s-2.702-1.851-2.901-.294c-.197 1.56 2.435 2.258 3.737 1.676l-.836-1.385v.003Z" fill="url(#ad)"/><path d="M43.527 221.102s-6.934 15.768 10.018 18.076l2.31-1.923s-8.477-4.615-3.853-13.846c0 0-5.008-4.23-8.477-2.307h.002Z" fill="url(#ae)"/><path d="m55.702 229.402 5.97 2.008c.722.216 1.22.946 1.278 1.87l-.311 9.944c.097 1.555-1.19 2.927-2.406 2.563l-4.786-1.627c-.467-.141-.775-.628-.78-1.232l-.105-12.379c-.004-.715.586-1.312 1.138-1.145l.002-.002Z" fill="url(#af)"/><path d="M54.16 241.191c-.16-.177-1.279-2.216-.99-4.942.29-2.726-.245-3.956 1.028-3.852 1.273.105 2.328.32 2.182 1.662-.143 1.341.258 9.868-2.22 7.132Z" fill="url(#ag)"/></g><g clip-path="url(#ah)"><g clip-path="url(#ai)"><g clip-path="url(#aj)"><g clip-path="url(#ak)"><g clip-path="url(#al)"><g clip-path="url(#am)"><path d="M139.5 251.689c5.431 0 9.833-4.402 9.833-9.832 0-5.431-4.402-9.833-9.833-9.833-5.43 0-9.832 4.402-9.832 9.833 0 5.43 4.402 9.832 9.832 9.832Z" fill="#33EFAB"/><path d="m123.305 235.175-.172.436c-.104.002-.237.007-.399.014-.163.008-.339.015-.528.022a26.97 26.97 0 0 0-.584.032l-.572.038a9.592 9.592 0 0 0-.817.078c.424.216.888.437 1.392.665.503.228 1.012.455 1.528.679l-.21.533c-.33-.148-.663-.298-.996-.451a69.374 69.374 0 0 1-1.92-.92 27.262 27.262 0 0 1-.853-.444l.187-.475c.204-.036.441-.068.71-.097a27.682 27.682 0 0 1 1.707-.116l.786-.035-.552-.56a25.249 25.249 0 0 1-1.169-1.249 10.465 10.465 0 0 1-.454-.554l.187-.476a77.67 77.67 0 0 1 3.995 1.242l-.209.532c-.531-.186-1.058-.368-1.581-.544a36.653 36.653 0 0 0-1.472-.462c.049.062.121.147.216.256.096.108.205.228.328.358l.393.418c.138.147.274.287.406.421l.37.376c.114.115.208.21.283.283Zm4.244-5.342-.404.493a16.507 16.507 0 0 1-.535-.19l-.529-.194-1.2 1.461.582.97-.386.47c-.239-.404-.459-.78-.66-1.126-.201-.348-.388-.68-.564-.998-.175-.318-.34-.625-.492-.923a22.014 22.014 0 0 1-.441-.9l.339-.414c.325.079.648.165.969.258a41.898 41.898 0 0 1 2.088.665c.38.129.791.272 1.233.428Zm-2.933 1.135.986-1.201a91.148 91.148 0 0 0-1.027-.349c-.333-.11-.659-.207-.98-.293.145.3.303.602.476.907.172.306.353.618.545.936Zm4.361-4.446c.1.026.228.061.385.107s.325.101.503.165c.178.065.36.136.546.213.185.077.354.158.509.243l-.512.383a8.107 8.107 0 0 0-.487-.215 8.864 8.864 0 0 0-.497-.188 9.975 9.975 0 0 0-.869-.257 2.572 2.572 0 0 1-.124.1l-.133.099-.42.314.976 1.307-.467.35-2.462-3.295a3.33 3.33 0 0 1 .394-.395c.154-.132.298-.249.434-.35.469-.351.893-.53 1.271-.537.378-.007.698.165.96.516.165.222.248.455.249.7 0 .245-.086.492-.256.74Zm-1.88-1.038a7.24 7.24 0 0 0-.448.357l.941 1.259.333-.249c.161-.12.3-.236.417-.348a1.29 1.29 0 0 0 .257-.335.61.61 0 0 0 .061-.344.785.785 0 0 0-.169-.379.777.777 0 0 0-.308-.26.66.66 0 0 0-.342-.052c-.118.013-.24.051-.366.115a2.505 2.505 0 0 0-.376.236Zm4.957 1.241-1.855-3.738.523-.259 1.855 3.737-.523.26Zm5.355-1.583-.62.15c-.109-.16-.213-.317-.313-.473-.099-.155-.202-.313-.306-.473l-1.838.445-.118 1.125-.591.143.15-1.296c.049-.399.099-.777.15-1.136a31.577 31.577 0 0 1 .351-2.018l.519-.126c.212.258.419.521.619.788a40.36 40.36 0 0 1 1.269 1.787c.226.331.468.693.728 1.084Zm-3.026-.858 1.51-.366c-.208-.31-.412-.609-.611-.896-.2-.288-.402-.563-.606-.824-.065.326-.121.663-.166 1.011-.047.347-.089.706-.127 1.075Zm7.327.986a6.325 6.325 0 0 1-.562-.093 8.512 8.512 0 0 1-.286-.065 2.455 2.455 0 0 1-.257-.08l.493-4.017c.083-.01.172-.015.269-.015a7.282 7.282 0 0 1 .856.051c.239.029.461.075.666.136.205.061.378.144.521.249a.98.98 0 0 1 .32.383c.071.15.094.326.069.529a.92.92 0 0 1-.231.539.985.985 0 0 1-.469.273c.233.102.412.239.536.411.125.174.17.402.135.685-.051.414-.241.707-.572.879-.33.171-.826.216-1.488.135Zm.444-1.941-.746-.092-.18 1.459.154.031a5.654 5.654 0 0 0 .423.064c.172.021.336.03.492.027a1.36 1.36 0 0 0 .417-.067.723.723 0 0 0 .307-.2.648.648 0 0 0 .151-.363.688.688 0 0 0-.036-.352.587.587 0 0 0-.196-.253 1.072 1.072 0 0 0-.336-.162 2.622 2.622 0 0 0-.45-.092Zm-.532-1.837-.157 1.28.609.074c.144.018.281.025.411.021.13-.005.245-.028.344-.067.1-.041.183-.1.247-.177a.563.563 0 0 0 .12-.307.523.523 0 0 0-.047-.312.605.605 0 0 0-.206-.225 1.26 1.26 0 0 0-.33-.153 2.33 2.33 0 0 0-.414-.087 7.325 7.325 0 0 0-.347-.036 3.342 3.342 0 0 0-.23-.011Zm5.791 3.567c.03.098.066.226.109.384s.084.33.122.515c.038.187.072.379.103.577.032.198.051.385.059.561l-.594-.237a10.143 10.143 0 0 0-.404-1.925 1.79 1.79 0 0 1-.15-.053 9.903 9.903 0 0 1-.154-.062l-.487-.194-.605 1.515-.543-.216 1.525-3.82c.168.024.349.068.542.13.194.062.369.125.526.187.544.218.918.485 1.121.804.203.319.224.682.061 1.088a1.158 1.158 0 0 1-.466.578c-.21.128-.465.184-.765.168Zm-.097-2.145a6.376 6.376 0 0 0-.538-.196l-.583 1.46.386.154c.187.074.358.132.515.174.156.039.296.054.42.044a.609.609 0 0 0 .325-.127.785.785 0 0 0 .235-.343.765.765 0 0 0 .061-.397.666.666 0 0 0-.134-.32 1.073 1.073 0 0 0-.289-.252 2.588 2.588 0 0 0-.398-.197Zm4.231 7.012-.505-.39c.056-.185.114-.365.174-.539l.178-.535-1.496-1.156-.952.61-.481-.372c.397-.25.765-.481 1.106-.693.341-.211.668-.408.98-.593.313-.185.615-.358.908-.52.293-.162.588-.318.887-.467l.423.327c-.069.327-.145.652-.228.976a42.416 42.416 0 0 1-.603 2.107c-.118.383-.248.799-.391 1.245Zm-1.222-2.898 1.23.95a69.9 69.9 0 0 0 .318-1.037c.1-.336.188-.665.264-.988-.295.153-.593.321-.893.502-.3.181-.606.372-.919.573Zm6.655 2.992.39.489a55.615 55.615 0 0 1-2.318.771 36.715 36.715 0 0 1-1.964.551l-.342-.428a41.212 41.212 0 0 1 .971-1.796c.18-.314.373-.644.578-.988.206-.344.435-.712.687-1.103l.402.504c-.36.565-.704 1.111-1.032 1.64a27.624 27.624 0 0 0-.888 1.532c.537-.145 1.1-.319 1.689-.523.59-.204 1.199-.42 1.827-.649Zm-.589 2.957c.327-.144.636-.223.928-.236.293-.013.56.027.801.12s.453.232.636.418c.183.184.329.401.44.651.109.246.169.497.181.752.012.256-.029.503-.123.742a1.97 1.97 0 0 1-.451.671 2.602 2.602 0 0 1-.8.528 2.598 2.598 0 0 1-.928.236 1.989 1.989 0 0 1-.8-.117 1.8 1.8 0 0 1-.632-.408 2.088 2.088 0 0 1-.435-.641 2.167 2.167 0 0 1-.186-.763c-.014-.26.026-.51.119-.752a1.95 1.95 0 0 1 .45-.673c.206-.207.473-.383.8-.528Zm.248.562a2.326 2.326 0 0 0-.592.367 1.554 1.554 0 0 0-.37.464 1.184 1.184 0 0 0-.13.532c-.002.188.039.379.125.573.086.195.199.353.34.476.138.122.298.208.478.257.18.051.378.064.592.038.215-.024.439-.088.67-.19a2.31 2.31 0 0 0 .592-.368 1.5 1.5 0 0 0 .37-.463c.085-.167.129-.343.132-.528a1.337 1.337 0 0 0-.124-.571 1.358 1.358 0 0 0-.34-.478c-.14-.125-.3-.212-.481-.262a1.552 1.552 0 0 0-.592-.038 2.31 2.31 0 0 0-.67.191Zm-37.545 8.817a1.63 1.63 0 1 1 3.261 0 1.63 1.63 0 0 1-3.261 0Zm37.551 0a1.63 1.63 0 1 1 3.261 0 1.63 1.63 0 0 1-3.261 0Z" fill="#fff"/><path d="M139.5 251.689c5.431 0 9.833-4.402 9.833-9.832 0-5.431-4.402-9.833-9.833-9.833-5.43 0-9.832 4.402-9.832 9.833 0 5.43 4.402 9.832 9.832 9.832Z" fill="#1FEEA2"/><path d="m123.305 235.175-.172.436c-.104.002-.237.007-.399.014-.163.008-.339.015-.528.022a26.97 26.97 0 0 0-.584.032l-.572.038a9.592 9.592 0 0 0-.817.078c.424.216.888.437 1.392.665.503.228 1.012.455 1.528.679l-.21.533c-.33-.148-.663-.298-.996-.451a69.374 69.374 0 0 1-1.92-.92 27.262 27.262 0 0 1-.853-.444l.187-.475c.204-.036.441-.068.71-.097a27.682 27.682 0 0 1 1.707-.116l.786-.035-.552-.56a25.249 25.249 0 0 1-1.169-1.249 10.465 10.465 0 0 1-.454-.554l.187-.476a77.67 77.67 0 0 1 3.995 1.242l-.209.532c-.531-.186-1.058-.368-1.581-.544a36.653 36.653 0 0 0-1.472-.462c.049.062.121.147.216.256.096.108.205.228.328.358l.393.418c.138.147.274.287.406.421l.37.376c.114.115.208.21.283.283Zm4.244-5.342-.404.493a16.507 16.507 0 0 1-.535-.19l-.529-.194-1.2 1.461.582.97-.386.47c-.239-.404-.459-.78-.66-1.126-.201-.348-.388-.68-.564-.998-.175-.318-.34-.625-.492-.923a22.014 22.014 0 0 1-.441-.9l.339-.414c.325.079.648.165.969.258a41.898 41.898 0 0 1 2.088.665c.38.129.791.272 1.233.428Zm-2.933 1.135.986-1.201a91.148 91.148 0 0 0-1.027-.349c-.333-.11-.659-.207-.98-.293.145.3.303.602.476.907.172.306.353.618.545.936Zm4.361-4.446c.1.026.228.061.385.107s.325.101.503.165c.178.065.36.136.546.213.185.077.354.158.509.243l-.512.383a8.107 8.107 0 0 0-.487-.215 8.864 8.864 0 0 0-.497-.188 9.975 9.975 0 0 0-.869-.257 2.572 2.572 0 0 1-.124.1l-.133.099-.42.314.976 1.307-.467.35-2.462-3.295a3.33 3.33 0 0 1 .394-.395c.154-.132.298-.249.434-.35.469-.351.893-.53 1.271-.537.378-.007.698.165.96.516.165.222.248.455.249.7 0 .245-.086.492-.256.74Zm-1.88-1.038a7.24 7.24 0 0 0-.448.357l.941 1.259.333-.249c.161-.12.3-.236.417-.348a1.29 1.29 0 0 0 .257-.335.61.61 0 0 0 .061-.344.785.785 0 0 0-.169-.379.777.777 0 0 0-.308-.26.66.66 0 0 0-.342-.052c-.118.013-.24.051-.366.115a2.505 2.505 0 0 0-.376.236Zm4.957 1.241-1.855-3.738.523-.259 1.855 3.737-.523.26Zm5.355-1.583-.62.15c-.109-.16-.213-.317-.313-.473-.099-.155-.202-.313-.306-.473l-1.838.445-.118 1.125-.591.143.15-1.296c.049-.399.099-.777.15-1.136a31.577 31.577 0 0 1 .351-2.018l.519-.126c.212.258.419.521.619.788a40.36 40.36 0 0 1 1.269 1.787c.226.331.468.693.728 1.084Zm-3.026-.858 1.51-.366c-.208-.31-.412-.609-.611-.896-.2-.288-.402-.563-.606-.824-.065.326-.121.663-.166 1.011-.047.347-.089.706-.127 1.075Zm7.327.986a6.325 6.325 0 0 1-.562-.093 8.512 8.512 0 0 1-.286-.065 2.455 2.455 0 0 1-.257-.08l.493-4.017c.083-.01.172-.015.269-.015a7.282 7.282 0 0 1 .856.051c.239.029.461.075.666.136.205.061.378.144.521.249a.98.98 0 0 1 .32.383c.071.15.094.326.069.529a.92.92 0 0 1-.231.539.985.985 0 0 1-.469.273c.233.102.412.239.536.411.125.174.17.402.135.685-.051.414-.241.707-.572.879-.33.171-.826.216-1.488.135Zm.444-1.941-.746-.092-.18 1.459.154.031a5.654 5.654 0 0 0 .423.064c.172.021.336.03.492.027a1.36 1.36 0 0 0 .417-.067.723.723 0 0 0 .307-.2.648.648 0 0 0 .151-.363.688.688 0 0 0-.036-.352.587.587 0 0 0-.196-.253 1.072 1.072 0 0 0-.336-.162 2.622 2.622 0 0 0-.45-.092Zm-.532-1.837-.157 1.28.609.074c.144.018.281.025.411.021.13-.005.245-.028.344-.067.1-.041.183-.1.247-.177a.563.563 0 0 0 .12-.307.523.523 0 0 0-.047-.312.605.605 0 0 0-.206-.225 1.26 1.26 0 0 0-.33-.153 2.33 2.33 0 0 0-.414-.087 7.325 7.325 0 0 0-.347-.036 3.342 3.342 0 0 0-.23-.011Zm5.791 3.567c.03.098.066.226.109.384s.084.33.122.515c.038.187.072.379.103.577.032.198.051.385.059.561l-.594-.237a10.143 10.143 0 0 0-.404-1.925 1.79 1.79 0 0 1-.15-.053 9.903 9.903 0 0 1-.154-.062l-.487-.194-.605 1.515-.543-.216 1.525-3.82c.168.024.349.068.542.13.194.062.369.125.526.187.544.218.918.485 1.121.804.203.319.224.682.061 1.088a1.158 1.158 0 0 1-.466.578c-.21.128-.465.184-.765.168Zm-.097-2.145a6.376 6.376 0 0 0-.538-.196l-.583 1.46.386.154c.187.074.358.132.515.174.156.039.296.054.42.044a.609.609 0 0 0 .325-.127.785.785 0 0 0 .235-.343.765.765 0 0 0 .061-.397.666.666 0 0 0-.134-.32 1.073 1.073 0 0 0-.289-.252 2.588 2.588 0 0 0-.398-.197Zm4.231 7.012-.505-.39c.056-.185.114-.365.174-.539l.178-.535-1.496-1.156-.952.61-.481-.372c.397-.25.765-.481 1.106-.693.341-.21.668-.408.98-.593.313-.185.615-.358.908-.52.293-.162.588-.318.887-.467l.423.327c-.069.327-.145.652-.228.976a42.416 42.416 0 0 1-.603 2.107c-.118.383-.248.799-.391 1.245Zm-1.222-2.898 1.23.95a69.9 69.9 0 0 0 .318-1.037c.1-.336.188-.665.264-.988-.295.153-.593.321-.893.502-.3.181-.606.372-.919.573Zm6.655 2.992.39.489a55.615 55.615 0 0 1-2.318.771 36.715 36.715 0 0 1-1.964.551l-.342-.428a41.212 41.212 0 0 1 .971-1.796c.18-.314.373-.644.578-.988.206-.344.435-.712.687-1.103l.402.504c-.36.565-.704 1.111-1.032 1.64a27.624 27.624 0 0 0-.888 1.532c.537-.145 1.1-.319 1.689-.523.59-.204 1.199-.42 1.827-.649Zm-.589 2.957c.327-.144.636-.223.928-.236.293-.013.56.027.801.12s.453.232.636.418c.183.184.329.401.44.651.109.246.169.497.181.752.012.256-.029.503-.123.742a1.97 1.97 0 0 1-.451.671 2.602 2.602 0 0 1-.8.528 2.598 2.598 0 0 1-.928.236 1.989 1.989 0 0 1-.8-.117 1.8 1.8 0 0 1-.632-.408 2.088 2.088 0 0 1-.435-.641 2.167 2.167 0 0 1-.186-.763c-.014-.26.026-.51.119-.752a1.95 1.95 0 0 1 .45-.673c.206-.207.473-.383.8-.528Zm.248.562a2.326 2.326 0 0 0-.592.367 1.554 1.554 0 0 0-.37.464 1.184 1.184 0 0 0-.13.532c-.002.188.039.379.125.573.086.195.199.353.34.476.138.122.298.208.478.257.18.051.378.064.592.038.215-.024.439-.088.67-.19a2.31 2.31 0 0 0 .592-.368 1.5 1.5 0 0 0 .37-.463c.085-.167.129-.343.132-.528a1.337 1.337 0 0 0-.124-.571 1.358 1.358 0 0 0-.34-.478c-.14-.125-.3-.212-.481-.262a1.552 1.552 0 0 0-.592-.038 2.31 2.31 0 0 0-.67.191Zm-37.545 8.817a1.63 1.63 0 1 1 3.261 0 1.63 1.63 0 0 1-3.261 0Zm37.551 0a1.63 1.63 0 1 1 3.261 0 1.63 1.63 0 0 1-3.261 0Z" fill="#fff"/></g></g></g></g></g></g><defs><linearGradient id="b" x1="303.835" y1="157.974" x2="427.675" y2="283.227" gradientUnits="userSpaceOnUse"><stop stop-color="#09005D"/><stop offset="1" stop-color="#1A0F91"/></linearGradient><linearGradient id="c" x1="368.831" y1="311.118" x2="360.923" y2="275.217" gradientUnits="userSpaceOnUse"><stop stop-color="#FF928E"/><stop offset="1" stop-color="#FEB3B1"/></linearGradient><linearGradient id="d" x1="336.678" y1="66.383" x2="338.942" y2="86.226" gradientUnits="userSpaceOnUse"><stop stop-color="#4042E2"/><stop offset="1" stop-color="#4F52FF"/></linearGradient><linearGradient id="e" x1="382.782" y1="225.131" x2="364.211" y2="270.426" gradientUnits="userSpaceOnUse"><stop stop-color="#FF928E"/><stop offset="1" stop-color="#FEB3B1"/></linearGradient><linearGradient id="f" x1="374.021" y1="272.092" x2="393.275" y2="309.82" gradientUnits="userSpaceOnUse"><stop stop-color="#09005D"/><stop offset="1" stop-color="#1A0F91"/></linearGradient><linearGradient id="g" x1="313.594" y1="69.019" x2="315.858" y2="88.859" gradientUnits="userSpaceOnUse"><stop stop-color="#4042E2"/><stop offset="1" stop-color="#4F52FF"/></linearGradient><linearGradient id="h" x1="369.211" y1="230.687" x2="377.124" y2="250.1" gradientUnits="userSpaceOnUse"><stop stop-color="#FF928E"/><stop offset="1" stop-color="#FEB3B1"/></linearGradient><linearGradient id="i" x1="-579.744" y1="328.273" x2="-567.273" y2="326.976" gradientUnits="userSpaceOnUse"><stop stop-color="#FF928E"/><stop offset="1" stop-color="#FEB3B1"/></linearGradient><linearGradient id="j" x1="305.579" y1="156.251" x2="429.419" y2="281.505" gradientUnits="userSpaceOnUse"><stop stop-color="#09005D"/><stop offset="1" stop-color="#1A0F91"/></linearGradient><linearGradient id="k" x1="-579.507" y1="330.529" x2="-567.033" y2="329.231" gradientUnits="userSpaceOnUse"><stop stop-color="#FF928E"/><stop offset="1" stop-color="#FEB3B1"/></linearGradient><linearGradient id="l" x1="412.548" y1="268.287" x2="374.32" y2="264.879" gradientUnits="userSpaceOnUse"><stop stop-color="#FF928E"/><stop offset="1" stop-color="#FEB3B1"/></linearGradient><linearGradient id="m" x1="377.461" y1="310.922" x2="382.238" y2="280.818" gradientUnits="userSpaceOnUse"><stop stop-color="#4042E2"/><stop offset="1" stop-color="#4F52FF"/></linearGradient><linearGradient id="n" x1="379.386" y1="311.227" x2="384.163" y2="281.124" gradientUnits="userSpaceOnUse"><stop stop-color="#4042E2"/><stop offset="1" stop-color="#4F52FF"/></linearGradient><linearGradient id="o" x1="375.68" y1="310.64" x2="380.457" y2="280.537" gradientUnits="userSpaceOnUse"><stop stop-color="#4042E2"/><stop offset="1" stop-color="#4F52FF"/></linearGradient><linearGradient id="p" x1="309.919" y1="271.042" x2="414.013" y2="271.042" gradientUnits="userSpaceOnUse"><stop stop-color="#DAE3FE"/><stop offset="1" stop-color="#E9EFFD"/></linearGradient><linearGradient id="q" x1="315.898" y1="293.816" x2="336.446" y2="293.816" gradientUnits="userSpaceOnUse"><stop stop-color="#DAE3FE"/><stop offset="1" stop-color="#E9EFFD"/></linearGradient><linearGradient id="r" x1="318.269" y1="293.816" x2="338.82" y2="293.816" gradientUnits="userSpaceOnUse"><stop stop-color="#DAE3FE"/><stop offset="1" stop-color="#E9EFFD"/></linearGradient><linearGradient id="s" x1="389.769" y1="293.816" x2="410.32" y2="293.816" gradientUnits="userSpaceOnUse"><stop stop-color="#DAE3FE"/><stop offset="1" stop-color="#E9EFFD"/></linearGradient><linearGradient id="t" x1="392.144" y1="293.816" x2="412.693" y2="293.816" gradientUnits="userSpaceOnUse"><stop stop-color="#DAE3FE"/><stop offset="1" stop-color="#E9EFFD"/></linearGradient><linearGradient id="v" x1="483.398" y1="342.638" x2="483.957" y2="325.811" gradientUnits="userSpaceOnUse"><stop stop-color="#4042E2"/><stop offset="1" stop-color="#4F52FF"/></linearGradient><linearGradient id="w" x1="503.426" y1="299.574" x2="468.741" y2="326.857" gradientUnits="userSpaceOnUse"><stop stop-color="#09005D"/><stop offset="1" stop-color="#1A0F91"/></linearGradient><linearGradient id="x" x1="482.726" y1="299.989" x2="484.605" y2="316.414" gradientUnits="userSpaceOnUse"><stop stop-color="#FF928E"/><stop offset="1" stop-color="#FEB3B1"/></linearGradient><linearGradient id="y" x1="450.719" y1="307.652" x2="484.262" y2="334.036" gradientUnits="userSpaceOnUse"><stop stop-color="#09005D"/><stop offset="1" stop-color="#1A0F91"/></linearGradient><linearGradient id="z" x1="460.404" y1="353.045" x2="459.845" y2="336.218" gradientUnits="userSpaceOnUse"><stop stop-color="#4042E2"/><stop offset="1" stop-color="#4F52FF"/></linearGradient><linearGradient id="A" x1="462.867" y1="302.092" x2="464.624" y2="317.455" gradientUnits="userSpaceOnUse"><stop stop-color="#FF928E"/><stop offset="1" stop-color="#FEB3B1"/></linearGradient><linearGradient id="B" x1="473.753" y1="301.599" x2="471.646" y2="235.431" gradientUnits="userSpaceOnUse"><stop stop-color="#09005D"/><stop offset="1" stop-color="#1A0F91"/></linearGradient><linearGradient id="C" x1="477.505" y1="185.749" x2="477.021" y2="207.417" gradientUnits="userSpaceOnUse"><stop stop-color="#FF928E"/><stop offset="1" stop-color="#FEB3B1"/></linearGradient><linearGradient id="D" x1="479.328" y1="238.939" x2="494.35" y2="251.793" gradientUnits="userSpaceOnUse"><stop stop-color="#FF928E"/><stop offset="1" stop-color="#FEB3B1"/></linearGradient><linearGradient id="E" x1="448.404" y1="193.882" x2="440.096" y2="197.385" gradientUnits="userSpaceOnUse"><stop stop-color="#09005D"/><stop offset="1" stop-color="#1A0F91"/></linearGradient><linearGradient id="F" x1="440.274" y1="192.913" x2="440.892" y2="202.995" gradientUnits="userSpaceOnUse"><stop stop-color="#FF928E"/><stop offset="1" stop-color="#FEB3B1"/></linearGradient><linearGradient id="G" x1="489.965" y1="184.585" x2="468.102" y2="190.265" gradientUnits="userSpaceOnUse"><stop stop-color="#FF928E"/><stop offset="1" stop-color="#FEB3B1"/></linearGradient><linearGradient id="H" x1="480.504" y1="190.736" x2="464.861" y2="188.206" gradientUnits="userSpaceOnUse"><stop stop-color="#09005D"/><stop offset="1" stop-color="#1A0F91"/></linearGradient><linearGradient id="I" x1="487.879" y1="201.508" x2="479.318" y2="189.303" gradientUnits="userSpaceOnUse"><stop stop-color="#FF928E"/><stop offset="1" stop-color="#FEB3B1"/></linearGradient><linearGradient id="J" x1="343.985" y1="196.609" x2="350.115" y2="196.609" gradientUnits="userSpaceOnUse"><stop stop-color="#DAE3FE"/><stop offset="1" stop-color="#E9EFFD"/></linearGradient><linearGradient id="K" x1="341.125" y1="203.55" x2="352.943" y2="203.55" gradientUnits="userSpaceOnUse"><stop stop-color="#DAE3FE"/><stop offset="1" stop-color="#E9EFFD"/></linearGradient><linearGradient id="L" x1="361.186" y1="202.563" x2="419.541" y2="202.563" gradientUnits="userSpaceOnUse"><stop stop-color="#DAE3FE"/><stop offset="1" stop-color="#E9EFFD"/></linearGradient><linearGradient id="M" x1="361.783" y1="208.268" x2="393.666" y2="208.268" gradientUnits="userSpaceOnUse"><stop stop-color="#DAE3FE"/><stop offset="1" stop-color="#E9EFFD"/></linearGradient><linearGradient id="N" x1="395.662" y1="208.268" x2="419.575" y2="208.268" gradientUnits="userSpaceOnUse"><stop stop-color="#DAE3FE"/><stop offset="1" stop-color="#E9EFFD"/></linearGradient><linearGradient id="O" x1="138.471" y1="183.667" x2="138.956" y2="311.24" gradientUnits="userSpaceOnUse"><stop stop-color="#09005D"/><stop offset="1" stop-color="#1A0F91"/></linearGradient><linearGradient id="P" x1="133.537" y1="198.251" x2="147.19" y2="198.251" gradientUnits="userSpaceOnUse"><stop stop-color="#4042E2"/><stop offset="1" stop-color="#4F52FF"/></linearGradient><linearGradient id="Q" x1="104.481" y1="293.508" x2="111.865" y2="293.508" gradientUnits="userSpaceOnUse"><stop stop-color="#4042E2"/><stop offset="1" stop-color="#4F52FF"/></linearGradient><linearGradient id="R" x1="87.305" y1="301.449" x2="41.098" y2="351.802" gradientUnits="userSpaceOnUse"><stop stop-color="#09005D"/><stop offset="1" stop-color="#1A0F91"/></linearGradient><linearGradient id="S" x1="72.277" y1="305.181" x2="76.388" y2="305.181" gradientUnits="userSpaceOnUse"><stop stop-color="#FF928E"/><stop offset="1" stop-color="#FEB3B1"/></linearGradient><linearGradient id="T" x1="64.826" y1="301.531" x2="73.881" y2="248.828" gradientUnits="userSpaceOnUse"><stop stop-color="#09005D"/><stop offset="1" stop-color="#1A0F91"/></linearGradient><linearGradient id="U" x1="76.92" y1="291.917" x2="30.712" y2="342.268" gradientUnits="userSpaceOnUse"><stop stop-color="#09005D"/><stop offset="1" stop-color="#1A0F91"/></linearGradient><linearGradient id="V" x1="57.458" y1="304.97" x2="61.007" y2="304.97" gradientUnits="userSpaceOnUse"><stop stop-color="#FF928E"/><stop offset="1" stop-color="#FEB3B1"/></linearGradient><linearGradient id="W" x1="54.55" y1="299.766" x2="63.606" y2="247.063" gradientUnits="userSpaceOnUse"><stop stop-color="#09005D"/><stop offset="1" stop-color="#1A0F91"/></linearGradient><linearGradient id="X" x1="89.201" y1="198.086" x2="110.211" y2="198.086" gradientUnits="userSpaceOnUse"><stop stop-color="#FF928E"/><stop offset="1" stop-color="#FEB3B1"/></linearGradient><linearGradient id="Y" x1="105.531" y1="194.569" x2="91.474" y2="226.607" gradientUnits="userSpaceOnUse"><stop stop-color="#FF928E"/><stop offset="1" stop-color="#FEB3B1"/></linearGradient><linearGradient id="Z" x1="92.263" y1="204.205" x2="122.814" y2="169.225" gradientUnits="userSpaceOnUse"><stop stop-color="#FF928E"/><stop offset="1" stop-color="#FEB3B1"/></linearGradient><linearGradient id="aa" x1="68.912" y1="198.806" x2="64.554" y2="231.793" gradientUnits="userSpaceOnUse"><stop stop-color="#FF928E"/><stop offset="1" stop-color="#FEB3B1"/></linearGradient><linearGradient id="ab" x1="842.486" y1="467.68" x2="813.663" y2="457.251" gradientUnits="userSpaceOnUse"><stop stop-color="#FF928E"/><stop offset="1" stop-color="#FEB3B1"/></linearGradient><linearGradient id="ac" x1="58.445" y1="-890.398" x2="57.99" y2="-939.333" gradientUnits="userSpaceOnUse"><stop stop-color="#09005D"/><stop offset="1" stop-color="#1A0F91"/></linearGradient><linearGradient id="ad" x1="841.395" y1="470.703" x2="812.571" y2="460.275" gradientUnits="userSpaceOnUse"><stop stop-color="#FF928E"/><stop offset="1" stop-color="#FEB3B1"/></linearGradient><linearGradient id="ae" x1="64.928" y1="242.632" x2="43.315" y2="225.311" gradientUnits="userSpaceOnUse"><stop stop-color="#FF928E"/><stop offset="1" stop-color="#FEB3B1"/></linearGradient><linearGradient id="af" x1="62.873" y1="234.199" x2="54.565" y2="237.701" gradientUnits="userSpaceOnUse"><stop stop-color="#09005D"/><stop offset="1" stop-color="#1A0F91"/></linearGradient><linearGradient id="ag" x1="57.335" y1="234.932" x2="53.329" y2="237.929" gradientUnits="userSpaceOnUse"><stop stop-color="#FF928E"/><stop offset="1" stop-color="#FEB3B1"/></linearGradient><clipPath id="a"><path fill="#fff" d="M0 0h545v317H0z"/></clipPath><clipPath id="ah"><path fill="#fff" transform="translate(110 221)" d="M0 0h59v41.713H0z"/></clipPath><clipPath id="ai"><path fill="#fff" transform="translate(110.039 221)" d="M0 0h58.923v41.713H0z"/></clipPath><clipPath id="aj"><path fill="#fff" transform="translate(110.039 221)" d="M0 0h58.923v41.713H0z"/></clipPath><clipPath id="ak"><path fill="#fff" transform="translate(110.039 221)" d="M0 0h58.923v41.713H0z"/></clipPath><clipPath id="al"><path fill="#fff" transform="translate(110.039 221)" d="M0 0h58.923v41.713H0z"/></clipPath><clipPath id="am"><path fill="#fff" transform="translate(110.039 221)" d="M0 0h58.923v41.713H0z"/></clipPath></defs></svg>