<svg width="545" height="317" viewBox="0 0 545 317" fill="none" xmlns="http://www.w3.org/2000/svg">
<g clip-path="url(#clip0_935_4653)">
<path d="M125.844 134.179V282.956C125.844 293.904 135.478 302.778 147.362 302.778H397.637C409.521 302.778 419.154 293.904 419.154 282.956V134.179H125.844Z" fill="#1A0F91"/>
<path d="M345.981 89.8799L282.366 51.4579C276.177 47.7204 268.827 47.7204 262.639 51.4579L199.023 89.8702L125.543 134.239L199.023 178.496L272.503 222.754L345.983 178.448L419.464 134.239L345.983 89.8823L345.981 89.8799Z" fill="#09005D"/>
<g style="mix-blend-mode:soft-light">
<path d="M131.591 296.348C131.47 296.348 131.348 296.305 131.248 296.217C131.037 296.028 131.018 295.703 131.205 295.492L222.852 192.568C223.041 192.357 223.367 192.338 223.578 192.525C223.79 192.714 223.809 193.039 223.622 193.25L131.975 296.174C131.873 296.288 131.732 296.346 131.591 296.346V296.348Z" fill="white"/>
<path d="M413.41 296.348C413.269 296.348 413.125 296.29 413.026 296.176L321.378 193.252C321.189 193.041 321.208 192.716 321.422 192.527C321.633 192.338 321.959 192.357 322.149 192.571L413.796 295.494C413.985 295.705 413.966 296.03 413.752 296.219C413.655 296.307 413.531 296.35 413.41 296.35V296.348Z" fill="white"/>
</g>
<path d="M369.176 226.016C369.176 226.016 366.153 222.4 370.262 220.171C374.371 217.942 380.826 220.387 381.643 225.129C382.459 229.87 386.541 227.054 388.322 226.016C390.103 224.978 395.074 223.571 396.335 228.978C396.836 231.119 396.202 233.855 397.132 235.848C398.415 238.594 402.59 237.883 404.869 238.934C407.831 240.297 409.378 242.935 407.838 246.013C405.464 250.755 400.789 253.767 403.311 257.89C405.833 262.013 395.667 271.27 392.181 262.68C388.694 254.087 383.276 255.542 378.897 255.001C374.519 254.458 372.293 250.679 373.481 246.83C374.67 242.981 373.11 240.685 371.477 239.055C369.844 237.425 364.353 230.389 369.176 226.019V226.016Z" fill="url(#paint0_linear_935_4653)"/>
<path d="M362.817 272.114C362.817 272.114 359.523 272.624 355.815 275.097C355.232 275.485 354.911 276.165 354.999 276.861C355.443 280.37 357.266 291.725 363.282 302.816C363.6 303.401 363.69 304.082 363.549 304.732L362.504 309.588L360.565 311.402H365.558L368.882 302.424L367.461 301.975C366.358 301.628 365.602 300.614 365.583 299.462L365.415 289.829C365.558 285.538 362.779 282.577 362.779 282.577L370.753 282.189L362.813 272.117L362.817 272.114Z" fill="url(#paint1_linear_935_4653)"/>
<path d="M358.621 312.275C358.167 312.87 363.514 313.653 366.216 312.353C366.216 312.353 369.963 305.848 369.963 302.499C369.963 302.499 369.667 301.815 367.465 301.97C367.465 301.97 366.207 309.673 364.88 310.536C363.551 311.4 361.165 310.624 361.165 310.624C361.165 310.624 359.292 311.4 358.621 312.275Z" fill="url(#paint2_linear_935_4653)"/>
<path d="M369.751 282.715C369.71 282.643 361.167 281.689 361.167 281.689C361.167 281.689 361.446 284.282 360.571 287.85C359.697 291.417 347.157 306.881 347.157 306.881L348.471 311.043C344.406 312.457 340.407 312.683 336.471 311.763L344.62 306.881C344.62 306.881 352.247 280.938 356.919 276.308L365.482 273.351L369.751 282.715Z" fill="url(#paint3_linear_935_4653)"/>
<path d="M388.906 267.618C388.906 267.618 393.829 274.925 394.232 278.258C394.635 281.59 392.883 282.946 387.72 283.169C382.557 283.392 368.771 283.39 368.771 283.39L357.006 273.354C357.006 273.354 365.58 270.3 367.808 269.437C370.039 268.573 388.906 267.62 388.906 267.62V267.618Z" fill="url(#paint4_linear_935_4653)"/>
<path d="M347.975 309.641C347.975 309.641 349.391 311.009 348.434 312.532C348.434 312.532 337.218 314.516 334.174 313.616C334.174 313.616 334.806 312.176 338.234 310.536L337.981 310.73C337.661 310.975 337.85 311.487 338.251 311.463C340.511 311.334 345.185 310.922 347.972 309.639L347.975 309.641Z" fill="url(#paint5_linear_935_4653)"/>
<path d="M375.596 266.65C375.596 266.65 369.864 261.203 367.043 257.594C365.517 255.644 365.039 253.076 365.746 250.704C367.034 246.372 369.322 241.885 369.531 241.189C369.852 240.12 376.276 240.163 376.276 240.163C376.276 240.163 388.921 248.356 393.889 262.231L388.311 263.966C388.311 263.966 385.009 258.436 381.748 254.921C381.748 254.921 387.392 262.365 387.592 265.411L375.598 266.648L375.596 266.65Z" fill="#33EFAB"/>
<path d="M368.754 235.211C368.822 235.434 370.498 240.983 370.63 241.099C370.761 241.213 374.308 241.405 375.978 240.265L373.144 234.347L368.754 235.211Z" fill="url(#paint6_linear_935_4653)"/>
<path d="M371.509 223.552C371.509 223.552 368.482 224.828 366.424 229.196C364.366 233.564 365.902 235.579 367.833 235.856C369.765 236.132 372.651 236.091 375.708 233.268C378.762 230.447 375.448 222.036 371.512 223.55L371.509 223.552Z" fill="url(#paint7_linear_935_4653)"/>
<path d="M373.653 230.939C373.653 230.939 375.937 224.549 370.261 224.474L368.925 225.405C368.925 225.405 366.843 221.861 370.261 220.171C373.68 218.481 378.78 219.987 380.233 224.583C381.688 229.179 380.835 232.147 378.415 234.347C375.995 236.547 374.999 234.054 374.999 234.054C374.999 234.054 376.316 231.997 375.782 230.896C375.245 229.795 374.008 231.124 374.008 231.124L373.653 230.942V230.939Z" fill="url(#paint8_linear_935_4653)"/>
<path d="M373.049 231.958C373.049 231.958 374.203 228.667 375.746 229.977C377.286 231.287 374.495 233.018 373.401 233.579L373.051 231.958H373.049Z" fill="url(#paint9_linear_935_4653)"/>
<path d="M363.922 267.055L368.133 263.005L373.957 265.462C373.957 265.462 379.754 266.359 383.073 265.462L386.392 264.564L393.89 262.233L395.069 265.556C395.368 266.4 395.069 267.336 394.337 267.855C393.689 268.316 392.928 268.821 392.445 269.034C391.458 269.466 368.101 268.736 368.101 268.736L363.924 267.057L363.922 267.055Z" fill="url(#paint10_linear_935_4653)"/>
<g style="mix-blend-mode:soft-light">
<path d="M394.509 231.328L394.31 231.306C394.483 229.717 394.218 228.657 393.501 228.068C392.08 226.899 389.13 227.813 386.528 228.621C385.208 229.031 383.964 229.416 383.092 229.462C382.424 229.499 381.889 229.322 381.503 228.936C380.796 228.23 380.847 227.09 380.849 227.042L381.049 227.052C381.049 227.052 381 228.153 381.644 228.795C381.989 229.137 382.472 229.295 383.08 229.264C383.928 229.218 385.16 228.837 386.467 228.432C389.118 227.61 392.121 226.678 393.627 227.915C394.4 228.551 394.689 229.669 394.509 231.328Z" fill="#BDD0FB"/>
</g>
<g style="mix-blend-mode:soft-light">
<path d="M400.708 255.263C400.239 253.34 401.505 251.715 402.97 249.833C404.025 248.479 405.22 246.944 405.862 245.101C406.168 244.221 406.102 243.413 405.665 242.7C404.299 240.478 399.77 239.831 399.727 239.823L399.753 239.625C399.943 239.651 404.421 240.291 405.835 242.593C406.304 243.36 406.377 244.223 406.051 245.164C405.4 247.039 404.192 248.586 403.128 249.954C401.695 251.795 400.455 253.386 400.903 255.215L400.708 255.261V255.263Z" fill="#BDD0FB"/>
</g>
<path d="M380.304 288.08H378.086V312.023H380.304V288.08Z" fill="url(#paint11_linear_935_4653)"/>
<path d="M388.908 312.484H369.482C369.482 311.688 370.129 311.043 370.926 311.043H387.465C388.262 311.043 388.908 311.688 388.908 312.484Z" fill="url(#paint12_linear_935_4653)"/>
<path d="M389.405 282.715H369.751C368.434 282.715 367.365 283.782 367.365 285.097V287.248C367.365 288.564 368.434 289.63 369.751 289.63H389.405C390.723 289.63 391.791 288.564 391.791 287.248V285.097C391.791 283.782 390.723 282.715 389.405 282.715Z" fill="url(#paint13_linear_935_4653)"/>
<path d="M379.856 268.967C379.837 268.967 379.82 268.967 379.8 268.967L355.374 268.94C354.772 268.94 354.281 268.45 354.283 267.848C354.283 267.245 354.776 266.747 355.377 266.759L379.803 266.786C380.405 266.786 380.896 267.276 380.894 267.878C380.894 268.462 380.432 268.937 379.856 268.967Z" fill="#A5A3A3"/>
<path d="M333.417 246.828H353.759C355.261 246.828 356.626 247.692 357.265 249.047L366.668 268.952H341.389C340.422 268.952 339.552 268.363 339.198 267.465L331.906 249.047C331.486 247.983 332.27 246.831 333.417 246.831V246.828Z" fill="#C7C0C0"/>
<path d="M413.996 269.856C414.055 269.58 413.975 269.294 413.785 269.078C413.593 268.86 413.309 268.736 413.008 268.736H311.08C310.684 268.736 310.317 268.925 310.103 269.235C309.89 269.548 309.86 269.939 310.028 270.276L311.134 272.512C311.386 273.024 311.935 273.351 312.538 273.351H412.31C412.872 273.351 413.353 272.98 413.46 272.464L413.999 269.856H413.996Z" fill="url(#paint14_linear_935_4653)"/>
<path d="M316.792 317C316.673 317 316.554 316.976 316.44 316.925C315.986 316.726 315.777 316.187 315.971 315.724L334.731 271.185C334.925 270.722 335.453 270.509 335.907 270.708C336.361 270.907 336.57 271.445 336.376 271.908L317.616 316.447C317.47 316.794 317.14 317 316.795 317H316.792Z" fill="url(#paint15_linear_935_4653)"/>
<path d="M337.925 317C337.578 317 337.25 316.794 337.104 316.447L318.344 271.908C318.15 271.445 318.359 270.907 318.813 270.708C319.267 270.509 319.792 270.722 319.989 271.185L338.749 315.724C338.943 316.187 338.734 316.726 338.28 316.925C338.166 316.976 338.044 317 337.928 317H337.925Z" fill="url(#paint16_linear_935_4653)"/>
<path d="M390.663 317C390.544 317 390.425 316.976 390.311 316.925C389.857 316.726 389.648 316.187 389.842 315.724L408.602 271.185C408.797 270.722 409.324 270.509 409.778 270.708C410.233 270.907 410.441 271.445 410.247 271.908L391.487 316.447C391.341 316.794 391.011 317 390.666 317H390.663Z" fill="url(#paint17_linear_935_4653)"/>
<path d="M411.798 317C411.451 317 411.123 316.794 410.977 316.447L392.217 271.908C392.023 271.445 392.232 270.907 392.686 270.708C393.14 270.509 393.665 270.722 393.862 271.185L412.622 315.724C412.816 316.187 412.608 316.726 412.153 316.925C412.039 316.976 411.917 317 411.801 317H411.798Z" fill="url(#paint18_linear_935_4653)"/>
<mask id="mask0_935_4653" style="mask-type:luminance" maskUnits="userSpaceOnUse" x="138" y="28" width="262" height="195">
<path d="M138.02 141.523L272.683 222.662L399.666 146.317V28.1191H148.594L138.02 141.523Z" fill="white"/>
</mask>
<g mask="url(#mask0_935_4653)">
<path d="M363.737 62.1855H158.429C154.809 62.1855 151.811 65.3215 151.811 68.9352V235.247H393.19V92.0486L363.737 62.1831V62.1855Z" fill="#BDD0FB"/>
<path d="M393.076 92.0485L366.135 92.2813C365.42 92.2886 364.862 92.0097 364.354 91.5076C363.846 91.0032 363.795 90.3192 363.795 89.6086V62.3892L393.073 92.0485H393.076Z" fill="#91B3FA"/>
</g>
<path d="M459.951 203.138C459.951 203.138 454.219 208.564 452.324 218.209C450.429 227.855 445.929 204.574 445.929 204.574H441.383C441.383 204.574 439.668 228.56 452.504 230.469C454.951 230.833 457.407 229.865 458.938 227.925C461.282 224.954 464.939 219.667 465.824 214.629C465.066 206.686 459.951 203.138 459.951 203.138Z" fill="#33EFAB"/>
<path d="M489.071 314.208C489.071 314.138 489.069 314.065 489.049 313.992C487.973 309.736 483.578 307.556 483.578 307.556L481.464 307.721C480.249 311.47 479.464 313.301 479.658 314.327C479.663 314.356 479.673 314.383 479.68 314.412C481.425 314.567 485.016 314.669 489.071 314.208Z" fill="url(#paint19_linear_935_4653)"/>
<path d="M479.68 314.412C479.774 314.754 480.027 315.021 480.35 315.089C482.831 315.61 486.777 315.191 488.432 314.975C488.796 314.926 489.063 314.589 489.071 314.208C485.015 314.669 481.424 314.567 479.68 314.412Z" fill="url(#paint20_linear_935_4653)"/>
<path d="M485.319 304.272L484.393 308.722C484.325 309.047 484.075 309.292 483.771 309.321C483.399 309.355 482.87 309.377 482.337 309.3C481.859 309.229 481.526 308.744 481.611 308.225L482.255 304.274H485.321L485.319 304.272Z" fill="url(#paint21_linear_935_4653)"/>
<path d="M461.709 314.376C463.969 314.313 465.135 314.046 465.74 313.801C465.74 314.024 465.74 314.252 465.733 314.49C465.725 314.742 465.538 314.943 465.307 314.943L452.906 314.863C452.51 314.861 452.279 314.402 452.449 314.041C454.075 314.174 458.217 314.475 461.709 314.378V314.376Z" fill="url(#paint22_linear_935_4653)"/>
<path d="M452.452 314.039C452.466 314.007 452.478 313.976 452.5 313.947C453.596 312.419 456.385 309.377 461.896 308.058L464.54 307.976C464.54 307.976 465.718 310.018 465.74 313.804C465.135 314.051 463.969 314.315 461.709 314.378C458.217 314.475 454.077 314.177 452.449 314.041L452.452 314.039Z" fill="url(#paint23_linear_935_4653)"/>
<path d="M465.034 303.974C465.005 304.17 464.643 307.161 464.502 308.32C464.468 308.596 464.268 308.807 464.016 308.839C463.566 308.892 462.837 308.941 462.198 308.812C461.853 308.742 461.605 308.412 461.605 308.029V303.336L465.031 303.976L465.034 303.974Z" fill="url(#paint24_linear_935_4653)"/>
<path d="M483.552 245.843C483.552 245.843 487.784 283.387 485.432 306.852C485.432 306.852 482.611 306.852 481.202 306.382C481.202 306.382 476.804 269.672 475.383 259.168C475.33 258.773 474.763 258.753 474.686 259.146C472.931 267.984 466.038 302.64 465.217 305.911C465.217 305.911 462.865 306.85 460.984 305.911C460.984 305.911 464.746 255.695 467.567 246.779L483.552 245.841V245.843Z" fill="url(#paint25_linear_935_4653)"/>
<path d="M492.015 202.2C492.015 202.2 474.15 199.384 460.045 203.138L460.985 217.688C460.985 217.688 464.746 237.869 467.567 246.785C467.567 246.785 478.382 248.662 483.553 245.846C483.553 245.846 487.785 220.504 490.135 216.749C490.135 216.749 492.487 206.893 492.015 202.2Z" fill="#33EFAB"/>
<path d="M479.478 186.881L481.383 201.387C481.383 201.387 476.412 203.667 472.93 201.29L473.68 192.811L479.48 186.881H479.478Z" fill="url(#paint26_linear_935_4653)"/>
<path d="M492.015 202.2C492.015 202.2 519.756 232.235 487.078 243.733V241.388C487.078 241.388 499.302 231.064 489.899 216.984C489.899 216.984 491.075 203.609 492.015 202.202V202.2Z" fill="#33EFAB"/>
<path d="M486.843 241.621C486.843 241.621 482.613 238.805 480.73 239.744C478.85 240.682 478.85 242.092 478.85 242.092C478.85 242.092 479.79 243.969 481.202 243.498C482.613 243.03 485.903 243.969 487.315 243.498C487.315 243.498 487.786 241.621 486.843 241.621Z" fill="url(#paint27_linear_935_4653)"/>
<path d="M441.102 189.403L447.072 191.412C447.794 191.627 448.292 192.357 448.35 193.282L448.039 203.225C448.137 204.78 446.849 206.153 445.634 205.789L440.847 204.162C440.381 204.021 440.072 203.533 440.067 202.929L439.963 190.551C439.958 189.835 440.549 189.238 441.1 189.406L441.102 189.403Z" fill="url(#paint28_linear_935_4653)"/>
<path d="M439.963 202.199C439.963 202.199 438.095 196.226 439.045 195.219C439.995 194.213 441.888 191.438 442.014 193.706C442.14 195.976 443.282 205.777 439.963 202.199Z" fill="url(#paint29_linear_935_4653)"/>
<path d="M468.539 184.424C468.513 184.597 470.634 195.942 470.634 195.942L477.099 194.594L476.689 183.542C476.689 183.542 469.006 181.538 468.539 184.422V184.424Z" fill="url(#paint30_linear_935_4653)"/>
<path d="M474.755 185.341C475.005 185.494 475.173 185.751 475.207 186.044L475.87 191.761C475.88 191.848 475.88 191.933 475.866 192.02C475.785 192.496 475.411 193.987 473.878 193.526C472.571 193.134 471.363 192.789 470.476 192.947C469.959 193.039 469.621 193.543 469.718 194.06C469.922 195.125 470.374 197.261 471.045 199.105C471.213 199.566 471.713 199.818 472.187 199.687C473.438 199.34 475.863 198.591 477.715 197.536C478.018 197.363 478.203 197.038 478.193 196.689C478.154 195.151 478.064 190.839 478.227 189.619C478.378 188.484 479.751 187.815 480.404 187.558C480.652 187.461 480.847 187.267 480.944 187.017C481.235 186.272 481.556 184.732 479.629 184.022C479.151 183.845 478.908 183.304 479.075 182.824C479.374 181.96 479.457 180.706 477.897 179.979C476.317 179.241 475.1 180 474.4 180.687C474.092 180.99 473.606 181.077 473.232 180.861C473.064 180.764 472.858 180.733 472.61 180.854C472.143 181.082 471.592 180.917 471.361 180.452C470.962 179.654 470.165 178.831 468.588 179.074C465.695 179.52 465.313 182.707 466.045 184.589C466.773 186.474 469.886 185.812 471.456 184.895C472.61 184.221 474.068 184.924 474.76 185.343L474.755 185.341Z" fill="url(#paint31_linear_935_4653)"/>
<path d="M478.136 191.538C478.136 191.538 477.317 188.395 478.549 187.604C479.781 186.813 481.579 187.265 481.141 189.661C480.597 192.641 478.136 191.538 478.136 191.538Z" fill="url(#paint32_linear_935_4653)"/>
<path d="M465.497 182.683C465.458 182.683 465.422 182.661 465.405 182.625C464.353 180.379 466.807 178.584 466.831 178.567C466.877 178.536 466.938 178.545 466.972 178.591C467.003 178.638 466.994 178.698 466.95 178.732C466.926 178.749 464.608 180.447 465.589 182.542C465.614 182.593 465.589 182.651 465.541 182.676C465.526 182.683 465.512 182.685 465.499 182.685L465.497 182.683Z" fill="white"/>
<path d="M426.692 189.724V210.237C426.692 211.908 425.672 213.264 424.413 213.264H349.548C348.503 213.264 347.589 214.21 347.337 215.556L345.993 222.698C345.816 223.647 344.824 223.724 344.562 222.812L342.832 216.778C342.494 215.604 341.649 214.828 340.701 214.828H337.484C336.226 214.828 335.205 213.472 335.205 211.801V190.716C335.205 189.054 336.213 187.703 337.465 187.689L424.396 186.697C425.662 186.682 426.694 188.041 426.694 189.724H426.692Z" fill="#BDD0FB"/>
<path d="M346.789 209.517C351.86 209.517 355.971 205.305 355.971 200.109C355.971 194.913 351.86 190.701 346.789 190.701C341.718 190.701 337.607 194.913 337.607 200.109C337.607 205.305 341.718 209.517 346.789 209.517Z" fill="#7D97F4"/>
<path d="M350.115 196.296C350.115 197.987 348.742 199.811 347.049 199.811C345.355 199.811 343.982 197.987 343.982 196.296C343.982 194.606 345.355 193.408 347.049 193.408C348.742 193.408 350.115 194.606 350.115 196.296Z" fill="url(#paint33_linear_935_4653)"/>
<path d="M343.246 206.318H350.73C351.517 206.318 352.214 205.811 352.455 205.061L352.858 203.805C353.152 202.886 352.674 201.889 351.765 201.557C348.72 200.446 345.571 200.589 342.345 201.659C341.441 201.959 340.94 202.925 341.188 203.842L341.499 204.981C341.713 205.77 342.43 206.315 343.246 206.315V206.318Z" fill="url(#paint34_linear_935_4653)"/>
<path d="M419.541 202.563C419.541 203.546 418.71 204.341 417.684 204.341H363.042C362.017 204.341 361.186 203.546 361.186 202.563C361.186 201.581 362.017 200.786 363.042 200.786H417.684C418.71 200.786 419.541 201.581 419.541 202.563Z" fill="url(#paint35_linear_935_4653)"/>
<path d="M393.666 208.268C393.666 209.16 392.942 209.883 392.048 209.883H363.401C362.507 209.883 361.783 209.16 361.783 208.268C361.783 207.375 362.507 206.652 363.401 206.652H392.048C392.942 206.652 393.666 207.375 393.666 208.268Z" fill="url(#paint36_linear_935_4653)"/>
<path d="M419.575 208.268C419.575 209.16 418.851 209.883 417.957 209.883H397.282C396.388 209.883 395.664 209.16 395.664 208.268C395.664 207.375 396.388 206.652 397.282 206.652H417.957C418.851 206.652 419.575 207.375 419.575 208.268Z" fill="url(#paint37_linear_935_4653)"/>
<path d="M390.894 191.482H363.309C362.053 191.482 361.035 192.498 361.035 193.752V193.936C361.035 195.19 362.053 196.206 363.309 196.206H390.894C392.15 196.206 393.168 195.19 393.168 193.936V193.752C393.168 192.498 392.15 191.482 390.894 191.482Z" fill="#7D97F4"/>
<path d="M175.355 200.788C175.338 218.82 175.199 281.02 174.118 303.04C174.004 305.373 172.359 307.211 170.359 307.243C160.465 307.403 124.204 307.558 108.051 306.408C104.686 306.168 102.079 302.923 102.096 298.987C102.178 280.06 102.618 226.833 104.922 202.495C105.199 199.58 107.213 197.298 109.715 197.06C120.508 196.041 156.974 193.771 170.921 195.137C173.435 195.384 175.357 197.836 175.355 200.785V200.788Z" fill="url(#paint38_linear_935_4653)"/>
<path d="M170.822 206.218C171.031 220.777 171.636 269.214 170.707 287.1C170.571 289.715 168.759 291.791 166.519 291.895C157.29 292.322 125.828 293.016 112.343 291.451C109.915 291.17 108.057 288.83 107.989 285.98C107.634 271.122 106.667 226.014 107.571 208.328C107.714 205.507 109.638 203.242 112.054 203.043C122.045 202.219 155.5 200.47 166.968 201.455C169.121 201.639 170.79 203.698 170.827 206.218H170.822Z" fill="black"/>
<path d="M147.19 198.064C147.177 198.617 146.798 199.066 146.325 199.083C143.987 199.175 137.4 199.432 134.455 199.568C133.875 199.594 133.432 198.976 133.559 198.311L133.581 198.197C133.666 197.744 133.996 197.409 134.392 197.378C136.385 197.208 142.393 196.752 146.361 197.004C146.837 197.036 147.202 197.504 147.19 198.062V198.064Z" fill="url(#paint39_linear_935_4653)"/>
<path d="M111.61 303.204C107.708 303.204 104.479 300.035 104.479 296.139V284.066C104.479 283.926 104.585 283.809 104.729 283.809C104.872 283.809 104.979 283.923 104.979 284.066V296.139C104.979 299.751 107.985 302.69 111.603 302.69C111.743 302.69 111.865 302.804 111.865 302.947C111.865 303.09 111.753 303.204 111.612 303.204H111.61Z" fill="url(#paint40_linear_935_4653)"/>
<path d="M72.6688 305.193C72.6688 305.193 72.1901 307.902 71.9544 310.585C71.8621 311.633 72.6712 312.542 73.7257 312.588C77.3047 312.736 84.9584 313.027 87.704 312.903C88.1171 312.884 88.3868 312.462 88.2337 312.079C88.1049 311.759 87.8595 311.497 87.5436 311.354L74.8993 305.552L72.6664 305.191L72.6688 305.193Z" fill="url(#paint41_linear_935_4653)"/>
<path d="M72.2773 303.6L72.6637 306.84C72.6637 306.84 74.8796 307.868 76.3909 306.711L75.4749 303.1L72.2798 303.6H72.2773Z" fill="url(#paint42_linear_935_4653)"/>
<path d="M72.567 242.671C72.4017 243.517 71.6728 284.906 76.1071 303.454C76.18 303.758 76.0269 304.068 75.7378 304.187C75.0574 304.463 73.7259 304.866 72.1272 304.919C71.6315 304.936 71.1893 304.616 71.0484 304.141C69.7825 299.838 63.7106 278.277 62.9185 257.679C62.034 234.665 62.9185 256.895 62.9185 256.895L63.4384 242.668H72.567V242.671Z" fill="url(#paint43_linear_935_4653)"/>
<path d="M58.1283 306.607C58.1283 306.607 57.3653 307.975 56.6267 311.611C56.4931 312.268 56.9523 312.896 57.6205 312.962C58.8013 313.078 60.6212 313.226 62.079 313.216C62.7496 313.212 63.2744 312.627 63.1943 311.963C63.0339 310.636 62.531 308.458 60.9759 306.763L58.1283 306.607Z" fill="url(#paint44_linear_935_4653)"/>
<path d="M57.4575 302.438L58.3565 307.34C58.3565 307.34 59.2458 307.999 61.0074 307.522L60.5773 302.249L57.4551 302.438H57.4575Z" fill="url(#paint45_linear_935_4653)"/>
<path d="M55.0243 243.939C51.3991 265.777 55.8115 297.913 57.2985 304.202C57.3884 304.587 57.7019 304.881 58.0931 304.946C58.7564 305.055 59.8498 305.145 60.9286 304.832C61.3003 304.725 61.5603 304.391 61.5749 304.005C61.7741 298.919 61.4145 267.703 64.7919 255.368C64.9619 254.742 65.3458 254.196 65.8755 253.823L72.431 249.171L72.9339 241.652L55.0243 243.942V243.939Z" fill="url(#paint46_linear_935_4653)"/>
<path d="M78.1217 202.563C67.2583 202.384 55.2724 205.411 55.2724 205.411C52.0336 224.27 54.7063 246.025 54.7063 246.025C63.1156 248.228 72.6037 244.679 72.6037 244.679C74.0008 236.797 80.5222 214.61 80.5222 214.61C85.8312 213.953 90.2023 212.425 93.8032 210.402C91.0576 207.225 89.7625 203.179 89.1988 200.791C85.3574 201.981 81.4723 202.619 78.1217 202.563Z" fill="#33EFAB"/>
<path d="M110.211 186.59C109.144 185.305 107.794 185.911 107.794 185.911C106.195 192.651 97.8122 198.118 89.2012 200.788C89.7624 203.179 91.0575 207.222 93.8055 210.399C108.097 202.379 110.211 186.588 110.211 186.588V186.59Z" fill="url(#paint47_linear_935_4653)"/>
<path d="M109.951 186.917C110.062 187.271 108.77 187.812 108.007 186.362C107.98 185.668 107.557 182.692 107.973 182.125C110.186 179.11 114.48 175.334 114.48 175.334C115.206 176.049 114.608 176.75 114.608 176.75L112.526 178.916C112.961 179.702 113.493 180.364 113.741 181.315C113.931 182.035 113.814 182.804 113.449 183.459C113.085 184.116 112.585 184.97 112.113 185.639C111.221 186.905 109.948 186.915 109.948 186.915L109.951 186.917Z" fill="url(#paint48_linear_935_4653)"/>
<path d="M111.618 180.323L109.72 181.928L109.125 183.527L110.816 185.401C110.816 185.401 111.385 182.229 111.807 181.543C112.23 180.856 112.012 180.524 111.618 180.323Z" fill="url(#paint49_linear_935_4653)"/>
<path d="M59.4398 215.91L55.2728 205.411C55.2728 205.411 45.1263 212.294 43.457 221.018C45.3741 221.158 48.5886 221.689 52.0024 223.409C53.5429 219.948 59.4374 215.91 59.4374 215.91H59.4398Z" fill="#33EFAB"/>
<path d="M67.1208 193.759L63.6633 203.737C63.605 203.902 63.673 204.086 63.8285 204.169C64.7712 204.688 68.1656 206.191 72.2573 203.604C72.6825 203.334 72.974 202.893 73.0372 202.393L74.1573 193.757H67.1208V193.759Z" fill="url(#paint50_linear_935_4653)"/>
<path d="M74.6401 184.519C74.6401 184.519 78.4353 191.651 77.9494 194.53C77.4634 197.412 72.7595 197.205 68.6508 194.865L65.7812 187.165L74.6401 184.519Z" fill="url(#paint51_linear_935_4653)"/>
<path d="M68.8328 191.084C69.0004 191.011 69.0611 190.805 68.9615 190.655C68.6578 190.191 68.0868 189.246 67.9046 188.416C67.9046 188.416 67.2218 187.979 69.6419 187.402C72.0619 186.825 75.6676 185.928 76.4257 183.871C77.1643 181.868 75.223 176.828 72.1226 180.844C72.0036 180.997 71.7727 180.999 71.6561 180.847C71.1483 180.187 69.8119 178.817 67.958 179.648C66.2232 180.425 66.0264 181.695 66.0507 182.336C66.058 182.525 65.8903 182.67 65.7032 182.634C64.8261 182.467 62.7195 182.324 61.7379 184.48C60.9288 186.255 61.4536 187.262 61.9347 187.752C62.0902 187.912 62.0222 188.174 61.8084 188.239C61.2325 188.416 60.4866 188.904 60.5619 190.252C60.664 192.117 62.7535 191.952 63.3464 191.867C63.4436 191.853 63.5408 191.887 63.6088 191.959C64.1191 192.522 66.4152 194.913 68.9008 195.202C69.117 195.226 69.2823 195.015 69.2118 194.809L68.1354 191.688C68.0844 191.542 68.1549 191.385 68.2958 191.322L68.8303 191.086L68.8328 191.084Z" fill="url(#paint52_linear_935_4653)"/>
<path d="M69.2651 191.528C69.2651 191.528 66.5632 189.677 66.364 191.234C66.1672 192.794 68.7986 193.492 70.1009 192.91L69.2651 191.525V191.528Z" fill="url(#paint53_linear_935_4653)"/>
<path d="M43.5272 221.102C43.5272 221.102 36.5927 236.87 53.545 239.178L55.8556 237.255C55.8556 237.255 47.3783 232.64 52.0021 223.409C52.0021 223.409 46.9944 219.179 43.5247 221.102H43.5272Z" fill="url(#paint54_linear_935_4653)"/>
<path d="M55.7021 229.402L61.6719 231.41C62.3936 231.626 62.8917 232.356 62.95 233.28L62.639 243.224C62.7362 244.779 61.4484 246.151 60.2335 245.787L55.447 244.16C54.9804 244.019 54.6719 243.532 54.667 242.928L54.5625 230.549C54.5577 229.834 55.1481 229.237 55.6996 229.404L55.7021 229.402Z" fill="url(#paint55_linear_935_4653)"/>
<path d="M54.1595 241.191C53.9991 241.014 52.8814 238.975 53.1706 236.249C53.4597 233.523 52.9252 232.293 54.1984 232.397C55.4715 232.502 56.5261 232.717 56.3803 234.059C56.2369 235.4 56.6378 243.927 54.1595 241.191Z" fill="url(#paint56_linear_935_4653)"/>
</g>
<g clip-path="url(#clip1_935_4653)">
<g clip-path="url(#clip2_935_4653)">
<g clip-path="url(#clip3_935_4653)">
<g clip-path="url(#clip4_935_4653)">
<g clip-path="url(#clip5_935_4653)">
<g clip-path="url(#clip6_935_4653)">
<path d="M139.5 251.689C144.931 251.689 149.333 247.287 149.333 241.857C149.333 236.426 144.931 232.024 139.5 232.024C134.07 232.024 129.668 236.426 129.668 241.857C129.668 247.287 134.07 251.689 139.5 251.689Z" fill="#33EFAB"/>
<path d="M123.305 235.175L123.133 235.611C123.029 235.613 122.896 235.618 122.734 235.625C122.571 235.633 122.395 235.64 122.206 235.647C122.018 235.655 121.824 235.666 121.622 235.679C121.42 235.693 121.229 235.705 121.05 235.717C120.871 235.729 120.71 235.741 120.565 235.755C120.422 235.77 120.311 235.784 120.233 235.795C120.657 236.011 121.121 236.232 121.625 236.46C122.128 236.688 122.637 236.915 123.153 237.139L122.943 237.672C122.613 237.524 122.28 237.374 121.947 237.221C121.612 237.068 121.284 236.914 120.963 236.759C120.642 236.605 120.33 236.452 120.027 236.301C119.725 236.15 119.44 236.002 119.174 235.857L119.361 235.382C119.565 235.346 119.802 235.314 120.071 235.285C120.342 235.258 120.621 235.235 120.911 235.215C121.201 235.196 121.49 235.181 121.778 235.169C122.065 235.156 122.327 235.145 122.564 235.134C122.397 234.965 122.213 234.779 122.012 234.574C121.81 234.37 121.609 234.162 121.409 233.95C121.211 233.738 121.022 233.53 120.843 233.325C120.665 233.121 120.514 232.936 120.389 232.771L120.576 232.295C121.878 232.661 123.21 233.074 124.571 233.537L124.362 234.069C123.831 233.883 123.304 233.701 122.781 233.525C122.256 233.349 121.766 233.195 121.309 233.063C121.358 233.125 121.43 233.21 121.525 233.319C121.621 233.427 121.73 233.547 121.853 233.677C121.976 233.808 122.107 233.947 122.246 234.095C122.384 234.242 122.52 234.382 122.652 234.516C122.785 234.65 122.908 234.776 123.022 234.892C123.136 235.007 123.23 235.102 123.305 235.175ZM127.549 229.833L127.145 230.326C126.961 230.264 126.783 230.201 126.61 230.136C126.437 230.072 126.261 230.008 126.081 229.942L124.881 231.403L125.463 232.373L125.077 232.843C124.838 232.439 124.618 232.063 124.417 231.717C124.216 231.369 124.029 231.037 123.853 230.719C123.678 230.401 123.513 230.094 123.361 229.796C123.207 229.499 123.06 229.199 122.92 228.896L123.259 228.482C123.584 228.561 123.907 228.647 124.228 228.74C124.549 228.833 124.883 228.934 125.23 229.044C125.575 229.154 125.937 229.274 126.316 229.405C126.696 229.534 127.107 229.677 127.549 229.833ZM124.616 230.968L125.602 229.767C125.25 229.645 124.908 229.529 124.575 229.418C124.242 229.308 123.916 229.211 123.595 229.125C123.74 229.425 123.898 229.727 124.071 230.032C124.243 230.338 124.424 230.65 124.616 230.968ZM128.977 226.522C129.077 226.548 129.205 226.583 129.362 226.629C129.519 226.675 129.687 226.73 129.865 226.794C130.043 226.859 130.225 226.93 130.411 227.007C130.596 227.084 130.765 227.165 130.92 227.25L130.408 227.633C130.252 227.558 130.09 227.486 129.921 227.418C129.752 227.348 129.586 227.286 129.424 227.23C129.261 227.172 129.104 227.123 128.955 227.08C128.805 227.037 128.671 227.001 128.555 226.973C128.516 227.007 128.474 227.04 128.431 227.073C128.387 227.106 128.343 227.139 128.298 227.172L127.878 227.486L128.854 228.793L128.387 229.143L125.925 225.848C126.033 225.717 126.165 225.586 126.319 225.453C126.473 225.321 126.617 225.204 126.753 225.103C127.222 224.752 127.646 224.573 128.024 224.566C128.402 224.559 128.722 224.731 128.984 225.082C129.149 225.304 129.232 225.537 129.233 225.782C129.233 226.027 129.147 226.274 128.977 226.522ZM127.097 225.484C126.898 225.633 126.749 225.752 126.649 225.841L127.59 227.1L127.923 226.851C128.084 226.731 128.223 226.615 128.34 226.503C128.455 226.391 128.541 226.279 128.597 226.168C128.651 226.056 128.672 225.942 128.658 225.824C128.646 225.706 128.589 225.579 128.489 225.445C128.395 225.319 128.292 225.233 128.181 225.185C128.071 225.137 127.957 225.12 127.839 225.133C127.721 225.146 127.599 225.184 127.473 225.248C127.348 225.311 127.222 225.39 127.097 225.484ZM132.054 226.725L130.199 222.987L130.722 222.728L132.577 226.465L132.054 226.725ZM137.409 225.142L136.789 225.292C136.68 225.132 136.576 224.975 136.476 224.819C136.377 224.664 136.274 224.506 136.17 224.346L134.332 224.791L134.214 225.916L133.623 226.059C133.676 225.593 133.726 225.161 133.773 224.763C133.822 224.364 133.872 223.986 133.923 223.627C133.974 223.267 134.027 222.923 134.085 222.593C134.141 222.263 134.204 221.935 134.274 221.609L134.793 221.483C135.005 221.741 135.212 222.004 135.412 222.271C135.613 222.538 135.819 222.82 136.03 223.116C136.24 223.412 136.457 223.726 136.681 224.058C136.907 224.389 137.149 224.751 137.409 225.142ZM134.383 224.284L135.893 223.918C135.685 223.608 135.481 223.309 135.282 223.022C135.082 222.734 134.88 222.459 134.676 222.198C134.611 222.524 134.555 222.861 134.51 223.209C134.463 223.556 134.421 223.915 134.383 224.284ZM141.71 225.27C141.627 225.26 141.536 225.247 141.439 225.231C141.342 225.215 141.245 225.197 141.148 225.177C141.052 225.157 140.956 225.135 140.862 225.112C140.768 225.088 140.682 225.061 140.605 225.032L141.098 221.015C141.181 221.005 141.27 221 141.367 221C141.464 221 141.562 221.002 141.661 221.006C141.759 221.01 141.857 221.016 141.953 221.024C142.049 221.032 142.139 221.041 142.223 221.051C142.462 221.08 142.684 221.126 142.889 221.187C143.094 221.248 143.267 221.331 143.41 221.436C143.553 221.54 143.66 221.668 143.73 221.819C143.801 221.969 143.824 222.145 143.799 222.348C143.771 222.575 143.694 222.755 143.568 222.887C143.442 223.019 143.286 223.11 143.099 223.16C143.332 223.262 143.511 223.399 143.635 223.571C143.76 223.745 143.805 223.973 143.77 224.256C143.719 224.67 143.529 224.963 143.198 225.135C142.868 225.306 142.372 225.351 141.71 225.27ZM142.154 223.329L141.408 223.237L141.228 224.696C141.272 224.705 141.324 224.715 141.382 224.727C141.434 224.737 141.495 224.747 141.565 224.758C141.633 224.768 141.714 224.779 141.805 224.791C141.977 224.812 142.141 224.821 142.297 224.818C142.453 224.815 142.592 224.793 142.714 224.751C142.836 224.709 142.939 224.642 143.021 224.551C143.103 224.46 143.153 224.339 143.172 224.188C143.189 224.052 143.177 223.935 143.136 223.836C143.096 223.736 143.031 223.652 142.94 223.583C142.849 223.515 142.737 223.461 142.604 223.421C142.472 223.38 142.322 223.35 142.154 223.329ZM141.622 221.492L141.465 222.772L142.074 222.846C142.218 222.864 142.355 222.871 142.485 222.867C142.615 222.862 142.73 222.839 142.829 222.8C142.929 222.759 143.012 222.7 143.076 222.623C143.141 222.547 143.181 222.444 143.196 222.316C143.211 222.197 143.195 222.093 143.149 222.004C143.103 221.915 143.034 221.84 142.943 221.779C142.851 221.717 142.741 221.666 142.613 221.626C142.485 221.586 142.347 221.557 142.199 221.539C142.052 221.521 141.936 221.509 141.852 221.503C141.768 221.496 141.691 221.493 141.622 221.492ZM147.413 225.059C147.443 225.157 147.479 225.285 147.522 225.443C147.565 225.601 147.606 225.773 147.644 225.958C147.682 226.145 147.716 226.337 147.747 226.535C147.779 226.733 147.798 226.92 147.806 227.096L147.212 226.859C147.195 226.688 147.172 226.512 147.142 226.332C147.112 226.151 147.079 225.977 147.042 225.809C147.006 225.641 146.967 225.481 146.925 225.331C146.884 225.181 146.845 225.049 146.808 224.934C146.758 224.919 146.708 224.901 146.658 224.881C146.607 224.861 146.555 224.84 146.504 224.819L146.017 224.625L145.412 226.14L144.869 225.924L146.394 222.104C146.562 222.128 146.743 222.172 146.936 222.234C147.13 222.296 147.305 222.359 147.462 222.421C148.006 222.639 148.38 222.906 148.583 223.225C148.786 223.544 148.807 223.907 148.644 224.313C148.542 224.57 148.386 224.762 148.178 224.891C147.968 225.019 147.713 225.075 147.413 225.059ZM147.316 222.914C147.086 222.821 146.906 222.756 146.778 222.718L146.195 224.178L146.581 224.332C146.768 224.406 146.939 224.464 147.096 224.506C147.252 224.545 147.392 224.56 147.516 224.55C147.64 224.538 147.748 224.496 147.841 224.423C147.936 224.35 148.014 224.236 148.076 224.08C148.134 223.935 148.155 223.802 148.137 223.683C148.12 223.564 148.076 223.457 148.003 223.363C147.93 223.269 147.834 223.185 147.714 223.111C147.595 223.038 147.462 222.972 147.316 222.914ZM151.547 229.926L151.042 229.536C151.098 229.351 151.156 229.171 151.216 228.997C151.275 228.822 151.334 228.644 151.394 228.462L149.898 227.306L148.946 227.916L148.465 227.544C148.862 227.294 149.23 227.063 149.571 226.851C149.912 226.64 150.239 226.443 150.551 226.258C150.864 226.073 151.166 225.9 151.459 225.738C151.752 225.576 152.047 225.42 152.346 225.271L152.769 225.598C152.7 225.925 152.624 226.25 152.541 226.574C152.457 226.898 152.366 227.234 152.266 227.584C152.167 227.933 152.057 228.298 151.938 228.681C151.82 229.064 151.69 229.48 151.547 229.926ZM150.325 227.028L151.555 227.978C151.667 227.622 151.773 227.277 151.873 226.941C151.973 226.605 152.061 226.276 152.137 225.953C151.842 226.106 151.544 226.274 151.244 226.455C150.944 226.636 150.638 226.827 150.325 227.028ZM156.98 230.02L157.37 230.509C156.931 230.666 156.521 230.806 156.141 230.932C155.761 231.058 155.398 231.174 155.052 231.28C154.705 231.388 154.372 231.486 154.051 231.576C153.729 231.665 153.408 231.75 153.088 231.831L152.746 231.403C152.896 231.108 153.051 230.815 153.209 230.522C153.368 230.228 153.537 229.923 153.717 229.607C153.897 229.293 154.09 228.963 154.295 228.619C154.501 228.275 154.73 227.907 154.982 227.516L155.384 228.02C155.024 228.585 154.68 229.131 154.352 229.66C154.024 230.188 153.728 230.699 153.464 231.192C154.001 231.047 154.564 230.873 155.153 230.669C155.743 230.465 156.352 230.249 156.98 230.02ZM156.391 232.977C156.718 232.833 157.027 232.754 157.319 232.741C157.612 232.728 157.879 232.768 158.12 232.861C158.361 232.954 158.573 233.093 158.756 233.279C158.939 233.463 159.085 233.68 159.196 233.93C159.305 234.176 159.365 234.427 159.377 234.682C159.389 234.938 159.348 235.185 159.254 235.424C159.16 235.664 159.01 235.887 158.803 236.095C158.597 236.302 158.33 236.478 158.003 236.623C157.676 236.767 157.367 236.846 157.075 236.859C156.782 236.872 156.515 236.833 156.275 236.742C156.035 236.65 155.824 236.514 155.643 236.334C155.462 236.153 155.317 235.94 155.208 235.693C155.098 235.444 155.036 235.189 155.022 234.93C155.008 234.67 155.048 234.42 155.141 234.178C155.234 233.937 155.384 233.713 155.591 233.505C155.797 233.298 156.064 233.122 156.391 232.977ZM156.639 233.539C156.408 233.641 156.21 233.764 156.047 233.906C155.884 234.049 155.761 234.204 155.677 234.37C155.592 234.537 155.549 234.714 155.547 234.902C155.545 235.09 155.586 235.281 155.672 235.475C155.758 235.67 155.871 235.828 156.012 235.951C156.15 236.073 156.31 236.159 156.49 236.208C156.67 236.259 156.868 236.272 157.082 236.246C157.297 236.222 157.521 236.158 157.752 236.056C157.984 235.953 158.181 235.831 158.344 235.688C158.507 235.547 158.631 235.392 158.714 235.225C158.799 235.058 158.843 234.882 158.846 234.697C158.85 234.511 158.808 234.321 158.722 234.126C158.636 233.932 158.523 233.772 158.382 233.648C158.242 233.523 158.082 233.436 157.901 233.386C157.722 233.336 157.524 233.324 157.309 233.348C157.094 233.373 156.871 233.436 156.639 233.539ZM119.094 242.356C119.094 241.455 119.824 240.725 120.725 240.725C121.625 240.725 122.355 241.455 122.355 242.356C122.355 243.257 121.625 243.987 120.725 243.987C119.824 243.987 119.094 243.257 119.094 242.356ZM156.645 242.356C156.645 241.455 157.375 240.725 158.276 240.725C159.177 240.725 159.907 241.455 159.907 242.356C159.907 243.257 159.177 243.987 158.276 243.987C157.375 243.987 156.645 243.257 156.645 242.356Z" fill="white"/>
<path d="M139.5 251.689C144.931 251.689 149.333 247.287 149.333 241.857C149.333 236.426 144.931 232.024 139.5 232.024C134.07 232.024 129.668 236.426 129.668 241.857C129.668 247.287 134.07 251.689 139.5 251.689Z" fill="#1FEEA2"/>
<path d="M123.305 235.175L123.133 235.611C123.029 235.613 122.896 235.618 122.734 235.625C122.571 235.633 122.395 235.64 122.206 235.647C122.018 235.655 121.824 235.666 121.622 235.679C121.42 235.693 121.229 235.705 121.05 235.717C120.871 235.729 120.71 235.741 120.565 235.755C120.422 235.77 120.311 235.784 120.233 235.795C120.657 236.011 121.121 236.232 121.625 236.46C122.128 236.688 122.637 236.915 123.153 237.139L122.943 237.672C122.613 237.524 122.28 237.374 121.947 237.221C121.612 237.068 121.284 236.914 120.963 236.759C120.642 236.605 120.33 236.452 120.027 236.301C119.725 236.15 119.44 236.002 119.174 235.857L119.361 235.382C119.565 235.346 119.802 235.314 120.071 235.285C120.342 235.258 120.621 235.235 120.911 235.215C121.201 235.196 121.49 235.181 121.778 235.169C122.065 235.156 122.327 235.145 122.564 235.134C122.397 234.965 122.213 234.779 122.012 234.574C121.81 234.37 121.609 234.162 121.409 233.95C121.211 233.738 121.022 233.53 120.843 233.325C120.665 233.121 120.514 232.936 120.389 232.771L120.576 232.295C121.878 232.661 123.21 233.074 124.571 233.537L124.362 234.069C123.831 233.883 123.304 233.701 122.781 233.525C122.256 233.349 121.766 233.195 121.309 233.063C121.358 233.125 121.43 233.21 121.525 233.319C121.621 233.427 121.73 233.547 121.853 233.677C121.976 233.808 122.107 233.947 122.246 234.095C122.384 234.242 122.52 234.382 122.652 234.516C122.785 234.65 122.908 234.776 123.022 234.892C123.136 235.007 123.23 235.102 123.305 235.175ZM127.549 229.833L127.145 230.326C126.961 230.264 126.783 230.201 126.61 230.136C126.437 230.072 126.261 230.008 126.081 229.942L124.881 231.403L125.463 232.373L125.077 232.843C124.838 232.439 124.618 232.063 124.417 231.717C124.216 231.369 124.029 231.037 123.853 230.719C123.678 230.401 123.513 230.094 123.361 229.796C123.207 229.499 123.06 229.199 122.92 228.896L123.259 228.482C123.584 228.561 123.907 228.647 124.228 228.74C124.549 228.833 124.883 228.934 125.23 229.044C125.575 229.154 125.937 229.274 126.316 229.405C126.696 229.534 127.107 229.677 127.549 229.833ZM124.616 230.968L125.602 229.767C125.25 229.645 124.908 229.529 124.575 229.418C124.242 229.308 123.916 229.211 123.595 229.125C123.74 229.425 123.898 229.727 124.071 230.032C124.243 230.338 124.424 230.65 124.616 230.968ZM128.977 226.522C129.077 226.548 129.205 226.583 129.362 226.629C129.519 226.675 129.687 226.73 129.865 226.794C130.043 226.859 130.225 226.93 130.411 227.007C130.596 227.084 130.765 227.165 130.92 227.25L130.408 227.633C130.252 227.558 130.09 227.486 129.921 227.418C129.752 227.348 129.586 227.286 129.424 227.23C129.261 227.172 129.104 227.123 128.955 227.08C128.805 227.037 128.671 227.001 128.555 226.973C128.516 227.007 128.474 227.04 128.431 227.073C128.387 227.106 128.343 227.139 128.298 227.172L127.878 227.486L128.854 228.793L128.387 229.143L125.925 225.848C126.033 225.717 126.165 225.586 126.319 225.453C126.473 225.321 126.617 225.204 126.753 225.103C127.222 224.752 127.646 224.573 128.024 224.566C128.402 224.559 128.722 224.731 128.984 225.082C129.149 225.304 129.232 225.537 129.233 225.782C129.233 226.027 129.147 226.274 128.977 226.522ZM127.097 225.484C126.898 225.633 126.749 225.752 126.649 225.841L127.59 227.1L127.923 226.851C128.084 226.731 128.223 226.615 128.34 226.503C128.455 226.391 128.541 226.279 128.597 226.168C128.651 226.056 128.672 225.942 128.658 225.824C128.646 225.706 128.589 225.579 128.489 225.445C128.395 225.319 128.292 225.233 128.181 225.185C128.071 225.137 127.957 225.12 127.839 225.133C127.721 225.146 127.599 225.184 127.473 225.248C127.348 225.311 127.222 225.39 127.097 225.484ZM132.054 226.725L130.199 222.987L130.722 222.728L132.577 226.465L132.054 226.725ZM137.409 225.142L136.789 225.292C136.68 225.132 136.576 224.975 136.476 224.819C136.377 224.664 136.274 224.506 136.17 224.346L134.332 224.791L134.214 225.916L133.623 226.059C133.676 225.593 133.726 225.161 133.773 224.763C133.822 224.364 133.872 223.986 133.923 223.627C133.974 223.267 134.027 222.923 134.085 222.593C134.141 222.263 134.204 221.935 134.274 221.609L134.793 221.483C135.005 221.741 135.212 222.004 135.412 222.271C135.613 222.538 135.819 222.82 136.03 223.116C136.24 223.412 136.457 223.726 136.681 224.058C136.907 224.389 137.149 224.751 137.409 225.142ZM134.383 224.284L135.893 223.918C135.685 223.608 135.481 223.309 135.282 223.022C135.082 222.734 134.88 222.459 134.676 222.198C134.611 222.524 134.555 222.861 134.51 223.209C134.463 223.556 134.421 223.915 134.383 224.284ZM141.71 225.27C141.627 225.26 141.536 225.247 141.439 225.231C141.342 225.215 141.245 225.197 141.148 225.177C141.052 225.157 140.956 225.135 140.862 225.112C140.768 225.088 140.682 225.061 140.605 225.032L141.098 221.015C141.181 221.005 141.27 221 141.367 221C141.464 221 141.562 221.002 141.661 221.006C141.759 221.01 141.857 221.016 141.953 221.024C142.049 221.032 142.139 221.041 142.223 221.051C142.462 221.08 142.684 221.126 142.889 221.187C143.094 221.248 143.267 221.331 143.41 221.436C143.553 221.54 143.66 221.668 143.73 221.819C143.801 221.969 143.824 222.145 143.799 222.348C143.771 222.575 143.694 222.755 143.568 222.887C143.442 223.019 143.286 223.11 143.099 223.16C143.332 223.262 143.511 223.399 143.635 223.571C143.76 223.745 143.805 223.973 143.77 224.256C143.719 224.67 143.529 224.963 143.198 225.135C142.868 225.306 142.372 225.351 141.71 225.27ZM142.154 223.329L141.408 223.237L141.228 224.696C141.272 224.705 141.324 224.715 141.382 224.727C141.434 224.737 141.495 224.747 141.565 224.758C141.633 224.768 141.714 224.779 141.805 224.791C141.977 224.812 142.141 224.821 142.297 224.818C142.453 224.815 142.592 224.793 142.714 224.751C142.836 224.709 142.939 224.642 143.021 224.551C143.103 224.46 143.153 224.339 143.172 224.188C143.189 224.052 143.177 223.935 143.136 223.836C143.096 223.736 143.031 223.652 142.94 223.583C142.849 223.515 142.737 223.461 142.604 223.421C142.472 223.38 142.322 223.35 142.154 223.329ZM141.622 221.492L141.465 222.772L142.074 222.846C142.218 222.864 142.355 222.871 142.485 222.867C142.615 222.862 142.73 222.839 142.829 222.8C142.929 222.759 143.012 222.7 143.076 222.623C143.141 222.547 143.181 222.444 143.196 222.316C143.211 222.197 143.195 222.093 143.149 222.004C143.103 221.915 143.034 221.84 142.943 221.779C142.851 221.717 142.741 221.666 142.613 221.626C142.485 221.586 142.347 221.557 142.199 221.539C142.052 221.521 141.936 221.509 141.852 221.503C141.768 221.496 141.691 221.493 141.622 221.492ZM147.413 225.059C147.443 225.157 147.479 225.285 147.522 225.443C147.565 225.601 147.606 225.773 147.644 225.958C147.682 226.145 147.716 226.337 147.747 226.535C147.779 226.733 147.798 226.92 147.806 227.096L147.212 226.859C147.195 226.688 147.172 226.512 147.142 226.332C147.112 226.151 147.079 225.977 147.042 225.809C147.006 225.641 146.967 225.481 146.925 225.331C146.884 225.181 146.845 225.049 146.808 224.934C146.758 224.919 146.708 224.901 146.658 224.881C146.607 224.861 146.555 224.84 146.504 224.819L146.017 224.625L145.412 226.14L144.869 225.924L146.394 222.104C146.562 222.128 146.743 222.172 146.936 222.234C147.13 222.296 147.305 222.359 147.462 222.421C148.006 222.639 148.38 222.906 148.583 223.225C148.786 223.544 148.807 223.907 148.644 224.313C148.542 224.57 148.386 224.762 148.178 224.891C147.968 225.019 147.713 225.075 147.413 225.059ZM147.316 222.914C147.086 222.821 146.906 222.756 146.778 222.718L146.195 224.178L146.581 224.332C146.768 224.406 146.939 224.464 147.096 224.506C147.252 224.545 147.392 224.56 147.516 224.55C147.64 224.538 147.748 224.496 147.841 224.423C147.936 224.35 148.014 224.236 148.076 224.08C148.134 223.935 148.155 223.802 148.137 223.683C148.12 223.564 148.076 223.457 148.003 223.363C147.93 223.269 147.834 223.185 147.714 223.111C147.595 223.038 147.462 222.972 147.316 222.914ZM151.547 229.926L151.042 229.536C151.098 229.351 151.156 229.171 151.216 228.997C151.275 228.822 151.334 228.644 151.394 228.462L149.898 227.306L148.946 227.916L148.465 227.544C148.862 227.294 149.23 227.063 149.571 226.851C149.912 226.641 150.239 226.443 150.551 226.258C150.864 226.073 151.166 225.9 151.459 225.738C151.752 225.576 152.047 225.42 152.346 225.271L152.769 225.598C152.7 225.925 152.624 226.25 152.541 226.574C152.457 226.898 152.366 227.234 152.266 227.584C152.167 227.933 152.057 228.298 151.938 228.681C151.82 229.064 151.69 229.48 151.547 229.926ZM150.325 227.028L151.555 227.978C151.667 227.622 151.773 227.277 151.873 226.941C151.973 226.605 152.061 226.276 152.137 225.953C151.842 226.106 151.544 226.274 151.244 226.455C150.944 226.636 150.638 226.827 150.325 227.028ZM156.98 230.02L157.37 230.509C156.931 230.666 156.521 230.806 156.141 230.932C155.761 231.058 155.398 231.174 155.052 231.28C154.705 231.388 154.372 231.486 154.051 231.576C153.729 231.665 153.408 231.75 153.088 231.831L152.746 231.403C152.896 231.108 153.051 230.815 153.209 230.522C153.368 230.228 153.537 229.923 153.717 229.607C153.897 229.293 154.09 228.963 154.295 228.619C154.501 228.275 154.73 227.907 154.982 227.516L155.384 228.02C155.024 228.585 154.68 229.131 154.352 229.66C154.024 230.188 153.728 230.699 153.464 231.192C154.001 231.047 154.564 230.873 155.153 230.669C155.743 230.465 156.352 230.249 156.98 230.02ZM156.391 232.977C156.718 232.833 157.027 232.754 157.319 232.741C157.612 232.728 157.879 232.768 158.12 232.861C158.361 232.954 158.573 233.093 158.756 233.279C158.939 233.463 159.085 233.68 159.196 233.93C159.305 234.176 159.365 234.427 159.377 234.682C159.389 234.938 159.348 235.185 159.254 235.424C159.16 235.664 159.01 235.887 158.803 236.095C158.597 236.302 158.33 236.478 158.003 236.623C157.676 236.767 157.367 236.846 157.075 236.859C156.782 236.872 156.515 236.833 156.275 236.742C156.035 236.65 155.824 236.514 155.643 236.334C155.462 236.153 155.317 235.94 155.208 235.693C155.098 235.444 155.036 235.189 155.022 234.93C155.008 234.67 155.048 234.42 155.141 234.178C155.234 233.937 155.384 233.713 155.591 233.505C155.797 233.298 156.064 233.122 156.391 232.977ZM156.639 233.539C156.408 233.641 156.21 233.764 156.047 233.906C155.884 234.049 155.761 234.204 155.677 234.37C155.592 234.537 155.549 234.714 155.547 234.902C155.545 235.09 155.586 235.281 155.672 235.475C155.758 235.67 155.871 235.828 156.012 235.951C156.15 236.073 156.31 236.159 156.49 236.208C156.67 236.259 156.868 236.272 157.082 236.246C157.297 236.222 157.521 236.158 157.752 236.056C157.984 235.953 158.181 235.831 158.344 235.688C158.507 235.547 158.631 235.392 158.714 235.225C158.799 235.058 158.843 234.882 158.846 234.697C158.85 234.511 158.808 234.321 158.722 234.126C158.636 233.932 158.523 233.772 158.382 233.648C158.242 233.523 158.082 233.436 157.901 233.386C157.722 233.336 157.524 233.324 157.309 233.348C157.094 233.373 156.871 233.436 156.639 233.539ZM119.094 242.356C119.094 241.455 119.824 240.725 120.725 240.725C121.625 240.725 122.355 241.455 122.355 242.356C122.355 243.257 121.625 243.987 120.725 243.987C119.824 243.987 119.094 243.257 119.094 242.356ZM156.645 242.356C156.645 241.455 157.375 240.725 158.276 240.725C159.177 240.725 159.907 241.455 159.907 242.356C159.907 243.257 159.177 243.987 158.276 243.987C157.375 243.987 156.645 243.257 156.645 242.356Z" fill="white"/>
</g>
</g>
</g>
</g>
</g>
</g>
<defs>
<linearGradient id="paint0_linear_935_4653" x1="303.835" y1="157.974" x2="427.675" y2="283.227" gradientUnits="userSpaceOnUse">
<stop stop-color="#09005D"/>
<stop offset="1" stop-color="#1A0F91"/>
</linearGradient>
<linearGradient id="paint1_linear_935_4653" x1="368.831" y1="311.118" x2="360.923" y2="275.217" gradientUnits="userSpaceOnUse">
<stop stop-color="#FF928E"/>
<stop offset="1" stop-color="#FEB3B1"/>
</linearGradient>
<linearGradient id="paint2_linear_935_4653" x1="336.678" y1="66.3832" x2="338.942" y2="86.2258" gradientUnits="userSpaceOnUse">
<stop stop-color="#4042E2"/>
<stop offset="1" stop-color="#4F52FF"/>
</linearGradient>
<linearGradient id="paint3_linear_935_4653" x1="382.782" y1="225.131" x2="364.211" y2="270.426" gradientUnits="userSpaceOnUse">
<stop stop-color="#FF928E"/>
<stop offset="1" stop-color="#FEB3B1"/>
</linearGradient>
<linearGradient id="paint4_linear_935_4653" x1="374.021" y1="272.092" x2="393.275" y2="309.82" gradientUnits="userSpaceOnUse">
<stop stop-color="#09005D"/>
<stop offset="1" stop-color="#1A0F91"/>
</linearGradient>
<linearGradient id="paint5_linear_935_4653" x1="313.594" y1="69.0191" x2="315.858" y2="88.8593" gradientUnits="userSpaceOnUse">
<stop stop-color="#4042E2"/>
<stop offset="1" stop-color="#4F52FF"/>
</linearGradient>
<linearGradient id="paint6_linear_935_4653" x1="369.211" y1="230.687" x2="377.124" y2="250.1" gradientUnits="userSpaceOnUse">
<stop stop-color="#FF928E"/>
<stop offset="1" stop-color="#FEB3B1"/>
</linearGradient>
<linearGradient id="paint7_linear_935_4653" x1="-579.744" y1="328.273" x2="-567.273" y2="326.976" gradientUnits="userSpaceOnUse">
<stop stop-color="#FF928E"/>
<stop offset="1" stop-color="#FEB3B1"/>
</linearGradient>
<linearGradient id="paint8_linear_935_4653" x1="305.579" y1="156.251" x2="429.419" y2="281.505" gradientUnits="userSpaceOnUse">
<stop stop-color="#09005D"/>
<stop offset="1" stop-color="#1A0F91"/>
</linearGradient>
<linearGradient id="paint9_linear_935_4653" x1="-579.507" y1="330.529" x2="-567.033" y2="329.231" gradientUnits="userSpaceOnUse">
<stop stop-color="#FF928E"/>
<stop offset="1" stop-color="#FEB3B1"/>
</linearGradient>
<linearGradient id="paint10_linear_935_4653" x1="412.548" y1="268.287" x2="374.32" y2="264.879" gradientUnits="userSpaceOnUse">
<stop stop-color="#FF928E"/>
<stop offset="1" stop-color="#FEB3B1"/>
</linearGradient>
<linearGradient id="paint11_linear_935_4653" x1="377.461" y1="310.922" x2="382.238" y2="280.818" gradientUnits="userSpaceOnUse">
<stop stop-color="#4042E2"/>
<stop offset="1" stop-color="#4F52FF"/>
</linearGradient>
<linearGradient id="paint12_linear_935_4653" x1="379.386" y1="311.227" x2="384.163" y2="281.124" gradientUnits="userSpaceOnUse">
<stop stop-color="#4042E2"/>
<stop offset="1" stop-color="#4F52FF"/>
</linearGradient>
<linearGradient id="paint13_linear_935_4653" x1="375.68" y1="310.64" x2="380.457" y2="280.537" gradientUnits="userSpaceOnUse">
<stop stop-color="#4042E2"/>
<stop offset="1" stop-color="#4F52FF"/>
</linearGradient>
<linearGradient id="paint14_linear_935_4653" x1="309.919" y1="271.042" x2="414.013" y2="271.042" gradientUnits="userSpaceOnUse">
<stop stop-color="#DAE3FE"/>
<stop offset="1" stop-color="#E9EFFD"/>
</linearGradient>
<linearGradient id="paint15_linear_935_4653" x1="315.898" y1="293.816" x2="336.446" y2="293.816" gradientUnits="userSpaceOnUse">
<stop stop-color="#DAE3FE"/>
<stop offset="1" stop-color="#E9EFFD"/>
</linearGradient>
<linearGradient id="paint16_linear_935_4653" x1="318.269" y1="293.816" x2="338.82" y2="293.816" gradientUnits="userSpaceOnUse">
<stop stop-color="#DAE3FE"/>
<stop offset="1" stop-color="#E9EFFD"/>
</linearGradient>
<linearGradient id="paint17_linear_935_4653" x1="389.769" y1="293.816" x2="410.32" y2="293.816" gradientUnits="userSpaceOnUse">
<stop stop-color="#DAE3FE"/>
<stop offset="1" stop-color="#E9EFFD"/>
</linearGradient>
<linearGradient id="paint18_linear_935_4653" x1="392.144" y1="293.816" x2="412.693" y2="293.816" gradientUnits="userSpaceOnUse">
<stop stop-color="#DAE3FE"/>
<stop offset="1" stop-color="#E9EFFD"/>
</linearGradient>
<linearGradient id="paint19_linear_935_4653" x1="483.398" y1="342.638" x2="483.957" y2="325.811" gradientUnits="userSpaceOnUse">
<stop stop-color="#4042E2"/>
<stop offset="1" stop-color="#4F52FF"/>
</linearGradient>
<linearGradient id="paint20_linear_935_4653" x1="503.426" y1="299.574" x2="468.741" y2="326.857" gradientUnits="userSpaceOnUse">
<stop stop-color="#09005D"/>
<stop offset="1" stop-color="#1A0F91"/>
</linearGradient>
<linearGradient id="paint21_linear_935_4653" x1="482.726" y1="299.989" x2="484.605" y2="316.414" gradientUnits="userSpaceOnUse">
<stop stop-color="#FF928E"/>
<stop offset="1" stop-color="#FEB3B1"/>
</linearGradient>
<linearGradient id="paint22_linear_935_4653" x1="450.719" y1="307.652" x2="484.262" y2="334.036" gradientUnits="userSpaceOnUse">
<stop stop-color="#09005D"/>
<stop offset="1" stop-color="#1A0F91"/>
</linearGradient>
<linearGradient id="paint23_linear_935_4653" x1="460.404" y1="353.045" x2="459.845" y2="336.218" gradientUnits="userSpaceOnUse">
<stop stop-color="#4042E2"/>
<stop offset="1" stop-color="#4F52FF"/>
</linearGradient>
<linearGradient id="paint24_linear_935_4653" x1="462.867" y1="302.092" x2="464.624" y2="317.455" gradientUnits="userSpaceOnUse">
<stop stop-color="#FF928E"/>
<stop offset="1" stop-color="#FEB3B1"/>
</linearGradient>
<linearGradient id="paint25_linear_935_4653" x1="473.753" y1="301.599" x2="471.646" y2="235.431" gradientUnits="userSpaceOnUse">
<stop stop-color="#09005D"/>
<stop offset="1" stop-color="#1A0F91"/>
</linearGradient>
<linearGradient id="paint26_linear_935_4653" x1="477.505" y1="185.749" x2="477.021" y2="207.417" gradientUnits="userSpaceOnUse">
<stop stop-color="#FF928E"/>
<stop offset="1" stop-color="#FEB3B1"/>
</linearGradient>
<linearGradient id="paint27_linear_935_4653" x1="479.328" y1="238.939" x2="494.35" y2="251.793" gradientUnits="userSpaceOnUse">
<stop stop-color="#FF928E"/>
<stop offset="1" stop-color="#FEB3B1"/>
</linearGradient>
<linearGradient id="paint28_linear_935_4653" x1="448.404" y1="193.882" x2="440.096" y2="197.385" gradientUnits="userSpaceOnUse">
<stop stop-color="#09005D"/>
<stop offset="1" stop-color="#1A0F91"/>
</linearGradient>
<linearGradient id="paint29_linear_935_4653" x1="440.274" y1="192.913" x2="440.892" y2="202.995" gradientUnits="userSpaceOnUse">
<stop stop-color="#FF928E"/>
<stop offset="1" stop-color="#FEB3B1"/>
</linearGradient>
<linearGradient id="paint30_linear_935_4653" x1="489.965" y1="184.585" x2="468.102" y2="190.265" gradientUnits="userSpaceOnUse">
<stop stop-color="#FF928E"/>
<stop offset="1" stop-color="#FEB3B1"/>
</linearGradient>
<linearGradient id="paint31_linear_935_4653" x1="480.504" y1="190.736" x2="464.861" y2="188.206" gradientUnits="userSpaceOnUse">
<stop stop-color="#09005D"/>
<stop offset="1" stop-color="#1A0F91"/>
</linearGradient>
<linearGradient id="paint32_linear_935_4653" x1="487.879" y1="201.508" x2="479.318" y2="189.303" gradientUnits="userSpaceOnUse">
<stop stop-color="#FF928E"/>
<stop offset="1" stop-color="#FEB3B1"/>
</linearGradient>
<linearGradient id="paint33_linear_935_4653" x1="343.985" y1="196.609" x2="350.115" y2="196.609" gradientUnits="userSpaceOnUse">
<stop stop-color="#DAE3FE"/>
<stop offset="1" stop-color="#E9EFFD"/>
</linearGradient>
<linearGradient id="paint34_linear_935_4653" x1="341.125" y1="203.55" x2="352.943" y2="203.55" gradientUnits="userSpaceOnUse">
<stop stop-color="#DAE3FE"/>
<stop offset="1" stop-color="#E9EFFD"/>
</linearGradient>
<linearGradient id="paint35_linear_935_4653" x1="361.186" y1="202.563" x2="419.541" y2="202.563" gradientUnits="userSpaceOnUse">
<stop stop-color="#DAE3FE"/>
<stop offset="1" stop-color="#E9EFFD"/>
</linearGradient>
<linearGradient id="paint36_linear_935_4653" x1="361.783" y1="208.268" x2="393.666" y2="208.268" gradientUnits="userSpaceOnUse">
<stop stop-color="#DAE3FE"/>
<stop offset="1" stop-color="#E9EFFD"/>
</linearGradient>
<linearGradient id="paint37_linear_935_4653" x1="395.662" y1="208.268" x2="419.575" y2="208.268" gradientUnits="userSpaceOnUse">
<stop stop-color="#DAE3FE"/>
<stop offset="1" stop-color="#E9EFFD"/>
</linearGradient>
<linearGradient id="paint38_linear_935_4653" x1="138.471" y1="183.667" x2="138.956" y2="311.24" gradientUnits="userSpaceOnUse">
<stop stop-color="#09005D"/>
<stop offset="1" stop-color="#1A0F91"/>
</linearGradient>
<linearGradient id="paint39_linear_935_4653" x1="133.537" y1="198.251" x2="147.19" y2="198.251" gradientUnits="userSpaceOnUse">
<stop stop-color="#4042E2"/>
<stop offset="1" stop-color="#4F52FF"/>
</linearGradient>
<linearGradient id="paint40_linear_935_4653" x1="104.481" y1="293.508" x2="111.865" y2="293.508" gradientUnits="userSpaceOnUse">
<stop stop-color="#4042E2"/>
<stop offset="1" stop-color="#4F52FF"/>
</linearGradient>
<linearGradient id="paint41_linear_935_4653" x1="87.3055" y1="301.449" x2="41.098" y2="351.802" gradientUnits="userSpaceOnUse">
<stop stop-color="#09005D"/>
<stop offset="1" stop-color="#1A0F91"/>
</linearGradient>
<linearGradient id="paint42_linear_935_4653" x1="72.2773" y1="305.181" x2="76.3885" y2="305.181" gradientUnits="userSpaceOnUse">
<stop stop-color="#FF928E"/>
<stop offset="1" stop-color="#FEB3B1"/>
</linearGradient>
<linearGradient id="paint43_linear_935_4653" x1="64.8258" y1="301.531" x2="73.881" y2="248.828" gradientUnits="userSpaceOnUse">
<stop stop-color="#09005D"/>
<stop offset="1" stop-color="#1A0F91"/>
</linearGradient>
<linearGradient id="paint44_linear_935_4653" x1="76.9198" y1="291.917" x2="30.7124" y2="342.268" gradientUnits="userSpaceOnUse">
<stop stop-color="#09005D"/>
<stop offset="1" stop-color="#1A0F91"/>
</linearGradient>
<linearGradient id="paint45_linear_935_4653" x1="57.4575" y1="304.97" x2="61.0074" y2="304.97" gradientUnits="userSpaceOnUse">
<stop stop-color="#FF928E"/>
<stop offset="1" stop-color="#FEB3B1"/>
</linearGradient>
<linearGradient id="paint46_linear_935_4653" x1="54.5505" y1="299.766" x2="63.6057" y2="247.063" gradientUnits="userSpaceOnUse">
<stop stop-color="#09005D"/>
<stop offset="1" stop-color="#1A0F91"/>
</linearGradient>
<linearGradient id="paint47_linear_935_4653" x1="89.2012" y1="198.086" x2="110.211" y2="198.086" gradientUnits="userSpaceOnUse">
<stop stop-color="#FF928E"/>
<stop offset="1" stop-color="#FEB3B1"/>
</linearGradient>
<linearGradient id="paint48_linear_935_4653" x1="105.531" y1="194.569" x2="91.4741" y2="226.607" gradientUnits="userSpaceOnUse">
<stop stop-color="#FF928E"/>
<stop offset="1" stop-color="#FEB3B1"/>
</linearGradient>
<linearGradient id="paint49_linear_935_4653" x1="92.2626" y1="204.205" x2="122.814" y2="169.225" gradientUnits="userSpaceOnUse">
<stop stop-color="#FF928E"/>
<stop offset="1" stop-color="#FEB3B1"/>
</linearGradient>
<linearGradient id="paint50_linear_935_4653" x1="68.9115" y1="198.806" x2="64.5536" y2="231.793" gradientUnits="userSpaceOnUse">
<stop stop-color="#FF928E"/>
<stop offset="1" stop-color="#FEB3B1"/>
</linearGradient>
<linearGradient id="paint51_linear_935_4653" x1="842.486" y1="467.68" x2="813.663" y2="457.251" gradientUnits="userSpaceOnUse">
<stop stop-color="#FF928E"/>
<stop offset="1" stop-color="#FEB3B1"/>
</linearGradient>
<linearGradient id="paint52_linear_935_4653" x1="58.4446" y1="-890.398" x2="57.9897" y2="-939.333" gradientUnits="userSpaceOnUse">
<stop stop-color="#09005D"/>
<stop offset="1" stop-color="#1A0F91"/>
</linearGradient>
<linearGradient id="paint53_linear_935_4653" x1="841.395" y1="470.703" x2="812.571" y2="460.275" gradientUnits="userSpaceOnUse">
<stop stop-color="#FF928E"/>
<stop offset="1" stop-color="#FEB3B1"/>
</linearGradient>
<linearGradient id="paint54_linear_935_4653" x1="64.9283" y1="242.632" x2="43.3149" y2="225.311" gradientUnits="userSpaceOnUse">
<stop stop-color="#FF928E"/>
<stop offset="1" stop-color="#FEB3B1"/>
</linearGradient>
<linearGradient id="paint55_linear_935_4653" x1="62.8735" y1="234.199" x2="54.5653" y2="237.701" gradientUnits="userSpaceOnUse">
<stop stop-color="#09005D"/>
<stop offset="1" stop-color="#1A0F91"/>
</linearGradient>
<linearGradient id="paint56_linear_935_4653" x1="57.3352" y1="234.932" x2="53.3289" y2="237.929" gradientUnits="userSpaceOnUse">
<stop stop-color="#FF928E"/>
<stop offset="1" stop-color="#FEB3B1"/>
</linearGradient>
<clipPath id="clip0_935_4653">
<rect width="545" height="317" fill="white"/>
</clipPath>
<clipPath id="clip1_935_4653">
<rect width="59" height="41.713" fill="white" transform="translate(110 221)"/>
</clipPath>
<clipPath id="clip2_935_4653">
<rect width="58.9226" height="41.713" fill="white" transform="translate(110.039 221)"/>
</clipPath>
<clipPath id="clip3_935_4653">
<rect width="58.9226" height="41.713" fill="white" transform="translate(110.039 221)"/>
</clipPath>
<clipPath id="clip4_935_4653">
<rect width="58.9226" height="41.713" fill="white" transform="translate(110.039 221)"/>
</clipPath>
<clipPath id="clip5_935_4653">
<rect width="58.9226" height="41.713" fill="white" transform="translate(110.039 221)"/>
</clipPath>
<clipPath id="clip6_935_4653">
<rect width="58.9226" height="41.713" fill="white" transform="translate(110.039 221)"/>
</clipPath>
</defs>
</svg>
