<svg width="78" height="58" viewBox="0 0 78 58" fill="none" xmlns="http://www.w3.org/2000/svg">
<path d="M38.9993 57.2165C49.1235 57.2165 57.3308 49.0092 57.3308 38.885C57.3308 28.7608 49.1235 20.5535 38.9993 20.5535C28.8751 20.5535 20.6678 28.7608 20.6678 38.885C20.6678 49.0092 28.8751 57.2165 38.9993 57.2165Z" fill="#33EFAB"/>
<path d="M8.80456 26.4274L8.48404 27.2417C8.28961 27.2448 8.04158 27.2537 7.73911 27.2678C7.43525 27.2817 7.10751 27.2951 6.75615 27.3078C6.40563 27.3231 6.04262 27.3434 5.66626 27.3684C5.29019 27.3934 4.93467 27.4167 4.59998 27.4381C4.26668 27.4603 3.9656 27.4839 3.69702 27.5095C3.42899 27.5375 3.22234 27.5625 3.07625 27.5848C3.86756 27.9858 4.73302 28.3991 5.6721 28.8246C6.6095 29.2496 7.55913 29.6712 8.52098 30.0898L8.13018 31.0825C7.51386 30.808 6.89447 30.5284 6.27204 30.2434C5.64793 29.9579 5.03661 29.6704 4.43806 29.381C3.84034 29.0938 3.25873 28.8091 2.69323 28.5266C2.1294 28.245 1.59889 27.9694 1.102 27.7L1.45113 26.8134C1.83165 26.7462 2.27327 26.6862 2.776 26.6335C3.27956 26.5829 3.80117 26.5396 4.34112 26.5032C4.88245 26.4676 5.42129 26.4388 5.95735 26.4171C6.49229 26.3929 6.98058 26.3713 7.4222 26.3518C7.11223 26.0369 6.76949 25.6888 6.39397 25.308C6.01679 24.9267 5.6421 24.5384 5.27019 24.1432C4.90023 23.7485 4.54832 23.3602 4.2153 22.9783C3.88283 22.5986 3.60036 22.2545 3.36761 21.9459L3.71674 21.059C6.14372 21.7401 8.6268 22.5117 11.1654 23.3741L10.7746 24.3667C9.78502 24.0187 8.80234 23.6807 7.82688 23.3524C6.84976 23.0233 5.93485 22.7358 5.08243 22.4897C5.17409 22.6053 5.30852 22.7647 5.48517 22.9677C5.6646 23.1696 5.86847 23.3924 6.09705 23.6357C6.32759 23.8796 6.57173 24.139 6.82976 24.4137C7.08779 24.6887 7.34026 24.95 7.58663 25.1986C7.83438 25.4491 8.06464 25.6833 8.27767 25.9005C8.48959 26.1155 8.66541 26.291 8.80456 26.4274ZM16.7177 16.4686L15.963 17.3874C15.6214 17.2722 15.2895 17.1541 14.967 17.033C14.6448 16.9144 14.316 16.7942 13.9802 16.6717L11.7423 19.3959L12.8275 21.2043L12.1081 22.08C11.6632 21.3262 11.2529 20.6263 10.8777 19.98C10.5038 19.3325 10.1536 18.7129 9.82696 18.121C9.49921 17.528 9.19285 16.9542 8.90816 16.3989C8.62236 15.8454 8.3485 15.286 8.08658 14.7208L8.71957 13.9503C9.32479 14.0975 9.92667 14.2575 10.5252 14.4305C11.1241 14.6036 11.7465 14.7924 12.3928 14.9977C13.0369 15.2029 13.7121 15.4268 14.4187 15.6696C15.1267 15.9106 15.893 16.177 16.7177 16.4686ZM11.2482 18.5837L13.0875 16.3448C12.4309 16.117 11.7926 15.9006 11.1724 15.6954C10.5522 15.4904 9.94361 15.3079 9.34617 15.1482C9.61559 15.7073 9.91084 16.2712 10.2325 16.8397C10.5527 17.4097 10.8913 17.991 11.2482 18.5837ZM19.3791 10.2948C19.5654 10.3429 19.8046 10.4093 20.0965 10.494C20.3898 10.5801 20.7025 10.6828 21.0344 10.8023C21.3677 10.9234 21.7072 11.0559 22.0527 11.2C22.3974 11.3425 22.7137 11.4936 23.0015 11.653L22.0466 12.3663C21.7572 12.2263 21.455 12.0927 21.14 11.9649C20.8239 11.8358 20.5148 11.7188 20.2123 11.6144C19.9087 11.508 19.6171 11.415 19.3377 11.3347C19.0583 11.2547 18.8097 11.1883 18.5925 11.1356C18.5197 11.1992 18.4425 11.2614 18.3608 11.3225C18.2792 11.3833 18.197 11.445 18.1139 11.5069L17.3304 12.0921L19.151 14.5294L18.2786 15.181L13.6896 9.03828C13.8916 8.79469 14.1362 8.54971 14.4232 8.30279C14.7104 8.05587 14.9801 7.83812 15.2325 7.6498C16.108 6.9957 16.8979 6.66213 17.6026 6.64907C18.3069 6.63602 18.9038 6.95654 19.3927 7.61092C19.7007 8.02366 19.8554 8.45806 19.8568 8.91496C19.8568 9.37269 19.6974 9.83264 19.3791 10.2948ZM15.8739 8.36001C15.5031 8.63721 15.2248 8.85885 15.0392 9.02522L16.7932 11.3733L17.4143 10.9095C17.7139 10.6856 17.9731 10.469 18.1911 10.2595C18.4069 10.0501 18.5666 9.84153 18.6708 9.63433C18.7725 9.42685 18.8105 9.21326 18.7855 8.99384C18.7616 8.77358 18.6564 8.53777 18.4689 8.28724C18.2939 8.05282 18.1028 7.89145 17.8959 7.80312C17.6903 7.71396 17.4776 7.68119 17.257 7.7048C17.0376 7.7298 16.8104 7.80146 16.5749 7.9195C16.3421 8.0381 16.1083 8.18475 15.8739 8.36001ZM25.1154 10.6731L21.6572 3.7052L22.6326 3.22108L26.0909 10.189L25.1154 10.6731ZM35.0997 7.72146L33.9443 8.00171C33.7407 7.70424 33.5465 7.41011 33.3615 7.11958C33.1755 6.83127 32.9849 6.53714 32.7905 6.23745L29.3642 7.06847L29.1439 9.16576L28.0421 9.43296C28.1401 8.56305 28.2334 7.75702 28.322 7.01515C28.4126 6.27272 28.5056 5.56696 28.6006 4.89786C28.6951 4.22709 28.7956 3.58438 28.902 2.96972C29.0064 2.35533 29.1239 1.74373 29.2545 1.13462L30.2238 0.899646C30.6188 1.38126 31.0034 1.87122 31.3779 2.36922C31.752 2.8675 32.1358 3.39273 32.5289 3.94545C32.9199 4.49651 33.3249 5.08173 33.7435 5.70056C34.1642 6.31883 34.6161 6.99265 35.0997 7.72146ZM29.4578 6.12218L32.2739 5.43947C31.8861 4.86258 31.5062 4.30569 31.134 3.76908C30.7618 3.23219 30.3852 2.72058 30.0041 2.2334C29.883 2.84223 29.78 3.4705 29.695 4.11794C29.6083 4.7662 29.5292 5.43419 29.4578 6.12218ZM43.1197 7.96088C42.9634 7.94172 42.7948 7.91728 42.6137 7.88756C42.4326 7.85784 42.252 7.82423 42.0718 7.78729C41.8915 7.75007 41.7138 7.70952 41.5382 7.66564C41.3624 7.62175 41.2024 7.57203 41.058 7.51704L41.9785 0.0280667C42.1321 0.0094574 42.2993 0.000291648 42.4801 1.38978e-05C42.6612 -0.000263852 42.8437 0.00362465 43.0275 0.0114016C43.2111 0.0189009 43.3928 0.0300109 43.5719 0.0447317C43.7511 0.0591747 43.9188 0.0761174 44.0752 0.0952822C44.5201 0.149999 44.9343 0.234435 45.3176 0.348868C45.6992 0.462745 46.0225 0.617452 46.288 0.812155C46.5549 1.00741 46.7544 1.24572 46.8857 1.52681C47.0177 1.80594 47.0602 2.13508 47.0138 2.51365C46.9616 2.93666 46.818 3.27163 46.5822 3.51883C46.3486 3.76436 46.0572 3.93379 45.7081 4.02711C46.1439 4.21681 46.4772 4.47234 46.7083 4.7937C46.941 5.11728 47.0249 5.54279 46.9599 6.07024C46.8652 6.84239 46.5097 7.38844 45.8939 7.70841C45.2778 8.02838 44.3532 8.11226 43.1197 7.96088ZM43.9477 4.34264L42.5553 4.17154L42.2212 6.89044C42.3032 6.90793 42.3987 6.9271 42.5081 6.94793C42.6045 6.96737 42.7178 6.98682 42.8478 7.00654C42.9761 7.02598 43.1258 7.04625 43.2967 7.06736C43.6166 7.10653 43.9224 7.12375 44.2141 7.11847C44.504 7.11291 44.7629 7.07125 44.9909 6.99265C45.219 6.91432 45.4095 6.79045 45.5628 6.62074C45.7161 6.45131 45.81 6.22578 45.8447 5.94442C45.8758 5.69083 45.8533 5.47169 45.7772 5.28671C45.7031 5.10034 45.5814 4.94369 45.4123 4.81648C45.2431 4.68927 45.0345 4.58817 44.7862 4.5129C44.5399 4.43763 44.2605 4.38096 43.9477 4.34264ZM42.9553 0.9177L42.662 3.30302L43.7983 3.44245C44.0666 3.4755 44.3216 3.48828 44.5632 3.4805C44.8071 3.47133 45.0212 3.42939 45.2056 3.35523C45.3923 3.27913 45.5456 3.16942 45.6659 3.02554C45.7861 2.88361 45.8608 2.69308 45.8903 2.45394C45.9175 2.23146 45.8881 2.03759 45.8022 1.87233C45.7161 1.70679 45.5878 1.5668 45.417 1.45265C45.2465 1.33655 45.0418 1.24128 44.8026 1.16712C44.5638 1.09296 44.3063 1.03908 44.0305 1.00519C43.7566 0.971306 43.5411 0.94853 43.3839 0.936865C43.2267 0.924921 43.0839 0.918533 42.9553 0.9177ZM53.7512 7.56731C53.8073 7.75118 53.8756 7.98977 53.9559 8.28307C54.0356 8.57804 54.1111 8.89857 54.1825 9.24409C54.2531 9.59156 54.3172 9.95013 54.375 10.3201C54.4333 10.6884 54.4697 11.037 54.4839 11.3658L53.377 10.9239C53.3454 10.604 53.3015 10.2765 53.2459 9.94124C53.1912 9.60405 53.1293 9.27936 53.0607 8.96662C52.9929 8.65248 52.9201 8.35501 52.8424 8.07476C52.7649 7.79451 52.6918 7.54815 52.6232 7.33511C52.531 7.30623 52.4377 7.27318 52.3433 7.2354C52.2485 7.19763 52.153 7.1593 52.0566 7.12097L51.1487 6.75823L50.0204 9.5835L49.0091 9.17965L51.8525 2.0587C52.1655 2.10369 52.5024 2.18452 52.8629 2.30034C53.2234 2.41644 53.5498 2.53282 53.8423 2.64975C54.8569 3.05499 55.554 3.55438 55.9329 4.14849C56.312 4.7426 56.3501 5.41892 56.0471 6.17745C55.8562 6.65574 55.5663 7.01459 55.1774 7.25429C54.7869 7.49315 54.3114 7.59759 53.7512 7.56731ZM53.5715 3.56771C53.1412 3.39579 52.8071 3.27441 52.5682 3.20303L51.4814 5.92498L52.201 6.21245C52.5485 6.35105 52.8685 6.45881 53.1609 6.53575C53.4523 6.61019 53.7134 6.63768 53.9445 6.61824C54.1747 6.59658 54.3767 6.5177 54.5505 6.3816C54.7264 6.24633 54.8722 6.03358 54.9883 5.74277C55.0969 5.47113 55.1346 5.22394 55.1019 5.00146C55.0708 4.77954 54.9874 4.58094 54.8522 4.40513C54.7164 4.23126 54.5366 4.07461 54.3128 3.93545C54.0903 3.7988 53.8431 3.67603 53.5715 3.56771ZM61.4585 16.6422L60.5177 15.9151C60.6227 15.5704 60.731 15.2349 60.8424 14.9091C60.9513 14.5836 61.0618 14.2511 61.174 13.912L58.3846 11.7561L56.6095 12.8946L55.7126 12.2013C56.4528 11.7341 57.1403 11.3033 57.7752 10.9092C58.4113 10.5162 59.0204 10.1476 59.6022 9.80376C60.185 9.45823 60.7496 9.13521 61.296 8.83413C61.8409 8.53194 62.392 8.24141 62.9491 7.96283L63.7382 8.57277C63.6091 9.18215 63.4669 9.78848 63.3119 10.392C63.1566 10.9956 62.9864 11.6233 62.8005 12.2757C62.6144 12.9254 62.4106 13.607 62.1889 14.3205C61.969 15.0355 61.7254 15.8093 61.4585 16.6422ZM59.1817 11.2381L61.4746 13.0098C61.6826 12.3468 61.8801 11.7025 62.0664 11.0764C62.2531 10.4504 62.4172 9.83653 62.5594 9.23465C62.0084 9.52045 61.4537 9.83264 60.8949 10.1709C60.3347 10.5079 59.7636 10.8636 59.1817 11.2381ZM71.5888 16.8169L72.3165 17.7291C71.4969 18.0204 70.7328 18.2832 70.0237 18.5171C69.316 18.7523 68.6394 18.9689 67.9936 19.1664C67.3479 19.3667 66.7254 19.5503 66.1269 19.7175C65.5269 19.8833 64.9287 20.0422 64.3318 20.1938L63.6941 19.3947C63.9746 18.8462 64.2626 18.2987 64.5587 17.7521C64.8537 17.2041 65.1692 16.6361 65.5055 16.0479C65.8405 15.461 66.1996 14.8463 66.5827 14.2041C66.9671 13.5634 67.3942 12.8779 67.8636 12.148L68.6138 13.0882C67.942 14.1408 67.3004 15.1599 66.6888 16.1453C66.0772 17.1308 65.5253 18.0829 65.0331 19.0014C66.0335 18.7318 67.0834 18.4071 68.1831 18.0274C69.2827 17.6474 70.4181 17.2441 71.5888 16.8169ZM70.49 22.3306C71.0997 22.0609 71.6769 21.9142 72.221 21.89C72.767 21.8653 73.2648 21.9398 73.7142 22.1136C74.1638 22.2875 74.5591 22.5469 74.9002 22.8922C75.2404 23.236 75.5137 23.6407 75.7198 24.1065C75.9228 24.5653 76.0353 25.0331 76.0575 25.5091C76.08 25.9855 76.0034 26.4465 75.8281 26.8926C75.6529 27.3389 75.3723 27.7556 74.9868 28.1428C74.6027 28.5294 74.1058 28.8574 73.4961 29.1271C72.8865 29.3968 72.3093 29.5437 71.7649 29.5679C71.2191 29.5926 70.722 29.5198 70.274 29.3493C69.8259 29.1788 69.4335 28.9252 69.096 28.5885C68.7588 28.2516 68.4886 27.8536 68.2855 27.3945C68.0795 26.9287 67.9639 26.4543 67.9386 25.9716C67.9125 25.4869 67.9864 25.0197 68.1603 24.5701C68.3342 24.1207 68.6138 23.7024 68.9994 23.3149C69.3835 22.9286 69.8801 22.6003 70.49 22.3306ZM70.953 23.3774C70.5211 23.5685 70.1534 23.7971 69.8496 24.0629C69.546 24.329 69.316 24.617 69.1596 24.9272C69.0013 25.238 68.9208 25.5683 68.9174 25.9183C68.9124 26.2688 68.9902 26.6251 69.1505 26.9876C69.311 27.3501 69.5215 27.6459 69.7829 27.8745C70.0415 28.1025 70.3392 28.2625 70.6756 28.3547C71.0111 28.4491 71.3789 28.4727 71.7794 28.4255C72.1802 28.3797 72.5968 28.2614 73.0287 28.0703C73.4606 27.8792 73.8283 27.6506 74.1319 27.3848C74.4363 27.1206 74.6663 26.8323 74.8221 26.5204C74.9801 26.2096 75.0621 25.8819 75.0676 25.5372C75.074 25.19 74.9971 24.835 74.8368 24.4726C74.6763 24.1101 74.4649 23.8129 74.2022 23.5807C73.9414 23.348 73.6425 23.1852 73.3062 23.093C72.9712 23.0002 72.6035 22.9766 72.2024 23.0222C71.8013 23.068 71.3849 23.1863 70.953 23.3774ZM0.953125 39.816C0.953125 38.137 2.31438 36.7755 3.99365 36.7755C5.67293 36.7755 7.03418 38.137 7.03418 39.816C7.03418 41.4953 5.67293 42.8566 3.99365 42.8566C2.31438 42.8566 0.953125 41.4953 0.953125 39.816ZM70.9644 39.816C70.9644 38.137 72.3257 36.7755 74.005 36.7755C75.6842 36.7755 77.0455 38.137 77.0455 39.816C77.0455 41.4953 75.6842 42.8566 74.005 42.8566C72.3257 42.8566 70.9644 41.4953 70.9644 39.816Z" fill="#343841"/>
</svg>
