<svg width="74" height="86" viewBox="0 0 74 86" fill="none" xmlns="http://www.w3.org/2000/svg">
<path d="M0.789062 0L7.38464 77.4L37.0001 86L66.6052 77.4054L73.2111 0H0.789062Z" fill="#FF5722"/>
<path d="M58.9087 25.3111H37.0011H24.1979L25.0256 35.0345H37.0011H58.0811L55.5928 64.1885L37.0011 69.5796L36.9856 69.585L18.4041 64.1885L17.1057 48.9396H26.2102L26.8879 56.8516L36.9907 59.7057L37.0011 59.7003L47.1143 56.8462L48.1696 44.5321H37.0011H16.7333L14.2812 15.8242H37.0011H59.7157L58.9087 25.3111Z" fill="#FAFAFA"/>
<path d="M0.798828 0L7.38892 77.4L36.9797 86L66.5602 77.4054L73.1607 0H0.798828Z" fill="#2196F3"/>
<path d="M59.071 25.3106L58.2388 35.034L55.7268 64.1826L36.98 69.5737L36.9644 69.5791L18.2279 64.1826L16.9202 48.9391H26.0998L26.7821 56.8457L36.9696 59.7052L36.9748 59.6998L47.1778 56.8403L48.5682 43.6662L16.4809 43.7576L15.5712 34.7491L49.3383 34.3352L50.0206 24.6925L14.6667 24.7946L14.0723 15.8237H36.98H59.8876L59.071 25.3106Z" fill="#FAFAFA"/>
</svg>
