<svg width="65" height="92" viewBox="0 0 65 92" fill="none" xmlns="http://www.w3.org/2000/svg">
<path d="M55.985 27.0769H32.549H18.8526L19.738 37.4787H32.549H55.0996L52.4378 68.6665L32.549 74.4338L32.5324 74.4395L12.6547 68.6665L11.2656 52.3538H21.0053L21.7302 60.8178L32.5379 63.8711L32.549 63.8653L43.3677 60.8121L44.4967 47.6389H32.549H10.8672L8.24414 16.9282H32.549H56.8483L55.985 27.0769Z" fill="#FAFAFA"/>
<path d="M16.5228 92.0001C25.3436 92.0001 32.5026 85.1308 32.5026 76.6668V61.3335H16.5228C7.70192 61.3335 0.542969 68.2028 0.542969 76.6668C0.542969 85.1308 7.70192 92.0001 16.5228 92.0001Z" fill="#0ACF83"/>
<path d="M0.542969 45.9993C0.542969 37.5353 7.70192 30.666 16.5228 30.666H32.5026V61.3326H16.5228C7.70192 61.3326 0.542969 54.4633 0.542969 45.9993Z" fill="#A259FF"/>
<path d="M0.539062 15.3333C0.539062 6.86931 7.69801 0 16.5189 0H32.4987V30.6666H16.5189C7.69801 30.6666 0.539062 23.7972 0.539062 15.3333Z" fill="#F24E1E"/>
<path d="M32.502 0H48.4818C57.3026 0 64.4616 6.86931 64.4616 15.3333C64.4616 23.7972 57.3026 30.6666 48.4818 30.6666H32.502V0Z" fill="#FF7262"/>
<path d="M64.4616 45.9993C64.4616 54.4633 57.3026 61.3326 48.4818 61.3326C39.6609 61.3326 32.502 54.4633 32.502 45.9993C32.502 37.5353 39.6609 30.666 48.4818 30.666C57.3026 30.666 64.4616 37.5353 64.4616 45.9993Z" fill="#1ABCFE"/>
</svg>
