<svg width="71" height="92" viewBox="0 0 71 92" fill="none" xmlns="http://www.w3.org/2000/svg">
<path d="M55.5983 27.0769H32.1623H18.4659L19.3513 37.4787H32.1623H54.7129L52.0511 68.6665L32.1623 74.4338L32.1457 74.4395L12.2679 68.6665L10.8789 52.3538H20.6186L21.3435 60.8178L32.1512 63.8711L32.1623 63.8653L42.981 60.8121L44.1099 47.6389H32.1623H10.4805L7.85742 16.9282H32.1623H56.4616L55.5983 27.0769Z" fill="#FAFAFA"/>
<path d="M6.4091 46.3048L6.3799 50.0724L12.3672 50.0724H18.3545V67.085L18.3545 84.0977H22.5894H26.8243V67.085L26.8243 50.0724H32.8115H38.7988V46.3778C38.7988 44.3334 38.755 42.6248 38.6966 42.581C38.6528 42.5226 31.3658 42.4934 22.5309 42.508L6.45291 42.5518L6.4091 46.3048Z" fill="white"/>
<path d="M60.3006 42.4449C62.6371 43.0291 64.4186 44.0659 66.0542 45.7598C66.9012 46.6652 68.157 48.3154 68.2593 48.7097C68.2885 48.8265 64.2872 51.5135 61.8631 53.0176C61.7755 53.076 61.425 52.6963 61.0307 52.1122C59.8479 50.389 58.6066 49.6443 56.7082 49.5128C53.919 49.323 52.1228 50.7833 52.1374 53.222C52.1374 53.9376 52.2396 54.3611 52.5317 54.9452C53.145 56.2157 54.2841 56.975 57.8618 58.523C64.4478 61.356 67.2662 63.2252 69.0186 65.8829C70.9754 68.8474 71.4135 73.5788 70.0846 77.0981C68.6243 80.9242 65.0028 83.5235 59.9063 84.3851C58.3291 84.6626 54.5907 84.6188 52.8968 84.3121C49.2022 83.6549 45.6974 81.8296 43.5362 79.4346C42.6892 78.5 41.039 76.0613 41.1413 75.8861C41.1851 75.8277 41.5647 75.594 41.9882 75.3458C42.3971 75.1121 43.9451 74.2213 45.4054 73.3743L48.0485 71.841L48.6035 72.6588C49.3774 73.8416 51.0714 75.4626 52.0936 76.0029C55.0288 77.5508 59.0593 77.3318 61.0453 75.5502C61.8923 74.7762 62.2428 73.9731 62.2428 72.7902C62.2428 71.7242 62.1113 71.2569 61.5564 70.4537C60.8409 69.4315 59.3806 68.5699 55.2333 66.7737C50.4873 64.7293 48.4428 63.4588 46.5736 61.4436C45.493 60.2753 44.4708 58.4061 44.0473 56.8436C43.6968 55.5439 43.6092 52.2874 43.8866 50.9732C44.8651 46.3878 48.326 43.1897 53.3203 42.2405C54.9412 41.9338 58.7088 42.0507 60.3006 42.4449Z" fill="white"/>
<path d="M16.136 92.0001C24.9569 92.0001 32.1158 85.1308 32.1158 76.6668V61.3335H16.136C7.3152 61.3335 0.15625 68.2028 0.15625 76.6668C0.15625 85.1308 7.3152 92.0001 16.136 92.0001Z" fill="#0ACF83"/>
<path d="M0.15625 45.9993C0.15625 37.5353 7.3152 30.666 16.136 30.666H32.1158V61.3326H16.136C7.3152 61.3326 0.15625 54.4633 0.15625 45.9993Z" fill="#A259FF"/>
<path d="M0.152344 15.3333C0.152344 6.86931 7.31129 0 16.1321 0H32.1119V30.6666H16.1321C7.31129 30.6666 0.152344 23.7972 0.152344 15.3333Z" fill="#F24E1E"/>
<path d="M32.1152 0H48.095C56.9159 0 64.0748 6.86931 64.0748 15.3333C64.0748 23.7972 56.9159 30.6666 48.095 30.6666H32.1152V0Z" fill="#FF7262"/>
<path d="M64.0748 45.9993C64.0748 54.4633 56.9159 61.3326 48.095 61.3326C39.2742 61.3326 32.1152 54.4633 32.1152 45.9993C32.1152 37.5353 39.2742 30.666 48.095 30.666C56.9159 30.666 64.0748 37.5353 64.0748 45.9993Z" fill="#1ABCFE"/>
</svg>
