<svg width="89" height="91" viewBox="0 0 89 91" fill="none" xmlns="http://www.w3.org/2000/svg">
<path d="M7.62109 0L14.5725 81.5753L45.7855 90.6393L76.9877 81.581L83.95 0H7.62109Z" fill="#FF5722"/>
<path d="M68.8748 26.6764H45.7853H32.2914L33.1638 36.9243H45.7853H68.0024L65.38 67.651L45.7853 73.3329L45.7689 73.3386L26.1851 67.651L24.8167 51.5795H34.4123L35.1265 59.9183L45.7744 62.9264L45.7853 62.9208L56.4441 59.9127L57.5563 46.9343H45.7853H24.4241L21.8398 16.6777H45.7853H69.7253L68.8748 26.6764Z" fill="#FAFAFA"/>
<path d="M7.62891 0L14.5745 81.5753L45.7616 90.6393L76.9378 81.581L83.8943 0H7.62891Z" fill="#2196F3"/>
<path d="M69.0434 26.6764L68.1663 36.9243L65.5188 67.6453L45.7606 73.3272L45.7443 73.3329L25.997 67.6453L24.6188 51.5795H34.2936L35.0127 59.9126L45.7497 62.9264L45.7552 62.9207L56.5086 59.907L57.974 46.0222L24.1557 46.1185L23.197 36.624L58.7857 36.1878L59.5047 26.0249L22.2437 26.1325L21.6172 16.6777H45.7606H69.9041L69.0434 26.6764Z" fill="#FAFAFA"/>
<path d="M0.708984 0H88.2892V91H0.708984V0Z" fill="#F7DF1E"/>
<path d="M23.7365 76.0463L30.4387 71.8318C31.7317 74.2138 32.9079 76.2293 35.7293 76.2293C38.4337 76.2293 40.1387 75.1301 40.1387 70.8545V41.7778H48.369V70.9754C48.369 79.8327 43.3722 83.8643 36.0821 83.8643C29.4981 83.8643 25.6763 80.3212 23.7363 76.0455" fill="black"/>
<path d="M52.8398 75.1301L59.5413 71.0985C61.3054 74.0919 63.5982 76.2908 67.6544 76.2908C71.0646 76.2908 73.2392 74.5192 73.2392 72.0758C73.2392 69.1437 71.0054 68.1052 67.2428 66.3954L65.1857 65.4784C59.2477 62.8523 55.3086 59.5538 55.3086 52.59C55.3086 46.176 60.0117 41.2891 67.3606 41.2891C72.5929 41.2891 76.3554 43.1829 79.0594 48.1308L72.6513 52.4065C71.2403 49.7801 69.7122 48.7418 67.3608 48.7418C64.9504 48.7418 63.4218 50.33 63.4218 52.4065C63.4218 54.9721 64.9504 56.0108 68.4774 57.5991L70.5348 58.5154C77.5308 61.6309 81.4698 64.8069 81.4698 71.9536C81.4698 79.6507 75.6498 83.8652 67.8309 83.8652C60.1884 83.8652 55.25 80.0782 52.84 75.1301" fill="black"/>
</svg>
