<svg width="24" height="24" viewBox="0 0 24 24" fill="none" xmlns="http://www.w3.org/2000/svg">
    <path d="M18.786 4H4.21C3.543 4 3 4.55 3 5.226v14.548A1.22 1.22 0 0 0 4.21 21h14.576c.668 0 1.214-.55 1.214-1.226V5.226C20 4.55 19.454 4 18.786 4zM8.138 18.571h-2.52v-8.113h2.524v8.113h-.004zm-1.26-9.22a1.462 1.462 0 0 1 0-2.922c.805 0 1.461.656 1.461 1.46A1.46 1.46 0 0 1 6.88 9.35zm10.705 9.22h-2.52v-3.946c0-.941-.019-2.152-1.309-2.152-1.313 0-1.514 1.025-1.514 2.084v4.014H9.72v-8.113h2.417v1.108h.035c.337-.637 1.16-1.309 2.386-1.309 2.55 0 3.025 1.681 3.025 3.867v4.447z" fill="#0077B5"/>
</svg>
