<svg width="32" height="31" viewBox="0 0 32 31" fill="none" xmlns="http://www.w3.org/2000/svg">
<path d="M28.9102 1.13662L30.3162 2.55513C31.8183 4.07063 31.8183 6.52574 30.3162 8.04123L26.9275 11.4602L20.0779 4.55559L23.4667 1.13662C24.9687 -0.378875 27.4021 -0.378875 28.9042 1.13662H28.9102ZM3.41068 21.3776L18.72 5.9256L25.5696 12.8363L10.2542 28.2822C9.85166 28.6884 9.34696 28.9854 8.80019 29.143L2.55148 30.9434C2.04678 31.0889 1.50602 30.9495 1.1335 30.5737C0.760982 30.1978 0.62279 29.6522 0.766991 29.143L2.55148 22.8386C2.7077 22.2809 3.00211 21.7777 3.40467 21.3716L3.41068 21.3776ZM15.6978 6.23476L6.92558 15.0853L1.67426 9.78103C0.550689 8.64743 0.550689 6.80459 1.67426 5.66493L6.3668 0.936578C7.49037 -0.197015 9.31691 -0.197015 10.4465 0.936578L11.6361 2.13685C11.6181 2.15504 11.5941 2.17322 11.5761 2.19141L7.7307 6.07109C7.35818 6.44693 7.35818 7.06525 7.7307 7.4411C8.10322 7.81694 8.71608 7.81694 9.0886 7.4411L12.934 3.56142C12.952 3.54324 12.97 3.51899 12.988 3.5008L15.6978 6.23476ZM25.2632 15.8855L27.9729 18.6194C27.9549 18.6376 27.9309 18.6558 27.9128 18.674L24.0675 22.5536C23.695 22.9295 23.695 23.5478 24.0675 23.9237C24.44 24.2995 25.0529 24.2995 25.4254 23.9237L29.2707 20.044C29.2888 20.0258 29.3068 20.0015 29.3248 19.9834L30.5145 21.1897C31.638 22.3233 31.638 24.1661 30.5145 25.3058L25.8219 30.0341C24.6984 31.1677 22.8718 31.1677 21.7422 30.0341L16.4909 24.736L25.2632 15.8855Z" fill="#343841"/>
</svg>
