<svg width="74" height="32" viewBox="0 0 74 32" fill="none" xmlns="http://www.w3.org/2000/svg">
<g clip-path="url(#clip0_630_2879)">
<path d="M42.7622 0C40.6225 0 38.8828 1.73849 38.8828 3.87677V21.3222C38.8828 23.4605 40.6225 25.199 42.7622 25.199H53.4307L52.7821 27.1374H48.5814C47.5085 27.1374 46.6417 28.0036 46.6417 29.0758C46.6417 30.148 47.5085 31.0142 48.5814 31.0142H64.0991C65.172 31.0142 66.0388 30.148 66.0388 29.0758C66.0388 28.0036 65.172 27.1374 64.0991 27.1374H59.8984L59.2498 25.199H69.9182C72.058 25.199 73.7976 23.4605 73.7976 21.3222V3.87677C73.7976 1.73849 72.058 0 69.9182 0H42.7622ZM69.9182 3.87677V17.4455H42.7622V3.87677H69.9182Z" fill="#343841"/>
</g>
<g clip-path="url(#clip1_630_2879)">
<path d="M15.4316 8.93627C15.4316 7.19665 16.8004 5.78229 18.4839 5.78229H33.7452C35.4287 5.78229 36.7974 7.19665 36.7974 8.93627V27.8602C36.7974 29.5998 35.4287 31.0142 33.7452 31.0142H18.4839C16.8004 31.0142 15.4316 29.5998 15.4316 27.8602V8.93627ZM27.6407 27.8602C27.6407 27.4419 27.4799 27.0408 27.1937 26.7451C26.9075 26.4493 26.5193 26.2832 26.1145 26.2832C25.7098 26.2832 25.3216 26.4493 25.0354 26.7451C24.7492 27.0408 24.5884 27.4419 24.5884 27.8602C24.5884 28.2784 24.7492 28.6795 25.0354 28.9753C25.3216 29.271 25.7098 29.4372 26.1145 29.4372C26.5193 29.4372 26.9075 29.271 27.1937 28.9753C27.4799 28.6795 27.6407 28.2784 27.6407 27.8602ZM33.7452 8.93627H18.4839V24.7062H33.7452V8.93627Z" fill="#343841"/>
</g>
<g clip-path="url(#clip2_630_2879)">
<path d="M0.863281 15.8356C0.863281 14.6396 1.83698 13.6673 3.0346 13.6673H10.6342C11.8318 13.6673 12.8055 14.6396 12.8055 15.8356V28.8458C12.8055 30.0418 11.8318 31.0142 10.6342 31.0142H3.0346C1.83698 31.0142 0.863281 30.0418 0.863281 28.8458V15.8356ZM7.92007 28.8458C7.92007 28.5583 7.80569 28.2825 7.60209 28.0792C7.39849 27.8759 7.12234 27.7616 6.83441 27.7616C6.54647 27.7616 6.27033 27.8759 6.06673 28.0792C5.86313 28.2825 5.74875 28.5583 5.74875 28.8458C5.74875 29.1334 5.86313 29.4091 6.06673 29.6124C6.27033 29.8158 6.54647 29.93 6.83441 29.93C7.12234 29.93 7.39849 29.8158 7.60209 29.6124C7.80569 29.4091 7.92007 29.1334 7.92007 28.8458ZM10.6342 15.8356H3.0346V26.6775H10.6342V15.8356Z" fill="#343841"/>
</g>
<defs>
<clipPath id="clip0_630_2879">
<rect width="34.9148" height="31.0142" fill="white" transform="translate(38.8828)"/>
</clipPath>
<clipPath id="clip1_630_2879">
<rect width="21.3658" height="25.2319" fill="white" transform="translate(15.4316 5.78229)"/>
</clipPath>
<clipPath id="clip2_630_2879">
<rect width="13.0279" height="17.3469" fill="white" transform="translate(0.320312 13.6673)"/>
</clipPath>
</defs>
</svg>
