<svg width="14" height="17" viewBox="0 0 30 34" fill="none" xmlns="http://www.w3.org/2000/svg">
<path d="M9.30862 24.9781L7.51807 22.9727C7.02552 22.4211 6.85168 21.6228 7.07187 20.883C7.24572 20.3054 7.4775 19.5525 7.75565 18.6894H1.62487C1.12653 18.6894 0.662953 18.3908 0.413782 17.9041C0.16461 17.4174 0.170405 16.8203 0.425371 16.34L3.46758 10.5965C4.22089 9.17516 5.58264 8.30551 7.05449 8.30551H11.8235C11.9626 8.04592 12.1017 7.80579 12.2407 7.57215C16.9866 -0.267673 24.0561 -0.527269 28.2746 0.342381C28.9468 0.478669 29.4683 1.06925 29.5958 1.82208C30.3723 6.55323 30.1347 14.4644 23.1405 19.7797C22.9377 19.9354 22.7175 20.0912 22.4857 20.247V25.5882C22.4857 27.2366 21.7093 28.7682 20.4402 29.6054L15.3119 33.0126C14.8831 33.2982 14.35 33.3047 13.9154 33.0256C13.4808 32.7466 13.2142 32.2338 13.2142 31.6692V24.712C12.3972 25.03 11.6844 25.2896 11.1455 25.4843C10.4965 25.718 9.78958 25.5168 9.30283 24.9781H9.30862ZM22.4857 10.9015C23.1005 10.9015 23.69 10.628 24.1247 10.1411C24.5594 9.6543 24.8036 8.99401 24.8036 8.30551C24.8036 7.61702 24.5594 6.95672 24.1247 6.46989C23.69 5.98305 23.1005 5.70954 22.4857 5.70954C21.871 5.70954 21.2814 5.98305 20.8468 6.46989C20.4121 6.95672 20.1679 7.61702 20.1679 8.30551C20.1679 8.99401 20.4121 9.6543 20.8468 10.1411C21.2814 10.628 21.871 10.9015 22.4857 10.9015Z" fill="#FFFFFF"/>
</svg>
