<svg width="113" height="88" viewBox="0 0 113 88" fill="none" xmlns="http://www.w3.org/2000/svg">
<path d="M79.1933 25.917H56.7615H43.652L44.4994 35.873H56.7615H78.3458L75.798 65.7245L56.7615 71.2446L56.7456 71.2501L37.7196 65.7245L36.3901 50.1108H45.7124L46.4063 58.2121L56.7509 61.1345L56.7615 61.129L67.1166 58.2066L68.1972 45.5979H56.7615H36.0087L33.498 16.2031H56.7615H80.0196L79.1933 25.917Z" fill="#FAFAFA"/>
<path d="M32.1114 44.3206L32.0835 47.9268L37.8142 47.9268H43.5449V64.2105V80.4941H47.5984H51.6518V64.2105V47.9268H57.3825H63.1133V44.3905C63.1133 42.4337 63.0713 40.7983 63.0154 40.7564C62.9735 40.7005 55.9988 40.6725 47.5425 40.6865L32.1533 40.7284L32.1114 44.3206Z" fill="white"/>
<path d="M83.6943 40.6264C85.9306 41.1855 87.6359 42.1779 89.2013 43.7993C90.012 44.6659 91.2141 46.2453 91.3119 46.6227C91.3399 46.7345 87.5101 49.3064 85.1898 50.746C85.106 50.8019 84.7705 50.4385 84.3931 49.8794C83.261 48.2301 82.0729 47.5173 80.2558 47.3915C77.5861 47.2098 75.8669 48.6075 75.8809 50.9417C75.8809 51.6266 75.9787 52.032 76.2583 52.5911C76.8453 53.8071 77.9356 54.5339 81.36 56.0155C87.6638 58.7271 90.3615 60.5162 92.0388 63.0601C93.9117 65.8975 94.3311 70.4262 93.0591 73.7948C91.6614 77.4568 88.195 79.9448 83.3169 80.7695C81.8073 81.0351 78.2291 80.9931 76.6077 80.6996C73.0714 80.0706 69.7169 78.3234 67.6482 76.0311C66.8375 75.1366 65.2581 72.8024 65.3559 72.6346C65.3978 72.5787 65.7613 72.3551 66.1666 72.1175C66.558 71.8938 68.0396 71.0412 69.4373 70.2305L71.9672 68.7629L72.4984 69.5456C73.2392 70.6778 74.8605 72.2293 75.839 72.7465C78.6484 74.2281 82.5062 74.0184 84.4071 72.3132C85.2178 71.5724 85.5532 70.8036 85.5532 69.6714C85.5532 68.6511 85.4274 68.2038 84.8963 67.435C84.2114 66.4566 82.8137 65.632 78.8441 63.9127C74.3014 61.9559 72.3446 60.7399 70.5555 58.811C69.5212 57.6928 68.5428 55.9037 68.1374 54.4081C67.802 53.1641 67.7181 50.0472 67.9837 48.7892C68.9201 44.4003 72.2328 41.3392 77.0131 40.4307C78.5645 40.1372 82.1707 40.249 83.6943 40.6264Z" fill="white"/>
<path d="M96.7356 50.5321C92.8371 50.5552 89.4613 51.5411 86.6299 53.0089C85.5845 50.8304 84.5391 48.9269 84.3651 47.5053C84.1691 45.8542 83.9295 44.845 84.1691 42.8731C84.4084 40.9008 85.4974 38.1031 85.4974 37.8738C85.4754 37.6674 85.2576 36.6584 83.0145 36.6355C80.7715 36.6126 78.8329 37.0941 78.6151 37.7133C78.3973 38.3324 77.9617 39.7542 77.6786 41.2218C77.2865 43.3774 73.192 51.0136 70.8616 55.0267C70.0993 53.4673 69.4459 52.0914 69.315 50.9905C69.1192 49.3396 68.8794 48.3304 69.1192 46.3585C69.3588 44.3862 70.4478 41.5887 70.4478 41.3594C70.426 41.153 70.2082 40.144 67.9651 40.1211C65.7216 40.0982 63.7835 40.5797 63.5657 41.1989C63.3479 41.818 63.1083 43.2857 62.6292 44.7074C62.1716 46.1292 56.7267 58.8792 55.311 62.2043C54.5923 63.9012 53.9609 65.2542 53.5033 66.1715C53.046 67.0887 53.4816 66.2403 53.438 66.332C53.046 67.1117 52.8282 67.5474 52.8282 67.5474V67.5705C52.5233 68.1438 52.1966 68.694 52.0439 68.694C51.935 68.694 51.7172 67.1575 52.0874 65.048C52.8933 60.622 54.8534 53.7198 54.8319 53.4676C54.8319 53.3529 55.2019 52.1373 53.5685 51.5184C51.9786 50.8992 51.4125 51.9311 51.2816 51.9311C51.1509 51.9311 51.042 52.298 51.042 52.298C51.042 52.298 52.8062 44.5244 47.6662 44.5244C44.4428 44.5244 39.9998 48.2164 37.8001 51.5874C36.4062 52.39 33.4442 54.0867 30.308 55.8985C29.1101 56.5865 27.8687 57.3203 26.6926 57.9853L26.4532 57.7097C20.2243 50.7155 8.70293 45.7623 9.18207 36.3603C9.35631 32.9435 10.4888 23.9313 31.3103 13.0159C48.3636 4.07252 62.0193 6.52621 64.3931 11.9839C67.7689 19.7807 57.097 34.2735 39.3687 36.3603C32.617 37.1629 29.0667 34.4111 28.174 33.3792C27.2375 32.3014 27.1068 32.2555 26.7583 32.4619C26.1921 32.783 26.5405 33.7461 26.7583 34.3194C27.281 35.7641 29.459 38.3324 33.1615 39.6166C36.4064 40.7403 44.3344 41.3594 53.9174 37.461C64.6547 33.0811 73.0398 20.9273 70.5787 10.7686C68.074 0.42639 51.783 -2.9675 36.3849 2.78835C27.2155 6.2281 17.284 11.5941 10.1404 18.6341C1.64637 26.9813 0.296042 34.2735 0.862309 37.3005C2.84446 48.1013 16.9791 55.1413 22.6418 60.3468C22.3587 60.5071 22.0973 60.6676 21.8577 60.8055C19.0264 62.2729 8.24556 68.2124 5.5449 74.4954C2.49577 81.6043 6.02405 86.7182 8.37623 87.4062C15.6506 89.5388 23.0992 85.7092 27.1284 79.403C31.1356 73.0968 30.6566 64.9102 28.8054 61.1724L28.7398 61.0348L30.9613 59.6589C32.399 58.7645 33.8147 57.939 35.0559 57.2279C34.3592 59.2229 33.858 61.5849 33.5969 65.0247C33.292 69.0609 34.8601 74.2891 36.9291 76.3529C37.8439 77.247 38.9329 77.2702 39.608 77.2702C42.0038 77.2702 43.0927 75.1832 44.2906 72.6838C45.7716 69.6339 47.0784 66.1024 47.0784 66.1024C47.0784 66.1024 45.4449 75.665 49.9097 75.665C51.5432 75.665 53.1766 73.4406 53.9171 72.294V72.3169C53.9171 72.3169 53.9607 72.2481 54.0478 72.0876C54.1392 71.9453 54.2264 71.8001 54.3092 71.6521V71.6063C54.9626 70.4138 56.4218 67.685 58.5997 63.1674C61.4091 57.3428 64.1099 50.0505 64.1099 50.0505C64.1099 50.0505 64.3713 51.8392 65.1771 54.7744C65.6561 56.5175 66.7015 58.4206 67.5073 60.278C66.8539 61.2412 66.4619 61.7918 66.4619 61.7918L66.4837 61.8147C65.9612 62.5485 65.3729 63.3284 64.7633 64.1078C62.5418 66.9055 59.8847 70.0932 59.5363 71.0105C59.1224 72.0881 59.2096 72.8907 60.0154 73.533C60.6034 73.9916 61.6489 74.0831 62.7596 73.9916C64.7633 73.8538 66.1572 73.3266 66.8542 73.0053C67.9431 72.5926 69.1846 71.9734 70.3824 71.0561C72.5604 69.3594 73.8889 66.9516 73.7583 63.7412C73.6929 61.9754 73.1484 60.2326 72.4733 58.5815C72.6693 58.2834 72.8655 57.9851 73.0613 57.6643C76.5025 52.3668 79.1596 46.5424 79.1596 46.5424C79.1596 46.5424 79.4209 48.3311 80.2268 51.2663C80.6404 52.7569 81.4682 54.3853 82.2087 55.9905C78.9853 58.7652 76.9598 61.9757 76.2629 64.0854C74.9779 67.9838 75.9798 69.7495 77.8746 70.1623C78.7238 70.3457 79.9436 69.933 80.8582 69.5202C81.9907 69.1303 83.3628 68.4651 84.6262 67.4793C86.8042 65.7823 88.895 63.4204 88.7861 60.2329C88.7208 58.7652 88.3505 57.3205 87.8496 55.9446C90.5938 54.7522 94.1436 54.0642 98.6522 54.6375C108.344 55.83 110.261 62.205 109.891 64.8651C109.52 67.5254 107.495 68.9928 106.82 69.4514C106.144 69.8871 105.927 70.0478 105.992 70.3687C106.079 70.8504 106.384 70.8273 106.972 70.7358C107.778 70.598 112.068 68.5573 112.243 63.6501C112.504 57.343 106.82 50.4635 96.7356 50.5321V50.5321ZM21.9884 77.064C18.7868 80.756 14.2785 82.1548 12.3619 80.9624C10.2928 79.7011 11.0985 74.2663 15.0408 70.345C17.4365 67.9601 20.551 65.7587 22.5982 64.4057C23.0556 64.1076 23.7526 63.6722 24.5802 63.1445C24.7109 63.053 24.798 63.0069 24.798 63.0069C24.9504 62.9152 25.1247 62.8005 25.2989 62.6859C26.7581 68.2812 25.3642 73.1886 21.9884 77.064V77.064ZM45.4014 60.301C44.2906 63.1674 41.9384 70.5285 40.5228 70.1157C39.3029 69.7717 38.5626 64.1993 40.283 58.6957C41.1541 55.9208 43.0054 52.6189 44.0944 51.3345C45.8587 49.2706 47.7751 48.5827 48.2545 49.4311C48.8207 50.5321 46.0983 58.5123 45.4014 60.301ZM64.7198 70.024C64.2406 70.2765 63.805 70.4597 63.609 70.3223C63.4566 70.2306 63.8048 69.8866 63.8048 69.8866C63.8048 69.8866 66.2223 67.1578 67.1806 65.8965C67.7251 65.1629 68.3785 64.3145 69.0755 63.3511V63.6263C69.0757 66.9282 66.0701 69.1297 64.7198 70.024ZM79.6167 66.4467C79.2683 66.1715 79.312 65.323 80.4879 62.6629C80.9455 61.6081 81.9907 59.8423 83.7984 58.1683C84.0162 58.8563 84.1471 59.5211 84.1251 60.1404C84.1035 64.2681 81.3157 65.8046 79.6167 66.4467Z" fill="#CF649A"/>
</svg>
