<svg width="93" height="92" viewBox="0 0 93 92" fill="none" xmlns="http://www.w3.org/2000/svg">
<path d="M8.07031 0L15.0877 82.35L46.5972 91.5L78.0956 82.3557L85.124 0H8.07031Z" fill="#FF5722"/>
<path d="M69.9054 26.93H46.5967H32.9747L33.8553 37.2752H46.5967H69.0248L66.3774 68.2937L46.5967 74.0296L46.5802 74.0354L26.8104 68.2937L25.4289 52.0696H35.1157L35.8367 60.4876L46.5857 63.5243L46.5967 63.5186L57.3567 60.4819L58.4794 47.3803H46.5967H25.0326L22.4238 16.8364H46.5967H70.764L69.9054 26.93Z" fill="#FAFAFA"/>
<path d="M8.08008 0L15.0916 82.35L46.5749 91.5L78.0471 82.3557L85.0697 0H8.08008Z" fill="#2196F3"/>
<path d="M70.0777 26.9295L69.1923 37.2747L66.5197 68.2875L46.5739 74.0234L46.5574 74.0291L26.6226 68.2875L25.2313 52.0691H34.9979L35.7238 60.4814L46.5629 63.5238L46.5684 63.5181L57.4239 60.4757L58.9032 46.459L24.7638 46.5563L23.796 36.9716L59.7226 36.5313L60.4485 26.2719L22.8336 26.3805L22.2012 16.8359H46.5739H70.9466L70.0777 26.9295Z" fill="#FAFAFA"/>
<path d="M0.75 45.75V91.5H46.5H92.25V45.75V0H46.5H0.75V45.75Z" fill="#007ACC"/>
<path d="M20.9835 46.0535L20.9544 49.8006L26.9092 49.8006H32.8639V66.7209V83.6411H37.0758H41.2877V66.7209V49.8006H47.2425H53.1973V46.1261C53.1973 44.0928 53.1537 42.3935 53.0956 42.3499C53.052 42.2918 45.8046 42.2628 37.0177 42.2773L21.027 42.3209L20.9835 46.0535Z" fill="white"/>
<path d="M74.5812 42.2147C76.905 42.7957 78.677 43.8269 80.3036 45.5116C81.146 46.4121 82.395 48.0533 82.4967 48.4455C82.5258 48.5616 78.5462 51.234 76.1353 52.73C76.0481 52.7881 75.6996 52.4105 75.3074 51.8295C74.131 50.1157 72.8965 49.375 71.0084 49.2443C68.2343 49.0555 66.4479 50.5078 66.4624 52.9333C66.4624 53.645 66.5641 54.0662 66.8546 54.6471C67.4646 55.9107 68.5974 56.6659 72.1558 58.2055C78.706 61.0231 81.5091 62.8821 83.252 65.5255C85.1981 68.4738 85.6339 73.1795 84.3122 76.6797C82.8598 80.485 79.2579 83.0702 74.1891 83.9271C72.6205 84.2031 68.9024 84.1595 67.2177 83.8545C63.5431 83.2009 60.0574 81.3855 57.9079 79.0036C57.0655 78.074 55.4243 75.6486 55.526 75.4743C55.5696 75.4162 55.9472 75.1838 56.3684 74.9369C56.775 74.7045 58.3146 73.8186 59.767 72.9762L62.3958 71.4512L62.9477 72.2645C63.7174 73.4409 65.4022 75.0531 66.4189 75.5905C69.3381 77.13 73.3467 76.9121 75.3219 75.1402C76.1643 74.3705 76.5129 73.5716 76.5129 72.3952C76.5129 71.335 76.3822 70.8702 75.8303 70.0714C75.1186 69.0547 73.6662 68.1978 69.5415 66.4114C64.8212 64.3781 62.7879 63.1145 60.9289 61.1102C59.8541 59.9483 58.8374 58.0893 58.4162 56.5352C58.0677 55.2426 57.9805 52.0038 58.2565 50.6966C59.2296 46.1362 62.6717 42.9555 67.6389 42.0114C69.251 41.7064 72.9981 41.8226 74.5812 42.2147Z" fill="white"/>
</svg>
