<svg width="86" height="86" viewBox="0 0 86 86" fill="none" xmlns="http://www.w3.org/2000/svg">
<g clip-path="url(#clip0_909_23460)">
<path d="M43 86C66.7482 86 86 66.7482 86 43C86 19.2518 66.7482 0 43 0C19.2518 0 0 19.2518 0 43C0 66.7482 19.2518 86 43 86Z" fill="#4353FF"/>
<path d="M55.6304 37.8938L51.7335 50.1756C51.7335 49.235 49.046 28.8638 49.046 28.8638C42.8648 28.8638 39.586 33.2444 37.866 37.8938L33.1091 50.2025C33.1091 49.3156 32.4373 38.0013 32.4373 38.0013C32.2078 35.5519 31.0881 33.2718 29.2901 31.5927C27.4922 29.9137 25.1409 28.9523 22.6816 28.8906L27.7341 59.7431C34.1841 59.7431 37.6779 55.3625 39.4785 50.7131L43.5098 40.2319C43.5098 40.6619 46.1973 59.7431 46.1973 59.7431C48.8348 59.7397 51.4026 58.8966 53.5287 57.3358C55.6549 55.775 57.2287 53.5778 58.0223 51.0625L67.1598 28.8638C60.7098 28.8638 57.3235 33.2444 55.6035 37.8938H55.6304Z" fill="white"/>
</g>
<defs>
<clipPath id="clip0_909_23460">
<rect width="86" height="86" fill="white"/>
</clipPath>
</defs>
</svg>
